%TF.GenerationSoftware,KiCad,Pcbnew,10.0.3*%
%TF.CreationDate,2026-06-15T14:42:17+02:00*%
%TF.ProjectId,Hub,4875622e-6b69-4636-9164-5f7063625858,rev?*%
%TF.SameCoordinates,Original*%
%TF.FileFunction,Copper,L2,Bot*%
%TF.FilePolarity,Positive*%
%FSLAX46Y46*%
G04 Gerber Fmt 4.6, Leading zero omitted, Abs format (unit mm)*
G04 Created by KiCad (PCBNEW 10.0.3) date 2026-06-15 14:42:17*
%MOMM*%
%LPD*%
G01*
G04 APERTURE LIST*
G04 Aperture macros list*
%AMRoundRect*
0 Rectangle with rounded corners*
0 $1 Rounding radius*
0 $2 $3 $4 $5 $6 $7 $8 $9 X,Y pos of 4 corners*
0 Add a 4 corners polygon primitive as box body*
4,1,4,$2,$3,$4,$5,$6,$7,$8,$9,$2,$3,0*
0 Add four circle primitives for the rounded corners*
1,1,$1+$1,$2,$3*
1,1,$1+$1,$4,$5*
1,1,$1+$1,$6,$7*
1,1,$1+$1,$8,$9*
0 Add four rect primitives between the rounded corners*
20,1,$1+$1,$2,$3,$4,$5,0*
20,1,$1+$1,$4,$5,$6,$7,0*
20,1,$1+$1,$6,$7,$8,$9,0*
20,1,$1+$1,$8,$9,$2,$3,0*%
G04 Aperture macros list end*
%TA.AperFunction,ComponentPad*%
%ADD10RoundRect,0.249999X0.850001X-0.850001X0.850001X0.850001X-0.850001X0.850001X-0.850001X-0.850001X0*%
%TD*%
%TA.AperFunction,ComponentPad*%
%ADD11C,2.200000*%
%TD*%
%TA.AperFunction,ComponentPad*%
%ADD12C,1.600000*%
%TD*%
%TA.AperFunction,ComponentPad*%
%ADD13C,1.500000*%
%TD*%
%TA.AperFunction,ComponentPad*%
%ADD14C,2.000000*%
%TD*%
%TA.AperFunction,ComponentPad*%
%ADD15R,1.665000X1.665000*%
%TD*%
%TA.AperFunction,ComponentPad*%
%ADD16C,1.665000*%
%TD*%
%TA.AperFunction,ComponentPad*%
%ADD17R,3.000000X3.000000*%
%TD*%
%TA.AperFunction,ComponentPad*%
%ADD18RoundRect,0.249999X-0.850001X-0.850001X0.850001X-0.850001X0.850001X0.850001X-0.850001X0.850001X0*%
%TD*%
%TA.AperFunction,ComponentPad*%
%ADD19RoundRect,0.249999X-0.850001X0.850001X-0.850001X-0.850001X0.850001X-0.850001X0.850001X0.850001X0*%
%TD*%
%TA.AperFunction,ComponentPad*%
%ADD20C,2.540000*%
%TD*%
%TA.AperFunction,ComponentPad*%
%ADD21C,1.524000*%
%TD*%
%TA.AperFunction,ViaPad*%
%ADD22C,1.100000*%
%TD*%
%TA.AperFunction,Conductor*%
%ADD23C,1.000000*%
%TD*%
%TA.AperFunction,Conductor*%
%ADD24C,0.200000*%
%TD*%
%TA.AperFunction,Profile*%
%ADD25C,0.050000*%
%TD*%
G04 APERTURE END LIST*
D10*
%TO.P,D3,1,K_1*%
%TO.N,+5V*%
X108000000Y-66350000D03*
D11*
%TO.P,D3,2,A_2*%
%TO.N,Net-(D3-A)*%
X108000000Y-53650000D03*
%TD*%
D12*
%TO.P,C2,1*%
%TO.N,GNDREF*%
X135000000Y-50250000D03*
%TO.P,C2,2*%
%TO.N,+5V*%
X135000000Y-57750000D03*
%TD*%
%TO.P,R3,1*%
%TO.N,Net-(IC1-IO4)*%
X90170000Y-120250000D03*
%TO.P,R3,2*%
%TO.N,Net-(Q2-B)*%
X100330000Y-120250000D03*
%TD*%
D13*
%TO.P,Q2,1,E_1*%
%TO.N,GNDREF*%
X105300000Y-122770000D03*
%TO.P,Q2,2,B_2*%
%TO.N,Net-(Q2-B)*%
X104000000Y-121500000D03*
%TO.P,Q2,3,C_3*%
%TO.N,Net-(D1-A)*%
X105300000Y-120230000D03*
%TD*%
D12*
%TO.P,R7,1*%
%TO.N,Net-(IC1-D2)*%
X118000000Y-66580000D03*
%TO.P,R7,2*%
%TO.N,Net-(Q1-B)*%
X118000000Y-56420000D03*
%TD*%
D14*
%TO.P,U7,1,1_1*%
%TO.N,Net-(R2-Pad2)*%
X125000000Y-44750000D03*
%TO.P,U7,2,2_2*%
%TO.N,GNDREF*%
X120000000Y-44750000D03*
%TD*%
D12*
%TO.P,R5,1*%
%TO.N,Net-(JP1-B)*%
X160330000Y-50500000D03*
%TO.P,R5,2*%
%TO.N,Net-(IC2-CANL)*%
X150170000Y-50500000D03*
%TD*%
D14*
%TO.P,U9,1,1_1*%
%TO.N,Net-(IC2-CANH)*%
X157000000Y-45000000D03*
%TO.P,U9,2,2_2*%
%TO.N,Net-(IC2-CANL)*%
X152000000Y-45000000D03*
%TD*%
D12*
%TO.P,C1,1*%
%TO.N,GNDREF*%
X139750000Y-50250000D03*
%TO.P,C1,2*%
%TO.N,+5V*%
X139750000Y-57750000D03*
%TD*%
D13*
%TO.P,Q1,1,E_1*%
%TO.N,GNDREF*%
X114270000Y-60658000D03*
%TO.P,Q1,2,B_2*%
%TO.N,Net-(Q1-B)*%
X113000000Y-61958000D03*
%TO.P,Q1,3,C_3*%
%TO.N,Net-(D3-A)*%
X111730000Y-60658000D03*
%TD*%
D15*
%TO.P,U5,1,VCC_1*%
%TO.N,+3.3V*%
X135770000Y-101075000D03*
D16*
%TO.P,U5,2,GND_2*%
%TO.N,GNDREF*%
X135770000Y-103615000D03*
%TO.P,U5,3,MISO/AD0_3*%
%TO.N,Net-(IC1-IO19)*%
X135770000Y-106155000D03*
%TO.P,U5,4,MOSI/SDA_4*%
%TO.N,Net-(IC1-IO23)*%
X135770000Y-108695000D03*
%TO.P,U5,5,SCLK/SCL_5*%
%TO.N,Net-(IC1-IO18)*%
X135770000Y-111235000D03*
%TO.P,U5,6,CSB1/NC_6*%
%TO.N,Net-(IC1-IO26)*%
X135770000Y-113775000D03*
%TO.P,U5,7,CSB2/NC_7*%
%TO.N,Net-(IC1-IO22)*%
X135770000Y-116315000D03*
%TO.P,U5,8,INT1_8*%
%TO.N,Net-(IC1-VN)*%
X135770000Y-118855000D03*
%TO.P,U5,9,INT3_9*%
%TO.N,Net-(IC1-VP)*%
X135770000Y-121395000D03*
%TD*%
D14*
%TO.P,U4,1,1_1*%
%TO.N,Net-(IC2-CANH)*%
X147000000Y-45000000D03*
%TO.P,U4,2,2_2*%
%TO.N,Net-(IC2-CANL)*%
X142000000Y-45000000D03*
%TD*%
%TO.P,U6,1,1_1*%
%TO.N,+12V*%
X115000000Y-44750000D03*
%TO.P,U6,2,2_2*%
%TO.N,Net-(D2-A)*%
X110000000Y-44750000D03*
%TD*%
%TO.P,U10,1,1_1*%
%TO.N,GNDREF*%
X95000000Y-44750000D03*
%TO.P,U10,2,2_2*%
%TO.N,Vin*%
X90000000Y-44750000D03*
%TD*%
D17*
%TO.P,U8,1,12V_1*%
%TO.N,+12V*%
X103250000Y-64750000D03*
%TO.P,U8,2,GND_2*%
%TO.N,GNDREF*%
X82750000Y-64750000D03*
%TO.P,U8,3,5v_3*%
%TO.N,+5V*%
X103250000Y-115250000D03*
%TO.P,U8,4,GND_4*%
%TO.N,GNDREF*%
X82750000Y-115250000D03*
%TD*%
D12*
%TO.P,R1,1*%
%TO.N,GNDREF*%
X173830000Y-50500000D03*
%TO.P,R1,2*%
%TO.N,Net-(IC2-S)*%
X163670000Y-50500000D03*
%TD*%
%TO.P,R2,1*%
%TO.N,Net-(IC1-IO12)*%
X120420000Y-50750000D03*
%TO.P,R2,2*%
%TO.N,Net-(R2-Pad2)*%
X130580000Y-50750000D03*
%TD*%
D14*
%TO.P,U3,1,1_1*%
%TO.N,GNDREF*%
X105000000Y-44750000D03*
%TO.P,U3,2,2_2*%
%TO.N,Vin*%
X100000000Y-44750000D03*
%TD*%
D18*
%TO.P,D2,1,K_1*%
%TO.N,+12V*%
X105150000Y-50500000D03*
D11*
%TO.P,D2,2,A_2*%
%TO.N,Net-(D2-A)*%
X117850000Y-50500000D03*
%TD*%
D16*
%TO.P,JP1,1,A_1*%
%TO.N,Net-(IC2-CANH)*%
X162000000Y-42960000D03*
%TO.P,JP1,2,B_2*%
%TO.N,Net-(JP1-B)*%
X162000000Y-45500000D03*
%TO.P,JP1,NC*%
%TO.N,N/C*%
X162000000Y-48000000D03*
%TD*%
D19*
%TO.P,D1,1,K_1*%
%TO.N,+12V*%
X107500000Y-104150000D03*
D11*
%TO.P,D1,2,A_2*%
%TO.N,Net-(D1-A)*%
X107500000Y-116850000D03*
%TD*%
D20*
%TO.P,LS1,1,+_1*%
%TO.N,+12V*%
X121250000Y-106000000D03*
%TO.P,LS1,2,-_2*%
%TO.N,Net-(D1-A)*%
X121250000Y-120500000D03*
%TD*%
D12*
%TO.P,R4,1*%
%TO.N,Net-(D2-A)*%
X111420000Y-53750000D03*
%TO.P,R4,2*%
%TO.N,Net-(IC1-IO35)*%
X121580000Y-53750000D03*
%TD*%
D21*
%TO.P,U2,1,VDD_1*%
%TO.N,+3.3V*%
X169620000Y-79335000D03*
%TO.P,U2,2,GND_2*%
%TO.N,GNDREF*%
X167080000Y-79335000D03*
%TO.P,U2,3,SCL_3*%
%TO.N,Net-(IC1-IO14)*%
X164540000Y-79335000D03*
%TO.P,U2,4,SDI_4*%
%TO.N,Net-(IC1-IO13)*%
X162000000Y-79335000D03*
%TO.P,U2,5,INT_5*%
%TO.N,Net-(IC1-IO21)*%
X161880000Y-91665000D03*
%TO.P,U2,6,CSB_6*%
%TO.N,Net-(IC1-IO5)*%
X164420000Y-91665000D03*
%TO.P,U2,7,SDO_7*%
%TO.N,Net-(IC1-IO27)*%
X166960000Y-91665000D03*
%TO.P,U2,8,GND_8*%
%TO.N,GNDREF*%
X169500000Y-91665000D03*
%TD*%
D12*
%TO.P,R6,1*%
%TO.N,GNDREF*%
X130750000Y-63830000D03*
%TO.P,R6,2*%
%TO.N,Net-(IC1-IO35)*%
X130750000Y-53670000D03*
%TD*%
D16*
%TO.P,J1,1,GND_1*%
%TO.N,GNDREF*%
X167250000Y-56500000D03*
%TO.P,J1,2,5V_2*%
%TO.N,+5V*%
X167250000Y-58500000D03*
%TO.P,J1,3,D1_3*%
%TO.N,Net-(IC1-IO33)*%
X167250000Y-60500000D03*
%TO.P,J1,4,D2_4*%
%TO.N,Net-(IC1-IO32)*%
X167250000Y-62500000D03*
%TD*%
D15*
%TO.P,IC1,1,3V3_1*%
%TO.N,+3.3V*%
X154410000Y-70100000D03*
D16*
%TO.P,IC1,2,EN_2*%
%TO.N,unconnected-(IC1-EN-Pad2)*%
X151870000Y-70100000D03*
%TO.P,IC1,3,VP_3*%
%TO.N,Net-(IC1-VP)*%
X149330000Y-70100000D03*
%TO.P,IC1,4,VN_4*%
%TO.N,Net-(IC1-VN)*%
X146790000Y-70100000D03*
%TO.P,IC1,5,IO34_5*%
%TO.N,Net-(IC1-IO34)*%
X144250000Y-70100000D03*
%TO.P,IC1,6,IO35_6*%
%TO.N,Net-(IC1-IO35)*%
X141710000Y-70100000D03*
%TO.P,IC1,7,IO32_7*%
%TO.N,Net-(IC1-IO32)*%
X139170000Y-70100000D03*
%TO.P,IC1,8,IO33_8*%
%TO.N,Net-(IC1-IO33)*%
X136630000Y-70100000D03*
%TO.P,IC1,9,IO25_9*%
%TO.N,Net-(IC1-IO25)*%
X134090000Y-70100000D03*
%TO.P,IC1,10,IO26_10*%
%TO.N,Net-(IC1-IO26)*%
X131550000Y-70100000D03*
%TO.P,IC1,11,IO27_11*%
%TO.N,Net-(IC1-IO27)*%
X129010000Y-70100000D03*
%TO.P,IC1,12,IO14_12*%
%TO.N,Net-(IC1-IO14)*%
X126470000Y-70100000D03*
%TO.P,IC1,13,IO12_13*%
%TO.N,Net-(IC1-IO12)*%
X123930000Y-70100000D03*
%TO.P,IC1,14,GND_1_14*%
%TO.N,GNDREF*%
X121390000Y-70100000D03*
%TO.P,IC1,15,IO13_15*%
%TO.N,Net-(IC1-IO13)*%
X118850000Y-70100000D03*
%TO.P,IC1,16,D2_16*%
%TO.N,Net-(IC1-D2)*%
X116310000Y-70100000D03*
%TO.P,IC1,17,D3_17*%
%TO.N,unconnected-(IC1-D3-Pad17)*%
X113770000Y-70100000D03*
%TO.P,IC1,18,CMD_18*%
%TO.N,unconnected-(IC1-CMD-Pad18)*%
X111230000Y-70100000D03*
%TO.P,IC1,19,5V_19*%
%TO.N,+5V*%
X108690000Y-70100000D03*
%TO.P,IC1,20,CLK_20*%
%TO.N,unconnected-(IC1-CLK-Pad20)*%
X108690000Y-95500000D03*
%TO.P,IC1,21,D0_21*%
%TO.N,unconnected-(IC1-D0-Pad21)*%
X111230000Y-95500000D03*
%TO.P,IC1,22,D1_22*%
%TO.N,unconnected-(IC1-D1-Pad22)*%
X113770000Y-95500000D03*
%TO.P,IC1,23,IO15_23*%
%TO.N,unconnected-(IC1-IO15-Pad23)*%
X116310000Y-95500000D03*
%TO.P,IC1,24,IO2_24*%
%TO.N,unconnected-(IC1-IO2-Pad24)*%
X118850000Y-95500000D03*
%TO.P,IC1,25,IO0_25*%
%TO.N,unconnected-(IC1-IO0-Pad25)*%
X121390000Y-95500000D03*
%TO.P,IC1,26,IO4_26*%
%TO.N,Net-(IC1-IO4)*%
X123930000Y-95500000D03*
%TO.P,IC1,27,IO16_27*%
%TO.N,unconnected-(IC1-IO16-Pad27)*%
X126470000Y-95500000D03*
%TO.P,IC1,28,IO17_28*%
%TO.N,unconnected-(IC1-IO17-Pad28)*%
X129010000Y-95500000D03*
%TO.P,IC1,29,IO5_29*%
%TO.N,Net-(IC1-IO5)*%
X131550000Y-95500000D03*
%TO.P,IC1,30,IO18_30*%
%TO.N,Net-(IC1-IO18)*%
X134090000Y-95500000D03*
%TO.P,IC1,31,IO19_31*%
%TO.N,Net-(IC1-IO19)*%
X136630000Y-95500000D03*
%TO.P,IC1,32,GND_2_32*%
%TO.N,GNDREF*%
X139170000Y-95500000D03*
%TO.P,IC1,33,IO21_33*%
%TO.N,Net-(IC1-IO21)*%
X141710000Y-95500000D03*
%TO.P,IC1,34,RX_34*%
%TO.N,unconnected-(IC1-RX-Pad34)*%
X144250000Y-95500000D03*
%TO.P,IC1,35,TX_35*%
%TO.N,unconnected-(IC1-TX-Pad35)*%
X146790000Y-95500000D03*
%TO.P,IC1,36,IO22_36*%
%TO.N,Net-(IC1-IO22)*%
X149330000Y-95500000D03*
%TO.P,IC1,37,IO23_37*%
%TO.N,Net-(IC1-IO23)*%
X151870000Y-95500000D03*
%TO.P,IC1,38,GND_3_38*%
%TO.N,GNDREF*%
X154410000Y-95500000D03*
%TD*%
D13*
%TO.P,K1,1,COIL_1_1*%
%TO.N,+5V*%
X83650000Y-59310000D03*
%TO.P,K1,4,COM_1_4*%
%TO.N,Vin*%
X91270000Y-59310000D03*
%TO.P,K1,6,NC_1_6*%
%TO.N,unconnected-(K1-NC_1-Pad6)*%
X96350000Y-59310000D03*
%TO.P,K1,8,NO_1_8*%
%TO.N,+12V*%
X101430000Y-59310000D03*
%TO.P,K1,9,NO_2_9*%
X101430000Y-51690000D03*
%TO.P,K1,11,NC_2_11*%
%TO.N,unconnected-(K1-NC_2-Pad11)*%
X96350000Y-51690000D03*
%TO.P,K1,13,COM_2_13*%
%TO.N,Vin*%
X91270000Y-51690000D03*
%TO.P,K1,16,COIL_2_16*%
%TO.N,Net-(D3-A)*%
X83650000Y-51690000D03*
%TD*%
D22*
%TO.N,Net-(IC1-VN)*%
X164250000Y-66500000D03*
%TO.N,Net-(IC1-VP)*%
X172000000Y-69250000D03*
%TO.N,Net-(IC1-IO27)*%
X157250000Y-77750000D03*
%TD*%
%TO.N,+5V*%
D23*
X98750000Y-107750000D02*
X98750000Y-75250000D01*
X88250000Y-61250000D02*
X86310000Y-59310000D01*
X140500000Y-58500000D02*
X167250000Y-58500000D01*
X103250000Y-115250000D02*
X103250000Y-112250000D01*
X98750000Y-75250000D02*
X101250000Y-72750000D01*
X101250000Y-72750000D02*
X89500000Y-72750000D01*
X89500000Y-72750000D02*
X88250000Y-71500000D01*
X86310000Y-59310000D02*
X83650000Y-59310000D01*
X88250000Y-71500000D02*
X88250000Y-61250000D01*
X139750000Y-57750000D02*
X140500000Y-58500000D01*
X101250000Y-72750000D02*
X103900000Y-70100000D01*
X135000000Y-57750000D02*
X139750000Y-57750000D01*
X103250000Y-112250000D02*
X98750000Y-107750000D01*
X103900000Y-70100000D02*
X108690000Y-70100000D01*
%TO.N,Net-(D3-A)*%
X83650000Y-53650000D02*
X83650000Y-51690000D01*
X85000000Y-55000000D02*
X83650000Y-53650000D01*
X108000000Y-53650000D02*
X106650000Y-55000000D01*
X106650000Y-55000000D02*
X85000000Y-55000000D01*
%TO.N,+3.3V*%
X169620000Y-79335000D02*
X169620000Y-76370000D01*
X135770000Y-101075000D02*
X171175000Y-101075000D01*
X171250000Y-75250000D02*
X170000000Y-75250000D01*
X173000000Y-99250000D02*
X173000000Y-77000000D01*
X167750000Y-74500000D02*
X155250000Y-74500000D01*
X171175000Y-101075000D02*
X173000000Y-99250000D01*
X169620000Y-76370000D02*
X167750000Y-74500000D01*
X173000000Y-77000000D02*
X171250000Y-75250000D01*
X154410000Y-73660000D02*
X154410000Y-70100000D01*
X170000000Y-75250000D02*
X169620000Y-75630000D01*
X169620000Y-75630000D02*
X169620000Y-78500000D01*
X155250000Y-74500000D02*
X154410000Y-73660000D01*
%TO.N,Net-(IC2-CANL)*%
X151500000Y-43000000D02*
X142750000Y-43000000D01*
X152000000Y-43500000D02*
X151500000Y-43000000D01*
X152000000Y-45000000D02*
X152000000Y-50000000D01*
X152000000Y-45000000D02*
X152000000Y-43500000D01*
X142750000Y-43000000D02*
X142000000Y-43750000D01*
X142000000Y-43750000D02*
X142000000Y-45000000D01*
X152000000Y-50000000D02*
X151500000Y-50500000D01*
X151500000Y-50500000D02*
X150170000Y-50500000D01*
%TO.N,Net-(IC1-IO26)*%
X129250000Y-75750000D02*
X131550000Y-73450000D01*
X131550000Y-73450000D02*
X131550000Y-70100000D01*
X117275000Y-113775000D02*
X114250000Y-110750000D01*
X105250000Y-82500000D02*
X112000000Y-75750000D01*
X114250000Y-110750000D02*
X114250000Y-100500000D01*
X112000000Y-75750000D02*
X129250000Y-75750000D01*
X135770000Y-113775000D02*
X117275000Y-113775000D01*
X105250000Y-99000000D02*
X105250000Y-82500000D01*
X113500000Y-99750000D02*
X106000000Y-99750000D01*
X114250000Y-100500000D02*
X113500000Y-99750000D01*
X106000000Y-99750000D02*
X105250000Y-99000000D01*
%TO.N,Net-(IC1-VN)*%
X163250000Y-66500000D02*
X158750000Y-62000000D01*
X158750000Y-62000000D02*
X148000000Y-62000000D01*
X164250000Y-66500000D02*
X163250000Y-66500000D01*
X148000000Y-62000000D02*
X146790000Y-63210000D01*
X146790000Y-63210000D02*
X146790000Y-70100000D01*
%TO.N,Net-(IC1-VP)*%
X149330000Y-68170000D02*
X149330000Y-70100000D01*
X172000000Y-69250000D02*
X171250000Y-70000000D01*
X171250000Y-70000000D02*
X159750000Y-70000000D01*
X155750000Y-66000000D02*
X151500000Y-66000000D01*
X151500000Y-66000000D02*
X149330000Y-68170000D01*
X159750000Y-70000000D02*
X155750000Y-66000000D01*
%TO.N,Net-(D2-A)*%
X111420000Y-46170000D02*
X111420000Y-53750000D01*
X110000000Y-44750000D02*
X111420000Y-46170000D01*
%TO.N,Net-(IC1-IO12)*%
X120420000Y-50750000D02*
X120591250Y-50921250D01*
X123031250Y-50921250D02*
X123930000Y-51820000D01*
X123930000Y-51820000D02*
X123930000Y-70100000D01*
X120591250Y-50921250D02*
X123031250Y-50921250D01*
%TO.N,Net-(IC1-IO35)*%
X130670000Y-53750000D02*
X130750000Y-53670000D01*
X133500000Y-61750000D02*
X141000000Y-61750000D01*
X130750000Y-59000000D02*
X133500000Y-61750000D01*
X141000000Y-61750000D02*
X141710000Y-62460000D01*
X141710000Y-62460000D02*
X141710000Y-70100000D01*
X130750000Y-53670000D02*
X130750000Y-59000000D01*
%TO.N,Net-(IC1-IO27)*%
X166960000Y-91665000D02*
X166960000Y-86460000D01*
X157250000Y-83250000D02*
X157250000Y-77750000D01*
X166960000Y-86460000D02*
X165500000Y-85000000D01*
X159000000Y-85000000D02*
X157250000Y-83250000D01*
X165500000Y-85000000D02*
X159000000Y-85000000D01*
D24*
X157250000Y-77500000D02*
X157250000Y-77750000D01*
%TD*%
%TA.AperFunction,Conductor*%
%TO.N,GNDREF*%
G36*
X150686418Y-71082125D02*
G01*
X150700320Y-71098170D01*
X150700687Y-71098675D01*
X150700691Y-71098680D01*
X150700692Y-71098681D01*
X150700693Y-71098682D01*
X150871318Y-71269307D01*
X151066533Y-71411139D01*
X151171983Y-71464868D01*
X151281531Y-71520687D01*
X151281534Y-71520688D01*
X151353058Y-71543927D01*
X151511022Y-71595252D01*
X151749350Y-71633000D01*
X151749351Y-71633000D01*
X151990649Y-71633000D01*
X151990650Y-71633000D01*
X152228978Y-71595252D01*
X152458468Y-71520687D01*
X152673467Y-71411139D01*
X152824727Y-71301241D01*
X152890530Y-71277763D01*
X152958584Y-71293588D01*
X153003726Y-71337410D01*
X153022028Y-71367685D01*
X153142315Y-71487972D01*
X153149644Y-71492403D01*
X153196835Y-71543927D01*
X153209500Y-71598522D01*
X153209500Y-73754486D01*
X153239059Y-73941118D01*
X153297454Y-74120836D01*
X153318521Y-74162181D01*
X153383240Y-74289199D01*
X153494310Y-74442074D01*
X153494312Y-74442076D01*
X154467929Y-75415693D01*
X154511853Y-75447605D01*
X154541139Y-75468882D01*
X154620801Y-75526760D01*
X154728083Y-75581423D01*
X154789163Y-75612545D01*
X154789165Y-75612545D01*
X154789168Y-75612547D01*
X154885497Y-75643846D01*
X154968881Y-75670940D01*
X155155514Y-75700500D01*
X155155519Y-75700500D01*
X167201374Y-75700500D01*
X167268413Y-75720185D01*
X167289055Y-75736819D01*
X168383181Y-76830945D01*
X168416666Y-76892268D01*
X168419500Y-76918626D01*
X168419500Y-78458903D01*
X168415001Y-78475095D01*
X168415447Y-78490348D01*
X168404120Y-78514261D01*
X168401729Y-78522868D01*
X168398969Y-78527451D01*
X168369158Y-78568483D01*
X168341075Y-78623597D01*
X168338812Y-78627357D01*
X168316184Y-78648151D01*
X168295093Y-78670483D01*
X168290698Y-78671571D01*
X168287366Y-78674634D01*
X168257092Y-78679893D01*
X168227272Y-78687278D01*
X168222988Y-78685818D01*
X168218528Y-78686593D01*
X168190218Y-78674650D01*
X168161137Y-78664740D01*
X168156956Y-78660619D01*
X168154152Y-78659436D01*
X168150819Y-78654568D01*
X168132270Y-78636283D01*
X168132268Y-78636283D01*
X167517647Y-79250904D01*
X167494208Y-79163429D01*
X167435689Y-79062070D01*
X167352930Y-78979311D01*
X167251571Y-78920792D01*
X167164094Y-78897352D01*
X167778716Y-78282731D01*
X167778715Y-78282730D01*
X167741432Y-78255641D01*
X167564437Y-78165457D01*
X167375522Y-78104075D01*
X167179321Y-78073000D01*
X166980679Y-78073000D01*
X166784479Y-78104075D01*
X166784476Y-78104075D01*
X166595562Y-78165457D01*
X166418564Y-78255643D01*
X166381283Y-78282729D01*
X166381282Y-78282730D01*
X166995906Y-78897352D01*
X166908429Y-78920792D01*
X166807070Y-78979311D01*
X166724311Y-79062070D01*
X166665792Y-79163429D01*
X166642352Y-79250905D01*
X166027730Y-78636282D01*
X166027724Y-78636283D01*
X165972404Y-78678942D01*
X165902791Y-78684921D01*
X165840996Y-78652315D01*
X165816931Y-78619686D01*
X165790842Y-78568483D01*
X165670520Y-78402875D01*
X165670520Y-78402873D01*
X165655536Y-78382251D01*
X165655532Y-78382245D01*
X165492755Y-78219468D01*
X165306517Y-78084158D01*
X165225391Y-78042822D01*
X165101405Y-77979647D01*
X165101402Y-77979646D01*
X164882470Y-77908512D01*
X164768785Y-77890506D01*
X164655101Y-77872500D01*
X164424899Y-77872500D01*
X164349109Y-77884504D01*
X164197529Y-77908512D01*
X163978597Y-77979646D01*
X163978594Y-77979647D01*
X163773482Y-78084158D01*
X163667227Y-78161357D01*
X163587245Y-78219468D01*
X163587243Y-78219470D01*
X163587242Y-78219470D01*
X163424469Y-78382243D01*
X163370318Y-78456776D01*
X163314987Y-78499441D01*
X163245374Y-78505420D01*
X163183579Y-78472814D01*
X163169682Y-78456776D01*
X163115536Y-78382251D01*
X163115532Y-78382245D01*
X162952755Y-78219468D01*
X162766517Y-78084158D01*
X162685391Y-78042822D01*
X162561405Y-77979647D01*
X162561402Y-77979646D01*
X162342470Y-77908512D01*
X162228785Y-77890506D01*
X162115101Y-77872500D01*
X161884899Y-77872500D01*
X161809109Y-77884504D01*
X161657529Y-77908512D01*
X161438597Y-77979646D01*
X161438594Y-77979647D01*
X161233482Y-78084158D01*
X161127227Y-78161357D01*
X161047245Y-78219468D01*
X161047243Y-78219470D01*
X161047242Y-78219470D01*
X160884470Y-78382242D01*
X160884470Y-78382243D01*
X160884468Y-78382245D01*
X160884464Y-78382251D01*
X160749158Y-78568482D01*
X160644647Y-78773594D01*
X160644646Y-78773597D01*
X160573512Y-78992529D01*
X160537500Y-79219899D01*
X160537500Y-79450100D01*
X160573512Y-79677470D01*
X160644646Y-79896402D01*
X160644647Y-79896405D01*
X160730000Y-80063917D01*
X160749158Y-80101517D01*
X160884468Y-80287755D01*
X161047245Y-80450532D01*
X161233483Y-80585842D01*
X161334084Y-80637100D01*
X161438594Y-80690352D01*
X161438597Y-80690353D01*
X161548063Y-80725920D01*
X161657531Y-80761488D01*
X161884899Y-80797500D01*
X161884900Y-80797500D01*
X162115100Y-80797500D01*
X162115101Y-80797500D01*
X162342469Y-80761488D01*
X162561405Y-80690352D01*
X162766517Y-80585842D01*
X162952755Y-80450532D01*
X163115532Y-80287755D01*
X163169682Y-80213223D01*
X163225012Y-80170558D01*
X163294625Y-80164579D01*
X163356420Y-80197185D01*
X163370317Y-80213223D01*
X163424468Y-80287755D01*
X163587245Y-80450532D01*
X163773483Y-80585842D01*
X163874084Y-80637100D01*
X163978594Y-80690352D01*
X163978597Y-80690353D01*
X164088063Y-80725920D01*
X164197531Y-80761488D01*
X164424899Y-80797500D01*
X164424900Y-80797500D01*
X164655100Y-80797500D01*
X164655101Y-80797500D01*
X164882469Y-80761488D01*
X165101405Y-80690352D01*
X165306517Y-80585842D01*
X165492755Y-80450532D01*
X165655532Y-80287755D01*
X165790842Y-80101517D01*
X165816932Y-80050311D01*
X165864904Y-79999517D01*
X165932725Y-79982721D01*
X165998860Y-80005257D01*
X166027728Y-80033715D01*
X166027731Y-80033716D01*
X166642352Y-79419094D01*
X166665792Y-79506571D01*
X166724311Y-79607930D01*
X166807070Y-79690689D01*
X166908429Y-79749208D01*
X166995905Y-79772647D01*
X166381283Y-80387268D01*
X166381283Y-80387269D01*
X166418567Y-80414358D01*
X166595562Y-80504542D01*
X166784477Y-80565924D01*
X166980679Y-80597000D01*
X167179321Y-80597000D01*
X167375520Y-80565924D01*
X167375523Y-80565924D01*
X167564437Y-80504542D01*
X167741425Y-80414362D01*
X167778716Y-80387268D01*
X167164095Y-79772647D01*
X167251571Y-79749208D01*
X167352930Y-79690689D01*
X167435689Y-79607930D01*
X167494208Y-79506571D01*
X167517647Y-79419094D01*
X168132268Y-80033716D01*
X168132270Y-80033715D01*
X168187595Y-79991056D01*
X168257208Y-79985077D01*
X168319003Y-80017683D01*
X168343066Y-80050311D01*
X168369156Y-80101514D01*
X168369158Y-80101517D01*
X168504468Y-80287755D01*
X168667245Y-80450532D01*
X168853483Y-80585842D01*
X168954084Y-80637100D01*
X169058594Y-80690352D01*
X169058597Y-80690353D01*
X169168063Y-80725920D01*
X169277531Y-80761488D01*
X169504899Y-80797500D01*
X169504900Y-80797500D01*
X169735100Y-80797500D01*
X169735101Y-80797500D01*
X169962469Y-80761488D01*
X170181405Y-80690352D01*
X170386517Y-80585842D01*
X170572755Y-80450532D01*
X170735532Y-80287755D01*
X170870842Y-80101517D01*
X170975352Y-79896405D01*
X171046488Y-79677469D01*
X171082500Y-79450101D01*
X171082500Y-79219899D01*
X171046488Y-78992531D01*
X170975352Y-78773595D01*
X170975352Y-78773594D01*
X170896931Y-78619686D01*
X170870842Y-78568483D01*
X170844181Y-78531788D01*
X170820702Y-78465982D01*
X170820500Y-78458903D01*
X170820500Y-76817625D01*
X170840185Y-76750586D01*
X170892989Y-76704831D01*
X170962147Y-76694887D01*
X171025703Y-76723912D01*
X171032181Y-76729944D01*
X171763181Y-77460944D01*
X171796666Y-77522267D01*
X171799500Y-77548625D01*
X171799500Y-98701374D01*
X171779815Y-98768413D01*
X171763181Y-98789055D01*
X170714055Y-99838181D01*
X170652732Y-99871666D01*
X170626374Y-99874500D01*
X137268523Y-99874500D01*
X137201484Y-99854815D01*
X137162408Y-99814652D01*
X137157973Y-99807317D01*
X137157968Y-99807310D01*
X137037688Y-99687030D01*
X136892106Y-99599022D01*
X136729696Y-99548414D01*
X136729694Y-99548413D01*
X136729692Y-99548413D01*
X136680278Y-99543923D01*
X136659116Y-99542000D01*
X134880884Y-99542000D01*
X134861645Y-99543748D01*
X134810307Y-99548413D01*
X134647893Y-99599022D01*
X134502311Y-99687030D01*
X134382030Y-99807311D01*
X134294022Y-99952893D01*
X134243413Y-100115307D01*
X134237000Y-100185886D01*
X134237000Y-101964113D01*
X134243413Y-102034692D01*
X134294022Y-102197106D01*
X134382030Y-102342688D01*
X134502311Y-102462969D01*
X134502313Y-102462970D01*
X134502315Y-102462972D01*
X134647894Y-102550978D01*
X134810304Y-102601586D01*
X134880884Y-102608000D01*
X134880887Y-102608000D01*
X135065191Y-102608000D01*
X135132230Y-102627685D01*
X135152872Y-102644319D01*
X135595683Y-103087129D01*
X135555778Y-103097822D01*
X135429222Y-103170890D01*
X135325890Y-103274222D01*
X135252822Y-103400778D01*
X135242129Y-103440682D01*
X134667257Y-102865810D01*
X134667256Y-102865810D01*
X134630347Y-102916611D01*
X134535125Y-103103493D01*
X134470310Y-103302971D01*
X134437500Y-103510130D01*
X134437500Y-103719869D01*
X134470310Y-103927028D01*
X134535125Y-104126506D01*
X134630342Y-104313378D01*
X134667257Y-104364188D01*
X135242129Y-103789316D01*
X135252822Y-103829222D01*
X135325890Y-103955778D01*
X135429222Y-104059110D01*
X135555778Y-104132178D01*
X135595682Y-104142870D01*
X135020809Y-104717741D01*
X135021819Y-104730576D01*
X135007454Y-104798953D01*
X134969306Y-104839389D01*
X134970475Y-104840997D01*
X134771315Y-104985695D01*
X134600695Y-105156315D01*
X134458861Y-105351532D01*
X134349312Y-105566531D01*
X134349311Y-105566534D01*
X134274748Y-105796020D01*
X134237000Y-106034350D01*
X134237000Y-106275649D01*
X134274748Y-106513979D01*
X134349311Y-106743465D01*
X134349312Y-106743468D01*
X134458861Y-106958467D01*
X134600693Y-107153682D01*
X134771318Y-107324307D01*
X134771324Y-107324311D01*
X134771835Y-107324683D01*
X134771982Y-107324873D01*
X134775023Y-107327471D01*
X134774477Y-107328109D01*
X134814501Y-107380013D01*
X134820479Y-107449627D01*
X134787872Y-107511421D01*
X134771835Y-107525317D01*
X134771324Y-107525688D01*
X134771315Y-107525695D01*
X134600695Y-107696315D01*
X134458861Y-107891532D01*
X134349312Y-108106531D01*
X134349311Y-108106534D01*
X134274748Y-108336020D01*
X134237000Y-108574350D01*
X134237000Y-108815649D01*
X134274748Y-109053979D01*
X134349311Y-109283465D01*
X134349312Y-109283468D01*
X134458861Y-109498467D01*
X134600693Y-109693682D01*
X134771318Y-109864307D01*
X134771324Y-109864311D01*
X134771835Y-109864683D01*
X134771982Y-109864873D01*
X134775023Y-109867471D01*
X134774477Y-109868109D01*
X134814501Y-109920013D01*
X134820479Y-109989627D01*
X134787872Y-110051421D01*
X134771835Y-110065317D01*
X134771324Y-110065688D01*
X134771315Y-110065695D01*
X134600695Y-110236315D01*
X134458861Y-110431532D01*
X134349312Y-110646531D01*
X134349311Y-110646534D01*
X134274748Y-110876020D01*
X134237000Y-111114350D01*
X134237000Y-111355649D01*
X134274748Y-111593979D01*
X134349311Y-111823465D01*
X134349312Y-111823468D01*
X134458861Y-112038467D01*
X134600693Y-112233682D01*
X134600695Y-112233684D01*
X134729830Y-112362819D01*
X134763315Y-112424142D01*
X134758331Y-112493834D01*
X134716459Y-112549767D01*
X134650995Y-112574184D01*
X134642149Y-112574500D01*
X117823626Y-112574500D01*
X117756587Y-112554815D01*
X117735945Y-112538181D01*
X115486819Y-110289055D01*
X115453334Y-110227732D01*
X115450500Y-110201374D01*
X115450500Y-105870853D01*
X119279500Y-105870853D01*
X119279500Y-106129146D01*
X119279501Y-106129162D01*
X119313215Y-106385248D01*
X119380071Y-106634758D01*
X119478918Y-106873396D01*
X119478923Y-106873407D01*
X119608069Y-107097092D01*
X119608080Y-107097108D01*
X119765319Y-107302027D01*
X119765325Y-107302034D01*
X119947965Y-107484674D01*
X119947972Y-107484680D01*
X120001424Y-107525695D01*
X120152900Y-107641926D01*
X120152907Y-107641930D01*
X120376592Y-107771076D01*
X120376597Y-107771078D01*
X120376600Y-107771080D01*
X120495922Y-107820504D01*
X120615241Y-107869928D01*
X120615242Y-107869928D01*
X120615244Y-107869929D01*
X120864750Y-107936784D01*
X121120847Y-107970500D01*
X121120854Y-107970500D01*
X121379146Y-107970500D01*
X121379153Y-107970500D01*
X121635250Y-107936784D01*
X121884756Y-107869929D01*
X122123400Y-107771080D01*
X122347100Y-107641926D01*
X122552029Y-107484679D01*
X122734679Y-107302029D01*
X122891926Y-107097100D01*
X123021080Y-106873400D01*
X123119929Y-106634756D01*
X123186784Y-106385250D01*
X123220500Y-106129153D01*
X123220500Y-105870847D01*
X123186784Y-105614750D01*
X123119929Y-105365244D01*
X123114249Y-105351532D01*
X123038455Y-105168548D01*
X123021080Y-105126600D01*
X123021078Y-105126597D01*
X123021076Y-105126592D01*
X122891930Y-104902907D01*
X122891926Y-104902900D01*
X122812165Y-104798953D01*
X122734680Y-104697972D01*
X122734674Y-104697965D01*
X122552034Y-104515325D01*
X122552027Y-104515319D01*
X122347108Y-104358080D01*
X122347106Y-104358078D01*
X122347100Y-104358074D01*
X122347095Y-104358071D01*
X122347092Y-104358069D01*
X122123407Y-104228923D01*
X122123396Y-104228918D01*
X121884758Y-104130071D01*
X121635248Y-104063215D01*
X121379162Y-104029501D01*
X121379159Y-104029500D01*
X121379153Y-104029500D01*
X121120847Y-104029500D01*
X121120841Y-104029500D01*
X121120837Y-104029501D01*
X120864751Y-104063215D01*
X120615241Y-104130071D01*
X120376603Y-104228918D01*
X120376592Y-104228923D01*
X120152907Y-104358069D01*
X120152891Y-104358080D01*
X119947972Y-104515319D01*
X119947965Y-104515325D01*
X119765325Y-104697965D01*
X119765319Y-104697972D01*
X119608080Y-104902891D01*
X119608069Y-104902907D01*
X119478923Y-105126592D01*
X119478918Y-105126603D01*
X119380071Y-105365241D01*
X119313215Y-105614751D01*
X119279501Y-105870837D01*
X119279500Y-105870853D01*
X115450500Y-105870853D01*
X115450500Y-100405520D01*
X115446331Y-100379199D01*
X115446331Y-100379197D01*
X115420940Y-100218882D01*
X115420940Y-100218881D01*
X115362545Y-100039163D01*
X115281039Y-99879199D01*
X115276760Y-99870801D01*
X115165690Y-99717926D01*
X114282074Y-98834310D01*
X114129199Y-98723240D01*
X113960836Y-98637454D01*
X113781118Y-98579059D01*
X113594486Y-98549500D01*
X113594481Y-98549500D01*
X106574500Y-98549500D01*
X106507461Y-98529815D01*
X106461706Y-98477011D01*
X106450500Y-98425500D01*
X106450500Y-95379350D01*
X107157000Y-95379350D01*
X107157000Y-95620649D01*
X107194748Y-95858979D01*
X107269311Y-96088465D01*
X107269312Y-96088468D01*
X107376552Y-96298936D01*
X107378861Y-96303467D01*
X107520693Y-96498682D01*
X107691318Y-96669307D01*
X107886533Y-96811139D01*
X107991983Y-96864868D01*
X108101531Y-96920687D01*
X108101534Y-96920688D01*
X108216277Y-96957969D01*
X108331022Y-96995252D01*
X108569350Y-97033000D01*
X108569351Y-97033000D01*
X108810649Y-97033000D01*
X108810650Y-97033000D01*
X109048978Y-96995252D01*
X109278468Y-96920687D01*
X109493467Y-96811139D01*
X109688682Y-96669307D01*
X109859307Y-96498682D01*
X109859340Y-96498635D01*
X109859680Y-96498170D01*
X109859869Y-96498023D01*
X109862479Y-96494969D01*
X109863120Y-96495516D01*
X109915008Y-96455502D01*
X109984622Y-96449521D01*
X110046418Y-96482125D01*
X110060320Y-96498170D01*
X110060687Y-96498675D01*
X110060691Y-96498680D01*
X110060692Y-96498681D01*
X110060693Y-96498682D01*
X110231318Y-96669307D01*
X110426533Y-96811139D01*
X110531983Y-96864868D01*
X110641531Y-96920687D01*
X110641534Y-96920688D01*
X110756277Y-96957969D01*
X110871022Y-96995252D01*
X111109350Y-97033000D01*
X111109351Y-97033000D01*
X111350649Y-97033000D01*
X111350650Y-97033000D01*
X111588978Y-96995252D01*
X111818468Y-96920687D01*
X112033467Y-96811139D01*
X112228682Y-96669307D01*
X112399307Y-96498682D01*
X112399340Y-96498635D01*
X112399680Y-96498170D01*
X112399869Y-96498023D01*
X112402479Y-96494969D01*
X112403120Y-96495516D01*
X112455008Y-96455502D01*
X112524622Y-96449521D01*
X112586418Y-96482125D01*
X112600320Y-96498170D01*
X112600687Y-96498675D01*
X112600691Y-96498680D01*
X112600692Y-96498681D01*
X112600693Y-96498682D01*
X112771318Y-96669307D01*
X112966533Y-96811139D01*
X113071983Y-96864868D01*
X113181531Y-96920687D01*
X113181534Y-96920688D01*
X113296277Y-96957969D01*
X113411022Y-96995252D01*
X113649350Y-97033000D01*
X113649351Y-97033000D01*
X113890649Y-97033000D01*
X113890650Y-97033000D01*
X114128978Y-96995252D01*
X114358468Y-96920687D01*
X114573467Y-96811139D01*
X114768682Y-96669307D01*
X114939307Y-96498682D01*
X114939340Y-96498635D01*
X114939680Y-96498170D01*
X114939869Y-96498023D01*
X114942479Y-96494969D01*
X114943120Y-96495516D01*
X114995008Y-96455502D01*
X115064622Y-96449521D01*
X115126418Y-96482125D01*
X115140320Y-96498170D01*
X115140687Y-96498675D01*
X115140691Y-96498680D01*
X115140692Y-96498681D01*
X115140693Y-96498682D01*
X115311318Y-96669307D01*
X115506533Y-96811139D01*
X115611983Y-96864868D01*
X115721531Y-96920687D01*
X115721534Y-96920688D01*
X115836277Y-96957969D01*
X115951022Y-96995252D01*
X116189350Y-97033000D01*
X116189351Y-97033000D01*
X116430649Y-97033000D01*
X116430650Y-97033000D01*
X116668978Y-96995252D01*
X116898468Y-96920687D01*
X117113467Y-96811139D01*
X117308682Y-96669307D01*
X117479307Y-96498682D01*
X117479340Y-96498635D01*
X117479680Y-96498170D01*
X117479869Y-96498023D01*
X117482479Y-96494969D01*
X117483120Y-96495516D01*
X117535008Y-96455502D01*
X117604622Y-96449521D01*
X117666418Y-96482125D01*
X117680320Y-96498170D01*
X117680687Y-96498675D01*
X117680691Y-96498680D01*
X117680692Y-96498681D01*
X117680693Y-96498682D01*
X117851318Y-96669307D01*
X118046533Y-96811139D01*
X118151983Y-96864868D01*
X118261531Y-96920687D01*
X118261534Y-96920688D01*
X118376277Y-96957969D01*
X118491022Y-96995252D01*
X118729350Y-97033000D01*
X118729351Y-97033000D01*
X118970649Y-97033000D01*
X118970650Y-97033000D01*
X119208978Y-96995252D01*
X119438468Y-96920687D01*
X119653467Y-96811139D01*
X119848682Y-96669307D01*
X120019307Y-96498682D01*
X120019340Y-96498635D01*
X120019680Y-96498170D01*
X120019869Y-96498023D01*
X120022479Y-96494969D01*
X120023120Y-96495516D01*
X120075008Y-96455502D01*
X120144622Y-96449521D01*
X120206418Y-96482125D01*
X120220320Y-96498170D01*
X120220687Y-96498675D01*
X120220691Y-96498680D01*
X120220692Y-96498681D01*
X120220693Y-96498682D01*
X120391318Y-96669307D01*
X120586533Y-96811139D01*
X120691983Y-96864868D01*
X120801531Y-96920687D01*
X120801534Y-96920688D01*
X120916277Y-96957969D01*
X121031022Y-96995252D01*
X121269350Y-97033000D01*
X121269351Y-97033000D01*
X121510649Y-97033000D01*
X121510650Y-97033000D01*
X121748978Y-96995252D01*
X121978468Y-96920687D01*
X122193467Y-96811139D01*
X122388682Y-96669307D01*
X122559307Y-96498682D01*
X122559340Y-96498635D01*
X122559680Y-96498170D01*
X122559869Y-96498023D01*
X122562479Y-96494969D01*
X122563120Y-96495516D01*
X122615008Y-96455502D01*
X122684622Y-96449521D01*
X122746418Y-96482125D01*
X122760320Y-96498170D01*
X122760687Y-96498675D01*
X122760691Y-96498680D01*
X122760692Y-96498681D01*
X122760693Y-96498682D01*
X122931318Y-96669307D01*
X123126533Y-96811139D01*
X123231983Y-96864868D01*
X123341531Y-96920687D01*
X123341534Y-96920688D01*
X123456277Y-96957969D01*
X123571022Y-96995252D01*
X123809350Y-97033000D01*
X123809351Y-97033000D01*
X124050649Y-97033000D01*
X124050650Y-97033000D01*
X124288978Y-96995252D01*
X124518468Y-96920687D01*
X124733467Y-96811139D01*
X124928682Y-96669307D01*
X125099307Y-96498682D01*
X125099340Y-96498635D01*
X125099680Y-96498170D01*
X125099869Y-96498023D01*
X125102479Y-96494969D01*
X125103120Y-96495516D01*
X125155008Y-96455502D01*
X125224622Y-96449521D01*
X125286418Y-96482125D01*
X125300320Y-96498170D01*
X125300687Y-96498675D01*
X125300691Y-96498680D01*
X125300692Y-96498681D01*
X125300693Y-96498682D01*
X125471318Y-96669307D01*
X125666533Y-96811139D01*
X125771983Y-96864868D01*
X125881531Y-96920687D01*
X125881534Y-96920688D01*
X125996277Y-96957969D01*
X126111022Y-96995252D01*
X126349350Y-97033000D01*
X126349351Y-97033000D01*
X126590649Y-97033000D01*
X126590650Y-97033000D01*
X126828978Y-96995252D01*
X127058468Y-96920687D01*
X127273467Y-96811139D01*
X127468682Y-96669307D01*
X127639307Y-96498682D01*
X127639340Y-96498635D01*
X127639680Y-96498170D01*
X127639869Y-96498023D01*
X127642479Y-96494969D01*
X127643120Y-96495516D01*
X127695008Y-96455502D01*
X127764622Y-96449521D01*
X127826418Y-96482125D01*
X127840320Y-96498170D01*
X127840687Y-96498675D01*
X127840691Y-96498680D01*
X127840692Y-96498681D01*
X127840693Y-96498682D01*
X128011318Y-96669307D01*
X128206533Y-96811139D01*
X128311983Y-96864868D01*
X128421531Y-96920687D01*
X128421534Y-96920688D01*
X128536277Y-96957969D01*
X128651022Y-96995252D01*
X128889350Y-97033000D01*
X128889351Y-97033000D01*
X129130649Y-97033000D01*
X129130650Y-97033000D01*
X129368978Y-96995252D01*
X129598468Y-96920687D01*
X129813467Y-96811139D01*
X130008682Y-96669307D01*
X130179307Y-96498682D01*
X130179340Y-96498635D01*
X130179680Y-96498170D01*
X130179869Y-96498023D01*
X130182479Y-96494969D01*
X130183120Y-96495516D01*
X130235008Y-96455502D01*
X130304622Y-96449521D01*
X130366418Y-96482125D01*
X130380320Y-96498170D01*
X130380687Y-96498675D01*
X130380691Y-96498680D01*
X130380692Y-96498681D01*
X130380693Y-96498682D01*
X130551318Y-96669307D01*
X130746533Y-96811139D01*
X130851983Y-96864868D01*
X130961531Y-96920687D01*
X130961534Y-96920688D01*
X131076277Y-96957969D01*
X131191022Y-96995252D01*
X131429350Y-97033000D01*
X131429351Y-97033000D01*
X131670649Y-97033000D01*
X131670650Y-97033000D01*
X131908978Y-96995252D01*
X132138468Y-96920687D01*
X132353467Y-96811139D01*
X132548682Y-96669307D01*
X132719307Y-96498682D01*
X132719340Y-96498635D01*
X132719680Y-96498170D01*
X132719869Y-96498023D01*
X132722479Y-96494969D01*
X132723120Y-96495516D01*
X132775008Y-96455502D01*
X132844622Y-96449521D01*
X132906418Y-96482125D01*
X132920320Y-96498170D01*
X132920687Y-96498675D01*
X132920691Y-96498680D01*
X132920692Y-96498681D01*
X132920693Y-96498682D01*
X133091318Y-96669307D01*
X133286533Y-96811139D01*
X133391983Y-96864868D01*
X133501531Y-96920687D01*
X133501534Y-96920688D01*
X133616277Y-96957969D01*
X133731022Y-96995252D01*
X133969350Y-97033000D01*
X133969351Y-97033000D01*
X134210649Y-97033000D01*
X134210650Y-97033000D01*
X134448978Y-96995252D01*
X134678468Y-96920687D01*
X134893467Y-96811139D01*
X135088682Y-96669307D01*
X135259307Y-96498682D01*
X135259340Y-96498635D01*
X135259680Y-96498170D01*
X135259869Y-96498023D01*
X135262479Y-96494969D01*
X135263120Y-96495516D01*
X135315008Y-96455502D01*
X135384622Y-96449521D01*
X135446418Y-96482125D01*
X135460320Y-96498170D01*
X135460687Y-96498675D01*
X135460691Y-96498680D01*
X135460692Y-96498681D01*
X135460693Y-96498682D01*
X135631318Y-96669307D01*
X135826533Y-96811139D01*
X135931983Y-96864868D01*
X136041531Y-96920687D01*
X136041534Y-96920688D01*
X136156277Y-96957969D01*
X136271022Y-96995252D01*
X136509350Y-97033000D01*
X136509351Y-97033000D01*
X136750649Y-97033000D01*
X136750650Y-97033000D01*
X136988978Y-96995252D01*
X137218468Y-96920687D01*
X137433467Y-96811139D01*
X137628682Y-96669307D01*
X137799307Y-96498682D01*
X137810995Y-96482595D01*
X137811337Y-96482125D01*
X137812534Y-96480476D01*
X137941139Y-96303467D01*
X137941299Y-96303152D01*
X137944361Y-96298936D01*
X137968276Y-96280484D01*
X137990666Y-96260186D01*
X137995852Y-96259209D01*
X137999680Y-96256256D01*
X138021525Y-96254374D01*
X138054428Y-96248178D01*
X138067258Y-96249187D01*
X138642129Y-95674316D01*
X138652822Y-95714222D01*
X138725890Y-95840778D01*
X138829222Y-95944110D01*
X138955778Y-96017178D01*
X138995682Y-96027870D01*
X138420809Y-96602741D01*
X138420810Y-96602742D01*
X138471614Y-96639653D01*
X138658493Y-96734874D01*
X138857971Y-96799689D01*
X139065131Y-96832500D01*
X139274869Y-96832500D01*
X139482028Y-96799689D01*
X139681506Y-96734874D01*
X139868374Y-96639659D01*
X139868387Y-96639651D01*
X139919188Y-96602742D01*
X139919189Y-96602741D01*
X139344317Y-96027870D01*
X139384222Y-96017178D01*
X139510778Y-95944110D01*
X139614110Y-95840778D01*
X139687178Y-95714222D01*
X139697870Y-95674318D01*
X140272740Y-96249188D01*
X140285573Y-96248179D01*
X140353950Y-96262543D01*
X140394383Y-96300697D01*
X140395997Y-96299525D01*
X140398860Y-96303466D01*
X140398861Y-96303467D01*
X140540693Y-96498682D01*
X140711318Y-96669307D01*
X140906533Y-96811139D01*
X141011983Y-96864868D01*
X141121531Y-96920687D01*
X141121534Y-96920688D01*
X141236277Y-96957969D01*
X141351022Y-96995252D01*
X141589350Y-97033000D01*
X141589351Y-97033000D01*
X141830649Y-97033000D01*
X141830650Y-97033000D01*
X142068978Y-96995252D01*
X142298468Y-96920687D01*
X142513467Y-96811139D01*
X142708682Y-96669307D01*
X142879307Y-96498682D01*
X142879340Y-96498635D01*
X142879680Y-96498170D01*
X142879869Y-96498023D01*
X142882479Y-96494969D01*
X142883120Y-96495516D01*
X142935008Y-96455502D01*
X143004622Y-96449521D01*
X143066418Y-96482125D01*
X143080320Y-96498170D01*
X143080687Y-96498675D01*
X143080691Y-96498680D01*
X143080692Y-96498681D01*
X143080693Y-96498682D01*
X143251318Y-96669307D01*
X143446533Y-96811139D01*
X143551983Y-96864868D01*
X143661531Y-96920687D01*
X143661534Y-96920688D01*
X143776277Y-96957969D01*
X143891022Y-96995252D01*
X144129350Y-97033000D01*
X144129351Y-97033000D01*
X144370649Y-97033000D01*
X144370650Y-97033000D01*
X144608978Y-96995252D01*
X144838468Y-96920687D01*
X145053467Y-96811139D01*
X145248682Y-96669307D01*
X145419307Y-96498682D01*
X145419340Y-96498635D01*
X145419680Y-96498170D01*
X145419869Y-96498023D01*
X145422479Y-96494969D01*
X145423120Y-96495516D01*
X145475008Y-96455502D01*
X145544622Y-96449521D01*
X145606418Y-96482125D01*
X145620320Y-96498170D01*
X145620687Y-96498675D01*
X145620691Y-96498680D01*
X145620692Y-96498681D01*
X145620693Y-96498682D01*
X145791318Y-96669307D01*
X145986533Y-96811139D01*
X146091983Y-96864868D01*
X146201531Y-96920687D01*
X146201534Y-96920688D01*
X146316277Y-96957969D01*
X146431022Y-96995252D01*
X146669350Y-97033000D01*
X146669351Y-97033000D01*
X146910649Y-97033000D01*
X146910650Y-97033000D01*
X147148978Y-96995252D01*
X147378468Y-96920687D01*
X147593467Y-96811139D01*
X147788682Y-96669307D01*
X147959307Y-96498682D01*
X147959340Y-96498635D01*
X147959680Y-96498170D01*
X147959869Y-96498023D01*
X147962479Y-96494969D01*
X147963120Y-96495516D01*
X148015008Y-96455502D01*
X148084622Y-96449521D01*
X148146418Y-96482125D01*
X148160320Y-96498170D01*
X148160687Y-96498675D01*
X148160691Y-96498680D01*
X148160692Y-96498681D01*
X148160693Y-96498682D01*
X148331318Y-96669307D01*
X148526533Y-96811139D01*
X148631983Y-96864868D01*
X148741531Y-96920687D01*
X148741534Y-96920688D01*
X148856277Y-96957969D01*
X148971022Y-96995252D01*
X149209350Y-97033000D01*
X149209351Y-97033000D01*
X149450649Y-97033000D01*
X149450650Y-97033000D01*
X149688978Y-96995252D01*
X149918468Y-96920687D01*
X150133467Y-96811139D01*
X150328682Y-96669307D01*
X150499307Y-96498682D01*
X150499340Y-96498635D01*
X150499680Y-96498170D01*
X150499869Y-96498023D01*
X150502479Y-96494969D01*
X150503120Y-96495516D01*
X150555008Y-96455502D01*
X150624622Y-96449521D01*
X150686418Y-96482125D01*
X150700320Y-96498170D01*
X150700687Y-96498675D01*
X150700691Y-96498680D01*
X150700692Y-96498681D01*
X150700693Y-96498682D01*
X150871318Y-96669307D01*
X151066533Y-96811139D01*
X151171983Y-96864868D01*
X151281531Y-96920687D01*
X151281534Y-96920688D01*
X151396277Y-96957969D01*
X151511022Y-96995252D01*
X151749350Y-97033000D01*
X151749351Y-97033000D01*
X151990649Y-97033000D01*
X151990650Y-97033000D01*
X152228978Y-96995252D01*
X152458468Y-96920687D01*
X152673467Y-96811139D01*
X152868682Y-96669307D01*
X153039307Y-96498682D01*
X153050995Y-96482595D01*
X153051337Y-96482125D01*
X153052534Y-96480476D01*
X153181139Y-96303467D01*
X153181299Y-96303152D01*
X153184361Y-96298936D01*
X153208276Y-96280484D01*
X153230666Y-96260186D01*
X153235852Y-96259209D01*
X153239680Y-96256256D01*
X153261525Y-96254374D01*
X153294428Y-96248178D01*
X153307258Y-96249187D01*
X153882129Y-95674316D01*
X153892822Y-95714222D01*
X153965890Y-95840778D01*
X154069222Y-95944110D01*
X154195778Y-96017178D01*
X154235682Y-96027870D01*
X153660809Y-96602741D01*
X153660810Y-96602742D01*
X153711614Y-96639653D01*
X153898493Y-96734874D01*
X154097971Y-96799689D01*
X154305131Y-96832500D01*
X154514869Y-96832500D01*
X154722028Y-96799689D01*
X154921506Y-96734874D01*
X155108374Y-96639659D01*
X155108387Y-96639651D01*
X155159188Y-96602742D01*
X155159189Y-96602741D01*
X154584317Y-96027870D01*
X154624222Y-96017178D01*
X154750778Y-95944110D01*
X154854110Y-95840778D01*
X154927178Y-95714222D01*
X154937870Y-95674317D01*
X155512741Y-96249189D01*
X155512742Y-96249188D01*
X155549651Y-96198387D01*
X155549659Y-96198374D01*
X155644874Y-96011506D01*
X155709689Y-95812028D01*
X155742500Y-95604869D01*
X155742500Y-95395130D01*
X155709689Y-95187971D01*
X155644874Y-94988493D01*
X155549653Y-94801614D01*
X155512742Y-94750810D01*
X155512741Y-94750809D01*
X154937870Y-95325681D01*
X154927178Y-95285778D01*
X154854110Y-95159222D01*
X154750778Y-95055890D01*
X154624222Y-94982822D01*
X154584315Y-94972129D01*
X155159188Y-94397257D01*
X155108378Y-94360342D01*
X154921506Y-94265125D01*
X154722028Y-94200310D01*
X154514869Y-94167500D01*
X154305131Y-94167500D01*
X154097971Y-94200310D01*
X153898493Y-94265125D01*
X153711611Y-94360347D01*
X153660810Y-94397256D01*
X153660810Y-94397257D01*
X154235682Y-94972129D01*
X154195778Y-94982822D01*
X154069222Y-95055890D01*
X153965890Y-95159222D01*
X153892822Y-95285778D01*
X153882129Y-95325682D01*
X153307257Y-94750810D01*
X153294425Y-94751820D01*
X153284245Y-94749681D01*
X153274054Y-94751744D01*
X153250642Y-94742622D01*
X153226048Y-94737456D01*
X153216913Y-94729481D01*
X153208951Y-94726379D01*
X153193007Y-94708611D01*
X153184360Y-94701062D01*
X153181298Y-94696845D01*
X153181139Y-94696533D01*
X153039307Y-94501318D01*
X152868682Y-94330693D01*
X152673467Y-94188861D01*
X152631544Y-94167500D01*
X152458468Y-94079312D01*
X152458465Y-94079311D01*
X152228979Y-94004748D01*
X152109814Y-93985874D01*
X151990650Y-93967000D01*
X151749350Y-93967000D01*
X151669907Y-93979582D01*
X151511020Y-94004748D01*
X151281534Y-94079311D01*
X151281531Y-94079312D01*
X151066532Y-94188861D01*
X150871315Y-94330695D01*
X150700695Y-94501315D01*
X150700688Y-94501324D01*
X150700317Y-94501835D01*
X150700126Y-94501982D01*
X150697529Y-94505023D01*
X150696890Y-94504477D01*
X150644987Y-94544501D01*
X150575373Y-94550479D01*
X150513579Y-94517872D01*
X150499683Y-94501835D01*
X150499311Y-94501324D01*
X150499309Y-94501321D01*
X150499307Y-94501318D01*
X150328682Y-94330693D01*
X150133467Y-94188861D01*
X150091544Y-94167500D01*
X149918468Y-94079312D01*
X149918465Y-94079311D01*
X149688979Y-94004748D01*
X149569814Y-93985874D01*
X149450650Y-93967000D01*
X149209350Y-93967000D01*
X149129907Y-93979582D01*
X148971020Y-94004748D01*
X148741534Y-94079311D01*
X148741531Y-94079312D01*
X148526532Y-94188861D01*
X148331315Y-94330695D01*
X148160695Y-94501315D01*
X148160688Y-94501324D01*
X148160317Y-94501835D01*
X148160126Y-94501982D01*
X148157529Y-94505023D01*
X148156890Y-94504477D01*
X148104987Y-94544501D01*
X148035373Y-94550479D01*
X147973579Y-94517872D01*
X147959683Y-94501835D01*
X147959311Y-94501324D01*
X147959309Y-94501321D01*
X147959307Y-94501318D01*
X147788682Y-94330693D01*
X147593467Y-94188861D01*
X147551544Y-94167500D01*
X147378468Y-94079312D01*
X147378465Y-94079311D01*
X147148979Y-94004748D01*
X147029814Y-93985874D01*
X146910650Y-93967000D01*
X146669350Y-93967000D01*
X146589907Y-93979582D01*
X146431020Y-94004748D01*
X146201534Y-94079311D01*
X146201531Y-94079312D01*
X145986532Y-94188861D01*
X145791315Y-94330695D01*
X145620695Y-94501315D01*
X145620688Y-94501324D01*
X145620317Y-94501835D01*
X145620126Y-94501982D01*
X145617529Y-94505023D01*
X145616890Y-94504477D01*
X145564987Y-94544501D01*
X145495373Y-94550479D01*
X145433579Y-94517872D01*
X145419683Y-94501835D01*
X145419311Y-94501324D01*
X145419309Y-94501321D01*
X145419307Y-94501318D01*
X145248682Y-94330693D01*
X145053467Y-94188861D01*
X145011544Y-94167500D01*
X144838468Y-94079312D01*
X144838465Y-94079311D01*
X144608979Y-94004748D01*
X144489814Y-93985874D01*
X144370650Y-93967000D01*
X144129350Y-93967000D01*
X144049907Y-93979582D01*
X143891020Y-94004748D01*
X143661534Y-94079311D01*
X143661531Y-94079312D01*
X143446532Y-94188861D01*
X143251315Y-94330695D01*
X143080695Y-94501315D01*
X143080688Y-94501324D01*
X143080317Y-94501835D01*
X143080126Y-94501982D01*
X143077529Y-94505023D01*
X143076890Y-94504477D01*
X143024987Y-94544501D01*
X142955373Y-94550479D01*
X142893579Y-94517872D01*
X142879683Y-94501835D01*
X142879311Y-94501324D01*
X142879309Y-94501321D01*
X142879307Y-94501318D01*
X142708682Y-94330693D01*
X142513467Y-94188861D01*
X142471544Y-94167500D01*
X142298468Y-94079312D01*
X142298465Y-94079311D01*
X142068979Y-94004748D01*
X141949814Y-93985874D01*
X141830650Y-93967000D01*
X141589350Y-93967000D01*
X141509907Y-93979582D01*
X141351020Y-94004748D01*
X141121534Y-94079311D01*
X141121531Y-94079312D01*
X140906532Y-94188861D01*
X140711315Y-94330695D01*
X140540695Y-94501315D01*
X140395997Y-94700475D01*
X140394225Y-94699187D01*
X140349090Y-94739928D01*
X140285576Y-94751819D01*
X140272741Y-94750809D01*
X139697870Y-95325681D01*
X139687178Y-95285778D01*
X139614110Y-95159222D01*
X139510778Y-95055890D01*
X139384222Y-94982822D01*
X139344315Y-94972129D01*
X139919188Y-94397257D01*
X139868378Y-94360342D01*
X139681506Y-94265125D01*
X139482028Y-94200310D01*
X139274869Y-94167500D01*
X139065131Y-94167500D01*
X138857971Y-94200310D01*
X138658493Y-94265125D01*
X138471611Y-94360347D01*
X138420810Y-94397256D01*
X138420810Y-94397257D01*
X138995682Y-94972129D01*
X138955778Y-94982822D01*
X138829222Y-95055890D01*
X138725890Y-95159222D01*
X138652822Y-95285778D01*
X138642129Y-95325682D01*
X138067257Y-94750810D01*
X138054425Y-94751820D01*
X138044245Y-94749681D01*
X138034054Y-94751744D01*
X138010642Y-94742622D01*
X137986048Y-94737456D01*
X137976913Y-94729481D01*
X137968951Y-94726379D01*
X137953007Y-94708611D01*
X137944360Y-94701062D01*
X137941298Y-94696845D01*
X137941139Y-94696533D01*
X137799307Y-94501318D01*
X137628682Y-94330693D01*
X137433467Y-94188861D01*
X137391544Y-94167500D01*
X137218468Y-94079312D01*
X137218465Y-94079311D01*
X136988979Y-94004748D01*
X136869814Y-93985874D01*
X136750650Y-93967000D01*
X136509350Y-93967000D01*
X136429907Y-93979582D01*
X136271020Y-94004748D01*
X136041534Y-94079311D01*
X136041531Y-94079312D01*
X135826532Y-94188861D01*
X135631315Y-94330695D01*
X135460695Y-94501315D01*
X135460688Y-94501324D01*
X135460317Y-94501835D01*
X135460126Y-94501982D01*
X135457529Y-94505023D01*
X135456890Y-94504477D01*
X135404987Y-94544501D01*
X135335373Y-94550479D01*
X135273579Y-94517872D01*
X135259683Y-94501835D01*
X135259311Y-94501324D01*
X135259309Y-94501321D01*
X135259307Y-94501318D01*
X135088682Y-94330693D01*
X134893467Y-94188861D01*
X134851544Y-94167500D01*
X134678468Y-94079312D01*
X134678465Y-94079311D01*
X134448979Y-94004748D01*
X134329814Y-93985874D01*
X134210650Y-93967000D01*
X133969350Y-93967000D01*
X133889907Y-93979582D01*
X133731020Y-94004748D01*
X133501534Y-94079311D01*
X133501531Y-94079312D01*
X133286532Y-94188861D01*
X133091315Y-94330695D01*
X132920695Y-94501315D01*
X132920688Y-94501324D01*
X132920317Y-94501835D01*
X132920126Y-94501982D01*
X132917529Y-94505023D01*
X132916890Y-94504477D01*
X132864987Y-94544501D01*
X132795373Y-94550479D01*
X132733579Y-94517872D01*
X132719683Y-94501835D01*
X132719311Y-94501324D01*
X132719309Y-94501321D01*
X132719307Y-94501318D01*
X132548682Y-94330693D01*
X132353467Y-94188861D01*
X132311544Y-94167500D01*
X132138468Y-94079312D01*
X132138465Y-94079311D01*
X131908979Y-94004748D01*
X131789814Y-93985874D01*
X131670650Y-93967000D01*
X131429350Y-93967000D01*
X131349907Y-93979582D01*
X131191020Y-94004748D01*
X130961534Y-94079311D01*
X130961531Y-94079312D01*
X130746532Y-94188861D01*
X130551315Y-94330695D01*
X130380695Y-94501315D01*
X130380688Y-94501324D01*
X130380317Y-94501835D01*
X130380126Y-94501982D01*
X130377529Y-94505023D01*
X130376890Y-94504477D01*
X130324987Y-94544501D01*
X130255373Y-94550479D01*
X130193579Y-94517872D01*
X130179683Y-94501835D01*
X130179311Y-94501324D01*
X130179309Y-94501321D01*
X130179307Y-94501318D01*
X130008682Y-94330693D01*
X129813467Y-94188861D01*
X129771544Y-94167500D01*
X129598468Y-94079312D01*
X129598465Y-94079311D01*
X129368979Y-94004748D01*
X129249814Y-93985874D01*
X129130650Y-93967000D01*
X128889350Y-93967000D01*
X128809907Y-93979582D01*
X128651020Y-94004748D01*
X128421534Y-94079311D01*
X128421531Y-94079312D01*
X128206532Y-94188861D01*
X128011315Y-94330695D01*
X127840695Y-94501315D01*
X127840688Y-94501324D01*
X127840317Y-94501835D01*
X127840126Y-94501982D01*
X127837529Y-94505023D01*
X127836890Y-94504477D01*
X127784987Y-94544501D01*
X127715373Y-94550479D01*
X127653579Y-94517872D01*
X127639683Y-94501835D01*
X127639311Y-94501324D01*
X127639309Y-94501321D01*
X127639307Y-94501318D01*
X127468682Y-94330693D01*
X127273467Y-94188861D01*
X127231544Y-94167500D01*
X127058468Y-94079312D01*
X127058465Y-94079311D01*
X126828979Y-94004748D01*
X126709814Y-93985874D01*
X126590650Y-93967000D01*
X126349350Y-93967000D01*
X126269907Y-93979582D01*
X126111020Y-94004748D01*
X125881534Y-94079311D01*
X125881531Y-94079312D01*
X125666532Y-94188861D01*
X125471315Y-94330695D01*
X125300695Y-94501315D01*
X125300688Y-94501324D01*
X125300317Y-94501835D01*
X125300126Y-94501982D01*
X125297529Y-94505023D01*
X125296890Y-94504477D01*
X125244987Y-94544501D01*
X125175373Y-94550479D01*
X125113579Y-94517872D01*
X125099683Y-94501835D01*
X125099311Y-94501324D01*
X125099309Y-94501321D01*
X125099307Y-94501318D01*
X124928682Y-94330693D01*
X124733467Y-94188861D01*
X124691544Y-94167500D01*
X124518468Y-94079312D01*
X124518465Y-94079311D01*
X124288979Y-94004748D01*
X124169814Y-93985874D01*
X124050650Y-93967000D01*
X123809350Y-93967000D01*
X123729907Y-93979582D01*
X123571020Y-94004748D01*
X123341534Y-94079311D01*
X123341531Y-94079312D01*
X123126532Y-94188861D01*
X122931315Y-94330695D01*
X122760695Y-94501315D01*
X122760688Y-94501324D01*
X122760317Y-94501835D01*
X122760126Y-94501982D01*
X122757529Y-94505023D01*
X122756890Y-94504477D01*
X122704987Y-94544501D01*
X122635373Y-94550479D01*
X122573579Y-94517872D01*
X122559683Y-94501835D01*
X122559311Y-94501324D01*
X122559309Y-94501321D01*
X122559307Y-94501318D01*
X122388682Y-94330693D01*
X122193467Y-94188861D01*
X122151544Y-94167500D01*
X121978468Y-94079312D01*
X121978465Y-94079311D01*
X121748979Y-94004748D01*
X121629814Y-93985874D01*
X121510650Y-93967000D01*
X121269350Y-93967000D01*
X121189907Y-93979582D01*
X121031020Y-94004748D01*
X120801534Y-94079311D01*
X120801531Y-94079312D01*
X120586532Y-94188861D01*
X120391315Y-94330695D01*
X120220695Y-94501315D01*
X120220688Y-94501324D01*
X120220317Y-94501835D01*
X120220126Y-94501982D01*
X120217529Y-94505023D01*
X120216890Y-94504477D01*
X120164987Y-94544501D01*
X120095373Y-94550479D01*
X120033579Y-94517872D01*
X120019683Y-94501835D01*
X120019311Y-94501324D01*
X120019309Y-94501321D01*
X120019307Y-94501318D01*
X119848682Y-94330693D01*
X119653467Y-94188861D01*
X119611544Y-94167500D01*
X119438468Y-94079312D01*
X119438465Y-94079311D01*
X119208979Y-94004748D01*
X119089814Y-93985874D01*
X118970650Y-93967000D01*
X118729350Y-93967000D01*
X118649907Y-93979582D01*
X118491020Y-94004748D01*
X118261534Y-94079311D01*
X118261531Y-94079312D01*
X118046532Y-94188861D01*
X117851315Y-94330695D01*
X117680695Y-94501315D01*
X117680688Y-94501324D01*
X117680317Y-94501835D01*
X117680126Y-94501982D01*
X117677529Y-94505023D01*
X117676890Y-94504477D01*
X117624987Y-94544501D01*
X117555373Y-94550479D01*
X117493579Y-94517872D01*
X117479683Y-94501835D01*
X117479311Y-94501324D01*
X117479309Y-94501321D01*
X117479307Y-94501318D01*
X117308682Y-94330693D01*
X117113467Y-94188861D01*
X117071544Y-94167500D01*
X116898468Y-94079312D01*
X116898465Y-94079311D01*
X116668979Y-94004748D01*
X116549814Y-93985874D01*
X116430650Y-93967000D01*
X116189350Y-93967000D01*
X116109907Y-93979582D01*
X115951020Y-94004748D01*
X115721534Y-94079311D01*
X115721531Y-94079312D01*
X115506532Y-94188861D01*
X115311315Y-94330695D01*
X115140695Y-94501315D01*
X115140688Y-94501324D01*
X115140317Y-94501835D01*
X115140126Y-94501982D01*
X115137529Y-94505023D01*
X115136890Y-94504477D01*
X115084987Y-94544501D01*
X115015373Y-94550479D01*
X114953579Y-94517872D01*
X114939683Y-94501835D01*
X114939311Y-94501324D01*
X114939309Y-94501321D01*
X114939307Y-94501318D01*
X114768682Y-94330693D01*
X114573467Y-94188861D01*
X114531544Y-94167500D01*
X114358468Y-94079312D01*
X114358465Y-94079311D01*
X114128979Y-94004748D01*
X114009814Y-93985874D01*
X113890650Y-93967000D01*
X113649350Y-93967000D01*
X113569907Y-93979582D01*
X113411020Y-94004748D01*
X113181534Y-94079311D01*
X113181531Y-94079312D01*
X112966532Y-94188861D01*
X112771315Y-94330695D01*
X112600695Y-94501315D01*
X112600688Y-94501324D01*
X112600317Y-94501835D01*
X112600126Y-94501982D01*
X112597529Y-94505023D01*
X112596890Y-94504477D01*
X112544987Y-94544501D01*
X112475373Y-94550479D01*
X112413579Y-94517872D01*
X112399683Y-94501835D01*
X112399311Y-94501324D01*
X112399309Y-94501321D01*
X112399307Y-94501318D01*
X112228682Y-94330693D01*
X112033467Y-94188861D01*
X111991544Y-94167500D01*
X111818468Y-94079312D01*
X111818465Y-94079311D01*
X111588979Y-94004748D01*
X111469814Y-93985874D01*
X111350650Y-93967000D01*
X111109350Y-93967000D01*
X111029907Y-93979582D01*
X110871020Y-94004748D01*
X110641534Y-94079311D01*
X110641531Y-94079312D01*
X110426532Y-94188861D01*
X110231315Y-94330695D01*
X110060695Y-94501315D01*
X110060688Y-94501324D01*
X110060317Y-94501835D01*
X110060126Y-94501982D01*
X110057529Y-94505023D01*
X110056890Y-94504477D01*
X110004987Y-94544501D01*
X109935373Y-94550479D01*
X109873579Y-94517872D01*
X109859683Y-94501835D01*
X109859311Y-94501324D01*
X109859309Y-94501321D01*
X109859307Y-94501318D01*
X109688682Y-94330693D01*
X109493467Y-94188861D01*
X109451544Y-94167500D01*
X109278468Y-94079312D01*
X109278465Y-94079311D01*
X109048979Y-94004748D01*
X108929814Y-93985874D01*
X108810650Y-93967000D01*
X108569350Y-93967000D01*
X108489907Y-93979582D01*
X108331020Y-94004748D01*
X108101534Y-94079311D01*
X108101531Y-94079312D01*
X107886532Y-94188861D01*
X107691315Y-94330695D01*
X107520695Y-94501315D01*
X107378861Y-94696532D01*
X107269312Y-94911531D01*
X107269311Y-94911534D01*
X107194748Y-95141020D01*
X107157000Y-95379350D01*
X106450500Y-95379350D01*
X106450500Y-83048625D01*
X106470185Y-82981586D01*
X106486819Y-82960944D01*
X111796186Y-77651577D01*
X155999500Y-77651577D01*
X155999500Y-77848422D01*
X156030290Y-78042822D01*
X156030290Y-78042823D01*
X156043431Y-78083266D01*
X156049500Y-78121584D01*
X156049500Y-83344486D01*
X156079059Y-83531118D01*
X156137454Y-83710836D01*
X156172601Y-83779815D01*
X156223240Y-83879199D01*
X156334310Y-84032074D01*
X158084310Y-85782073D01*
X158217927Y-85915690D01*
X158370801Y-86026760D01*
X158450347Y-86067290D01*
X158539163Y-86112545D01*
X158539165Y-86112545D01*
X158539168Y-86112547D01*
X158635497Y-86143846D01*
X158718881Y-86170940D01*
X158905514Y-86200500D01*
X158905519Y-86200500D01*
X164951374Y-86200500D01*
X165018413Y-86220185D01*
X165039055Y-86236819D01*
X165723181Y-86920944D01*
X165756666Y-86982267D01*
X165759500Y-87008625D01*
X165759500Y-90638878D01*
X165739815Y-90705917D01*
X165687011Y-90751672D01*
X165617853Y-90761616D01*
X165554297Y-90732591D01*
X165538879Y-90715792D01*
X165538696Y-90715950D01*
X165535529Y-90712242D01*
X165372757Y-90549470D01*
X165372755Y-90549468D01*
X165186517Y-90414158D01*
X165164618Y-90403000D01*
X164981405Y-90309647D01*
X164981402Y-90309646D01*
X164762470Y-90238512D01*
X164648785Y-90220506D01*
X164535101Y-90202500D01*
X164304899Y-90202500D01*
X164229109Y-90214504D01*
X164077529Y-90238512D01*
X163858597Y-90309646D01*
X163858594Y-90309647D01*
X163653482Y-90414158D01*
X163547227Y-90491357D01*
X163467245Y-90549468D01*
X163467243Y-90549470D01*
X163467242Y-90549470D01*
X163304469Y-90712243D01*
X163250318Y-90786776D01*
X163194987Y-90829441D01*
X163125374Y-90835420D01*
X163063579Y-90802814D01*
X163049682Y-90786776D01*
X163010314Y-90732591D01*
X162995532Y-90712245D01*
X162832755Y-90549468D01*
X162646517Y-90414158D01*
X162624618Y-90403000D01*
X162441405Y-90309647D01*
X162441402Y-90309646D01*
X162222470Y-90238512D01*
X162108785Y-90220506D01*
X161995101Y-90202500D01*
X161764899Y-90202500D01*
X161689109Y-90214504D01*
X161537529Y-90238512D01*
X161318597Y-90309646D01*
X161318594Y-90309647D01*
X161113482Y-90414158D01*
X161007227Y-90491357D01*
X160927245Y-90549468D01*
X160927243Y-90549470D01*
X160927242Y-90549470D01*
X160764470Y-90712242D01*
X160764470Y-90712243D01*
X160764468Y-90712245D01*
X160749686Y-90732591D01*
X160629158Y-90898482D01*
X160524647Y-91103594D01*
X160524646Y-91103597D01*
X160453512Y-91322529D01*
X160417500Y-91549899D01*
X160417500Y-91780100D01*
X160453512Y-92007470D01*
X160524646Y-92226402D01*
X160524647Y-92226405D01*
X160610000Y-92393917D01*
X160629158Y-92431517D01*
X160764468Y-92617755D01*
X160927245Y-92780532D01*
X161113483Y-92915842D01*
X161214084Y-92967100D01*
X161318594Y-93020352D01*
X161318597Y-93020353D01*
X161428063Y-93055920D01*
X161537531Y-93091488D01*
X161764899Y-93127500D01*
X161764900Y-93127500D01*
X161995100Y-93127500D01*
X161995101Y-93127500D01*
X162222469Y-93091488D01*
X162441405Y-93020352D01*
X162646517Y-92915842D01*
X162832755Y-92780532D01*
X162995532Y-92617755D01*
X163049682Y-92543223D01*
X163105012Y-92500558D01*
X163174625Y-92494579D01*
X163236420Y-92527185D01*
X163250317Y-92543223D01*
X163304468Y-92617755D01*
X163467245Y-92780532D01*
X163653483Y-92915842D01*
X163754084Y-92967100D01*
X163858594Y-93020352D01*
X163858597Y-93020353D01*
X163968063Y-93055920D01*
X164077531Y-93091488D01*
X164304899Y-93127500D01*
X164304900Y-93127500D01*
X164535100Y-93127500D01*
X164535101Y-93127500D01*
X164762469Y-93091488D01*
X164981405Y-93020352D01*
X165186517Y-92915842D01*
X165372755Y-92780532D01*
X165535532Y-92617755D01*
X165589682Y-92543223D01*
X165645012Y-92500558D01*
X165714625Y-92494579D01*
X165776420Y-92527185D01*
X165790317Y-92543223D01*
X165844468Y-92617755D01*
X166007245Y-92780532D01*
X166193483Y-92915842D01*
X166294084Y-92967100D01*
X166398594Y-93020352D01*
X166398597Y-93020353D01*
X166508063Y-93055920D01*
X166617531Y-93091488D01*
X166844899Y-93127500D01*
X166844900Y-93127500D01*
X167075100Y-93127500D01*
X167075101Y-93127500D01*
X167302469Y-93091488D01*
X167521405Y-93020352D01*
X167726517Y-92915842D01*
X167912755Y-92780532D01*
X168075532Y-92617755D01*
X168210842Y-92431517D01*
X168236932Y-92380311D01*
X168284904Y-92329517D01*
X168352725Y-92312721D01*
X168418860Y-92335257D01*
X168447728Y-92363715D01*
X168447731Y-92363716D01*
X169062352Y-91749094D01*
X169085792Y-91836571D01*
X169144311Y-91937930D01*
X169227070Y-92020689D01*
X169328429Y-92079208D01*
X169415905Y-92102647D01*
X168801283Y-92717268D01*
X168801283Y-92717269D01*
X168838567Y-92744358D01*
X169015562Y-92834542D01*
X169204477Y-92895924D01*
X169400679Y-92927000D01*
X169599321Y-92927000D01*
X169795520Y-92895924D01*
X169795523Y-92895924D01*
X169984437Y-92834542D01*
X170161425Y-92744362D01*
X170198716Y-92717268D01*
X169584095Y-92102647D01*
X169671571Y-92079208D01*
X169772930Y-92020689D01*
X169855689Y-91937930D01*
X169914208Y-91836571D01*
X169937647Y-91749094D01*
X170552268Y-92363715D01*
X170579362Y-92326425D01*
X170669542Y-92149437D01*
X170730924Y-91960523D01*
X170730924Y-91960520D01*
X170762000Y-91764321D01*
X170762000Y-91565678D01*
X170730924Y-91369479D01*
X170730924Y-91369476D01*
X170669542Y-91180562D01*
X170579358Y-91003567D01*
X170552268Y-90966283D01*
X169937647Y-91580904D01*
X169914208Y-91493429D01*
X169855689Y-91392070D01*
X169772930Y-91309311D01*
X169671571Y-91250792D01*
X169584094Y-91227352D01*
X170198716Y-90612731D01*
X170198715Y-90612730D01*
X170161432Y-90585641D01*
X169984437Y-90495457D01*
X169795522Y-90434075D01*
X169599321Y-90403000D01*
X169400679Y-90403000D01*
X169204479Y-90434075D01*
X169204476Y-90434075D01*
X169015562Y-90495457D01*
X168838564Y-90585643D01*
X168801283Y-90612729D01*
X168801282Y-90612730D01*
X169415906Y-91227352D01*
X169328429Y-91250792D01*
X169227070Y-91309311D01*
X169144311Y-91392070D01*
X169085792Y-91493429D01*
X169062352Y-91580905D01*
X168447730Y-90966282D01*
X168447724Y-90966283D01*
X168421388Y-90986591D01*
X168395611Y-91007642D01*
X168393825Y-91007845D01*
X168392404Y-91008942D01*
X168359261Y-91011788D01*
X168326192Y-91015561D01*
X168324580Y-91014767D01*
X168322791Y-91014921D01*
X168293364Y-90999394D01*
X168263511Y-90984692D01*
X168262180Y-90982940D01*
X168260996Y-90982315D01*
X168241187Y-90957355D01*
X168238923Y-90953595D01*
X168210842Y-90898483D01*
X168181034Y-90857455D01*
X168178271Y-90852867D01*
X168170715Y-90824047D01*
X168160702Y-90795982D01*
X168160500Y-90788903D01*
X168160500Y-86365513D01*
X168130940Y-86178881D01*
X168072545Y-85999163D01*
X167986759Y-85830800D01*
X167875690Y-85677927D01*
X167742073Y-85544310D01*
X166282074Y-84084310D01*
X166129199Y-83973240D01*
X165960836Y-83887454D01*
X165781118Y-83829059D01*
X165594486Y-83799500D01*
X165594481Y-83799500D01*
X159548625Y-83799500D01*
X159481586Y-83779815D01*
X159460944Y-83763181D01*
X158486819Y-82789055D01*
X158453334Y-82727732D01*
X158450500Y-82701374D01*
X158450500Y-78121584D01*
X158456569Y-78083266D01*
X158456889Y-78082280D01*
X158469709Y-78042826D01*
X158496686Y-77872500D01*
X158500500Y-77848422D01*
X158500500Y-77651577D01*
X158469709Y-77457173D01*
X158408882Y-77269970D01*
X158319523Y-77094594D01*
X158203828Y-76935354D01*
X158064646Y-76796172D01*
X157905405Y-76680476D01*
X157876380Y-76665687D01*
X157730029Y-76591117D01*
X157542826Y-76530290D01*
X157348422Y-76499500D01*
X157348417Y-76499500D01*
X157151583Y-76499500D01*
X157151578Y-76499500D01*
X156957173Y-76530290D01*
X156769970Y-76591117D01*
X156594594Y-76680476D01*
X156503741Y-76746485D01*
X156435354Y-76796172D01*
X156435352Y-76796174D01*
X156435351Y-76796174D01*
X156296174Y-76935351D01*
X156296174Y-76935352D01*
X156296172Y-76935354D01*
X156285168Y-76950500D01*
X156180476Y-77094594D01*
X156091117Y-77269970D01*
X156030290Y-77457173D01*
X155999500Y-77651577D01*
X111796186Y-77651577D01*
X112460944Y-76986819D01*
X112522267Y-76953334D01*
X112548625Y-76950500D01*
X129344486Y-76950500D01*
X129531118Y-76920940D01*
X129538240Y-76918626D01*
X129710832Y-76862547D01*
X129879199Y-76776760D01*
X130032074Y-76665690D01*
X132465690Y-74232074D01*
X132576760Y-74079199D01*
X132662547Y-73910832D01*
X132720940Y-73731118D01*
X132744192Y-73584310D01*
X132750500Y-73544487D01*
X132750500Y-71227851D01*
X132770185Y-71160812D01*
X132822989Y-71115057D01*
X132892147Y-71105113D01*
X132955703Y-71134138D01*
X132962181Y-71140170D01*
X133091318Y-71269307D01*
X133286533Y-71411139D01*
X133391983Y-71464868D01*
X133501531Y-71520687D01*
X133501534Y-71520688D01*
X133573058Y-71543927D01*
X133731022Y-71595252D01*
X133969350Y-71633000D01*
X133969351Y-71633000D01*
X134210649Y-71633000D01*
X134210650Y-71633000D01*
X134448978Y-71595252D01*
X134678468Y-71520687D01*
X134893467Y-71411139D01*
X135088682Y-71269307D01*
X135259307Y-71098682D01*
X135259340Y-71098635D01*
X135259680Y-71098170D01*
X135259869Y-71098023D01*
X135262479Y-71094969D01*
X135263120Y-71095516D01*
X135315008Y-71055502D01*
X135384622Y-71049521D01*
X135446418Y-71082125D01*
X135460320Y-71098170D01*
X135460687Y-71098675D01*
X135460691Y-71098680D01*
X135460692Y-71098681D01*
X135460693Y-71098682D01*
X135631318Y-71269307D01*
X135826533Y-71411139D01*
X135931983Y-71464868D01*
X136041531Y-71520687D01*
X136041534Y-71520688D01*
X136113058Y-71543927D01*
X136271022Y-71595252D01*
X136509350Y-71633000D01*
X136509351Y-71633000D01*
X136750649Y-71633000D01*
X136750650Y-71633000D01*
X136988978Y-71595252D01*
X137218468Y-71520687D01*
X137433467Y-71411139D01*
X137628682Y-71269307D01*
X137799307Y-71098682D01*
X137799340Y-71098635D01*
X137799680Y-71098170D01*
X137799869Y-71098023D01*
X137802479Y-71094969D01*
X137803120Y-71095516D01*
X137855008Y-71055502D01*
X137924622Y-71049521D01*
X137986418Y-71082125D01*
X138000320Y-71098170D01*
X138000687Y-71098675D01*
X138000691Y-71098680D01*
X138000692Y-71098681D01*
X138000693Y-71098682D01*
X138171318Y-71269307D01*
X138366533Y-71411139D01*
X138471983Y-71464868D01*
X138581531Y-71520687D01*
X138581534Y-71520688D01*
X138653058Y-71543927D01*
X138811022Y-71595252D01*
X139049350Y-71633000D01*
X139049351Y-71633000D01*
X139290649Y-71633000D01*
X139290650Y-71633000D01*
X139528978Y-71595252D01*
X139758468Y-71520687D01*
X139973467Y-71411139D01*
X140168682Y-71269307D01*
X140339307Y-71098682D01*
X140339340Y-71098635D01*
X140339680Y-71098170D01*
X140339869Y-71098023D01*
X140342479Y-71094969D01*
X140343120Y-71095516D01*
X140395008Y-71055502D01*
X140464622Y-71049521D01*
X140526418Y-71082125D01*
X140540320Y-71098170D01*
X140540687Y-71098675D01*
X140540691Y-71098680D01*
X140540692Y-71098681D01*
X140540693Y-71098682D01*
X140711318Y-71269307D01*
X140906533Y-71411139D01*
X141011983Y-71464868D01*
X141121531Y-71520687D01*
X141121534Y-71520688D01*
X141193058Y-71543927D01*
X141351022Y-71595252D01*
X141589350Y-71633000D01*
X141589351Y-71633000D01*
X141830649Y-71633000D01*
X141830650Y-71633000D01*
X142068978Y-71595252D01*
X142298468Y-71520687D01*
X142513467Y-71411139D01*
X142708682Y-71269307D01*
X142879307Y-71098682D01*
X142879340Y-71098635D01*
X142879680Y-71098170D01*
X142879869Y-71098023D01*
X142882479Y-71094969D01*
X142883120Y-71095516D01*
X142935008Y-71055502D01*
X143004622Y-71049521D01*
X143066418Y-71082125D01*
X143080320Y-71098170D01*
X143080687Y-71098675D01*
X143080691Y-71098680D01*
X143080692Y-71098681D01*
X143080693Y-71098682D01*
X143251318Y-71269307D01*
X143446533Y-71411139D01*
X143551983Y-71464868D01*
X143661531Y-71520687D01*
X143661534Y-71520688D01*
X143733058Y-71543927D01*
X143891022Y-71595252D01*
X144129350Y-71633000D01*
X144129351Y-71633000D01*
X144370649Y-71633000D01*
X144370650Y-71633000D01*
X144608978Y-71595252D01*
X144838468Y-71520687D01*
X145053467Y-71411139D01*
X145248682Y-71269307D01*
X145419307Y-71098682D01*
X145419340Y-71098635D01*
X145419680Y-71098170D01*
X145419869Y-71098023D01*
X145422479Y-71094969D01*
X145423120Y-71095516D01*
X145475008Y-71055502D01*
X145544622Y-71049521D01*
X145606418Y-71082125D01*
X145620320Y-71098170D01*
X145620687Y-71098675D01*
X145620691Y-71098680D01*
X145620692Y-71098681D01*
X145620693Y-71098682D01*
X145791318Y-71269307D01*
X145986533Y-71411139D01*
X146091983Y-71464868D01*
X146201531Y-71520687D01*
X146201534Y-71520688D01*
X146273058Y-71543927D01*
X146431022Y-71595252D01*
X146669350Y-71633000D01*
X146669351Y-71633000D01*
X146910649Y-71633000D01*
X146910650Y-71633000D01*
X147148978Y-71595252D01*
X147378468Y-71520687D01*
X147593467Y-71411139D01*
X147788682Y-71269307D01*
X147959307Y-71098682D01*
X147959340Y-71098635D01*
X147959680Y-71098170D01*
X147959869Y-71098023D01*
X147962479Y-71094969D01*
X147963120Y-71095516D01*
X148015008Y-71055502D01*
X148084622Y-71049521D01*
X148146418Y-71082125D01*
X148160320Y-71098170D01*
X148160687Y-71098675D01*
X148160691Y-71098680D01*
X148160692Y-71098681D01*
X148160693Y-71098682D01*
X148331318Y-71269307D01*
X148526533Y-71411139D01*
X148631983Y-71464868D01*
X148741531Y-71520687D01*
X148741534Y-71520688D01*
X148813058Y-71543927D01*
X148971022Y-71595252D01*
X149209350Y-71633000D01*
X149209351Y-71633000D01*
X149450649Y-71633000D01*
X149450650Y-71633000D01*
X149688978Y-71595252D01*
X149918468Y-71520687D01*
X150133467Y-71411139D01*
X150328682Y-71269307D01*
X150499307Y-71098682D01*
X150499340Y-71098635D01*
X150499680Y-71098170D01*
X150499869Y-71098023D01*
X150502479Y-71094969D01*
X150503120Y-71095516D01*
X150555008Y-71055502D01*
X150624622Y-71049521D01*
X150686418Y-71082125D01*
G37*
%TD.AperFunction*%
%TA.AperFunction,Conductor*%
G36*
X142075990Y-41759381D02*
G01*
X142106718Y-41766527D01*
X142109271Y-41769154D01*
X142112782Y-41770185D01*
X142133421Y-41794004D01*
X142155413Y-41816633D01*
X142156140Y-41820223D01*
X142158537Y-41822989D01*
X142163024Y-41854198D01*
X142169288Y-41885111D01*
X142167959Y-41888522D01*
X142168481Y-41892147D01*
X142155378Y-41920837D01*
X142143939Y-41950220D01*
X142140380Y-41953678D01*
X142139456Y-41955703D01*
X142118628Y-41974818D01*
X141967926Y-42084310D01*
X141967924Y-42084312D01*
X141967923Y-42084312D01*
X141084306Y-42967929D01*
X141013606Y-43065241D01*
X140992363Y-43094481D01*
X140992362Y-43094483D01*
X140973240Y-43120799D01*
X140887454Y-43289163D01*
X140829059Y-43468881D01*
X140799500Y-43655513D01*
X140799500Y-43744266D01*
X140779815Y-43811305D01*
X140763181Y-43831947D01*
X140718757Y-43876370D01*
X140718751Y-43876377D01*
X140583058Y-44053217D01*
X140583052Y-44053226D01*
X140471595Y-44246273D01*
X140471593Y-44246277D01*
X140386293Y-44452209D01*
X140386290Y-44452219D01*
X140336367Y-44638537D01*
X140328597Y-44667534D01*
X140328594Y-44667547D01*
X140299501Y-44888533D01*
X140299500Y-44888549D01*
X140299500Y-45111450D01*
X140299501Y-45111466D01*
X140328594Y-45332452D01*
X140328595Y-45332457D01*
X140328596Y-45332463D01*
X140384420Y-45540801D01*
X140386290Y-45547780D01*
X140386293Y-45547790D01*
X140471593Y-45753722D01*
X140471595Y-45753726D01*
X140583052Y-45946774D01*
X140583057Y-45946780D01*
X140583058Y-45946782D01*
X140718751Y-46123622D01*
X140718757Y-46123629D01*
X140876370Y-46281242D01*
X140876376Y-46281247D01*
X141053226Y-46416948D01*
X141246274Y-46528405D01*
X141452219Y-46613710D01*
X141667537Y-46671404D01*
X141888543Y-46700500D01*
X141888550Y-46700500D01*
X142111450Y-46700500D01*
X142111457Y-46700500D01*
X142332463Y-46671404D01*
X142547781Y-46613710D01*
X142753726Y-46528405D01*
X142946774Y-46416948D01*
X143123624Y-46281247D01*
X143281247Y-46123624D01*
X143416948Y-45946774D01*
X143528405Y-45753726D01*
X143613710Y-45547781D01*
X143671404Y-45332463D01*
X143700500Y-45111457D01*
X143700500Y-44888543D01*
X143671404Y-44667537D01*
X143613710Y-44452219D01*
X143609520Y-44442104D01*
X143580463Y-44371953D01*
X143572994Y-44302483D01*
X143604269Y-44240004D01*
X143664358Y-44204352D01*
X143695024Y-44200500D01*
X145304976Y-44200500D01*
X145372015Y-44220185D01*
X145417770Y-44272989D01*
X145427714Y-44342147D01*
X145419537Y-44371953D01*
X145386293Y-44452209D01*
X145386290Y-44452219D01*
X145336367Y-44638537D01*
X145328597Y-44667534D01*
X145328594Y-44667547D01*
X145299501Y-44888533D01*
X145299500Y-44888549D01*
X145299500Y-45111450D01*
X145299501Y-45111466D01*
X145328594Y-45332452D01*
X145328595Y-45332457D01*
X145328596Y-45332463D01*
X145384420Y-45540801D01*
X145386290Y-45547780D01*
X145386293Y-45547790D01*
X145471593Y-45753722D01*
X145471595Y-45753726D01*
X145583052Y-45946774D01*
X145583057Y-45946780D01*
X145583058Y-45946782D01*
X145718751Y-46123622D01*
X145718757Y-46123629D01*
X145876370Y-46281242D01*
X145876376Y-46281247D01*
X146053226Y-46416948D01*
X146246274Y-46528405D01*
X146452219Y-46613710D01*
X146667537Y-46671404D01*
X146888543Y-46700500D01*
X146888550Y-46700500D01*
X147111450Y-46700500D01*
X147111457Y-46700500D01*
X147332463Y-46671404D01*
X147547781Y-46613710D01*
X147753726Y-46528405D01*
X147946774Y-46416948D01*
X148123624Y-46281247D01*
X148281247Y-46123624D01*
X148416948Y-45946774D01*
X148528405Y-45753726D01*
X148613710Y-45547781D01*
X148671404Y-45332463D01*
X148700500Y-45111457D01*
X148700500Y-44888543D01*
X148671404Y-44667537D01*
X148613710Y-44452219D01*
X148609520Y-44442104D01*
X148580463Y-44371953D01*
X148572994Y-44302483D01*
X148604269Y-44240004D01*
X148664358Y-44204352D01*
X148695024Y-44200500D01*
X150304976Y-44200500D01*
X150372015Y-44220185D01*
X150417770Y-44272989D01*
X150427714Y-44342147D01*
X150419537Y-44371953D01*
X150386293Y-44452209D01*
X150386290Y-44452219D01*
X150336367Y-44638537D01*
X150328597Y-44667534D01*
X150328594Y-44667547D01*
X150299501Y-44888533D01*
X150299500Y-44888549D01*
X150299500Y-45111450D01*
X150299501Y-45111466D01*
X150328594Y-45332452D01*
X150328595Y-45332457D01*
X150328596Y-45332463D01*
X150384420Y-45540801D01*
X150386290Y-45547780D01*
X150386293Y-45547790D01*
X150471593Y-45753722D01*
X150471595Y-45753726D01*
X150583052Y-45946774D01*
X150583057Y-45946780D01*
X150583058Y-45946782D01*
X150718751Y-46123622D01*
X150718756Y-46123628D01*
X150763180Y-46168051D01*
X150796666Y-46229374D01*
X150799500Y-46255733D01*
X150799500Y-48956145D01*
X150779815Y-49023184D01*
X150727011Y-49068939D01*
X150657853Y-49078883D01*
X150637182Y-49074076D01*
X150521371Y-49036447D01*
X150288097Y-48999500D01*
X150288092Y-48999500D01*
X150051908Y-48999500D01*
X150051903Y-48999500D01*
X149818631Y-49036446D01*
X149594003Y-49109433D01*
X149383566Y-49216657D01*
X149274550Y-49295862D01*
X149192490Y-49355483D01*
X149192488Y-49355485D01*
X149192487Y-49355485D01*
X149025485Y-49522487D01*
X149025485Y-49522488D01*
X149025483Y-49522490D01*
X148996277Y-49562689D01*
X148886657Y-49713566D01*
X148779433Y-49924003D01*
X148706446Y-50148631D01*
X148669500Y-50381902D01*
X148669500Y-50618097D01*
X148706446Y-50851368D01*
X148779433Y-51075996D01*
X148855825Y-51225922D01*
X148886657Y-51286433D01*
X149025483Y-51477510D01*
X149192490Y-51644517D01*
X149383567Y-51783343D01*
X149424417Y-51804157D01*
X149594003Y-51890566D01*
X149594005Y-51890566D01*
X149594008Y-51890568D01*
X149714412Y-51929689D01*
X149818631Y-51963553D01*
X150051903Y-52000500D01*
X150051908Y-52000500D01*
X150288097Y-52000500D01*
X150521368Y-51963553D01*
X150589566Y-51941394D01*
X150745992Y-51890568D01*
X150956433Y-51783343D01*
X150994238Y-51755875D01*
X151037862Y-51724182D01*
X151103668Y-51700702D01*
X151110747Y-51700500D01*
X151594486Y-51700500D01*
X151781118Y-51670940D01*
X151808718Y-51661972D01*
X151960832Y-51612547D01*
X152129199Y-51526760D01*
X152282074Y-51415690D01*
X152915690Y-50782073D01*
X153026760Y-50629199D01*
X153112547Y-50460832D01*
X153170940Y-50281118D01*
X153175173Y-50254394D01*
X153200500Y-50094486D01*
X153200500Y-46255733D01*
X153220185Y-46188694D01*
X153236820Y-46168051D01*
X153281243Y-46123628D01*
X153281247Y-46123624D01*
X153416948Y-45946774D01*
X153528405Y-45753726D01*
X153613710Y-45547781D01*
X153671404Y-45332463D01*
X153700500Y-45111457D01*
X153700500Y-44888549D01*
X155299500Y-44888549D01*
X155299500Y-45111450D01*
X155299501Y-45111466D01*
X155328594Y-45332452D01*
X155328595Y-45332457D01*
X155328596Y-45332463D01*
X155384420Y-45540801D01*
X155386290Y-45547780D01*
X155386293Y-45547790D01*
X155471593Y-45753722D01*
X155471595Y-45753726D01*
X155583052Y-45946774D01*
X155583057Y-45946780D01*
X155583058Y-45946782D01*
X155718751Y-46123622D01*
X155718757Y-46123629D01*
X155876370Y-46281242D01*
X155876376Y-46281247D01*
X156053226Y-46416948D01*
X156246274Y-46528405D01*
X156452219Y-46613710D01*
X156667537Y-46671404D01*
X156888543Y-46700500D01*
X156888550Y-46700500D01*
X157111450Y-46700500D01*
X157111457Y-46700500D01*
X157332463Y-46671404D01*
X157547781Y-46613710D01*
X157753726Y-46528405D01*
X157946774Y-46416948D01*
X158123624Y-46281247D01*
X158281247Y-46123624D01*
X158416948Y-45946774D01*
X158528405Y-45753726D01*
X158613710Y-45547781D01*
X158671404Y-45332463D01*
X158700500Y-45111457D01*
X158700500Y-44888543D01*
X158671404Y-44667537D01*
X158613710Y-44452219D01*
X158599348Y-44417547D01*
X158563372Y-44330693D01*
X158528405Y-44246274D01*
X158416948Y-44053226D01*
X158352865Y-43969711D01*
X158281248Y-43876377D01*
X158281242Y-43876370D01*
X158123629Y-43718757D01*
X158123622Y-43718751D01*
X157946782Y-43583058D01*
X157946780Y-43583057D01*
X157946774Y-43583052D01*
X157753726Y-43471595D01*
X157753722Y-43471593D01*
X157547790Y-43386293D01*
X157547783Y-43386291D01*
X157547781Y-43386290D01*
X157332463Y-43328596D01*
X157332457Y-43328595D01*
X157332452Y-43328594D01*
X157111466Y-43299501D01*
X157111463Y-43299500D01*
X157111457Y-43299500D01*
X156888543Y-43299500D01*
X156888537Y-43299500D01*
X156888533Y-43299501D01*
X156667547Y-43328594D01*
X156667540Y-43328595D01*
X156667537Y-43328596D01*
X156650885Y-43333058D01*
X156452219Y-43386290D01*
X156452209Y-43386293D01*
X156246277Y-43471593D01*
X156246273Y-43471595D01*
X156053226Y-43583052D01*
X156053217Y-43583058D01*
X155876377Y-43718751D01*
X155876370Y-43718757D01*
X155718757Y-43876370D01*
X155718751Y-43876377D01*
X155583058Y-44053217D01*
X155583052Y-44053226D01*
X155471595Y-44246273D01*
X155471593Y-44246277D01*
X155386293Y-44452209D01*
X155386290Y-44452219D01*
X155336367Y-44638537D01*
X155328597Y-44667534D01*
X155328594Y-44667547D01*
X155299501Y-44888533D01*
X155299500Y-44888549D01*
X153700500Y-44888549D01*
X153700500Y-44888543D01*
X153671404Y-44667537D01*
X153613710Y-44452219D01*
X153599348Y-44417547D01*
X153563372Y-44330693D01*
X153528405Y-44246274D01*
X153416948Y-44053226D01*
X153352865Y-43969711D01*
X153281248Y-43876377D01*
X153281242Y-43876370D01*
X153236819Y-43831947D01*
X153203334Y-43770624D01*
X153200500Y-43744266D01*
X153200500Y-43405513D01*
X153170940Y-43218881D01*
X153112545Y-43039163D01*
X153026759Y-42870800D01*
X153003909Y-42839350D01*
X152915690Y-42717927D01*
X152782073Y-42584310D01*
X152282074Y-42084310D01*
X152131371Y-41974818D01*
X152088706Y-41919488D01*
X152082727Y-41849874D01*
X152115333Y-41788080D01*
X152176172Y-41753722D01*
X152204257Y-41750500D01*
X160742149Y-41750500D01*
X160809188Y-41770185D01*
X160854943Y-41822989D01*
X160864887Y-41892147D01*
X160835862Y-41955703D01*
X160831356Y-41960541D01*
X160830695Y-41961315D01*
X160688861Y-42156532D01*
X160579312Y-42371531D01*
X160579311Y-42371534D01*
X160504748Y-42601020D01*
X160467000Y-42839350D01*
X160467000Y-43080649D01*
X160504748Y-43318979D01*
X160579311Y-43548465D01*
X160579312Y-43548468D01*
X160688861Y-43763467D01*
X160830693Y-43958682D01*
X161001318Y-44129307D01*
X161001324Y-44129311D01*
X161001835Y-44129683D01*
X161001982Y-44129873D01*
X161005023Y-44132471D01*
X161004477Y-44133109D01*
X161044501Y-44185013D01*
X161050479Y-44254627D01*
X161017872Y-44316421D01*
X161001835Y-44330317D01*
X161001324Y-44330688D01*
X161001315Y-44330695D01*
X160830695Y-44501315D01*
X160688861Y-44696532D01*
X160579312Y-44911531D01*
X160579311Y-44911534D01*
X160504748Y-45141020D01*
X160467000Y-45379350D01*
X160467000Y-45620649D01*
X160504748Y-45858979D01*
X160579311Y-46088465D01*
X160579312Y-46088468D01*
X160661618Y-46250000D01*
X160688861Y-46303467D01*
X160830693Y-46498682D01*
X160830695Y-46498684D01*
X160994330Y-46662319D01*
X161027815Y-46723642D01*
X161022831Y-46793334D01*
X160994330Y-46837681D01*
X160830695Y-47001315D01*
X160688861Y-47196532D01*
X160579312Y-47411531D01*
X160579311Y-47411534D01*
X160504748Y-47641020D01*
X160467000Y-47879350D01*
X160467000Y-48120649D01*
X160504748Y-48358979D01*
X160579311Y-48588465D01*
X160579312Y-48588468D01*
X160635887Y-48699500D01*
X160682709Y-48791394D01*
X160688863Y-48803470D01*
X160705155Y-48825895D01*
X160728635Y-48891702D01*
X160712809Y-48959755D01*
X160662703Y-49008450D01*
X160594225Y-49022325D01*
X160585439Y-49021253D01*
X160448097Y-48999500D01*
X160448092Y-48999500D01*
X160211908Y-48999500D01*
X160211903Y-48999500D01*
X159978631Y-49036446D01*
X159754003Y-49109433D01*
X159543566Y-49216657D01*
X159434550Y-49295862D01*
X159352490Y-49355483D01*
X159352488Y-49355485D01*
X159352487Y-49355485D01*
X159185485Y-49522487D01*
X159185485Y-49522488D01*
X159185483Y-49522490D01*
X159156277Y-49562689D01*
X159046657Y-49713566D01*
X158939433Y-49924003D01*
X158866446Y-50148631D01*
X158829500Y-50381902D01*
X158829500Y-50618097D01*
X158866446Y-50851368D01*
X158939433Y-51075996D01*
X159015825Y-51225922D01*
X159046657Y-51286433D01*
X159185483Y-51477510D01*
X159352490Y-51644517D01*
X159543567Y-51783343D01*
X159584417Y-51804157D01*
X159754003Y-51890566D01*
X159754005Y-51890566D01*
X159754008Y-51890568D01*
X159874412Y-51929689D01*
X159978631Y-51963553D01*
X160211903Y-52000500D01*
X160211908Y-52000500D01*
X160448097Y-52000500D01*
X160681368Y-51963553D01*
X160749566Y-51941394D01*
X160905992Y-51890568D01*
X161116433Y-51783343D01*
X161307510Y-51644517D01*
X161474517Y-51477510D01*
X161613343Y-51286433D01*
X161720568Y-51075992D01*
X161793553Y-50851368D01*
X161830500Y-50618097D01*
X161830500Y-50381902D01*
X161793553Y-50148631D01*
X161759689Y-50044412D01*
X161720568Y-49924008D01*
X161720566Y-49924005D01*
X161720566Y-49924003D01*
X161613342Y-49713565D01*
X161606464Y-49704099D01*
X161582983Y-49638293D01*
X161598807Y-49570239D01*
X161648912Y-49521543D01*
X161717390Y-49507667D01*
X161726155Y-49508735D01*
X161879350Y-49533000D01*
X161879352Y-49533000D01*
X162120648Y-49533000D01*
X162120650Y-49533000D01*
X162273822Y-49508739D01*
X162343113Y-49517693D01*
X162396565Y-49562689D01*
X162417205Y-49629440D01*
X162398481Y-49696754D01*
X162393538Y-49704094D01*
X162386659Y-49713561D01*
X162279433Y-49924003D01*
X162206446Y-50148631D01*
X162169500Y-50381902D01*
X162169500Y-50618097D01*
X162206446Y-50851368D01*
X162279433Y-51075996D01*
X162355825Y-51225922D01*
X162386657Y-51286433D01*
X162525483Y-51477510D01*
X162692490Y-51644517D01*
X162883567Y-51783343D01*
X162924417Y-51804157D01*
X163094003Y-51890566D01*
X163094005Y-51890566D01*
X163094008Y-51890568D01*
X163214412Y-51929689D01*
X163318631Y-51963553D01*
X163551903Y-52000500D01*
X163551908Y-52000500D01*
X163788097Y-52000500D01*
X164021368Y-51963553D01*
X164089566Y-51941394D01*
X164245992Y-51890568D01*
X164456433Y-51783343D01*
X164647510Y-51644517D01*
X164814517Y-51477510D01*
X164953343Y-51286433D01*
X165060568Y-51075992D01*
X165133553Y-50851368D01*
X165170500Y-50618097D01*
X165170500Y-50397682D01*
X172530000Y-50397682D01*
X172530000Y-50602317D01*
X172562009Y-50804417D01*
X172625244Y-50999031D01*
X172718141Y-51181350D01*
X172718147Y-51181359D01*
X172750523Y-51225921D01*
X172750524Y-51225922D01*
X173430000Y-50546446D01*
X173430000Y-50552661D01*
X173457259Y-50654394D01*
X173509920Y-50745606D01*
X173584394Y-50820080D01*
X173675606Y-50872741D01*
X173777339Y-50900000D01*
X173783553Y-50900000D01*
X173104076Y-51579474D01*
X173148650Y-51611859D01*
X173330968Y-51704755D01*
X173525582Y-51767990D01*
X173727683Y-51800000D01*
X173932317Y-51800000D01*
X174134417Y-51767990D01*
X174329031Y-51704755D01*
X174511349Y-51611859D01*
X174555922Y-51579474D01*
X173876447Y-50900000D01*
X173882661Y-50900000D01*
X173984394Y-50872741D01*
X174075606Y-50820080D01*
X174150080Y-50745606D01*
X174202741Y-50654394D01*
X174230000Y-50552661D01*
X174230000Y-50546447D01*
X174909474Y-51225921D01*
X174941859Y-51181349D01*
X175034755Y-50999031D01*
X175097990Y-50804417D01*
X175130000Y-50602317D01*
X175130000Y-50397682D01*
X175097990Y-50195582D01*
X175034755Y-50000968D01*
X174941859Y-49818650D01*
X174909474Y-49774077D01*
X174909474Y-49774076D01*
X174230000Y-50453551D01*
X174230000Y-50447339D01*
X174202741Y-50345606D01*
X174150080Y-50254394D01*
X174075606Y-50179920D01*
X173984394Y-50127259D01*
X173882661Y-50100000D01*
X173876446Y-50100000D01*
X174555922Y-49420524D01*
X174555921Y-49420523D01*
X174511359Y-49388147D01*
X174511350Y-49388141D01*
X174329031Y-49295244D01*
X174134417Y-49232009D01*
X173932317Y-49200000D01*
X173727683Y-49200000D01*
X173525582Y-49232009D01*
X173330968Y-49295244D01*
X173148644Y-49388143D01*
X173104077Y-49420523D01*
X173104077Y-49420524D01*
X173783554Y-50100000D01*
X173777339Y-50100000D01*
X173675606Y-50127259D01*
X173584394Y-50179920D01*
X173509920Y-50254394D01*
X173457259Y-50345606D01*
X173430000Y-50447339D01*
X173430000Y-50453553D01*
X172750524Y-49774077D01*
X172750523Y-49774077D01*
X172718143Y-49818644D01*
X172625244Y-50000968D01*
X172562009Y-50195582D01*
X172530000Y-50397682D01*
X165170500Y-50397682D01*
X165170500Y-50381902D01*
X165133553Y-50148631D01*
X165099689Y-50044412D01*
X165060568Y-49924008D01*
X165060566Y-49924005D01*
X165060566Y-49924003D01*
X164983364Y-49772487D01*
X164953343Y-49713567D01*
X164814517Y-49522490D01*
X164647510Y-49355483D01*
X164456433Y-49216657D01*
X164423742Y-49200000D01*
X164245996Y-49109433D01*
X164021368Y-49036446D01*
X163788097Y-48999500D01*
X163788092Y-48999500D01*
X163551908Y-48999500D01*
X163551903Y-48999500D01*
X163414560Y-49021253D01*
X163345266Y-49012298D01*
X163291815Y-48967302D01*
X163271175Y-48900551D01*
X163289900Y-48833237D01*
X163294844Y-48825895D01*
X163311139Y-48803467D01*
X163420687Y-48588468D01*
X163495252Y-48358978D01*
X163503527Y-48306733D01*
X163533456Y-48243598D01*
X163592768Y-48206667D01*
X163662630Y-48207665D01*
X163720863Y-48246275D01*
X163748977Y-48310239D01*
X163750000Y-48326131D01*
X163750000Y-48500000D01*
X175626000Y-48500000D01*
X175693039Y-48519685D01*
X175738794Y-48572489D01*
X175750000Y-48624000D01*
X175750000Y-116626000D01*
X175730315Y-116693039D01*
X175677511Y-116738794D01*
X175626000Y-116750000D01*
X164250000Y-116750000D01*
X164250000Y-125376000D01*
X164230315Y-125443039D01*
X164177511Y-125488794D01*
X164126000Y-125500000D01*
X88124000Y-125500000D01*
X88056961Y-125480315D01*
X88011206Y-125427511D01*
X88000000Y-125376000D01*
X88000000Y-120131902D01*
X88669500Y-120131902D01*
X88669500Y-120368097D01*
X88706446Y-120601368D01*
X88779433Y-120825996D01*
X88863114Y-120990228D01*
X88886657Y-121036433D01*
X89025483Y-121227510D01*
X89192490Y-121394517D01*
X89383567Y-121533343D01*
X89463814Y-121574231D01*
X89594003Y-121640566D01*
X89594005Y-121640566D01*
X89594008Y-121640568D01*
X89703986Y-121676302D01*
X89818631Y-121713553D01*
X90051903Y-121750500D01*
X90051908Y-121750500D01*
X90288097Y-121750500D01*
X90521368Y-121713553D01*
X90745992Y-121640568D01*
X90956433Y-121533343D01*
X91147510Y-121394517D01*
X91314517Y-121227510D01*
X91453343Y-121036433D01*
X91560568Y-120825992D01*
X91633553Y-120601368D01*
X91640887Y-120555061D01*
X91670500Y-120368097D01*
X91670500Y-120131902D01*
X98829500Y-120131902D01*
X98829500Y-120368097D01*
X98866446Y-120601368D01*
X98939433Y-120825996D01*
X99023114Y-120990228D01*
X99046657Y-121036433D01*
X99185483Y-121227510D01*
X99352490Y-121394517D01*
X99543567Y-121533343D01*
X99623814Y-121574231D01*
X99754003Y-121640566D01*
X99754005Y-121640566D01*
X99754008Y-121640568D01*
X99863986Y-121676302D01*
X99978631Y-121713553D01*
X100211903Y-121750500D01*
X100211908Y-121750500D01*
X100448097Y-121750500D01*
X100681368Y-121713553D01*
X100905992Y-121640568D01*
X101116433Y-121533343D01*
X101307510Y-121394517D01*
X101316190Y-121385837D01*
X102549500Y-121385837D01*
X102549500Y-121614162D01*
X102585215Y-121839660D01*
X102655770Y-122056803D01*
X102727952Y-122198467D01*
X102759421Y-122260228D01*
X102893621Y-122444937D01*
X103055063Y-122606379D01*
X103239772Y-122740579D01*
X103297514Y-122770000D01*
X103443196Y-122844229D01*
X103443198Y-122844229D01*
X103443201Y-122844231D01*
X103517530Y-122868382D01*
X103660339Y-122914784D01*
X103885838Y-122950500D01*
X103957101Y-122950500D01*
X104024140Y-122970185D01*
X104069895Y-123022989D01*
X104079574Y-123055102D01*
X104080778Y-123062705D01*
X104141581Y-123249835D01*
X104230905Y-123425145D01*
X104256319Y-123460125D01*
X104256320Y-123460125D01*
X104817037Y-122899408D01*
X104834075Y-122962993D01*
X104899901Y-123077007D01*
X104992993Y-123170099D01*
X105107007Y-123235925D01*
X105170590Y-123252962D01*
X104609873Y-123813677D01*
X104609873Y-123813678D01*
X104644858Y-123839096D01*
X104820164Y-123928418D01*
X105007294Y-123989221D01*
X105201618Y-124020000D01*
X105398382Y-124020000D01*
X105592705Y-123989221D01*
X105779835Y-123928418D01*
X105955143Y-123839095D01*
X105990125Y-123813678D01*
X105990126Y-123813678D01*
X105429410Y-123252962D01*
X105492993Y-123235925D01*
X105607007Y-123170099D01*
X105700099Y-123077007D01*
X105765925Y-122962993D01*
X105782962Y-122899409D01*
X106343678Y-123460126D01*
X106343678Y-123460125D01*
X106369095Y-123425143D01*
X106458418Y-123249835D01*
X106519221Y-123062705D01*
X106550000Y-122868382D01*
X106550000Y-122671617D01*
X106519221Y-122477294D01*
X106458418Y-122290164D01*
X106369096Y-122114858D01*
X106343678Y-122079873D01*
X106343677Y-122079873D01*
X105782962Y-122640589D01*
X105765925Y-122577007D01*
X105700099Y-122462993D01*
X105607007Y-122369901D01*
X105492993Y-122304075D01*
X105429408Y-122287037D01*
X105990125Y-121726320D01*
X105990125Y-121726319D01*
X105975829Y-121715933D01*
X105933163Y-121660604D01*
X105927182Y-121590991D01*
X105959787Y-121529195D01*
X105992417Y-121505130D01*
X106060228Y-121470579D01*
X106244937Y-121336379D01*
X106406379Y-121174937D01*
X106540579Y-120990228D01*
X106644231Y-120786799D01*
X106714784Y-120569660D01*
X106742239Y-120396318D01*
X106746272Y-120370853D01*
X119279500Y-120370853D01*
X119279500Y-120629146D01*
X119279501Y-120629162D01*
X119313215Y-120885248D01*
X119380071Y-121134758D01*
X119478918Y-121373396D01*
X119478923Y-121373407D01*
X119608069Y-121597092D01*
X119608080Y-121597108D01*
X119765319Y-121802027D01*
X119765325Y-121802034D01*
X119947965Y-121984674D01*
X119947971Y-121984679D01*
X120152900Y-122141926D01*
X120152907Y-122141930D01*
X120376592Y-122271076D01*
X120376597Y-122271078D01*
X120376600Y-122271080D01*
X120495922Y-122320504D01*
X120615241Y-122369928D01*
X120615242Y-122369928D01*
X120615244Y-122369929D01*
X120864750Y-122436784D01*
X121120847Y-122470500D01*
X121120854Y-122470500D01*
X121379146Y-122470500D01*
X121379153Y-122470500D01*
X121635250Y-122436784D01*
X121884756Y-122369929D01*
X122123400Y-122271080D01*
X122347100Y-122141926D01*
X122552029Y-121984679D01*
X122734679Y-121802029D01*
X122891926Y-121597100D01*
X123021080Y-121373400D01*
X123119929Y-121134756D01*
X123186784Y-120885250D01*
X123220500Y-120629153D01*
X123220500Y-120370847D01*
X123186784Y-120114750D01*
X123119929Y-119865244D01*
X123021080Y-119626600D01*
X123021078Y-119626597D01*
X123021076Y-119626592D01*
X122891930Y-119402907D01*
X122891926Y-119402900D01*
X122791857Y-119272487D01*
X122734680Y-119197972D01*
X122734674Y-119197965D01*
X122552034Y-119015325D01*
X122552027Y-119015319D01*
X122347108Y-118858080D01*
X122347106Y-118858078D01*
X122347100Y-118858074D01*
X122347095Y-118858071D01*
X122347092Y-118858069D01*
X122123407Y-118728923D01*
X122123396Y-118728918D01*
X121884758Y-118630071D01*
X121635248Y-118563215D01*
X121379162Y-118529501D01*
X121379159Y-118529500D01*
X121379153Y-118529500D01*
X121120847Y-118529500D01*
X121120841Y-118529500D01*
X121120837Y-118529501D01*
X120864751Y-118563215D01*
X120615241Y-118630071D01*
X120376603Y-118728918D01*
X120376592Y-118728923D01*
X120152907Y-118858069D01*
X120152891Y-118858080D01*
X119947972Y-119015319D01*
X119947965Y-119015325D01*
X119765325Y-119197965D01*
X119765319Y-119197972D01*
X119608080Y-119402891D01*
X119608069Y-119402907D01*
X119478923Y-119626592D01*
X119478918Y-119626603D01*
X119380071Y-119865241D01*
X119313215Y-120114751D01*
X119279501Y-120370837D01*
X119279500Y-120370853D01*
X106746272Y-120370853D01*
X106749977Y-120347464D01*
X106749988Y-120347393D01*
X106750500Y-120344159D01*
X106750500Y-120115837D01*
X106714784Y-119890339D01*
X106644493Y-119674008D01*
X106644231Y-119673201D01*
X106644229Y-119673198D01*
X106644229Y-119673196D01*
X106540578Y-119469771D01*
X106406379Y-119285063D01*
X106244937Y-119123621D01*
X106060228Y-118989421D01*
X106015551Y-118966657D01*
X105856803Y-118885770D01*
X105639660Y-118815215D01*
X105414162Y-118779500D01*
X105414157Y-118779500D01*
X105185843Y-118779500D01*
X105185838Y-118779500D01*
X104960339Y-118815215D01*
X104743196Y-118885770D01*
X104539771Y-118989421D01*
X104355061Y-119123622D01*
X104193622Y-119285061D01*
X104059421Y-119469771D01*
X103955770Y-119673198D01*
X103885215Y-119890342D01*
X103873435Y-119964716D01*
X103843505Y-120027851D01*
X103784193Y-120064781D01*
X103770360Y-120067790D01*
X103660343Y-120085215D01*
X103443198Y-120155770D01*
X103239771Y-120259421D01*
X103055061Y-120393622D01*
X102893622Y-120555061D01*
X102759421Y-120739771D01*
X102655770Y-120943196D01*
X102585215Y-121160339D01*
X102549500Y-121385837D01*
X101316190Y-121385837D01*
X101474517Y-121227510D01*
X101613343Y-121036433D01*
X101720568Y-120825992D01*
X101793553Y-120601368D01*
X101800887Y-120555061D01*
X101830500Y-120368097D01*
X101830500Y-120131902D01*
X101793553Y-119898631D01*
X101720566Y-119674003D01*
X101664002Y-119562991D01*
X101613343Y-119463567D01*
X101474517Y-119272490D01*
X101307510Y-119105483D01*
X101116433Y-118966657D01*
X100905996Y-118859433D01*
X100681368Y-118786446D01*
X100448097Y-118749500D01*
X100448092Y-118749500D01*
X100211908Y-118749500D01*
X100211903Y-118749500D01*
X99978631Y-118786446D01*
X99754003Y-118859433D01*
X99543566Y-118966657D01*
X99476587Y-119015321D01*
X99352490Y-119105483D01*
X99352488Y-119105485D01*
X99352487Y-119105485D01*
X99185485Y-119272487D01*
X99185485Y-119272488D01*
X99185483Y-119272490D01*
X99125862Y-119354550D01*
X99046657Y-119463566D01*
X98939433Y-119674003D01*
X98866446Y-119898631D01*
X98829500Y-120131902D01*
X91670500Y-120131902D01*
X91633553Y-119898631D01*
X91560566Y-119674003D01*
X91504002Y-119562991D01*
X91453343Y-119463567D01*
X91314517Y-119272490D01*
X91147510Y-119105483D01*
X90956433Y-118966657D01*
X90745996Y-118859433D01*
X90521368Y-118786446D01*
X90288097Y-118749500D01*
X90288092Y-118749500D01*
X90051908Y-118749500D01*
X90051903Y-118749500D01*
X89818631Y-118786446D01*
X89594003Y-118859433D01*
X89383566Y-118966657D01*
X89316587Y-119015321D01*
X89192490Y-119105483D01*
X89192488Y-119105485D01*
X89192487Y-119105485D01*
X89025485Y-119272487D01*
X89025485Y-119272488D01*
X89025483Y-119272490D01*
X88965862Y-119354550D01*
X88886657Y-119463566D01*
X88779433Y-119674003D01*
X88706446Y-119898631D01*
X88669500Y-120131902D01*
X88000000Y-120131902D01*
X88000000Y-118500000D01*
X79874000Y-118500000D01*
X79806961Y-118480315D01*
X79761206Y-118427511D01*
X79750000Y-118376000D01*
X79750000Y-113702157D01*
X80750000Y-113702157D01*
X80750000Y-116797844D01*
X80756401Y-116857373D01*
X80765276Y-116881170D01*
X82350000Y-115296446D01*
X82350000Y-115302661D01*
X82377259Y-115404394D01*
X82429920Y-115495606D01*
X82504394Y-115570080D01*
X82595606Y-115622741D01*
X82697339Y-115650000D01*
X82703553Y-115650000D01*
X81118829Y-117234722D01*
X81142623Y-117243597D01*
X81142627Y-117243598D01*
X81202155Y-117249999D01*
X81202172Y-117250000D01*
X84297828Y-117250000D01*
X84297844Y-117249999D01*
X84357375Y-117243598D01*
X84381170Y-117234723D01*
X84381170Y-117234722D01*
X82796447Y-115650000D01*
X82802661Y-115650000D01*
X82904394Y-115622741D01*
X82995606Y-115570080D01*
X83070080Y-115495606D01*
X83122741Y-115404394D01*
X83150000Y-115302661D01*
X83150000Y-115296447D01*
X84734722Y-116881170D01*
X84734723Y-116881170D01*
X84743598Y-116857375D01*
X84749999Y-116797844D01*
X84750000Y-116797827D01*
X84750000Y-113702172D01*
X84749999Y-113702155D01*
X84743598Y-113642627D01*
X84743597Y-113642623D01*
X84734722Y-113618829D01*
X83150000Y-115203551D01*
X83150000Y-115197339D01*
X83122741Y-115095606D01*
X83070080Y-115004394D01*
X82995606Y-114929920D01*
X82904394Y-114877259D01*
X82802661Y-114850000D01*
X82796448Y-114850000D01*
X84381170Y-113265276D01*
X84357373Y-113256401D01*
X84297844Y-113250000D01*
X81202157Y-113250000D01*
X81142625Y-113256401D01*
X81142615Y-113256404D01*
X81118829Y-113265274D01*
X81118829Y-113265277D01*
X82703553Y-114850000D01*
X82697339Y-114850000D01*
X82595606Y-114877259D01*
X82504394Y-114929920D01*
X82429920Y-115004394D01*
X82377259Y-115095606D01*
X82350000Y-115197339D01*
X82350000Y-115203552D01*
X80765277Y-113618829D01*
X80765274Y-113618829D01*
X80756404Y-113642615D01*
X80756401Y-113642625D01*
X80750000Y-113702157D01*
X79750000Y-113702157D01*
X79750000Y-63202157D01*
X80750000Y-63202157D01*
X80750000Y-66297844D01*
X80756401Y-66357373D01*
X80765276Y-66381170D01*
X82350000Y-64796446D01*
X82350000Y-64802661D01*
X82377259Y-64904394D01*
X82429920Y-64995606D01*
X82504394Y-65070080D01*
X82595606Y-65122741D01*
X82697339Y-65150000D01*
X82703553Y-65150000D01*
X81118829Y-66734722D01*
X81142623Y-66743597D01*
X81142627Y-66743598D01*
X81202155Y-66749999D01*
X81202172Y-66750000D01*
X84297828Y-66750000D01*
X84297844Y-66749999D01*
X84357375Y-66743598D01*
X84381170Y-66734723D01*
X84381170Y-66734722D01*
X82796447Y-65150000D01*
X82802661Y-65150000D01*
X82904394Y-65122741D01*
X82995606Y-65070080D01*
X83070080Y-64995606D01*
X83122741Y-64904394D01*
X83150000Y-64802661D01*
X83150000Y-64796447D01*
X84734722Y-66381170D01*
X84734723Y-66381170D01*
X84743598Y-66357375D01*
X84749999Y-66297844D01*
X84750000Y-66297827D01*
X84750000Y-63202172D01*
X84749999Y-63202155D01*
X84743598Y-63142627D01*
X84743597Y-63142623D01*
X84734722Y-63118829D01*
X83150000Y-64703551D01*
X83150000Y-64697339D01*
X83122741Y-64595606D01*
X83070080Y-64504394D01*
X82995606Y-64429920D01*
X82904394Y-64377259D01*
X82802661Y-64350000D01*
X82796448Y-64350000D01*
X84381170Y-62765276D01*
X84357373Y-62756401D01*
X84297844Y-62750000D01*
X81202157Y-62750000D01*
X81142625Y-62756401D01*
X81142615Y-62756404D01*
X81118829Y-62765274D01*
X81118829Y-62765277D01*
X82703553Y-64350000D01*
X82697339Y-64350000D01*
X82595606Y-64377259D01*
X82504394Y-64429920D01*
X82429920Y-64504394D01*
X82377259Y-64595606D01*
X82350000Y-64697339D01*
X82350000Y-64703552D01*
X80765277Y-63118829D01*
X80765274Y-63118829D01*
X80756404Y-63142615D01*
X80756401Y-63142625D01*
X80750000Y-63202157D01*
X79750000Y-63202157D01*
X79750000Y-59195837D01*
X82199500Y-59195837D01*
X82199500Y-59424162D01*
X82235215Y-59649660D01*
X82305770Y-59866803D01*
X82409421Y-60070228D01*
X82543621Y-60254937D01*
X82705063Y-60416379D01*
X82889772Y-60550579D01*
X82971407Y-60592174D01*
X83093196Y-60654229D01*
X83093198Y-60654229D01*
X83093201Y-60654231D01*
X83209592Y-60692049D01*
X83310339Y-60724784D01*
X83535838Y-60760500D01*
X83535843Y-60760500D01*
X83764162Y-60760500D01*
X83989660Y-60724784D01*
X84012321Y-60717421D01*
X84206799Y-60654231D01*
X84410228Y-60550579D01*
X84415403Y-60546819D01*
X84432796Y-60534183D01*
X84498602Y-60510702D01*
X84505682Y-60510500D01*
X85761374Y-60510500D01*
X85828413Y-60530185D01*
X85849055Y-60546819D01*
X87013181Y-61710945D01*
X87046666Y-61772268D01*
X87049500Y-61798626D01*
X87049500Y-71594486D01*
X87079059Y-71781118D01*
X87137454Y-71960836D01*
X87223240Y-72129199D01*
X87334310Y-72282074D01*
X88717926Y-73665690D01*
X88870801Y-73776760D01*
X88950347Y-73817290D01*
X89039163Y-73862545D01*
X89039165Y-73862545D01*
X89039168Y-73862547D01*
X89135497Y-73893846D01*
X89218881Y-73920940D01*
X89405514Y-73950500D01*
X89405519Y-73950500D01*
X89594482Y-73950500D01*
X98052374Y-73950500D01*
X98119413Y-73970185D01*
X98165168Y-74022989D01*
X98175112Y-74092147D01*
X98146087Y-74155703D01*
X98140055Y-74162181D01*
X97834312Y-74467922D01*
X97834311Y-74467923D01*
X97827891Y-74476761D01*
X97827890Y-74476762D01*
X97723242Y-74620797D01*
X97637454Y-74789163D01*
X97579059Y-74968881D01*
X97549500Y-75155513D01*
X97549500Y-107844486D01*
X97579059Y-108031118D01*
X97637454Y-108210836D01*
X97701239Y-108336020D01*
X97723240Y-108379199D01*
X97834310Y-108532074D01*
X97834312Y-108532076D01*
X102013181Y-112710945D01*
X102027884Y-112737872D01*
X102044477Y-112763691D01*
X102045368Y-112769891D01*
X102046666Y-112772268D01*
X102049500Y-112798626D01*
X102049500Y-112925500D01*
X102029815Y-112992539D01*
X101977011Y-113038294D01*
X101925500Y-113049500D01*
X101693384Y-113049500D01*
X101674145Y-113051248D01*
X101622807Y-113055913D01*
X101460393Y-113106522D01*
X101314811Y-113194530D01*
X101194530Y-113314811D01*
X101106522Y-113460393D01*
X101055913Y-113622807D01*
X101049500Y-113693386D01*
X101049500Y-116806613D01*
X101055913Y-116877192D01*
X101055913Y-116877194D01*
X101055914Y-116877196D01*
X101064100Y-116903465D01*
X101106522Y-117039606D01*
X101194530Y-117185188D01*
X101314811Y-117305469D01*
X101314813Y-117305470D01*
X101314815Y-117305472D01*
X101460394Y-117393478D01*
X101622804Y-117444086D01*
X101693384Y-117450500D01*
X101693387Y-117450500D01*
X104806613Y-117450500D01*
X104806616Y-117450500D01*
X104877196Y-117444086D01*
X105039606Y-117393478D01*
X105185185Y-117305472D01*
X105305472Y-117185185D01*
X105393478Y-117039606D01*
X105444086Y-116877196D01*
X105450500Y-116806616D01*
X105450500Y-116731995D01*
X105699500Y-116731995D01*
X105699500Y-116968004D01*
X105699501Y-116968020D01*
X105730306Y-117202010D01*
X105791394Y-117429993D01*
X105881714Y-117648045D01*
X105881719Y-117648056D01*
X105952677Y-117770957D01*
X105999727Y-117852450D01*
X105999729Y-117852453D01*
X105999730Y-117852454D01*
X106143406Y-118039697D01*
X106143412Y-118039704D01*
X106310295Y-118206587D01*
X106310301Y-118206592D01*
X106497550Y-118350273D01*
X106628918Y-118426118D01*
X106701943Y-118468280D01*
X106701948Y-118468282D01*
X106701951Y-118468284D01*
X106920007Y-118558606D01*
X107147986Y-118619693D01*
X107381989Y-118650500D01*
X107381996Y-118650500D01*
X107618004Y-118650500D01*
X107618011Y-118650500D01*
X107852014Y-118619693D01*
X108079993Y-118558606D01*
X108298049Y-118468284D01*
X108502450Y-118350273D01*
X108689699Y-118206592D01*
X108856592Y-118039699D01*
X109000273Y-117852450D01*
X109118284Y-117648049D01*
X109208606Y-117429993D01*
X109269693Y-117202014D01*
X109300500Y-116968011D01*
X109300500Y-116731989D01*
X109269693Y-116497986D01*
X109208606Y-116270007D01*
X109118284Y-116051951D01*
X109118282Y-116051948D01*
X109118280Y-116051943D01*
X109062898Y-115956020D01*
X109000273Y-115847550D01*
X108856592Y-115660301D01*
X108856587Y-115660295D01*
X108689704Y-115493412D01*
X108689697Y-115493406D01*
X108502454Y-115349730D01*
X108502453Y-115349729D01*
X108502450Y-115349727D01*
X108420929Y-115302661D01*
X108298056Y-115231719D01*
X108298045Y-115231714D01*
X108079993Y-115141394D01*
X107852010Y-115080306D01*
X107618020Y-115049501D01*
X107618017Y-115049500D01*
X107618011Y-115049500D01*
X107381989Y-115049500D01*
X107381983Y-115049500D01*
X107381979Y-115049501D01*
X107147989Y-115080306D01*
X106920006Y-115141394D01*
X106701954Y-115231714D01*
X106701943Y-115231719D01*
X106497545Y-115349730D01*
X106310302Y-115493406D01*
X106310295Y-115493412D01*
X106143412Y-115660295D01*
X106143406Y-115660302D01*
X105999730Y-115847545D01*
X105881719Y-116051943D01*
X105881714Y-116051954D01*
X105791394Y-116270006D01*
X105730306Y-116497989D01*
X105699501Y-116731979D01*
X105699500Y-116731995D01*
X105450500Y-116731995D01*
X105450500Y-113693384D01*
X105444086Y-113622804D01*
X105393478Y-113460394D01*
X105305472Y-113314815D01*
X105305470Y-113314813D01*
X105305469Y-113314811D01*
X105185188Y-113194530D01*
X105039606Y-113106522D01*
X104877196Y-113055914D01*
X104877194Y-113055913D01*
X104877192Y-113055913D01*
X104827778Y-113051423D01*
X104806616Y-113049500D01*
X104806613Y-113049500D01*
X104574500Y-113049500D01*
X104507461Y-113029815D01*
X104461706Y-112977011D01*
X104450500Y-112925500D01*
X104450500Y-112155519D01*
X104434247Y-112052903D01*
X104434247Y-112052902D01*
X104420940Y-111968884D01*
X104420940Y-111968882D01*
X104362547Y-111789168D01*
X104362545Y-111789165D01*
X104362545Y-111789163D01*
X104276759Y-111620800D01*
X104165690Y-111467926D01*
X99986819Y-107289055D01*
X99953334Y-107227732D01*
X99950500Y-107201374D01*
X99950500Y-103244862D01*
X105699500Y-103244862D01*
X105699500Y-105055130D01*
X105699501Y-105055138D01*
X105709582Y-105168548D01*
X105709582Y-105168550D01*
X105709583Y-105168553D01*
X105762763Y-105354407D01*
X105852266Y-105525751D01*
X105974428Y-105675572D01*
X106124249Y-105797734D01*
X106295593Y-105887237D01*
X106481447Y-105940417D01*
X106594861Y-105950500D01*
X108405138Y-105950499D01*
X108518553Y-105940417D01*
X108704407Y-105887237D01*
X108875751Y-105797734D01*
X109025572Y-105675572D01*
X109147734Y-105525751D01*
X109237237Y-105354407D01*
X109290417Y-105168553D01*
X109300500Y-105055139D01*
X109300499Y-103244862D01*
X109290417Y-103131447D01*
X109237237Y-102945593D01*
X109147734Y-102774249D01*
X109025572Y-102624428D01*
X108875751Y-102502266D01*
X108704407Y-102412763D01*
X108518553Y-102359583D01*
X108518552Y-102359582D01*
X108518549Y-102359582D01*
X108451433Y-102353615D01*
X108405139Y-102349500D01*
X108405134Y-102349500D01*
X106594869Y-102349500D01*
X106594861Y-102349501D01*
X106481451Y-102359582D01*
X106481447Y-102359582D01*
X106481447Y-102359583D01*
X106434504Y-102373015D01*
X106295595Y-102412762D01*
X106295593Y-102412762D01*
X106295593Y-102412763D01*
X106124249Y-102502266D01*
X106124247Y-102502267D01*
X106124246Y-102502268D01*
X105991100Y-102610834D01*
X105974428Y-102624428D01*
X105852266Y-102774249D01*
X105762763Y-102945593D01*
X105762762Y-102945595D01*
X105709582Y-103131450D01*
X105699500Y-103244862D01*
X99950500Y-103244862D01*
X99950500Y-75798624D01*
X99970185Y-75731585D01*
X99986814Y-75710948D01*
X102025005Y-73672756D01*
X102025012Y-73672751D01*
X102032072Y-73665691D01*
X102032074Y-73665690D01*
X104360944Y-71336818D01*
X104422267Y-71303334D01*
X104448625Y-71300500D01*
X107693961Y-71300500D01*
X107761000Y-71320185D01*
X107766846Y-71324182D01*
X107826725Y-71367686D01*
X107886533Y-71411139D01*
X108027079Y-71482751D01*
X108101531Y-71520687D01*
X108101534Y-71520688D01*
X108173058Y-71543927D01*
X108331022Y-71595252D01*
X108569350Y-71633000D01*
X108569351Y-71633000D01*
X108810649Y-71633000D01*
X108810650Y-71633000D01*
X109048978Y-71595252D01*
X109278468Y-71520687D01*
X109493467Y-71411139D01*
X109688682Y-71269307D01*
X109859307Y-71098682D01*
X109859340Y-71098635D01*
X109859680Y-71098170D01*
X109859869Y-71098023D01*
X109862479Y-71094969D01*
X109863120Y-71095516D01*
X109915008Y-71055502D01*
X109984622Y-71049521D01*
X110046418Y-71082125D01*
X110060320Y-71098170D01*
X110060687Y-71098675D01*
X110060691Y-71098680D01*
X110060692Y-71098681D01*
X110060693Y-71098682D01*
X110231318Y-71269307D01*
X110426533Y-71411139D01*
X110531983Y-71464868D01*
X110641531Y-71520687D01*
X110641534Y-71520688D01*
X110713058Y-71543927D01*
X110871022Y-71595252D01*
X111109350Y-71633000D01*
X111109351Y-71633000D01*
X111350649Y-71633000D01*
X111350650Y-71633000D01*
X111588978Y-71595252D01*
X111818468Y-71520687D01*
X112033467Y-71411139D01*
X112228682Y-71269307D01*
X112399307Y-71098682D01*
X112399340Y-71098635D01*
X112399680Y-71098170D01*
X112399869Y-71098023D01*
X112402479Y-71094969D01*
X112403120Y-71095516D01*
X112455008Y-71055502D01*
X112524622Y-71049521D01*
X112586418Y-71082125D01*
X112600320Y-71098170D01*
X112600687Y-71098675D01*
X112600691Y-71098680D01*
X112600692Y-71098681D01*
X112600693Y-71098682D01*
X112771318Y-71269307D01*
X112966533Y-71411139D01*
X113071983Y-71464868D01*
X113181531Y-71520687D01*
X113181534Y-71520688D01*
X113253058Y-71543927D01*
X113411022Y-71595252D01*
X113649350Y-71633000D01*
X113649351Y-71633000D01*
X113890649Y-71633000D01*
X113890650Y-71633000D01*
X114128978Y-71595252D01*
X114358468Y-71520687D01*
X114573467Y-71411139D01*
X114768682Y-71269307D01*
X114939307Y-71098682D01*
X114939340Y-71098635D01*
X114939680Y-71098170D01*
X114939869Y-71098023D01*
X114942479Y-71094969D01*
X114943120Y-71095516D01*
X114995008Y-71055502D01*
X115064622Y-71049521D01*
X115126418Y-71082125D01*
X115140320Y-71098170D01*
X115140687Y-71098675D01*
X115140691Y-71098680D01*
X115140692Y-71098681D01*
X115140693Y-71098682D01*
X115311318Y-71269307D01*
X115506533Y-71411139D01*
X115611983Y-71464868D01*
X115721531Y-71520687D01*
X115721534Y-71520688D01*
X115793058Y-71543927D01*
X115951022Y-71595252D01*
X116189350Y-71633000D01*
X116189351Y-71633000D01*
X116430649Y-71633000D01*
X116430650Y-71633000D01*
X116668978Y-71595252D01*
X116898468Y-71520687D01*
X117113467Y-71411139D01*
X117308682Y-71269307D01*
X117479307Y-71098682D01*
X117479340Y-71098635D01*
X117479680Y-71098170D01*
X117479869Y-71098023D01*
X117482479Y-71094969D01*
X117483120Y-71095516D01*
X117535008Y-71055502D01*
X117604622Y-71049521D01*
X117666418Y-71082125D01*
X117680320Y-71098170D01*
X117680687Y-71098675D01*
X117680691Y-71098680D01*
X117680692Y-71098681D01*
X117680693Y-71098682D01*
X117851318Y-71269307D01*
X118046533Y-71411139D01*
X118151983Y-71464868D01*
X118261531Y-71520687D01*
X118261534Y-71520688D01*
X118333058Y-71543927D01*
X118491022Y-71595252D01*
X118729350Y-71633000D01*
X118729351Y-71633000D01*
X118970649Y-71633000D01*
X118970650Y-71633000D01*
X119208978Y-71595252D01*
X119438468Y-71520687D01*
X119653467Y-71411139D01*
X119848682Y-71269307D01*
X120019307Y-71098682D01*
X120030995Y-71082595D01*
X120031337Y-71082125D01*
X120032534Y-71080476D01*
X120161139Y-70903467D01*
X120161299Y-70903152D01*
X120164361Y-70898936D01*
X120188276Y-70880484D01*
X120210666Y-70860186D01*
X120215852Y-70859209D01*
X120219680Y-70856256D01*
X120241525Y-70854374D01*
X120274428Y-70848178D01*
X120287258Y-70849187D01*
X120862129Y-70274316D01*
X120872822Y-70314222D01*
X120945890Y-70440778D01*
X121049222Y-70544110D01*
X121175778Y-70617178D01*
X121215682Y-70627870D01*
X120640809Y-71202741D01*
X120640810Y-71202742D01*
X120691614Y-71239653D01*
X120878493Y-71334874D01*
X121077971Y-71399689D01*
X121285131Y-71432500D01*
X121494869Y-71432500D01*
X121702028Y-71399689D01*
X121901506Y-71334874D01*
X122088374Y-71239659D01*
X122088387Y-71239651D01*
X122139188Y-71202742D01*
X122139189Y-71202741D01*
X121564317Y-70627870D01*
X121604222Y-70617178D01*
X121730778Y-70544110D01*
X121834110Y-70440778D01*
X121907178Y-70314222D01*
X121917870Y-70274318D01*
X122492740Y-70849188D01*
X122505573Y-70848179D01*
X122573950Y-70862543D01*
X122614383Y-70900697D01*
X122615997Y-70899525D01*
X122618860Y-70903466D01*
X122618861Y-70903467D01*
X122760693Y-71098682D01*
X122931318Y-71269307D01*
X123126533Y-71411139D01*
X123231983Y-71464868D01*
X123341531Y-71520687D01*
X123341534Y-71520688D01*
X123413058Y-71543927D01*
X123571022Y-71595252D01*
X123809350Y-71633000D01*
X123809351Y-71633000D01*
X124050649Y-71633000D01*
X124050650Y-71633000D01*
X124288978Y-71595252D01*
X124518468Y-71520687D01*
X124733467Y-71411139D01*
X124928682Y-71269307D01*
X125099307Y-71098682D01*
X125099340Y-71098635D01*
X125099680Y-71098170D01*
X125099869Y-71098023D01*
X125102479Y-71094969D01*
X125103120Y-71095516D01*
X125155008Y-71055502D01*
X125224622Y-71049521D01*
X125286418Y-71082125D01*
X125300320Y-71098170D01*
X125300687Y-71098675D01*
X125300691Y-71098680D01*
X125300692Y-71098681D01*
X125300693Y-71098682D01*
X125471318Y-71269307D01*
X125666533Y-71411139D01*
X125771983Y-71464868D01*
X125881531Y-71520687D01*
X125881534Y-71520688D01*
X125953058Y-71543927D01*
X126111022Y-71595252D01*
X126349350Y-71633000D01*
X126349351Y-71633000D01*
X126590649Y-71633000D01*
X126590650Y-71633000D01*
X126828978Y-71595252D01*
X127058468Y-71520687D01*
X127273467Y-71411139D01*
X127468682Y-71269307D01*
X127639307Y-71098682D01*
X127639340Y-71098635D01*
X127639680Y-71098170D01*
X127639869Y-71098023D01*
X127642479Y-71094969D01*
X127643120Y-71095516D01*
X127695008Y-71055502D01*
X127764622Y-71049521D01*
X127826418Y-71082125D01*
X127840320Y-71098170D01*
X127840687Y-71098675D01*
X127840691Y-71098680D01*
X127840692Y-71098681D01*
X127840693Y-71098682D01*
X128011318Y-71269307D01*
X128206533Y-71411139D01*
X128311983Y-71464868D01*
X128421531Y-71520687D01*
X128421534Y-71520688D01*
X128493058Y-71543927D01*
X128651022Y-71595252D01*
X128889350Y-71633000D01*
X128889351Y-71633000D01*
X129130649Y-71633000D01*
X129130650Y-71633000D01*
X129368978Y-71595252D01*
X129598468Y-71520687D01*
X129813467Y-71411139D01*
X130008682Y-71269307D01*
X130137819Y-71140170D01*
X130199142Y-71106685D01*
X130268834Y-71111669D01*
X130324767Y-71153541D01*
X130349184Y-71219005D01*
X130349500Y-71227851D01*
X130349500Y-72901374D01*
X130329815Y-72968413D01*
X130313181Y-72989055D01*
X128789055Y-74513181D01*
X128727732Y-74546666D01*
X128701374Y-74549500D01*
X111905514Y-74549500D01*
X111718881Y-74579059D01*
X111539163Y-74637454D01*
X111370800Y-74723240D01*
X111283579Y-74786610D01*
X111217927Y-74834310D01*
X111217925Y-74834312D01*
X111217924Y-74834312D01*
X104334312Y-81717923D01*
X104223240Y-81870800D01*
X104137454Y-82039163D01*
X104079059Y-82218881D01*
X104049500Y-82405513D01*
X104049500Y-99094486D01*
X104079059Y-99281118D01*
X104137454Y-99460836D01*
X104182078Y-99548414D01*
X104223240Y-99629199D01*
X104334310Y-99782074D01*
X105217926Y-100665690D01*
X105370801Y-100776760D01*
X105539168Y-100862547D01*
X105718882Y-100920940D01*
X105788870Y-100932025D01*
X105905513Y-100950500D01*
X105905518Y-100950500D01*
X105905519Y-100950500D01*
X112925500Y-100950500D01*
X112992539Y-100970185D01*
X113038294Y-101022989D01*
X113049500Y-101074500D01*
X113049500Y-110844486D01*
X113079059Y-111031118D01*
X113137454Y-111210836D01*
X113211241Y-111355649D01*
X113223240Y-111379199D01*
X113334310Y-111532074D01*
X116492926Y-114690690D01*
X116645801Y-114801760D01*
X116814168Y-114887547D01*
X116993882Y-114945940D01*
X117063870Y-114957025D01*
X117180513Y-114975500D01*
X117180518Y-114975500D01*
X117180519Y-114975500D01*
X134642149Y-114975500D01*
X134709188Y-114995185D01*
X134754943Y-115047989D01*
X134764887Y-115117147D01*
X134735862Y-115180703D01*
X134729830Y-115187181D01*
X134600695Y-115316315D01*
X134458861Y-115511532D01*
X134349312Y-115726531D01*
X134349311Y-115726534D01*
X134274748Y-115956020D01*
X134237000Y-116194350D01*
X134237000Y-116435649D01*
X134274748Y-116673979D01*
X134349311Y-116903465D01*
X134349312Y-116903468D01*
X134418679Y-117039606D01*
X134458861Y-117118467D01*
X134600693Y-117313682D01*
X134771318Y-117484307D01*
X134771324Y-117484311D01*
X134771835Y-117484683D01*
X134771982Y-117484873D01*
X134775023Y-117487471D01*
X134774477Y-117488109D01*
X134814501Y-117540013D01*
X134820479Y-117609627D01*
X134787872Y-117671421D01*
X134771835Y-117685317D01*
X134771324Y-117685688D01*
X134771315Y-117685695D01*
X134600695Y-117856315D01*
X134458861Y-118051532D01*
X134349312Y-118266531D01*
X134349311Y-118266534D01*
X134274748Y-118496020D01*
X134237000Y-118734350D01*
X134237000Y-118975649D01*
X134274748Y-119213979D01*
X134349311Y-119443465D01*
X134349312Y-119443468D01*
X134442620Y-119626592D01*
X134458861Y-119658467D01*
X134600693Y-119853682D01*
X134771318Y-120024307D01*
X134771324Y-120024311D01*
X134771835Y-120024683D01*
X134771982Y-120024873D01*
X134775023Y-120027471D01*
X134774477Y-120028109D01*
X134814501Y-120080013D01*
X134820479Y-120149627D01*
X134787872Y-120211421D01*
X134771835Y-120225317D01*
X134771324Y-120225688D01*
X134771315Y-120225695D01*
X134600695Y-120396315D01*
X134458861Y-120591532D01*
X134349312Y-120806531D01*
X134349311Y-120806534D01*
X134274748Y-121036020D01*
X134241816Y-121243946D01*
X134237000Y-121274350D01*
X134237000Y-121515650D01*
X134248933Y-121590991D01*
X134274748Y-121753979D01*
X134349311Y-121983465D01*
X134349312Y-121983468D01*
X134458861Y-122198467D01*
X134600693Y-122393682D01*
X134771318Y-122564307D01*
X134966533Y-122706139D01*
X135034123Y-122740578D01*
X135181531Y-122815687D01*
X135181534Y-122815688D01*
X135243514Y-122835826D01*
X135411022Y-122890252D01*
X135649350Y-122928000D01*
X135649351Y-122928000D01*
X135890649Y-122928000D01*
X135890650Y-122928000D01*
X136128978Y-122890252D01*
X136358468Y-122815687D01*
X136573467Y-122706139D01*
X136768682Y-122564307D01*
X136939307Y-122393682D01*
X137081139Y-122198467D01*
X137190687Y-121983468D01*
X137265252Y-121753978D01*
X137303000Y-121515650D01*
X137303000Y-121274350D01*
X137265252Y-121036022D01*
X137190687Y-120806532D01*
X137190687Y-120806531D01*
X137081138Y-120591532D01*
X137054642Y-120555063D01*
X136939307Y-120396318D01*
X136768682Y-120225693D01*
X136768680Y-120225691D01*
X136768675Y-120225687D01*
X136768170Y-120225320D01*
X136768023Y-120225130D01*
X136764969Y-120222521D01*
X136765516Y-120221879D01*
X136725502Y-120169992D01*
X136719521Y-120100378D01*
X136752125Y-120038582D01*
X136768170Y-120024680D01*
X136768675Y-120024312D01*
X136768676Y-120024311D01*
X136768682Y-120024307D01*
X136939307Y-119853682D01*
X137081139Y-119658467D01*
X137190687Y-119443468D01*
X137265252Y-119213978D01*
X137303000Y-118975650D01*
X137303000Y-118734350D01*
X137265252Y-118496022D01*
X137190687Y-118266532D01*
X137190687Y-118266531D01*
X137081138Y-118051532D01*
X136939307Y-117856318D01*
X136768682Y-117685693D01*
X136768680Y-117685691D01*
X136768675Y-117685687D01*
X136768170Y-117685320D01*
X136768023Y-117685130D01*
X136764969Y-117682521D01*
X136765516Y-117681879D01*
X136725502Y-117629992D01*
X136719521Y-117560378D01*
X136752125Y-117498582D01*
X136768170Y-117484680D01*
X136768675Y-117484312D01*
X136768676Y-117484311D01*
X136768682Y-117484307D01*
X136939307Y-117313682D01*
X137081139Y-117118467D01*
X137190687Y-116903468D01*
X137265252Y-116673978D01*
X137303000Y-116435650D01*
X137303000Y-116194350D01*
X137265252Y-115956022D01*
X137190687Y-115726532D01*
X137190687Y-115726531D01*
X137081138Y-115511532D01*
X137067969Y-115493406D01*
X136939307Y-115316318D01*
X136768682Y-115145693D01*
X136768680Y-115145691D01*
X136768675Y-115145687D01*
X136768170Y-115145320D01*
X136768023Y-115145130D01*
X136764969Y-115142521D01*
X136765516Y-115141879D01*
X136725502Y-115089992D01*
X136719521Y-115020378D01*
X136752125Y-114958582D01*
X136768170Y-114944680D01*
X136768675Y-114944312D01*
X136768673Y-114944312D01*
X136768682Y-114944307D01*
X136939307Y-114773682D01*
X137081139Y-114578467D01*
X137190687Y-114363468D01*
X137265252Y-114133978D01*
X137303000Y-113895650D01*
X137303000Y-113654350D01*
X137265252Y-113416022D01*
X137190687Y-113186532D01*
X137190687Y-113186531D01*
X137120865Y-113049500D01*
X137081139Y-112971533D01*
X136939307Y-112776318D01*
X136768682Y-112605693D01*
X136768680Y-112605691D01*
X136768675Y-112605687D01*
X136768170Y-112605320D01*
X136768023Y-112605130D01*
X136764969Y-112602521D01*
X136765516Y-112601879D01*
X136725502Y-112549992D01*
X136719521Y-112480378D01*
X136752125Y-112418582D01*
X136768170Y-112404680D01*
X136768675Y-112404312D01*
X136768673Y-112404312D01*
X136768682Y-112404307D01*
X136939307Y-112233682D01*
X137081139Y-112038467D01*
X137190687Y-111823468D01*
X137265252Y-111593978D01*
X137303000Y-111355650D01*
X137303000Y-111114350D01*
X137265252Y-110876022D01*
X137190687Y-110646532D01*
X137190687Y-110646531D01*
X137081138Y-110431532D01*
X136939307Y-110236318D01*
X136768682Y-110065693D01*
X136768680Y-110065691D01*
X136768675Y-110065687D01*
X136768170Y-110065320D01*
X136768023Y-110065130D01*
X136764969Y-110062521D01*
X136765516Y-110061879D01*
X136725502Y-110009992D01*
X136719521Y-109940378D01*
X136752125Y-109878582D01*
X136768170Y-109864680D01*
X136768675Y-109864312D01*
X136768676Y-109864311D01*
X136768682Y-109864307D01*
X136939307Y-109693682D01*
X137081139Y-109498467D01*
X137190687Y-109283468D01*
X137265252Y-109053978D01*
X137303000Y-108815650D01*
X137303000Y-108574350D01*
X137265252Y-108336022D01*
X137190687Y-108106532D01*
X137190687Y-108106531D01*
X137121374Y-107970498D01*
X137081139Y-107891533D01*
X136939307Y-107696318D01*
X136768682Y-107525693D01*
X136768680Y-107525691D01*
X136768675Y-107525687D01*
X136768170Y-107525320D01*
X136768023Y-107525130D01*
X136764969Y-107522521D01*
X136765516Y-107521879D01*
X136725502Y-107469992D01*
X136719521Y-107400378D01*
X136752125Y-107338582D01*
X136768170Y-107324680D01*
X136768675Y-107324312D01*
X136768676Y-107324311D01*
X136768682Y-107324307D01*
X136939307Y-107153682D01*
X137081139Y-106958467D01*
X137190687Y-106743468D01*
X137265252Y-106513978D01*
X137303000Y-106275650D01*
X137303000Y-106034350D01*
X137265252Y-105796022D01*
X137190687Y-105566532D01*
X137190687Y-105566531D01*
X137088125Y-105365244D01*
X137081139Y-105351533D01*
X136939307Y-105156318D01*
X136768682Y-104985693D01*
X136573467Y-104843861D01*
X136573466Y-104843860D01*
X136569525Y-104840997D01*
X136570816Y-104839219D01*
X136530085Y-104794120D01*
X136518179Y-104730573D01*
X136519188Y-104717740D01*
X135944317Y-104142870D01*
X135984222Y-104132178D01*
X136110778Y-104059110D01*
X136214110Y-103955778D01*
X136287178Y-103829222D01*
X136297870Y-103789317D01*
X136872741Y-104364189D01*
X136872742Y-104364188D01*
X136909651Y-104313387D01*
X136909659Y-104313374D01*
X137004874Y-104126506D01*
X137069689Y-103927028D01*
X137102500Y-103719869D01*
X137102500Y-103510130D01*
X137069689Y-103302971D01*
X137004874Y-103103493D01*
X136909653Y-102916614D01*
X136872742Y-102865810D01*
X136872741Y-102865809D01*
X136297870Y-103440681D01*
X136287178Y-103400778D01*
X136214110Y-103274222D01*
X136110778Y-103170890D01*
X135984222Y-103097822D01*
X135944316Y-103087129D01*
X136387128Y-102644319D01*
X136448451Y-102610834D01*
X136474809Y-102608000D01*
X136659113Y-102608000D01*
X136659116Y-102608000D01*
X136729696Y-102601586D01*
X136892106Y-102550978D01*
X137037685Y-102462972D01*
X137157972Y-102342685D01*
X137160523Y-102338465D01*
X137162408Y-102335348D01*
X137213936Y-102288161D01*
X137268523Y-102275500D01*
X171269486Y-102275500D01*
X171456118Y-102245940D01*
X171635832Y-102187547D01*
X171804199Y-102101760D01*
X171957074Y-101990690D01*
X173915690Y-100032073D01*
X174026760Y-99879199D01*
X174112547Y-99710832D01*
X174170940Y-99531118D01*
X174200500Y-99344486D01*
X174200500Y-76905513D01*
X174170940Y-76718881D01*
X174112545Y-76539163D01*
X174026759Y-76370800D01*
X173915690Y-76217927D01*
X173782073Y-76084310D01*
X172032074Y-74334310D01*
X171879199Y-74223240D01*
X171710836Y-74137454D01*
X171531118Y-74079059D01*
X171344486Y-74049500D01*
X171344481Y-74049500D01*
X170094481Y-74049500D01*
X169905518Y-74049500D01*
X169905513Y-74049500D01*
X169718885Y-74079059D01*
X169539165Y-74137454D01*
X169370797Y-74223242D01*
X169340759Y-74245066D01*
X169274953Y-74268546D01*
X169206899Y-74252720D01*
X169180193Y-74232429D01*
X168532076Y-73584312D01*
X168532074Y-73584310D01*
X168379199Y-73473240D01*
X168210836Y-73387454D01*
X168031118Y-73329059D01*
X167844486Y-73299500D01*
X167844481Y-73299500D01*
X155798626Y-73299500D01*
X155769185Y-73290855D01*
X155739199Y-73284332D01*
X155734183Y-73280577D01*
X155731587Y-73279815D01*
X155710945Y-73263181D01*
X155646819Y-73199055D01*
X155613334Y-73137732D01*
X155610500Y-73111374D01*
X155610500Y-71598522D01*
X155630185Y-71531483D01*
X155670354Y-71492403D01*
X155677685Y-71487972D01*
X155797972Y-71367685D01*
X155885978Y-71222106D01*
X155936586Y-71059696D01*
X155943000Y-70989116D01*
X155943000Y-69210884D01*
X155936586Y-69140304D01*
X155885978Y-68977894D01*
X155797972Y-68832315D01*
X155797970Y-68832313D01*
X155797969Y-68832311D01*
X155677688Y-68712030D01*
X155546095Y-68632479D01*
X155532106Y-68624022D01*
X155369696Y-68573414D01*
X155369694Y-68573413D01*
X155369692Y-68573413D01*
X155320278Y-68568923D01*
X155299116Y-68567000D01*
X153520884Y-68567000D01*
X153501645Y-68568748D01*
X153450307Y-68573413D01*
X153287893Y-68624022D01*
X153142311Y-68712030D01*
X153022030Y-68832311D01*
X153003726Y-68862590D01*
X152952197Y-68909776D01*
X152883338Y-68921614D01*
X152824724Y-68898756D01*
X152673467Y-68788861D01*
X152458468Y-68679312D01*
X152458465Y-68679311D01*
X152228979Y-68604748D01*
X152109814Y-68585874D01*
X151990650Y-68567000D01*
X151749350Y-68567000D01*
X151669907Y-68579582D01*
X151511020Y-68604748D01*
X151281534Y-68679311D01*
X151281531Y-68679312D01*
X151066532Y-68788861D01*
X150871315Y-68930695D01*
X150742181Y-69059830D01*
X150680858Y-69093315D01*
X150611166Y-69088331D01*
X150555233Y-69046459D01*
X150530816Y-68980995D01*
X150530500Y-68972149D01*
X150530500Y-68718626D01*
X150550185Y-68651587D01*
X150566819Y-68630945D01*
X151960945Y-67236819D01*
X152022268Y-67203334D01*
X152048626Y-67200500D01*
X155201374Y-67200500D01*
X155268413Y-67220185D01*
X155289055Y-67236819D01*
X158967926Y-70915690D01*
X159120801Y-71026760D01*
X159289168Y-71112547D01*
X159468882Y-71170940D01*
X159538870Y-71182025D01*
X159655513Y-71200500D01*
X159655518Y-71200500D01*
X171344486Y-71200500D01*
X171531118Y-71170940D01*
X171710832Y-71112547D01*
X171879199Y-71026760D01*
X172032074Y-70915690D01*
X172586133Y-70361629D01*
X172617517Y-70338828D01*
X172655405Y-70319524D01*
X172814646Y-70203828D01*
X172953828Y-70064646D01*
X173069524Y-69905405D01*
X173158884Y-69730025D01*
X173219709Y-69542826D01*
X173250500Y-69348422D01*
X173250500Y-69151577D01*
X173219709Y-68957173D01*
X173188977Y-68862590D01*
X173158884Y-68769975D01*
X173158882Y-68769972D01*
X173158882Y-68769970D01*
X173097743Y-68649979D01*
X173069524Y-68594595D01*
X172953828Y-68435354D01*
X172814646Y-68296172D01*
X172655405Y-68180476D01*
X172480029Y-68091117D01*
X172292826Y-68030290D01*
X172098422Y-67999500D01*
X172098417Y-67999500D01*
X171901583Y-67999500D01*
X171901578Y-67999500D01*
X171707173Y-68030290D01*
X171519970Y-68091117D01*
X171344594Y-68180476D01*
X171253741Y-68246485D01*
X171185354Y-68296172D01*
X171185352Y-68296174D01*
X171185351Y-68296174D01*
X171046174Y-68435351D01*
X171046174Y-68435352D01*
X171046172Y-68435354D01*
X170988324Y-68514974D01*
X170930474Y-68594597D01*
X170911172Y-68632479D01*
X170909787Y-68634384D01*
X170909521Y-68635609D01*
X170888370Y-68663863D01*
X170789055Y-68763180D01*
X170727732Y-68796666D01*
X170701373Y-68799500D01*
X160298626Y-68799500D01*
X160231587Y-68779815D01*
X160210945Y-68763181D01*
X156532076Y-65084312D01*
X156532074Y-65084310D01*
X156379199Y-64973240D01*
X156210836Y-64887454D01*
X156031118Y-64829059D01*
X155844486Y-64799500D01*
X155844481Y-64799500D01*
X151405519Y-64799500D01*
X151405514Y-64799500D01*
X151218881Y-64829059D01*
X151039163Y-64887454D01*
X150870800Y-64973240D01*
X150717923Y-65084312D01*
X148414312Y-67387923D01*
X148414307Y-67387929D01*
X148330944Y-67502668D01*
X148330940Y-67502674D01*
X148326429Y-67508884D01*
X148303240Y-67540801D01*
X148224053Y-67696213D01*
X148223046Y-67698038D01*
X148199637Y-67721223D01*
X148177010Y-67745181D01*
X148174927Y-67745696D01*
X148173404Y-67747206D01*
X148141171Y-67754055D01*
X148109189Y-67761976D01*
X148107158Y-67761284D01*
X148105061Y-67761730D01*
X148074252Y-67750070D01*
X148043054Y-67739439D01*
X148041719Y-67737758D01*
X148039715Y-67737000D01*
X148020100Y-67710535D01*
X147999603Y-67684723D01*
X147999114Y-67682217D01*
X147998112Y-67680866D01*
X147997728Y-67675122D01*
X147990500Y-67638090D01*
X147990500Y-63758626D01*
X148010185Y-63691587D01*
X148026819Y-63670945D01*
X148460945Y-63236819D01*
X148522268Y-63203334D01*
X148548626Y-63200500D01*
X158201374Y-63200500D01*
X158268413Y-63220185D01*
X158289055Y-63236819D01*
X162467926Y-67415690D01*
X162620801Y-67526760D01*
X162789168Y-67612547D01*
X162968882Y-67670940D01*
X163031553Y-67680866D01*
X163155513Y-67700500D01*
X163155518Y-67700500D01*
X163155519Y-67700500D01*
X163878415Y-67700500D01*
X163916732Y-67706568D01*
X163932041Y-67711542D01*
X163957173Y-67719709D01*
X164151578Y-67750500D01*
X164151583Y-67750500D01*
X164348422Y-67750500D01*
X164542826Y-67719709D01*
X164730025Y-67658884D01*
X164905405Y-67569524D01*
X165064646Y-67453828D01*
X165203828Y-67314646D01*
X165319524Y-67155405D01*
X165408884Y-66980025D01*
X165469709Y-66792826D01*
X165478912Y-66734722D01*
X165500500Y-66598422D01*
X165500500Y-66401577D01*
X165469709Y-66207173D01*
X165408882Y-66019970D01*
X165319523Y-65844594D01*
X165203828Y-65685354D01*
X165064646Y-65546172D01*
X164905405Y-65430476D01*
X164730029Y-65341117D01*
X164542826Y-65280290D01*
X164348422Y-65249500D01*
X164348417Y-65249500D01*
X164151583Y-65249500D01*
X164151578Y-65249500D01*
X163957173Y-65280290D01*
X163921989Y-65291723D01*
X163916732Y-65293431D01*
X163914403Y-65293800D01*
X163913350Y-65294477D01*
X163878415Y-65299500D01*
X163798626Y-65299500D01*
X163731587Y-65279815D01*
X163710945Y-65263181D01*
X159532076Y-61084312D01*
X159532074Y-61084310D01*
X159379199Y-60973240D01*
X159363041Y-60965007D01*
X159210836Y-60887454D01*
X159031118Y-60829059D01*
X158844486Y-60799500D01*
X158844481Y-60799500D01*
X147905519Y-60799500D01*
X147905514Y-60799500D01*
X147718881Y-60829059D01*
X147539163Y-60887454D01*
X147370800Y-60973240D01*
X147217923Y-61084312D01*
X145874312Y-62427923D01*
X145763240Y-62580800D01*
X145677454Y-62749163D01*
X145619059Y-62928881D01*
X145589500Y-63115513D01*
X145589500Y-68972149D01*
X145569815Y-69039188D01*
X145517011Y-69084943D01*
X145447853Y-69094887D01*
X145384297Y-69065862D01*
X145377819Y-69059830D01*
X145248684Y-68930695D01*
X145248682Y-68930693D01*
X145053467Y-68788861D01*
X145035713Y-68779815D01*
X144838468Y-68679312D01*
X144838465Y-68679311D01*
X144608979Y-68604748D01*
X144489814Y-68585874D01*
X144370650Y-68567000D01*
X144129350Y-68567000D01*
X144049907Y-68579582D01*
X143891020Y-68604748D01*
X143661534Y-68679311D01*
X143661531Y-68679312D01*
X143446532Y-68788861D01*
X143251315Y-68930695D01*
X143122181Y-69059830D01*
X143060858Y-69093315D01*
X142991166Y-69088331D01*
X142935233Y-69046459D01*
X142910816Y-68980995D01*
X142910500Y-68972149D01*
X142910500Y-62365513D01*
X142880940Y-62178881D01*
X142823542Y-62002231D01*
X142822547Y-61999168D01*
X142822545Y-61999165D01*
X142822545Y-61999163D01*
X142777290Y-61910347D01*
X142736760Y-61830801D01*
X142625690Y-61677927D01*
X142492073Y-61544310D01*
X141782074Y-60834310D01*
X141629199Y-60723240D01*
X141617779Y-60717421D01*
X141460836Y-60637454D01*
X141281118Y-60579059D01*
X141094486Y-60549500D01*
X141094481Y-60549500D01*
X134048626Y-60549500D01*
X133981587Y-60529815D01*
X133960945Y-60513181D01*
X131986819Y-58539055D01*
X131953334Y-58477732D01*
X131950500Y-58451374D01*
X131950500Y-57631902D01*
X133499500Y-57631902D01*
X133499500Y-57868097D01*
X133536446Y-58101368D01*
X133609433Y-58325996D01*
X133716657Y-58536433D01*
X133855483Y-58727510D01*
X134022490Y-58894517D01*
X134213567Y-59033343D01*
X134312991Y-59084002D01*
X134424003Y-59140566D01*
X134424005Y-59140566D01*
X134424008Y-59140568D01*
X134544412Y-59179689D01*
X134648631Y-59213553D01*
X134881903Y-59250500D01*
X134881908Y-59250500D01*
X135118097Y-59250500D01*
X135351368Y-59213553D01*
X135369997Y-59207500D01*
X135575992Y-59140568D01*
X135786433Y-59033343D01*
X135824238Y-59005875D01*
X135867862Y-58974182D01*
X135933668Y-58950702D01*
X135940747Y-58950500D01*
X138809253Y-58950500D01*
X138876292Y-58970185D01*
X138882138Y-58974182D01*
X138956221Y-59028006D01*
X138963567Y-59033343D01*
X139071750Y-59088465D01*
X139174003Y-59140566D01*
X139174005Y-59140566D01*
X139174008Y-59140568D01*
X139398632Y-59213553D01*
X139498045Y-59229297D01*
X139561176Y-59259225D01*
X139566325Y-59264089D01*
X139717926Y-59415690D01*
X139870801Y-59526760D01*
X140039168Y-59612547D01*
X140218882Y-59670940D01*
X140288870Y-59682025D01*
X140405513Y-59700500D01*
X140405518Y-59700500D01*
X140405519Y-59700500D01*
X165734489Y-59700500D01*
X165801528Y-59720185D01*
X165847283Y-59772989D01*
X165857227Y-59842147D01*
X165844974Y-59880794D01*
X165829315Y-59911526D01*
X165829311Y-59911534D01*
X165754748Y-60141020D01*
X165754748Y-60141022D01*
X165717000Y-60379350D01*
X165717000Y-60620650D01*
X165722319Y-60654231D01*
X165754748Y-60858979D01*
X165829311Y-61088465D01*
X165829312Y-61088468D01*
X165938863Y-61303470D01*
X166028696Y-61427115D01*
X166052176Y-61492921D01*
X166036351Y-61560975D01*
X166028696Y-61572885D01*
X165938863Y-61696529D01*
X165829312Y-61911531D01*
X165829311Y-61911534D01*
X165754748Y-62141020D01*
X165717000Y-62379350D01*
X165717000Y-62620649D01*
X165754748Y-62858979D01*
X165829311Y-63088465D01*
X165829312Y-63088468D01*
X165887248Y-63202172D01*
X165938861Y-63303467D01*
X166080693Y-63498682D01*
X166251318Y-63669307D01*
X166446533Y-63811139D01*
X166483548Y-63829999D01*
X166661531Y-63920687D01*
X166661534Y-63920688D01*
X166776277Y-63957969D01*
X166891022Y-63995252D01*
X167129350Y-64033000D01*
X167129351Y-64033000D01*
X167370649Y-64033000D01*
X167370650Y-64033000D01*
X167608978Y-63995252D01*
X167838468Y-63920687D01*
X168053467Y-63811139D01*
X168248682Y-63669307D01*
X168419307Y-63498682D01*
X168561139Y-63303467D01*
X168670687Y-63088468D01*
X168745252Y-62858978D01*
X168783000Y-62620650D01*
X168783000Y-62379350D01*
X168745252Y-62141022D01*
X168700156Y-62002229D01*
X168670688Y-61911534D01*
X168670687Y-61911531D01*
X168568482Y-61710945D01*
X168561139Y-61696533D01*
X168471301Y-61572882D01*
X168447823Y-61507080D01*
X168463648Y-61439026D01*
X168471293Y-61427128D01*
X168561139Y-61303467D01*
X168670687Y-61088468D01*
X168745252Y-60858978D01*
X168783000Y-60620650D01*
X168783000Y-60379350D01*
X168745252Y-60141022D01*
X168670687Y-59911532D01*
X168670687Y-59911531D01*
X168614868Y-59801983D01*
X168561139Y-59696533D01*
X168471301Y-59572882D01*
X168447823Y-59507080D01*
X168463648Y-59439026D01*
X168471293Y-59427128D01*
X168561139Y-59303467D01*
X168670687Y-59088468D01*
X168745252Y-58858978D01*
X168783000Y-58620650D01*
X168783000Y-58379350D01*
X168745252Y-58141022D01*
X168688310Y-57965770D01*
X168670688Y-57911534D01*
X168670687Y-57911531D01*
X168614868Y-57801983D01*
X168561139Y-57696533D01*
X168419307Y-57501318D01*
X168349542Y-57431553D01*
X168316057Y-57370230D01*
X168321041Y-57300538D01*
X168336906Y-57270986D01*
X168389653Y-57198386D01*
X168484874Y-57011506D01*
X168549689Y-56812028D01*
X168582500Y-56604869D01*
X168582500Y-56395130D01*
X168549689Y-56187971D01*
X168484874Y-55988493D01*
X168389653Y-55801614D01*
X168352742Y-55750810D01*
X168352741Y-55750809D01*
X167732962Y-56370589D01*
X167715925Y-56307007D01*
X167650099Y-56192993D01*
X167557007Y-56099901D01*
X167442993Y-56034075D01*
X167379407Y-56017037D01*
X167999188Y-55397257D01*
X167948378Y-55360342D01*
X167761506Y-55265125D01*
X167562028Y-55200310D01*
X167354869Y-55167500D01*
X167145131Y-55167500D01*
X166937971Y-55200310D01*
X166738493Y-55265125D01*
X166551611Y-55360347D01*
X166500810Y-55397256D01*
X166500810Y-55397257D01*
X167120590Y-56017037D01*
X167057007Y-56034075D01*
X166942993Y-56099901D01*
X166849901Y-56192993D01*
X166784075Y-56307007D01*
X166767037Y-56370590D01*
X166147257Y-55750810D01*
X166147256Y-55750810D01*
X166110347Y-55801611D01*
X166015125Y-55988493D01*
X165950310Y-56187971D01*
X165917500Y-56395130D01*
X165917500Y-56604869D01*
X165950310Y-56812028D01*
X166015126Y-57011506D01*
X166070001Y-57119205D01*
X166082897Y-57187875D01*
X166056620Y-57252615D01*
X165999514Y-57292872D01*
X165959516Y-57299500D01*
X141271434Y-57299500D01*
X141204395Y-57279815D01*
X141158640Y-57227011D01*
X141153503Y-57213819D01*
X141151103Y-57206433D01*
X141140568Y-57174008D01*
X141140566Y-57174005D01*
X141140566Y-57174003D01*
X141057769Y-57011506D01*
X141033343Y-56963567D01*
X140894517Y-56772490D01*
X140727510Y-56605483D01*
X140536433Y-56466657D01*
X140325996Y-56359433D01*
X140101368Y-56286446D01*
X139868097Y-56249500D01*
X139868092Y-56249500D01*
X139631908Y-56249500D01*
X139631903Y-56249500D01*
X139398631Y-56286446D01*
X139174003Y-56359433D01*
X138963563Y-56466659D01*
X138882138Y-56525818D01*
X138816332Y-56549298D01*
X138809253Y-56549500D01*
X135940747Y-56549500D01*
X135873708Y-56529815D01*
X135867862Y-56525818D01*
X135786436Y-56466659D01*
X135786435Y-56466658D01*
X135786433Y-56466657D01*
X135720715Y-56433172D01*
X135575996Y-56359433D01*
X135351368Y-56286446D01*
X135118097Y-56249500D01*
X135118092Y-56249500D01*
X134881908Y-56249500D01*
X134881903Y-56249500D01*
X134648631Y-56286446D01*
X134424003Y-56359433D01*
X134213566Y-56466657D01*
X134104550Y-56545862D01*
X134022490Y-56605483D01*
X134022488Y-56605485D01*
X134022487Y-56605485D01*
X133855485Y-56772487D01*
X133855485Y-56772488D01*
X133855483Y-56772490D01*
X133830405Y-56807007D01*
X133716657Y-56963566D01*
X133609433Y-57174003D01*
X133536446Y-57398631D01*
X133499500Y-57631902D01*
X131950500Y-57631902D01*
X131950500Y-54610746D01*
X131970185Y-54543707D01*
X131974173Y-54537871D01*
X132033343Y-54456433D01*
X132140568Y-54245992D01*
X132213553Y-54021368D01*
X132237829Y-53868097D01*
X132250500Y-53788097D01*
X132250500Y-53551902D01*
X132213553Y-53318631D01*
X132155674Y-53140500D01*
X132140568Y-53094008D01*
X132140566Y-53094005D01*
X132140566Y-53094003D01*
X132074105Y-52963567D01*
X132033343Y-52883567D01*
X131894517Y-52692490D01*
X131727510Y-52525483D01*
X131536433Y-52386657D01*
X131381809Y-52307872D01*
X131321651Y-52277220D01*
X131322653Y-52275252D01*
X131275486Y-52236678D01*
X131253899Y-52170227D01*
X131271666Y-52102654D01*
X131321553Y-52056210D01*
X131366433Y-52033343D01*
X131557510Y-51894517D01*
X131724517Y-51727510D01*
X131863343Y-51536433D01*
X131970568Y-51325992D01*
X132043553Y-51101368D01*
X132080500Y-50868097D01*
X132080500Y-50631902D01*
X132043553Y-50398631D01*
X132005370Y-50281118D01*
X131970568Y-50174008D01*
X131957154Y-50147682D01*
X133700000Y-50147682D01*
X133700000Y-50352317D01*
X133732009Y-50554417D01*
X133795244Y-50749031D01*
X133888141Y-50931350D01*
X133888147Y-50931359D01*
X133920523Y-50975921D01*
X133920524Y-50975922D01*
X134600000Y-50296446D01*
X134600000Y-50302661D01*
X134627259Y-50404394D01*
X134679920Y-50495606D01*
X134754394Y-50570080D01*
X134845606Y-50622741D01*
X134947339Y-50650000D01*
X134953553Y-50650000D01*
X134274076Y-51329474D01*
X134318650Y-51361859D01*
X134500968Y-51454755D01*
X134695582Y-51517990D01*
X134897683Y-51550000D01*
X135102317Y-51550000D01*
X135304417Y-51517990D01*
X135499031Y-51454755D01*
X135681349Y-51361859D01*
X135725921Y-51329474D01*
X135046447Y-50650000D01*
X135052661Y-50650000D01*
X135154394Y-50622741D01*
X135245606Y-50570080D01*
X135320080Y-50495606D01*
X135372741Y-50404394D01*
X135400000Y-50302661D01*
X135400000Y-50296447D01*
X136079474Y-50975921D01*
X136111859Y-50931349D01*
X136204755Y-50749031D01*
X136267990Y-50554417D01*
X136300000Y-50352317D01*
X136300000Y-50147682D01*
X138450000Y-50147682D01*
X138450000Y-50352317D01*
X138482009Y-50554417D01*
X138545244Y-50749031D01*
X138638141Y-50931350D01*
X138638147Y-50931359D01*
X138670523Y-50975921D01*
X138670524Y-50975922D01*
X139350000Y-50296446D01*
X139350000Y-50302661D01*
X139377259Y-50404394D01*
X139429920Y-50495606D01*
X139504394Y-50570080D01*
X139595606Y-50622741D01*
X139697339Y-50650000D01*
X139703553Y-50650000D01*
X139024076Y-51329474D01*
X139068650Y-51361859D01*
X139250968Y-51454755D01*
X139445582Y-51517990D01*
X139647683Y-51550000D01*
X139852317Y-51550000D01*
X140054417Y-51517990D01*
X140249031Y-51454755D01*
X140431349Y-51361859D01*
X140475921Y-51329474D01*
X139796447Y-50650000D01*
X139802661Y-50650000D01*
X139904394Y-50622741D01*
X139995606Y-50570080D01*
X140070080Y-50495606D01*
X140122741Y-50404394D01*
X140150000Y-50302661D01*
X140150000Y-50296447D01*
X140829474Y-50975921D01*
X140861859Y-50931349D01*
X140954755Y-50749031D01*
X141017990Y-50554417D01*
X141050000Y-50352317D01*
X141050000Y-50147682D01*
X141017990Y-49945582D01*
X140954755Y-49750968D01*
X140861859Y-49568650D01*
X140829474Y-49524077D01*
X140829474Y-49524076D01*
X140150000Y-50203551D01*
X140150000Y-50197339D01*
X140122741Y-50095606D01*
X140070080Y-50004394D01*
X139995606Y-49929920D01*
X139904394Y-49877259D01*
X139802661Y-49850000D01*
X139796446Y-49850000D01*
X140475922Y-49170524D01*
X140475921Y-49170523D01*
X140431359Y-49138147D01*
X140431350Y-49138141D01*
X140249031Y-49045244D01*
X140054417Y-48982009D01*
X139852317Y-48950000D01*
X139647683Y-48950000D01*
X139445582Y-48982009D01*
X139250968Y-49045244D01*
X139068644Y-49138143D01*
X139024077Y-49170523D01*
X139024077Y-49170524D01*
X139703554Y-49850000D01*
X139697339Y-49850000D01*
X139595606Y-49877259D01*
X139504394Y-49929920D01*
X139429920Y-50004394D01*
X139377259Y-50095606D01*
X139350000Y-50197339D01*
X139350000Y-50203553D01*
X138670524Y-49524077D01*
X138670523Y-49524077D01*
X138638143Y-49568644D01*
X138545244Y-49750968D01*
X138482009Y-49945582D01*
X138450000Y-50147682D01*
X136300000Y-50147682D01*
X136267990Y-49945582D01*
X136204755Y-49750968D01*
X136111859Y-49568650D01*
X136079474Y-49524077D01*
X136079474Y-49524076D01*
X135400000Y-50203551D01*
X135400000Y-50197339D01*
X135372741Y-50095606D01*
X135320080Y-50004394D01*
X135245606Y-49929920D01*
X135154394Y-49877259D01*
X135052661Y-49850000D01*
X135046446Y-49850000D01*
X135725922Y-49170524D01*
X135725921Y-49170523D01*
X135681359Y-49138147D01*
X135681350Y-49138141D01*
X135499031Y-49045244D01*
X135304417Y-48982009D01*
X135102317Y-48950000D01*
X134897683Y-48950000D01*
X134695582Y-48982009D01*
X134500968Y-49045244D01*
X134318644Y-49138143D01*
X134274077Y-49170523D01*
X134274077Y-49170524D01*
X134953554Y-49850000D01*
X134947339Y-49850000D01*
X134845606Y-49877259D01*
X134754394Y-49929920D01*
X134679920Y-50004394D01*
X134627259Y-50095606D01*
X134600000Y-50197339D01*
X134600000Y-50203553D01*
X133920524Y-49524077D01*
X133920523Y-49524077D01*
X133888143Y-49568644D01*
X133795244Y-49750968D01*
X133732009Y-49945582D01*
X133700000Y-50147682D01*
X131957154Y-50147682D01*
X131863343Y-49963567D01*
X131724517Y-49772490D01*
X131557510Y-49605483D01*
X131366433Y-49466657D01*
X131155996Y-49359433D01*
X131115493Y-49346273D01*
X131053602Y-49326163D01*
X130931368Y-49286446D01*
X130698097Y-49249500D01*
X130698092Y-49249500D01*
X130461908Y-49249500D01*
X130461903Y-49249500D01*
X130228631Y-49286446D01*
X130004003Y-49359433D01*
X129793566Y-49466657D01*
X129684550Y-49545862D01*
X129602490Y-49605483D01*
X129602488Y-49605485D01*
X129602487Y-49605485D01*
X129435485Y-49772487D01*
X129435485Y-49772488D01*
X129435483Y-49772490D01*
X129409173Y-49808703D01*
X129296657Y-49963566D01*
X129189433Y-50174003D01*
X129116446Y-50398631D01*
X129079500Y-50631902D01*
X129079500Y-50868097D01*
X129116446Y-51101368D01*
X129189433Y-51325996D01*
X129266635Y-51477512D01*
X129296657Y-51536433D01*
X129435483Y-51727510D01*
X129602490Y-51894517D01*
X129793567Y-52033343D01*
X129929598Y-52102654D01*
X130008349Y-52142780D01*
X130007285Y-52144867D01*
X130054154Y-52182798D01*
X130076080Y-52249138D01*
X130058659Y-52316801D01*
X130008446Y-52363789D01*
X129963569Y-52386655D01*
X129938628Y-52404776D01*
X129772490Y-52525483D01*
X129772488Y-52525485D01*
X129772487Y-52525485D01*
X129605485Y-52692487D01*
X129605485Y-52692488D01*
X129605483Y-52692490D01*
X129547362Y-52772487D01*
X129466657Y-52883566D01*
X129359433Y-53094003D01*
X129286446Y-53318631D01*
X129249500Y-53551902D01*
X129249500Y-53788097D01*
X129286446Y-54021368D01*
X129359433Y-54245996D01*
X129454245Y-54432074D01*
X129466657Y-54456433D01*
X129525818Y-54537861D01*
X129549298Y-54603666D01*
X129549500Y-54610746D01*
X129549500Y-59094486D01*
X129579059Y-59281118D01*
X129637454Y-59460836D01*
X129702709Y-59588905D01*
X129723240Y-59629199D01*
X129834310Y-59782074D01*
X132717926Y-62665690D01*
X132870801Y-62776760D01*
X133039168Y-62862547D01*
X133218882Y-62920940D01*
X133288870Y-62932025D01*
X133405513Y-62950500D01*
X133405518Y-62950500D01*
X133405519Y-62950500D01*
X140385500Y-62950500D01*
X140452539Y-62970185D01*
X140498294Y-63022989D01*
X140509500Y-63074500D01*
X140509500Y-68972149D01*
X140489815Y-69039188D01*
X140437011Y-69084943D01*
X140367853Y-69094887D01*
X140304297Y-69065862D01*
X140297819Y-69059830D01*
X140168684Y-68930695D01*
X140168682Y-68930693D01*
X139973467Y-68788861D01*
X139955713Y-68779815D01*
X139758468Y-68679312D01*
X139758465Y-68679311D01*
X139528979Y-68604748D01*
X139409814Y-68585874D01*
X139290650Y-68567000D01*
X139049350Y-68567000D01*
X138969907Y-68579582D01*
X138811020Y-68604748D01*
X138581534Y-68679311D01*
X138581531Y-68679312D01*
X138366532Y-68788861D01*
X138171315Y-68930695D01*
X138000695Y-69101315D01*
X138000688Y-69101324D01*
X138000317Y-69101835D01*
X138000126Y-69101982D01*
X137997529Y-69105023D01*
X137996890Y-69104477D01*
X137944987Y-69144501D01*
X137875373Y-69150479D01*
X137813579Y-69117872D01*
X137799683Y-69101835D01*
X137799311Y-69101324D01*
X137799309Y-69101321D01*
X137799307Y-69101318D01*
X137628682Y-68930693D01*
X137433467Y-68788861D01*
X137415713Y-68779815D01*
X137218468Y-68679312D01*
X137218465Y-68679311D01*
X136988979Y-68604748D01*
X136869814Y-68585874D01*
X136750650Y-68567000D01*
X136509350Y-68567000D01*
X136429907Y-68579582D01*
X136271020Y-68604748D01*
X136041534Y-68679311D01*
X136041531Y-68679312D01*
X135826532Y-68788861D01*
X135631315Y-68930695D01*
X135460695Y-69101315D01*
X135460688Y-69101324D01*
X135460317Y-69101835D01*
X135460126Y-69101982D01*
X135457529Y-69105023D01*
X135456890Y-69104477D01*
X135404987Y-69144501D01*
X135335373Y-69150479D01*
X135273579Y-69117872D01*
X135259683Y-69101835D01*
X135259311Y-69101324D01*
X135259309Y-69101321D01*
X135259307Y-69101318D01*
X135088682Y-68930693D01*
X134893467Y-68788861D01*
X134875713Y-68779815D01*
X134678468Y-68679312D01*
X134678465Y-68679311D01*
X134448979Y-68604748D01*
X134329814Y-68585874D01*
X134210650Y-68567000D01*
X133969350Y-68567000D01*
X133889907Y-68579582D01*
X133731020Y-68604748D01*
X133501534Y-68679311D01*
X133501531Y-68679312D01*
X133286532Y-68788861D01*
X133091315Y-68930695D01*
X132920695Y-69101315D01*
X132920688Y-69101324D01*
X132920317Y-69101835D01*
X132920126Y-69101982D01*
X132917529Y-69105023D01*
X132916890Y-69104477D01*
X132864987Y-69144501D01*
X132795373Y-69150479D01*
X132733579Y-69117872D01*
X132719683Y-69101835D01*
X132719311Y-69101324D01*
X132719309Y-69101321D01*
X132719307Y-69101318D01*
X132548682Y-68930693D01*
X132353467Y-68788861D01*
X132335713Y-68779815D01*
X132138468Y-68679312D01*
X132138465Y-68679311D01*
X131908979Y-68604748D01*
X131789814Y-68585874D01*
X131670650Y-68567000D01*
X131429350Y-68567000D01*
X131349907Y-68579582D01*
X131191020Y-68604748D01*
X130961534Y-68679311D01*
X130961531Y-68679312D01*
X130746532Y-68788861D01*
X130551315Y-68930695D01*
X130380695Y-69101315D01*
X130380688Y-69101324D01*
X130380317Y-69101835D01*
X130380126Y-69101982D01*
X130377529Y-69105023D01*
X130376890Y-69104477D01*
X130324987Y-69144501D01*
X130255373Y-69150479D01*
X130193579Y-69117872D01*
X130179683Y-69101835D01*
X130179311Y-69101324D01*
X130179309Y-69101321D01*
X130179307Y-69101318D01*
X130008682Y-68930693D01*
X129813467Y-68788861D01*
X129795713Y-68779815D01*
X129598468Y-68679312D01*
X129598465Y-68679311D01*
X129368979Y-68604748D01*
X129249814Y-68585874D01*
X129130650Y-68567000D01*
X128889350Y-68567000D01*
X128809907Y-68579582D01*
X128651020Y-68604748D01*
X128421534Y-68679311D01*
X128421531Y-68679312D01*
X128206532Y-68788861D01*
X128011315Y-68930695D01*
X127840695Y-69101315D01*
X127840688Y-69101324D01*
X127840317Y-69101835D01*
X127840126Y-69101982D01*
X127837529Y-69105023D01*
X127836890Y-69104477D01*
X127784987Y-69144501D01*
X127715373Y-69150479D01*
X127653579Y-69117872D01*
X127639683Y-69101835D01*
X127639311Y-69101324D01*
X127639309Y-69101321D01*
X127639307Y-69101318D01*
X127468682Y-68930693D01*
X127273467Y-68788861D01*
X127255713Y-68779815D01*
X127058468Y-68679312D01*
X127058465Y-68679311D01*
X126828979Y-68604748D01*
X126709814Y-68585874D01*
X126590650Y-68567000D01*
X126349350Y-68567000D01*
X126269907Y-68579582D01*
X126111020Y-68604748D01*
X125881534Y-68679311D01*
X125881531Y-68679312D01*
X125666532Y-68788861D01*
X125471315Y-68930695D01*
X125342181Y-69059830D01*
X125280858Y-69093315D01*
X125211166Y-69088331D01*
X125155233Y-69046459D01*
X125130816Y-68980995D01*
X125130500Y-68972149D01*
X125130500Y-63727682D01*
X129450000Y-63727682D01*
X129450000Y-63932317D01*
X129482009Y-64134417D01*
X129545244Y-64329031D01*
X129638141Y-64511350D01*
X129638147Y-64511359D01*
X129670523Y-64555921D01*
X129670524Y-64555922D01*
X130350000Y-63876446D01*
X130350000Y-63882661D01*
X130377259Y-63984394D01*
X130429920Y-64075606D01*
X130504394Y-64150080D01*
X130595606Y-64202741D01*
X130697339Y-64230000D01*
X130703553Y-64230000D01*
X130024076Y-64909474D01*
X130068650Y-64941859D01*
X130250968Y-65034755D01*
X130445582Y-65097990D01*
X130647683Y-65130000D01*
X130852317Y-65130000D01*
X131054417Y-65097990D01*
X131249031Y-65034755D01*
X131431349Y-64941859D01*
X131475921Y-64909474D01*
X130796447Y-64230000D01*
X130802661Y-64230000D01*
X130904394Y-64202741D01*
X130995606Y-64150080D01*
X131070080Y-64075606D01*
X131122741Y-63984394D01*
X131150000Y-63882661D01*
X131150000Y-63876447D01*
X131829474Y-64555921D01*
X131861859Y-64511349D01*
X131954755Y-64329031D01*
X132017990Y-64134417D01*
X132050000Y-63932317D01*
X132050000Y-63727682D01*
X132017990Y-63525582D01*
X131954755Y-63330968D01*
X131861859Y-63148650D01*
X131829474Y-63104077D01*
X131829474Y-63104076D01*
X131150000Y-63783551D01*
X131150000Y-63777339D01*
X131122741Y-63675606D01*
X131070080Y-63584394D01*
X130995606Y-63509920D01*
X130904394Y-63457259D01*
X130802661Y-63430000D01*
X130796446Y-63430000D01*
X131475922Y-62750524D01*
X131475921Y-62750523D01*
X131431359Y-62718147D01*
X131431350Y-62718141D01*
X131249031Y-62625244D01*
X131054417Y-62562009D01*
X130852317Y-62530000D01*
X130647683Y-62530000D01*
X130445582Y-62562009D01*
X130250968Y-62625244D01*
X130068644Y-62718143D01*
X130024077Y-62750523D01*
X130024077Y-62750524D01*
X130703554Y-63430000D01*
X130697339Y-63430000D01*
X130595606Y-63457259D01*
X130504394Y-63509920D01*
X130429920Y-63584394D01*
X130377259Y-63675606D01*
X130350000Y-63777339D01*
X130350000Y-63783553D01*
X129670524Y-63104077D01*
X129670523Y-63104077D01*
X129638143Y-63148644D01*
X129545244Y-63330968D01*
X129482009Y-63525582D01*
X129450000Y-63727682D01*
X125130500Y-63727682D01*
X125130500Y-51725513D01*
X125100940Y-51538881D01*
X125057484Y-51405139D01*
X125042547Y-51359168D01*
X125042545Y-51359165D01*
X125042545Y-51359163D01*
X125005487Y-51286433D01*
X124956760Y-51190801D01*
X124949900Y-51181359D01*
X124914913Y-51133202D01*
X124914910Y-51133199D01*
X124887222Y-51095091D01*
X124845693Y-51037929D01*
X123813326Y-50005562D01*
X123813324Y-50005560D01*
X123660449Y-49894490D01*
X123492086Y-49808704D01*
X123312368Y-49750309D01*
X123125736Y-49720750D01*
X123125731Y-49720750D01*
X121564139Y-49720750D01*
X121497100Y-49701065D01*
X121476458Y-49684431D01*
X121397512Y-49605485D01*
X121397510Y-49605483D01*
X121206433Y-49466657D01*
X120995996Y-49359433D01*
X120771368Y-49286446D01*
X120538097Y-49249500D01*
X120538092Y-49249500D01*
X120301908Y-49249500D01*
X120301903Y-49249500D01*
X120068631Y-49286446D01*
X119844003Y-49359433D01*
X119633563Y-49466659D01*
X119532838Y-49539840D01*
X119467032Y-49563320D01*
X119398978Y-49547494D01*
X119352562Y-49501515D01*
X119350272Y-49497549D01*
X119348509Y-49495252D01*
X119244292Y-49359433D01*
X119206593Y-49310302D01*
X119206587Y-49310295D01*
X119039704Y-49143412D01*
X119039697Y-49143406D01*
X118852454Y-48999730D01*
X118852453Y-48999729D01*
X118852450Y-48999727D01*
X118766320Y-48950000D01*
X118648056Y-48881719D01*
X118648045Y-48881714D01*
X118429993Y-48791394D01*
X118202010Y-48730306D01*
X117968020Y-48699501D01*
X117968017Y-48699500D01*
X117968011Y-48699500D01*
X117731989Y-48699500D01*
X117731983Y-48699500D01*
X117731979Y-48699501D01*
X117497989Y-48730306D01*
X117270006Y-48791394D01*
X117051954Y-48881714D01*
X117051943Y-48881719D01*
X116847545Y-48999730D01*
X116660302Y-49143406D01*
X116660295Y-49143412D01*
X116493412Y-49310295D01*
X116493406Y-49310302D01*
X116349730Y-49497545D01*
X116349727Y-49497549D01*
X116349727Y-49497550D01*
X116347438Y-49501515D01*
X116231719Y-49701943D01*
X116231714Y-49701954D01*
X116141394Y-49920006D01*
X116080306Y-50147989D01*
X116049501Y-50381979D01*
X116049500Y-50381995D01*
X116049500Y-50618004D01*
X116049501Y-50618020D01*
X116080221Y-50851368D01*
X116080307Y-50852014D01*
X116085861Y-50872741D01*
X116141394Y-51079993D01*
X116231714Y-51298045D01*
X116231719Y-51298056D01*
X116293539Y-51405130D01*
X116349727Y-51502450D01*
X116349729Y-51502453D01*
X116349730Y-51502454D01*
X116493406Y-51689697D01*
X116493412Y-51689704D01*
X116660295Y-51856587D01*
X116660302Y-51856593D01*
X116685272Y-51875753D01*
X116847550Y-52000273D01*
X116978918Y-52076118D01*
X117051943Y-52118280D01*
X117051948Y-52118282D01*
X117051951Y-52118284D01*
X117270007Y-52208606D01*
X117497986Y-52269693D01*
X117731989Y-52300500D01*
X117731996Y-52300500D01*
X117968004Y-52300500D01*
X117968011Y-52300500D01*
X118202014Y-52269693D01*
X118429993Y-52208606D01*
X118648049Y-52118284D01*
X118852450Y-52000273D01*
X119039699Y-51856592D01*
X119134452Y-51761838D01*
X119195773Y-51728355D01*
X119265465Y-51733339D01*
X119309813Y-51761840D01*
X119442490Y-51894517D01*
X119633567Y-52033343D01*
X119732991Y-52084002D01*
X119844003Y-52140566D01*
X119844005Y-52140566D01*
X119844008Y-52140568D01*
X119935289Y-52170227D01*
X120068631Y-52213553D01*
X120301903Y-52250500D01*
X120301908Y-52250500D01*
X120538097Y-52250500D01*
X120677495Y-52228420D01*
X120751118Y-52216760D01*
X120820410Y-52225714D01*
X120873862Y-52270710D01*
X120894502Y-52337462D01*
X120875777Y-52404776D01*
X120826812Y-52449717D01*
X120793566Y-52466657D01*
X120765461Y-52487077D01*
X120602490Y-52605483D01*
X120602488Y-52605485D01*
X120602487Y-52605485D01*
X120435485Y-52772487D01*
X120435485Y-52772488D01*
X120435483Y-52772490D01*
X120418128Y-52796377D01*
X120296657Y-52963566D01*
X120189433Y-53174003D01*
X120116446Y-53398631D01*
X120079500Y-53631902D01*
X120079500Y-53868097D01*
X120116446Y-54101368D01*
X120189433Y-54325996D01*
X120255895Y-54456433D01*
X120296657Y-54536433D01*
X120435483Y-54727510D01*
X120602490Y-54894517D01*
X120793567Y-55033343D01*
X120892991Y-55084002D01*
X121004003Y-55140566D01*
X121004005Y-55140566D01*
X121004008Y-55140568D01*
X121086896Y-55167500D01*
X121228631Y-55213553D01*
X121461903Y-55250500D01*
X121461908Y-55250500D01*
X121698097Y-55250500D01*
X121931368Y-55213553D01*
X122155992Y-55140568D01*
X122366433Y-55033343D01*
X122532616Y-54912602D01*
X122598420Y-54889124D01*
X122666474Y-54904949D01*
X122715169Y-54955055D01*
X122729500Y-55012922D01*
X122729500Y-69103961D01*
X122723510Y-69124360D01*
X122722304Y-69145589D01*
X122710962Y-69167092D01*
X122709815Y-69171000D01*
X122705844Y-69176810D01*
X122705083Y-69177857D01*
X122618861Y-69296533D01*
X122618707Y-69296834D01*
X122615647Y-69301050D01*
X122591619Y-69319592D01*
X122569090Y-69339928D01*
X122564043Y-69340872D01*
X122560333Y-69343736D01*
X122538855Y-69345588D01*
X122505576Y-69351819D01*
X122492741Y-69350809D01*
X121917870Y-69925681D01*
X121907178Y-69885778D01*
X121834110Y-69759222D01*
X121730778Y-69655890D01*
X121604222Y-69582822D01*
X121564315Y-69572129D01*
X122139188Y-68997257D01*
X122088378Y-68960342D01*
X121901506Y-68865125D01*
X121702028Y-68800310D01*
X121494869Y-68767500D01*
X121285131Y-68767500D01*
X121077971Y-68800310D01*
X120878493Y-68865125D01*
X120691611Y-68960347D01*
X120640810Y-68997256D01*
X120640810Y-68997257D01*
X121215682Y-69572129D01*
X121175778Y-69582822D01*
X121049222Y-69655890D01*
X120945890Y-69759222D01*
X120872822Y-69885778D01*
X120862129Y-69925682D01*
X120287257Y-69350810D01*
X120274425Y-69351820D01*
X120264245Y-69349681D01*
X120254054Y-69351744D01*
X120230642Y-69342622D01*
X120206048Y-69337456D01*
X120196913Y-69329481D01*
X120188951Y-69326379D01*
X120173007Y-69308611D01*
X120164360Y-69301062D01*
X120161298Y-69296845D01*
X120161139Y-69296533D01*
X120019307Y-69101318D01*
X119848682Y-68930693D01*
X119653467Y-68788861D01*
X119635713Y-68779815D01*
X119438468Y-68679312D01*
X119438465Y-68679311D01*
X119208979Y-68604748D01*
X119089814Y-68585874D01*
X118970650Y-68567000D01*
X118729350Y-68567000D01*
X118649907Y-68579582D01*
X118491020Y-68604748D01*
X118261534Y-68679311D01*
X118261531Y-68679312D01*
X118046532Y-68788861D01*
X117851315Y-68930695D01*
X117680695Y-69101315D01*
X117680688Y-69101324D01*
X117680317Y-69101835D01*
X117680126Y-69101982D01*
X117677529Y-69105023D01*
X117676890Y-69104477D01*
X117624987Y-69144501D01*
X117555373Y-69150479D01*
X117493579Y-69117872D01*
X117479683Y-69101835D01*
X117479311Y-69101324D01*
X117479309Y-69101321D01*
X117479307Y-69101318D01*
X117308682Y-68930693D01*
X117113467Y-68788861D01*
X117095713Y-68779815D01*
X116898468Y-68679312D01*
X116898465Y-68679311D01*
X116668979Y-68604748D01*
X116549814Y-68585874D01*
X116430650Y-68567000D01*
X116189350Y-68567000D01*
X116109907Y-68579582D01*
X115951020Y-68604748D01*
X115721534Y-68679311D01*
X115721531Y-68679312D01*
X115506532Y-68788861D01*
X115311315Y-68930695D01*
X115140695Y-69101315D01*
X115140688Y-69101324D01*
X115140317Y-69101835D01*
X115140126Y-69101982D01*
X115137529Y-69105023D01*
X115136890Y-69104477D01*
X115084987Y-69144501D01*
X115015373Y-69150479D01*
X114953579Y-69117872D01*
X114939683Y-69101835D01*
X114939311Y-69101324D01*
X114939309Y-69101321D01*
X114939307Y-69101318D01*
X114768682Y-68930693D01*
X114573467Y-68788861D01*
X114555713Y-68779815D01*
X114358468Y-68679312D01*
X114358465Y-68679311D01*
X114128979Y-68604748D01*
X114009814Y-68585874D01*
X113890650Y-68567000D01*
X113649350Y-68567000D01*
X113569907Y-68579582D01*
X113411020Y-68604748D01*
X113181534Y-68679311D01*
X113181531Y-68679312D01*
X112966532Y-68788861D01*
X112771315Y-68930695D01*
X112600695Y-69101315D01*
X112600688Y-69101324D01*
X112600317Y-69101835D01*
X112600126Y-69101982D01*
X112597529Y-69105023D01*
X112596890Y-69104477D01*
X112544987Y-69144501D01*
X112475373Y-69150479D01*
X112413579Y-69117872D01*
X112399683Y-69101835D01*
X112399311Y-69101324D01*
X112399309Y-69101321D01*
X112399307Y-69101318D01*
X112228682Y-68930693D01*
X112033467Y-68788861D01*
X112015713Y-68779815D01*
X111818468Y-68679312D01*
X111818465Y-68679311D01*
X111588979Y-68604748D01*
X111469814Y-68585874D01*
X111350650Y-68567000D01*
X111109350Y-68567000D01*
X111029907Y-68579582D01*
X110871020Y-68604748D01*
X110641534Y-68679311D01*
X110641531Y-68679312D01*
X110426532Y-68788861D01*
X110231315Y-68930695D01*
X110060695Y-69101315D01*
X110060688Y-69101324D01*
X110060317Y-69101835D01*
X110060126Y-69101982D01*
X110057529Y-69105023D01*
X110056890Y-69104477D01*
X110004987Y-69144501D01*
X109935373Y-69150479D01*
X109873579Y-69117872D01*
X109859683Y-69101835D01*
X109859311Y-69101324D01*
X109859309Y-69101321D01*
X109859307Y-69101318D01*
X109688682Y-68930693D01*
X109493467Y-68788861D01*
X109475713Y-68779815D01*
X109278468Y-68679312D01*
X109278465Y-68679311D01*
X109048979Y-68604748D01*
X108929814Y-68585874D01*
X108810650Y-68567000D01*
X108569350Y-68567000D01*
X108489907Y-68579582D01*
X108331020Y-68604748D01*
X108101534Y-68679311D01*
X108101531Y-68679312D01*
X107886529Y-68788863D01*
X107766846Y-68875818D01*
X107701040Y-68899298D01*
X107693961Y-68899500D01*
X103805514Y-68899500D01*
X103618881Y-68929059D01*
X103439163Y-68987454D01*
X103270800Y-69073240D01*
X103207083Y-69119534D01*
X103117927Y-69184310D01*
X103117925Y-69184312D01*
X103117924Y-69184312D01*
X100789055Y-71513181D01*
X100727732Y-71546666D01*
X100701374Y-71549500D01*
X90048626Y-71549500D01*
X89981587Y-71529815D01*
X89960945Y-71513181D01*
X89486819Y-71039055D01*
X89453334Y-70977732D01*
X89450500Y-70951374D01*
X89450500Y-63193386D01*
X101049500Y-63193386D01*
X101049500Y-66306613D01*
X101055913Y-66377192D01*
X101055913Y-66377194D01*
X101055914Y-66377196D01*
X101063511Y-66401577D01*
X101106522Y-66539606D01*
X101194530Y-66685188D01*
X101314811Y-66805469D01*
X101314813Y-66805470D01*
X101314815Y-66805472D01*
X101460394Y-66893478D01*
X101622804Y-66944086D01*
X101693384Y-66950500D01*
X101693387Y-66950500D01*
X104806613Y-66950500D01*
X104806616Y-66950500D01*
X104877196Y-66944086D01*
X105039606Y-66893478D01*
X105185185Y-66805472D01*
X105305472Y-66685185D01*
X105393478Y-66539606D01*
X105444086Y-66377196D01*
X105450500Y-66306616D01*
X105450500Y-65444862D01*
X106199500Y-65444862D01*
X106199500Y-67255130D01*
X106199501Y-67255138D01*
X106209582Y-67368548D01*
X106209582Y-67368550D01*
X106209583Y-67368553D01*
X106262763Y-67554407D01*
X106352266Y-67725751D01*
X106474428Y-67875572D01*
X106624249Y-67997734D01*
X106795593Y-68087237D01*
X106981447Y-68140417D01*
X107094861Y-68150500D01*
X108905138Y-68150499D01*
X109018553Y-68140417D01*
X109204407Y-68087237D01*
X109375751Y-67997734D01*
X109525572Y-67875572D01*
X109647734Y-67725751D01*
X109737237Y-67554407D01*
X109790417Y-67368553D01*
X109800500Y-67255139D01*
X109800499Y-66461902D01*
X116499500Y-66461902D01*
X116499500Y-66698097D01*
X116536446Y-66931368D01*
X116609433Y-67155996D01*
X116690271Y-67314648D01*
X116716657Y-67366433D01*
X116855483Y-67557510D01*
X117022490Y-67724517D01*
X117213567Y-67863343D01*
X117312991Y-67914002D01*
X117424003Y-67970566D01*
X117424005Y-67970566D01*
X117424008Y-67970568D01*
X117544412Y-68009689D01*
X117648631Y-68043553D01*
X117881903Y-68080500D01*
X117881908Y-68080500D01*
X118118097Y-68080500D01*
X118351368Y-68043553D01*
X118392187Y-68030290D01*
X118575992Y-67970568D01*
X118786433Y-67863343D01*
X118977510Y-67724517D01*
X119144517Y-67557510D01*
X119283343Y-67366433D01*
X119390568Y-67155992D01*
X119463553Y-66931368D01*
X119483493Y-66805472D01*
X119500500Y-66698097D01*
X119500500Y-66461902D01*
X119463553Y-66228631D01*
X119390566Y-66004003D01*
X119309343Y-65844595D01*
X119283343Y-65793567D01*
X119144517Y-65602490D01*
X118977510Y-65435483D01*
X118786433Y-65296657D01*
X118720733Y-65263181D01*
X118575996Y-65189433D01*
X118351368Y-65116446D01*
X118118097Y-65079500D01*
X118118092Y-65079500D01*
X117881908Y-65079500D01*
X117881903Y-65079500D01*
X117648631Y-65116446D01*
X117424003Y-65189433D01*
X117213566Y-65296657D01*
X117152373Y-65341117D01*
X117022490Y-65435483D01*
X117022488Y-65435485D01*
X117022487Y-65435485D01*
X116855485Y-65602487D01*
X116855485Y-65602488D01*
X116855483Y-65602490D01*
X116795862Y-65684550D01*
X116716657Y-65793566D01*
X116609433Y-66004003D01*
X116536446Y-66228631D01*
X116499500Y-66461902D01*
X109800499Y-66461902D01*
X109800499Y-66306616D01*
X109800499Y-65444869D01*
X109800499Y-65444862D01*
X109790417Y-65331447D01*
X109737237Y-65145593D01*
X109647734Y-64974249D01*
X109525572Y-64824428D01*
X109375751Y-64702266D01*
X109204407Y-64612763D01*
X109018553Y-64559583D01*
X109018552Y-64559582D01*
X109018549Y-64559582D01*
X108951433Y-64553615D01*
X108905139Y-64549500D01*
X108905134Y-64549500D01*
X107094869Y-64549500D01*
X107094861Y-64549501D01*
X106981451Y-64559582D01*
X106981447Y-64559582D01*
X106981447Y-64559583D01*
X106934504Y-64573015D01*
X106795595Y-64612762D01*
X106795593Y-64612762D01*
X106795593Y-64612763D01*
X106624249Y-64702266D01*
X106624247Y-64702267D01*
X106624246Y-64702268D01*
X106474428Y-64824428D01*
X106352268Y-64974246D01*
X106262762Y-65145595D01*
X106209582Y-65331450D01*
X106199500Y-65444862D01*
X105450500Y-65444862D01*
X105450500Y-63193384D01*
X105444086Y-63122804D01*
X105393478Y-62960394D01*
X105305472Y-62814815D01*
X105305470Y-62814813D01*
X105305469Y-62814811D01*
X105185188Y-62694530D01*
X105039606Y-62606522D01*
X104877196Y-62555914D01*
X104877194Y-62555913D01*
X104877192Y-62555913D01*
X104827778Y-62551423D01*
X104806616Y-62549500D01*
X101693384Y-62549500D01*
X101674145Y-62551248D01*
X101622807Y-62555913D01*
X101460393Y-62606522D01*
X101314811Y-62694530D01*
X101194530Y-62814811D01*
X101106522Y-62960393D01*
X101055913Y-63122807D01*
X101049500Y-63193386D01*
X89450500Y-63193386D01*
X89450500Y-61155520D01*
X89446331Y-61129199D01*
X89446331Y-61129197D01*
X89420940Y-60968882D01*
X89420940Y-60968881D01*
X89377215Y-60834312D01*
X89362547Y-60789168D01*
X89362545Y-60789165D01*
X89362545Y-60789163D01*
X89285245Y-60637454D01*
X89276760Y-60620801D01*
X89165690Y-60467926D01*
X87893601Y-59195837D01*
X89819500Y-59195837D01*
X89819500Y-59424162D01*
X89855215Y-59649660D01*
X89925770Y-59866803D01*
X90029421Y-60070228D01*
X90163621Y-60254937D01*
X90325063Y-60416379D01*
X90509772Y-60550579D01*
X90591407Y-60592174D01*
X90713196Y-60654229D01*
X90713198Y-60654229D01*
X90713201Y-60654231D01*
X90829592Y-60692049D01*
X90930339Y-60724784D01*
X91155838Y-60760500D01*
X91155843Y-60760500D01*
X91384162Y-60760500D01*
X91609660Y-60724784D01*
X91632321Y-60717421D01*
X91826799Y-60654231D01*
X92030228Y-60550579D01*
X92214937Y-60416379D01*
X92376379Y-60254937D01*
X92510579Y-60070228D01*
X92614231Y-59866799D01*
X92684784Y-59649660D01*
X92690381Y-59614320D01*
X92720500Y-59424162D01*
X92720500Y-59195837D01*
X94899500Y-59195837D01*
X94899500Y-59424162D01*
X94935215Y-59649660D01*
X95005770Y-59866803D01*
X95109421Y-60070228D01*
X95243621Y-60254937D01*
X95405063Y-60416379D01*
X95589772Y-60550579D01*
X95671407Y-60592174D01*
X95793196Y-60654229D01*
X95793198Y-60654229D01*
X95793201Y-60654231D01*
X95909592Y-60692049D01*
X96010339Y-60724784D01*
X96235838Y-60760500D01*
X96235843Y-60760500D01*
X96464162Y-60760500D01*
X96689660Y-60724784D01*
X96712321Y-60717421D01*
X96906799Y-60654231D01*
X97110228Y-60550579D01*
X97294937Y-60416379D01*
X97456379Y-60254937D01*
X97590579Y-60070228D01*
X97694231Y-59866799D01*
X97764784Y-59649660D01*
X97770381Y-59614320D01*
X97800500Y-59424162D01*
X97800500Y-59195837D01*
X99979500Y-59195837D01*
X99979500Y-59424162D01*
X100015215Y-59649660D01*
X100085770Y-59866803D01*
X100189421Y-60070228D01*
X100323621Y-60254937D01*
X100485063Y-60416379D01*
X100669772Y-60550579D01*
X100751407Y-60592174D01*
X100873196Y-60654229D01*
X100873198Y-60654229D01*
X100873201Y-60654231D01*
X100989592Y-60692049D01*
X101090339Y-60724784D01*
X101315838Y-60760500D01*
X101315843Y-60760500D01*
X101544162Y-60760500D01*
X101769660Y-60724784D01*
X101792321Y-60717421D01*
X101986799Y-60654231D01*
X102190228Y-60550579D01*
X102199507Y-60543837D01*
X110279500Y-60543837D01*
X110279500Y-60772162D01*
X110315215Y-60997660D01*
X110385770Y-61214803D01*
X110453702Y-61348126D01*
X110489421Y-61418228D01*
X110623621Y-61602937D01*
X110785063Y-61764379D01*
X110969772Y-61898579D01*
X110995194Y-61911532D01*
X111173196Y-62002229D01*
X111173198Y-62002229D01*
X111173201Y-62002231D01*
X111390340Y-62072784D01*
X111464717Y-62084564D01*
X111527848Y-62114491D01*
X111564780Y-62173802D01*
X111567790Y-62187638D01*
X111585215Y-62297660D01*
X111655770Y-62514803D01*
X111747345Y-62694528D01*
X111759421Y-62718228D01*
X111893621Y-62902937D01*
X112055063Y-63064379D01*
X112239772Y-63198579D01*
X112335884Y-63247550D01*
X112443196Y-63302229D01*
X112443198Y-63302229D01*
X112443201Y-63302231D01*
X112531644Y-63330968D01*
X112660339Y-63372784D01*
X112885838Y-63408500D01*
X112885843Y-63408500D01*
X113114162Y-63408500D01*
X113339660Y-63372784D01*
X113556799Y-63302231D01*
X113760228Y-63198579D01*
X113944937Y-63064379D01*
X114106379Y-62902937D01*
X114240579Y-62718228D01*
X114344231Y-62514799D01*
X114414784Y-62297660D01*
X114432210Y-62187638D01*
X114450500Y-62072162D01*
X114450500Y-62000898D01*
X114470185Y-61933859D01*
X114522989Y-61888104D01*
X114555112Y-61878423D01*
X114562710Y-61877220D01*
X114749835Y-61816418D01*
X114925143Y-61727095D01*
X114960125Y-61701678D01*
X114960126Y-61701678D01*
X114399409Y-61140962D01*
X114462993Y-61123925D01*
X114577007Y-61058099D01*
X114670099Y-60965007D01*
X114735925Y-60850993D01*
X114752962Y-60787410D01*
X115313678Y-61348126D01*
X115313678Y-61348125D01*
X115339095Y-61313143D01*
X115428418Y-61137835D01*
X115489221Y-60950705D01*
X115520000Y-60756382D01*
X115520000Y-60559617D01*
X115489221Y-60365294D01*
X115428418Y-60178164D01*
X115339096Y-60002858D01*
X115313678Y-59967873D01*
X115313677Y-59967873D01*
X114752962Y-60528589D01*
X114735925Y-60465007D01*
X114670099Y-60350993D01*
X114577007Y-60257901D01*
X114462993Y-60192075D01*
X114399409Y-60175037D01*
X114960125Y-59614320D01*
X114960125Y-59614319D01*
X114925145Y-59588905D01*
X114749835Y-59499581D01*
X114562705Y-59438778D01*
X114368382Y-59408000D01*
X114171618Y-59408000D01*
X113977294Y-59438778D01*
X113790161Y-59499582D01*
X113614863Y-59588899D01*
X113614859Y-59588902D01*
X113579873Y-59614320D01*
X113579872Y-59614320D01*
X114140590Y-60175037D01*
X114077007Y-60192075D01*
X113962993Y-60257901D01*
X113869901Y-60350993D01*
X113804075Y-60465007D01*
X113787037Y-60528590D01*
X113226320Y-59967872D01*
X113226319Y-59967873D01*
X113215934Y-59982168D01*
X113160604Y-60024835D01*
X113090991Y-60030816D01*
X113029195Y-59998211D01*
X113005129Y-59965580D01*
X112977590Y-59911532D01*
X112970579Y-59897772D01*
X112836379Y-59713063D01*
X112674937Y-59551621D01*
X112490228Y-59417421D01*
X112471738Y-59408000D01*
X112286803Y-59313770D01*
X112069660Y-59243215D01*
X111844162Y-59207500D01*
X111844157Y-59207500D01*
X111615843Y-59207500D01*
X111615838Y-59207500D01*
X111390339Y-59243215D01*
X111173196Y-59313770D01*
X110969771Y-59417421D01*
X110785061Y-59551622D01*
X110623622Y-59713061D01*
X110489421Y-59897771D01*
X110385770Y-60101196D01*
X110315215Y-60318339D01*
X110279500Y-60543837D01*
X102199507Y-60543837D01*
X102374937Y-60416379D01*
X102536379Y-60254937D01*
X102670579Y-60070228D01*
X102774231Y-59866799D01*
X102844784Y-59649660D01*
X102850381Y-59614320D01*
X102880500Y-59424162D01*
X102880500Y-59195837D01*
X102844784Y-58970339D01*
X102774229Y-58753196D01*
X102706693Y-58620650D01*
X102670579Y-58549772D01*
X102536379Y-58365063D01*
X102374937Y-58203621D01*
X102190228Y-58069421D01*
X101986803Y-57965770D01*
X101769660Y-57895215D01*
X101544162Y-57859500D01*
X101544157Y-57859500D01*
X101315843Y-57859500D01*
X101315838Y-57859500D01*
X101090339Y-57895215D01*
X100873196Y-57965770D01*
X100669771Y-58069421D01*
X100485061Y-58203622D01*
X100323622Y-58365061D01*
X100189421Y-58549771D01*
X100085770Y-58753196D01*
X100015215Y-58970339D01*
X99979500Y-59195837D01*
X97800500Y-59195837D01*
X97764784Y-58970339D01*
X97694229Y-58753196D01*
X97626693Y-58620650D01*
X97590579Y-58549772D01*
X97456379Y-58365063D01*
X97294937Y-58203621D01*
X97110228Y-58069421D01*
X96906803Y-57965770D01*
X96689660Y-57895215D01*
X96464162Y-57859500D01*
X96464157Y-57859500D01*
X96235843Y-57859500D01*
X96235838Y-57859500D01*
X96010339Y-57895215D01*
X95793196Y-57965770D01*
X95589771Y-58069421D01*
X95405061Y-58203622D01*
X95243622Y-58365061D01*
X95109421Y-58549771D01*
X95005770Y-58753196D01*
X94935215Y-58970339D01*
X94899500Y-59195837D01*
X92720500Y-59195837D01*
X92684784Y-58970339D01*
X92614229Y-58753196D01*
X92546693Y-58620650D01*
X92510579Y-58549772D01*
X92376379Y-58365063D01*
X92214937Y-58203621D01*
X92030228Y-58069421D01*
X91826803Y-57965770D01*
X91609660Y-57895215D01*
X91384162Y-57859500D01*
X91384157Y-57859500D01*
X91155843Y-57859500D01*
X91155838Y-57859500D01*
X90930339Y-57895215D01*
X90713196Y-57965770D01*
X90509771Y-58069421D01*
X90325061Y-58203622D01*
X90163622Y-58365061D01*
X90029421Y-58549771D01*
X89925770Y-58753196D01*
X89855215Y-58970339D01*
X89819500Y-59195837D01*
X87893601Y-59195837D01*
X87092074Y-58394310D01*
X86939199Y-58283240D01*
X86770836Y-58197454D01*
X86591118Y-58139059D01*
X86404486Y-58109500D01*
X86404481Y-58109500D01*
X84505682Y-58109500D01*
X84438643Y-58089815D01*
X84432796Y-58085817D01*
X84410232Y-58069423D01*
X84206803Y-57965770D01*
X83989660Y-57895215D01*
X83764162Y-57859500D01*
X83764157Y-57859500D01*
X83535843Y-57859500D01*
X83535838Y-57859500D01*
X83310339Y-57895215D01*
X83093196Y-57965770D01*
X82889771Y-58069421D01*
X82705061Y-58203622D01*
X82543622Y-58365061D01*
X82409421Y-58549771D01*
X82305770Y-58753196D01*
X82235215Y-58970339D01*
X82199500Y-59195837D01*
X79750000Y-59195837D01*
X79750000Y-56301902D01*
X116499500Y-56301902D01*
X116499500Y-56538097D01*
X116536446Y-56771368D01*
X116609433Y-56995996D01*
X116707201Y-57187875D01*
X116716657Y-57206433D01*
X116855483Y-57397510D01*
X117022490Y-57564517D01*
X117213567Y-57703343D01*
X117312991Y-57754002D01*
X117424003Y-57810566D01*
X117424005Y-57810566D01*
X117424008Y-57810568D01*
X117544412Y-57849689D01*
X117648631Y-57883553D01*
X117881903Y-57920500D01*
X117881908Y-57920500D01*
X118118097Y-57920500D01*
X118351368Y-57883553D01*
X118575992Y-57810568D01*
X118786433Y-57703343D01*
X118977510Y-57564517D01*
X119144517Y-57397510D01*
X119283343Y-57206433D01*
X119390568Y-56995992D01*
X119463553Y-56771368D01*
X119500500Y-56538097D01*
X119500500Y-56301902D01*
X119463553Y-56068631D01*
X119390566Y-55844003D01*
X119283342Y-55633566D01*
X119144517Y-55442490D01*
X118977510Y-55275483D01*
X118786433Y-55136657D01*
X118575996Y-55029433D01*
X118351368Y-54956446D01*
X118118097Y-54919500D01*
X118118092Y-54919500D01*
X117881908Y-54919500D01*
X117881903Y-54919500D01*
X117648631Y-54956446D01*
X117424003Y-55029433D01*
X117213566Y-55136657D01*
X117171115Y-55167500D01*
X117022490Y-55275483D01*
X117022488Y-55275485D01*
X117022487Y-55275485D01*
X116855485Y-55442487D01*
X116855485Y-55442488D01*
X116855483Y-55442490D01*
X116823276Y-55486819D01*
X116716657Y-55633566D01*
X116609433Y-55844003D01*
X116536446Y-56068631D01*
X116499500Y-56301902D01*
X79750000Y-56301902D01*
X79750000Y-51575837D01*
X82199500Y-51575837D01*
X82199500Y-51804162D01*
X82235215Y-52029660D01*
X82305770Y-52246803D01*
X82361266Y-52355718D01*
X82409421Y-52450228D01*
X82425817Y-52472795D01*
X82449298Y-52538600D01*
X82449500Y-52545681D01*
X82449500Y-53744486D01*
X82479059Y-53931118D01*
X82537454Y-54110836D01*
X82598167Y-54229991D01*
X82623240Y-54279199D01*
X82734310Y-54432074D01*
X84217926Y-55915690D01*
X84370801Y-56026760D01*
X84539168Y-56112547D01*
X84718882Y-56170940D01*
X84788870Y-56182025D01*
X84905513Y-56200500D01*
X84905518Y-56200500D01*
X106744486Y-56200500D01*
X106908244Y-56174563D01*
X106911448Y-56174055D01*
X106931118Y-56170940D01*
X107110832Y-56112547D01*
X107279199Y-56026760D01*
X107432074Y-55915690D01*
X107860945Y-55486819D01*
X107922268Y-55453334D01*
X107948626Y-55450500D01*
X108118004Y-55450500D01*
X108118011Y-55450500D01*
X108352014Y-55419693D01*
X108579993Y-55358606D01*
X108798049Y-55268284D01*
X109002450Y-55150273D01*
X109189699Y-55006592D01*
X109356592Y-54839699D01*
X109500273Y-54652450D01*
X109618284Y-54448049D01*
X109708606Y-54229993D01*
X109731161Y-54145814D01*
X109767524Y-54086157D01*
X109830371Y-54055627D01*
X109899747Y-54063921D01*
X109953625Y-54108406D01*
X109968866Y-54139591D01*
X110029433Y-54325996D01*
X110095895Y-54456433D01*
X110136657Y-54536433D01*
X110275483Y-54727510D01*
X110442490Y-54894517D01*
X110633567Y-55033343D01*
X110732991Y-55084002D01*
X110844003Y-55140566D01*
X110844005Y-55140566D01*
X110844008Y-55140568D01*
X110926896Y-55167500D01*
X111068631Y-55213553D01*
X111301903Y-55250500D01*
X111301908Y-55250500D01*
X111538097Y-55250500D01*
X111771368Y-55213553D01*
X111995992Y-55140568D01*
X112206433Y-55033343D01*
X112397510Y-54894517D01*
X112564517Y-54727510D01*
X112703343Y-54536433D01*
X112810568Y-54325992D01*
X112883553Y-54101368D01*
X112910518Y-53931118D01*
X112920500Y-53868097D01*
X112920500Y-53631902D01*
X112883553Y-53398631D01*
X112810566Y-53174003D01*
X112739347Y-53034229D01*
X112703343Y-52963567D01*
X112644182Y-52882138D01*
X112620702Y-52816332D01*
X112620500Y-52809253D01*
X112620500Y-46075521D01*
X112620500Y-46075519D01*
X112619191Y-46067257D01*
X112619190Y-46067250D01*
X112590940Y-45888881D01*
X112547025Y-45753726D01*
X112532547Y-45709168D01*
X112532545Y-45709165D01*
X112532545Y-45709163D01*
X112446759Y-45540800D01*
X112443398Y-45536174D01*
X112335690Y-45387926D01*
X111736819Y-44789055D01*
X111722115Y-44762127D01*
X111705523Y-44736309D01*
X111704631Y-44730108D01*
X111703334Y-44727732D01*
X111700500Y-44701374D01*
X111700500Y-44638549D01*
X113299500Y-44638549D01*
X113299500Y-44861450D01*
X113299501Y-44861466D01*
X113328594Y-45082452D01*
X113328595Y-45082457D01*
X113328596Y-45082463D01*
X113362449Y-45208803D01*
X113386290Y-45297780D01*
X113386293Y-45297790D01*
X113471593Y-45503722D01*
X113471595Y-45503726D01*
X113583052Y-45696774D01*
X113583057Y-45696780D01*
X113583058Y-45696782D01*
X113718751Y-45873622D01*
X113718757Y-45873629D01*
X113876370Y-46031242D01*
X113876377Y-46031248D01*
X113934073Y-46075519D01*
X114053226Y-46166948D01*
X114246274Y-46278405D01*
X114452219Y-46363710D01*
X114667537Y-46421404D01*
X114888543Y-46450500D01*
X114888550Y-46450500D01*
X115111450Y-46450500D01*
X115111457Y-46450500D01*
X115332463Y-46421404D01*
X115547781Y-46363710D01*
X115753726Y-46278405D01*
X115946774Y-46166948D01*
X116123624Y-46031247D01*
X116281247Y-45873624D01*
X116416948Y-45696774D01*
X116528405Y-45503726D01*
X116613710Y-45297781D01*
X116671404Y-45082463D01*
X116700500Y-44861457D01*
X116700500Y-44638543D01*
X116699632Y-44631947D01*
X118500000Y-44631947D01*
X118500000Y-44868052D01*
X118536934Y-45101247D01*
X118609897Y-45325802D01*
X118717087Y-45536174D01*
X118777338Y-45619104D01*
X118777340Y-45619105D01*
X119398949Y-44997496D01*
X119423968Y-45057896D01*
X119495104Y-45164358D01*
X119585642Y-45254896D01*
X119692104Y-45326032D01*
X119752503Y-45351049D01*
X119130893Y-45972658D01*
X119213828Y-46032914D01*
X119424197Y-46140102D01*
X119648752Y-46213065D01*
X119648751Y-46213065D01*
X119881948Y-46250000D01*
X120118052Y-46250000D01*
X120351247Y-46213065D01*
X120575802Y-46140102D01*
X120786163Y-46032918D01*
X120786169Y-46032914D01*
X120869104Y-45972658D01*
X120869105Y-45972658D01*
X120247496Y-45351050D01*
X120307896Y-45326032D01*
X120414358Y-45254896D01*
X120504896Y-45164358D01*
X120576032Y-45057896D01*
X120601049Y-44997496D01*
X121222658Y-45619105D01*
X121222658Y-45619104D01*
X121282914Y-45536169D01*
X121282918Y-45536163D01*
X121390102Y-45325802D01*
X121463065Y-45101247D01*
X121500000Y-44868052D01*
X121500000Y-44638549D01*
X123299500Y-44638549D01*
X123299500Y-44861450D01*
X123299501Y-44861466D01*
X123328594Y-45082452D01*
X123328595Y-45082457D01*
X123328596Y-45082463D01*
X123362449Y-45208803D01*
X123386290Y-45297780D01*
X123386293Y-45297790D01*
X123471593Y-45503722D01*
X123471595Y-45503726D01*
X123583052Y-45696774D01*
X123583057Y-45696780D01*
X123583058Y-45696782D01*
X123718751Y-45873622D01*
X123718757Y-45873629D01*
X123876370Y-46031242D01*
X123876377Y-46031248D01*
X123934073Y-46075519D01*
X124053226Y-46166948D01*
X124246274Y-46278405D01*
X124452219Y-46363710D01*
X124667537Y-46421404D01*
X124888543Y-46450500D01*
X124888550Y-46450500D01*
X125111450Y-46450500D01*
X125111457Y-46450500D01*
X125332463Y-46421404D01*
X125547781Y-46363710D01*
X125753726Y-46278405D01*
X125946774Y-46166948D01*
X126123624Y-46031247D01*
X126281247Y-45873624D01*
X126416948Y-45696774D01*
X126528405Y-45503726D01*
X126613710Y-45297781D01*
X126671404Y-45082463D01*
X126700500Y-44861457D01*
X126700500Y-44638543D01*
X126671404Y-44417537D01*
X126613710Y-44202219D01*
X126528405Y-43996274D01*
X126416948Y-43803226D01*
X126303609Y-43655519D01*
X126281248Y-43626377D01*
X126281242Y-43626370D01*
X126123629Y-43468757D01*
X126123622Y-43468751D01*
X125946782Y-43333058D01*
X125946780Y-43333057D01*
X125946774Y-43333052D01*
X125753726Y-43221595D01*
X125753722Y-43221593D01*
X125547790Y-43136293D01*
X125547783Y-43136291D01*
X125547781Y-43136290D01*
X125332463Y-43078596D01*
X125332457Y-43078595D01*
X125332452Y-43078594D01*
X125111466Y-43049501D01*
X125111463Y-43049500D01*
X125111457Y-43049500D01*
X124888543Y-43049500D01*
X124888537Y-43049500D01*
X124888533Y-43049501D01*
X124667547Y-43078594D01*
X124667540Y-43078595D01*
X124667537Y-43078596D01*
X124510025Y-43120801D01*
X124452219Y-43136290D01*
X124452209Y-43136293D01*
X124246277Y-43221593D01*
X124246273Y-43221595D01*
X124053226Y-43333052D01*
X124053217Y-43333058D01*
X123876377Y-43468751D01*
X123876370Y-43468757D01*
X123718757Y-43626370D01*
X123718751Y-43626377D01*
X123583058Y-43803217D01*
X123583052Y-43803226D01*
X123471595Y-43996273D01*
X123471593Y-43996277D01*
X123386293Y-44202209D01*
X123386290Y-44202219D01*
X123333630Y-44398752D01*
X123328597Y-44417534D01*
X123328594Y-44417547D01*
X123299501Y-44638533D01*
X123299500Y-44638549D01*
X121500000Y-44638549D01*
X121500000Y-44631947D01*
X121463065Y-44398752D01*
X121390102Y-44174197D01*
X121282914Y-43963828D01*
X121222658Y-43880894D01*
X121222658Y-43880893D01*
X120601049Y-44502502D01*
X120576032Y-44442104D01*
X120504896Y-44335642D01*
X120414358Y-44245104D01*
X120307896Y-44173968D01*
X120247496Y-44148949D01*
X120869105Y-43527340D01*
X120869104Y-43527338D01*
X120786174Y-43467087D01*
X120575802Y-43359897D01*
X120351247Y-43286934D01*
X120351248Y-43286934D01*
X120118052Y-43250000D01*
X119881948Y-43250000D01*
X119648752Y-43286934D01*
X119424197Y-43359897D01*
X119213830Y-43467084D01*
X119130894Y-43527340D01*
X119752503Y-44148949D01*
X119692104Y-44173968D01*
X119585642Y-44245104D01*
X119495104Y-44335642D01*
X119423968Y-44442104D01*
X119398949Y-44502503D01*
X118777340Y-43880894D01*
X118717084Y-43963830D01*
X118609897Y-44174197D01*
X118536934Y-44398752D01*
X118500000Y-44631947D01*
X116699632Y-44631947D01*
X116671404Y-44417537D01*
X116613710Y-44202219D01*
X116528405Y-43996274D01*
X116416948Y-43803226D01*
X116352130Y-43718753D01*
X116299440Y-43650085D01*
X116281248Y-43626377D01*
X116281242Y-43626370D01*
X116123629Y-43468757D01*
X116123622Y-43468751D01*
X115946782Y-43333058D01*
X115946780Y-43333057D01*
X115946774Y-43333052D01*
X115753726Y-43221595D01*
X115753722Y-43221593D01*
X115547790Y-43136293D01*
X115547783Y-43136291D01*
X115547781Y-43136290D01*
X115332463Y-43078596D01*
X115332457Y-43078595D01*
X115332452Y-43078594D01*
X115111466Y-43049501D01*
X115111463Y-43049500D01*
X115111457Y-43049500D01*
X114888543Y-43049500D01*
X114888537Y-43049500D01*
X114888533Y-43049501D01*
X114667547Y-43078594D01*
X114667540Y-43078595D01*
X114667537Y-43078596D01*
X114510025Y-43120801D01*
X114452219Y-43136290D01*
X114452209Y-43136293D01*
X114246277Y-43221593D01*
X114246273Y-43221595D01*
X114053226Y-43333052D01*
X114053217Y-43333058D01*
X113876377Y-43468751D01*
X113876370Y-43468757D01*
X113718757Y-43626370D01*
X113718751Y-43626377D01*
X113583058Y-43803217D01*
X113583052Y-43803226D01*
X113471595Y-43996273D01*
X113471593Y-43996277D01*
X113386293Y-44202209D01*
X113386290Y-44202219D01*
X113333630Y-44398752D01*
X113328597Y-44417534D01*
X113328594Y-44417547D01*
X113299501Y-44638533D01*
X113299500Y-44638549D01*
X111700500Y-44638549D01*
X111700500Y-44638543D01*
X111671404Y-44417537D01*
X111613710Y-44202219D01*
X111528405Y-43996274D01*
X111416948Y-43803226D01*
X111303609Y-43655519D01*
X111281248Y-43626377D01*
X111281242Y-43626370D01*
X111123629Y-43468757D01*
X111123622Y-43468751D01*
X110946782Y-43333058D01*
X110946780Y-43333057D01*
X110946774Y-43333052D01*
X110753726Y-43221595D01*
X110753722Y-43221593D01*
X110547790Y-43136293D01*
X110547783Y-43136291D01*
X110547781Y-43136290D01*
X110332463Y-43078596D01*
X110332457Y-43078595D01*
X110332452Y-43078594D01*
X110111466Y-43049501D01*
X110111463Y-43049500D01*
X110111457Y-43049500D01*
X109888543Y-43049500D01*
X109888537Y-43049500D01*
X109888533Y-43049501D01*
X109667547Y-43078594D01*
X109667540Y-43078595D01*
X109667537Y-43078596D01*
X109510025Y-43120801D01*
X109452219Y-43136290D01*
X109452209Y-43136293D01*
X109246277Y-43221593D01*
X109246273Y-43221595D01*
X109053226Y-43333052D01*
X109053217Y-43333058D01*
X108876377Y-43468751D01*
X108876370Y-43468757D01*
X108718757Y-43626370D01*
X108718751Y-43626377D01*
X108583058Y-43803217D01*
X108583052Y-43803226D01*
X108471595Y-43996273D01*
X108471593Y-43996277D01*
X108386293Y-44202209D01*
X108386290Y-44202219D01*
X108333630Y-44398752D01*
X108328597Y-44417534D01*
X108328594Y-44417547D01*
X108299501Y-44638533D01*
X108299500Y-44638549D01*
X108299500Y-44861450D01*
X108299501Y-44861466D01*
X108328594Y-45082452D01*
X108328595Y-45082457D01*
X108328596Y-45082463D01*
X108362449Y-45208803D01*
X108386290Y-45297780D01*
X108386293Y-45297790D01*
X108471593Y-45503722D01*
X108471595Y-45503726D01*
X108583052Y-45696774D01*
X108583057Y-45696780D01*
X108583058Y-45696782D01*
X108718751Y-45873622D01*
X108718757Y-45873629D01*
X108876370Y-46031242D01*
X108876377Y-46031248D01*
X108934073Y-46075519D01*
X109053226Y-46166948D01*
X109246274Y-46278405D01*
X109452219Y-46363710D01*
X109667537Y-46421404D01*
X109888543Y-46450500D01*
X109951374Y-46450500D01*
X109980814Y-46459144D01*
X110010801Y-46465668D01*
X110015816Y-46469422D01*
X110018413Y-46470185D01*
X110039055Y-46486819D01*
X110183181Y-46630945D01*
X110216666Y-46692268D01*
X110219500Y-46718626D01*
X110219500Y-52809253D01*
X110199815Y-52876292D01*
X110195818Y-52882138D01*
X110136659Y-52963563D01*
X110029433Y-53174003D01*
X109998236Y-53270018D01*
X109958798Y-53327693D01*
X109894439Y-53354891D01*
X109825592Y-53342976D01*
X109774117Y-53295731D01*
X109760531Y-53263796D01*
X109708606Y-53070007D01*
X109618284Y-52851951D01*
X109618282Y-52851948D01*
X109618280Y-52851943D01*
X109572405Y-52772487D01*
X109500273Y-52647550D01*
X109356592Y-52460301D01*
X109356587Y-52460295D01*
X109189704Y-52293412D01*
X109189697Y-52293406D01*
X109002454Y-52149730D01*
X109002453Y-52149729D01*
X109002450Y-52149727D01*
X108920917Y-52102654D01*
X108798056Y-52031719D01*
X108798045Y-52031714D01*
X108579993Y-51941394D01*
X108352010Y-51880306D01*
X108118020Y-51849501D01*
X108118017Y-51849500D01*
X108118011Y-51849500D01*
X107881989Y-51849500D01*
X107881983Y-51849500D01*
X107881979Y-51849501D01*
X107647989Y-51880306D01*
X107420006Y-51941394D01*
X107201954Y-52031714D01*
X107201943Y-52031719D01*
X106997545Y-52149730D01*
X106810302Y-52293406D01*
X106810295Y-52293412D01*
X106643412Y-52460295D01*
X106643406Y-52460302D01*
X106499730Y-52647545D01*
X106381719Y-52851943D01*
X106381714Y-52851954D01*
X106291394Y-53070006D01*
X106230306Y-53297989D01*
X106199501Y-53531979D01*
X106199500Y-53531995D01*
X106199500Y-53675500D01*
X106179815Y-53742539D01*
X106127011Y-53788294D01*
X106075500Y-53799500D01*
X85548626Y-53799500D01*
X85481587Y-53779815D01*
X85460945Y-53763181D01*
X84886819Y-53189055D01*
X84853334Y-53127732D01*
X84850500Y-53101374D01*
X84850500Y-52545681D01*
X84870185Y-52478642D01*
X84874174Y-52472806D01*
X84890579Y-52450228D01*
X84994231Y-52246799D01*
X85064784Y-52029660D01*
X85065432Y-52025571D01*
X85100500Y-51804162D01*
X85100500Y-51575837D01*
X89819500Y-51575837D01*
X89819500Y-51804162D01*
X89855215Y-52029660D01*
X89925770Y-52246803D01*
X89997029Y-52386655D01*
X90029421Y-52450228D01*
X90163621Y-52634937D01*
X90325063Y-52796379D01*
X90509772Y-52930579D01*
X90574507Y-52963563D01*
X90713196Y-53034229D01*
X90713198Y-53034229D01*
X90713201Y-53034231D01*
X90823305Y-53070006D01*
X90930339Y-53104784D01*
X91155838Y-53140500D01*
X91155843Y-53140500D01*
X91384162Y-53140500D01*
X91609660Y-53104784D01*
X91642840Y-53094003D01*
X91826799Y-53034231D01*
X92030228Y-52930579D01*
X92214937Y-52796379D01*
X92376379Y-52634937D01*
X92510579Y-52450228D01*
X92614231Y-52246799D01*
X92684784Y-52029660D01*
X92685432Y-52025571D01*
X92720500Y-51804162D01*
X92720500Y-51575837D01*
X94899500Y-51575837D01*
X94899500Y-51804162D01*
X94935215Y-52029660D01*
X95005770Y-52246803D01*
X95077029Y-52386655D01*
X95109421Y-52450228D01*
X95243621Y-52634937D01*
X95405063Y-52796379D01*
X95589772Y-52930579D01*
X95654507Y-52963563D01*
X95793196Y-53034229D01*
X95793198Y-53034229D01*
X95793201Y-53034231D01*
X95903305Y-53070006D01*
X96010339Y-53104784D01*
X96235838Y-53140500D01*
X96235843Y-53140500D01*
X96464162Y-53140500D01*
X96689660Y-53104784D01*
X96722840Y-53094003D01*
X96906799Y-53034231D01*
X97110228Y-52930579D01*
X97294937Y-52796379D01*
X97456379Y-52634937D01*
X97590579Y-52450228D01*
X97694231Y-52246799D01*
X97764784Y-52029660D01*
X97765432Y-52025571D01*
X97800500Y-51804162D01*
X97800500Y-51575837D01*
X99979500Y-51575837D01*
X99979500Y-51804162D01*
X100015215Y-52029660D01*
X100085770Y-52246803D01*
X100157029Y-52386655D01*
X100189421Y-52450228D01*
X100323621Y-52634937D01*
X100485063Y-52796379D01*
X100669772Y-52930579D01*
X100734507Y-52963563D01*
X100873196Y-53034229D01*
X100873198Y-53034229D01*
X100873201Y-53034231D01*
X100983305Y-53070006D01*
X101090339Y-53104784D01*
X101315838Y-53140500D01*
X101315843Y-53140500D01*
X101544162Y-53140500D01*
X101769660Y-53104784D01*
X101802840Y-53094003D01*
X101986799Y-53034231D01*
X102190228Y-52930579D01*
X102374937Y-52796379D01*
X102536379Y-52634937D01*
X102670579Y-52450228D01*
X102774231Y-52246799D01*
X102844784Y-52029660D01*
X102845432Y-52025571D01*
X102880500Y-51804162D01*
X102880500Y-51575837D01*
X102844784Y-51350339D01*
X102792945Y-51190797D01*
X102774231Y-51133201D01*
X102774229Y-51133198D01*
X102774229Y-51133196D01*
X102705868Y-50999031D01*
X102670579Y-50929772D01*
X102536379Y-50745063D01*
X102374937Y-50583621D01*
X102190228Y-50449421D01*
X102186142Y-50447339D01*
X101986803Y-50345770D01*
X101769660Y-50275215D01*
X101544162Y-50239500D01*
X101544157Y-50239500D01*
X101315843Y-50239500D01*
X101315838Y-50239500D01*
X101090339Y-50275215D01*
X100873196Y-50345770D01*
X100669771Y-50449421D01*
X100485061Y-50583622D01*
X100323622Y-50745061D01*
X100189421Y-50929771D01*
X100085770Y-51133196D01*
X100015215Y-51350339D01*
X99979500Y-51575837D01*
X97800500Y-51575837D01*
X97764784Y-51350339D01*
X97712945Y-51190797D01*
X97694231Y-51133201D01*
X97694229Y-51133198D01*
X97694229Y-51133196D01*
X97625868Y-50999031D01*
X97590579Y-50929772D01*
X97456379Y-50745063D01*
X97294937Y-50583621D01*
X97110228Y-50449421D01*
X97106142Y-50447339D01*
X96906803Y-50345770D01*
X96689660Y-50275215D01*
X96464162Y-50239500D01*
X96464157Y-50239500D01*
X96235843Y-50239500D01*
X96235838Y-50239500D01*
X96010339Y-50275215D01*
X95793196Y-50345770D01*
X95589771Y-50449421D01*
X95405061Y-50583622D01*
X95243622Y-50745061D01*
X95109421Y-50929771D01*
X95005770Y-51133196D01*
X94935215Y-51350339D01*
X94899500Y-51575837D01*
X92720500Y-51575837D01*
X92684784Y-51350339D01*
X92632945Y-51190797D01*
X92614231Y-51133201D01*
X92614229Y-51133198D01*
X92614229Y-51133196D01*
X92545868Y-50999031D01*
X92510579Y-50929772D01*
X92376379Y-50745063D01*
X92214937Y-50583621D01*
X92030228Y-50449421D01*
X92026142Y-50447339D01*
X91826803Y-50345770D01*
X91609660Y-50275215D01*
X91384162Y-50239500D01*
X91384157Y-50239500D01*
X91155843Y-50239500D01*
X91155838Y-50239500D01*
X90930339Y-50275215D01*
X90713196Y-50345770D01*
X90509771Y-50449421D01*
X90325061Y-50583622D01*
X90163622Y-50745061D01*
X90029421Y-50929771D01*
X89925770Y-51133196D01*
X89855215Y-51350339D01*
X89819500Y-51575837D01*
X85100500Y-51575837D01*
X85064784Y-51350339D01*
X85012945Y-51190797D01*
X84994231Y-51133201D01*
X84994229Y-51133198D01*
X84994229Y-51133196D01*
X84925868Y-50999031D01*
X84890579Y-50929772D01*
X84756379Y-50745063D01*
X84594937Y-50583621D01*
X84410228Y-50449421D01*
X84406142Y-50447339D01*
X84206803Y-50345770D01*
X83989660Y-50275215D01*
X83764162Y-50239500D01*
X83764157Y-50239500D01*
X83535843Y-50239500D01*
X83535838Y-50239500D01*
X83310339Y-50275215D01*
X83093196Y-50345770D01*
X82889771Y-50449421D01*
X82705061Y-50583622D01*
X82543622Y-50745061D01*
X82409421Y-50929771D01*
X82305770Y-51133196D01*
X82235215Y-51350339D01*
X82199500Y-51575837D01*
X79750000Y-51575837D01*
X79750000Y-49624000D01*
X79758556Y-49594862D01*
X103349500Y-49594862D01*
X103349500Y-51405130D01*
X103349501Y-51405138D01*
X103359582Y-51518548D01*
X103359582Y-51518550D01*
X103359583Y-51518553D01*
X103412763Y-51704407D01*
X103502266Y-51875751D01*
X103624428Y-52025572D01*
X103774249Y-52147734D01*
X103945593Y-52237237D01*
X104131447Y-52290417D01*
X104244861Y-52300500D01*
X106055138Y-52300499D01*
X106168553Y-52290417D01*
X106354407Y-52237237D01*
X106525751Y-52147734D01*
X106675572Y-52025572D01*
X106797734Y-51875751D01*
X106887237Y-51704407D01*
X106940417Y-51518553D01*
X106950500Y-51405139D01*
X106950499Y-49594862D01*
X106940417Y-49481447D01*
X106887237Y-49295593D01*
X106797734Y-49124249D01*
X106675572Y-48974428D01*
X106525751Y-48852266D01*
X106354407Y-48762763D01*
X106168553Y-48709583D01*
X106168552Y-48709582D01*
X106168549Y-48709582D01*
X106101433Y-48703615D01*
X106055139Y-48699500D01*
X106055134Y-48699500D01*
X104244869Y-48699500D01*
X104244861Y-48699501D01*
X104131451Y-48709582D01*
X104131447Y-48709582D01*
X104131447Y-48709583D01*
X104084504Y-48723015D01*
X103945595Y-48762762D01*
X103945593Y-48762762D01*
X103945593Y-48762763D01*
X103774249Y-48852266D01*
X103774247Y-48852267D01*
X103774246Y-48852268D01*
X103624428Y-48974428D01*
X103514347Y-49109433D01*
X103502266Y-49124249D01*
X103412945Y-49295244D01*
X103412762Y-49295595D01*
X103359582Y-49481450D01*
X103349500Y-49594862D01*
X79758556Y-49594862D01*
X79769685Y-49556961D01*
X79822489Y-49511206D01*
X79874000Y-49500000D01*
X86750000Y-49500000D01*
X86750000Y-44638549D01*
X88299500Y-44638549D01*
X88299500Y-44861450D01*
X88299501Y-44861466D01*
X88328594Y-45082452D01*
X88328595Y-45082457D01*
X88328596Y-45082463D01*
X88362449Y-45208803D01*
X88386290Y-45297780D01*
X88386293Y-45297790D01*
X88471593Y-45503722D01*
X88471595Y-45503726D01*
X88583052Y-45696774D01*
X88583057Y-45696780D01*
X88583058Y-45696782D01*
X88718751Y-45873622D01*
X88718757Y-45873629D01*
X88876370Y-46031242D01*
X88876377Y-46031248D01*
X88934073Y-46075519D01*
X89053226Y-46166948D01*
X89246274Y-46278405D01*
X89452219Y-46363710D01*
X89667537Y-46421404D01*
X89888543Y-46450500D01*
X89888550Y-46450500D01*
X90111450Y-46450500D01*
X90111457Y-46450500D01*
X90332463Y-46421404D01*
X90547781Y-46363710D01*
X90753726Y-46278405D01*
X90946774Y-46166948D01*
X91123624Y-46031247D01*
X91281247Y-45873624D01*
X91416948Y-45696774D01*
X91528405Y-45503726D01*
X91613710Y-45297781D01*
X91671404Y-45082463D01*
X91700500Y-44861457D01*
X91700500Y-44638543D01*
X91699632Y-44631947D01*
X93500000Y-44631947D01*
X93500000Y-44868052D01*
X93536934Y-45101247D01*
X93609897Y-45325802D01*
X93717087Y-45536174D01*
X93777338Y-45619104D01*
X93777340Y-45619105D01*
X94398949Y-44997496D01*
X94423968Y-45057896D01*
X94495104Y-45164358D01*
X94585642Y-45254896D01*
X94692104Y-45326032D01*
X94752503Y-45351049D01*
X94130893Y-45972658D01*
X94213828Y-46032914D01*
X94424197Y-46140102D01*
X94648752Y-46213065D01*
X94648751Y-46213065D01*
X94881948Y-46250000D01*
X95118052Y-46250000D01*
X95351247Y-46213065D01*
X95575802Y-46140102D01*
X95786163Y-46032918D01*
X95786169Y-46032914D01*
X95869104Y-45972658D01*
X95869105Y-45972658D01*
X95247496Y-45351050D01*
X95307896Y-45326032D01*
X95414358Y-45254896D01*
X95504896Y-45164358D01*
X95576032Y-45057896D01*
X95601049Y-44997496D01*
X96222658Y-45619105D01*
X96222658Y-45619104D01*
X96282914Y-45536169D01*
X96282918Y-45536163D01*
X96390102Y-45325802D01*
X96463065Y-45101247D01*
X96500000Y-44868052D01*
X96500000Y-44638549D01*
X98299500Y-44638549D01*
X98299500Y-44861450D01*
X98299501Y-44861466D01*
X98328594Y-45082452D01*
X98328595Y-45082457D01*
X98328596Y-45082463D01*
X98362449Y-45208803D01*
X98386290Y-45297780D01*
X98386293Y-45297790D01*
X98471593Y-45503722D01*
X98471595Y-45503726D01*
X98583052Y-45696774D01*
X98583057Y-45696780D01*
X98583058Y-45696782D01*
X98718751Y-45873622D01*
X98718757Y-45873629D01*
X98876370Y-46031242D01*
X98876377Y-46031248D01*
X98934073Y-46075519D01*
X99053226Y-46166948D01*
X99246274Y-46278405D01*
X99452219Y-46363710D01*
X99667537Y-46421404D01*
X99888543Y-46450500D01*
X99888550Y-46450500D01*
X100111450Y-46450500D01*
X100111457Y-46450500D01*
X100332463Y-46421404D01*
X100547781Y-46363710D01*
X100753726Y-46278405D01*
X100946774Y-46166948D01*
X101123624Y-46031247D01*
X101281247Y-45873624D01*
X101416948Y-45696774D01*
X101528405Y-45503726D01*
X101613710Y-45297781D01*
X101671404Y-45082463D01*
X101700500Y-44861457D01*
X101700500Y-44638543D01*
X101699632Y-44631947D01*
X103500000Y-44631947D01*
X103500000Y-44868052D01*
X103536934Y-45101247D01*
X103609897Y-45325802D01*
X103717087Y-45536174D01*
X103777338Y-45619104D01*
X103777340Y-45619105D01*
X104398949Y-44997496D01*
X104423968Y-45057896D01*
X104495104Y-45164358D01*
X104585642Y-45254896D01*
X104692104Y-45326032D01*
X104752503Y-45351049D01*
X104130893Y-45972658D01*
X104213828Y-46032914D01*
X104424197Y-46140102D01*
X104648752Y-46213065D01*
X104648751Y-46213065D01*
X104881948Y-46250000D01*
X105118052Y-46250000D01*
X105351247Y-46213065D01*
X105575802Y-46140102D01*
X105786163Y-46032918D01*
X105786169Y-46032914D01*
X105869104Y-45972658D01*
X105869105Y-45972658D01*
X105247496Y-45351050D01*
X105307896Y-45326032D01*
X105414358Y-45254896D01*
X105504896Y-45164358D01*
X105576032Y-45057896D01*
X105601049Y-44997496D01*
X106222658Y-45619105D01*
X106222658Y-45619104D01*
X106282914Y-45536169D01*
X106282918Y-45536163D01*
X106390102Y-45325802D01*
X106463065Y-45101247D01*
X106500000Y-44868052D01*
X106500000Y-44631947D01*
X106463065Y-44398752D01*
X106390102Y-44174197D01*
X106282914Y-43963828D01*
X106222658Y-43880894D01*
X106222658Y-43880893D01*
X105601049Y-44502502D01*
X105576032Y-44442104D01*
X105504896Y-44335642D01*
X105414358Y-44245104D01*
X105307896Y-44173968D01*
X105247496Y-44148949D01*
X105869105Y-43527340D01*
X105869104Y-43527338D01*
X105786174Y-43467087D01*
X105575802Y-43359897D01*
X105351247Y-43286934D01*
X105351248Y-43286934D01*
X105118052Y-43250000D01*
X104881948Y-43250000D01*
X104648752Y-43286934D01*
X104424197Y-43359897D01*
X104213830Y-43467084D01*
X104130894Y-43527340D01*
X104752503Y-44148949D01*
X104692104Y-44173968D01*
X104585642Y-44245104D01*
X104495104Y-44335642D01*
X104423968Y-44442104D01*
X104398949Y-44502503D01*
X103777340Y-43880894D01*
X103717084Y-43963830D01*
X103609897Y-44174197D01*
X103536934Y-44398752D01*
X103500000Y-44631947D01*
X101699632Y-44631947D01*
X101671404Y-44417537D01*
X101613710Y-44202219D01*
X101528405Y-43996274D01*
X101416948Y-43803226D01*
X101352130Y-43718753D01*
X101299440Y-43650085D01*
X101281248Y-43626377D01*
X101281242Y-43626370D01*
X101123629Y-43468757D01*
X101123622Y-43468751D01*
X100946782Y-43333058D01*
X100946780Y-43333057D01*
X100946774Y-43333052D01*
X100753726Y-43221595D01*
X100753722Y-43221593D01*
X100547790Y-43136293D01*
X100547783Y-43136291D01*
X100547781Y-43136290D01*
X100332463Y-43078596D01*
X100332457Y-43078595D01*
X100332452Y-43078594D01*
X100111466Y-43049501D01*
X100111463Y-43049500D01*
X100111457Y-43049500D01*
X99888543Y-43049500D01*
X99888537Y-43049500D01*
X99888533Y-43049501D01*
X99667547Y-43078594D01*
X99667540Y-43078595D01*
X99667537Y-43078596D01*
X99510025Y-43120801D01*
X99452219Y-43136290D01*
X99452209Y-43136293D01*
X99246277Y-43221593D01*
X99246273Y-43221595D01*
X99053226Y-43333052D01*
X99053217Y-43333058D01*
X98876377Y-43468751D01*
X98876370Y-43468757D01*
X98718757Y-43626370D01*
X98718751Y-43626377D01*
X98583058Y-43803217D01*
X98583052Y-43803226D01*
X98471595Y-43996273D01*
X98471593Y-43996277D01*
X98386293Y-44202209D01*
X98386290Y-44202219D01*
X98333630Y-44398752D01*
X98328597Y-44417534D01*
X98328594Y-44417547D01*
X98299501Y-44638533D01*
X98299500Y-44638549D01*
X96500000Y-44638549D01*
X96500000Y-44631947D01*
X96463065Y-44398752D01*
X96390102Y-44174197D01*
X96282914Y-43963828D01*
X96222658Y-43880894D01*
X96222658Y-43880893D01*
X95601049Y-44502502D01*
X95576032Y-44442104D01*
X95504896Y-44335642D01*
X95414358Y-44245104D01*
X95307896Y-44173968D01*
X95247496Y-44148949D01*
X95869105Y-43527340D01*
X95869104Y-43527338D01*
X95786174Y-43467087D01*
X95575802Y-43359897D01*
X95351247Y-43286934D01*
X95351248Y-43286934D01*
X95118052Y-43250000D01*
X94881948Y-43250000D01*
X94648752Y-43286934D01*
X94424197Y-43359897D01*
X94213830Y-43467084D01*
X94130894Y-43527340D01*
X94752503Y-44148949D01*
X94692104Y-44173968D01*
X94585642Y-44245104D01*
X94495104Y-44335642D01*
X94423968Y-44442104D01*
X94398949Y-44502503D01*
X93777340Y-43880894D01*
X93717084Y-43963830D01*
X93609897Y-44174197D01*
X93536934Y-44398752D01*
X93500000Y-44631947D01*
X91699632Y-44631947D01*
X91671404Y-44417537D01*
X91613710Y-44202219D01*
X91528405Y-43996274D01*
X91416948Y-43803226D01*
X91352130Y-43718753D01*
X91299440Y-43650085D01*
X91281248Y-43626377D01*
X91281242Y-43626370D01*
X91123629Y-43468757D01*
X91123622Y-43468751D01*
X90946782Y-43333058D01*
X90946780Y-43333057D01*
X90946774Y-43333052D01*
X90753726Y-43221595D01*
X90753722Y-43221593D01*
X90547790Y-43136293D01*
X90547783Y-43136291D01*
X90547781Y-43136290D01*
X90332463Y-43078596D01*
X90332457Y-43078595D01*
X90332452Y-43078594D01*
X90111466Y-43049501D01*
X90111463Y-43049500D01*
X90111457Y-43049500D01*
X89888543Y-43049500D01*
X89888537Y-43049500D01*
X89888533Y-43049501D01*
X89667547Y-43078594D01*
X89667540Y-43078595D01*
X89667537Y-43078596D01*
X89510025Y-43120801D01*
X89452219Y-43136290D01*
X89452209Y-43136293D01*
X89246277Y-43221593D01*
X89246273Y-43221595D01*
X89053226Y-43333052D01*
X89053217Y-43333058D01*
X88876377Y-43468751D01*
X88876370Y-43468757D01*
X88718757Y-43626370D01*
X88718751Y-43626377D01*
X88583058Y-43803217D01*
X88583052Y-43803226D01*
X88471595Y-43996273D01*
X88471593Y-43996277D01*
X88386293Y-44202209D01*
X88386290Y-44202219D01*
X88333630Y-44398752D01*
X88328597Y-44417534D01*
X88328594Y-44417547D01*
X88299501Y-44638533D01*
X88299500Y-44638549D01*
X86750000Y-44638549D01*
X86750000Y-41874500D01*
X86769685Y-41807461D01*
X86822489Y-41761706D01*
X86874000Y-41750500D01*
X142045743Y-41750500D01*
X142075990Y-41759381D01*
G37*
%TD.AperFunction*%
%TD*%
D25*
X77750000Y-41250000D02*
X176500000Y-41250000D01*
X176500000Y-126499999D01*
X77750000Y-126499999D01*
X77750000Y-41250000D01*
M02*
