M48
; DRILL file KiCad 10.0.3 date 2026-06-15T14:42:15
; FORMAT={-:-/ absolute / metric / decimal}
; #@! TF.CreationDate,2026-06-15T14:42:15+02:00
; #@! TF.GenerationSoftware,Kicad,Pcbnew,10.0.3
; #@! TF.FileFunction,Plated,1,2,PTH
FMAT,2
METRIC
; #@! TA.AperFunction,Plated,PTH,ViaDrill
T1C0.800
; #@! TA.AperFunction,Plated,PTH,ComponentDrill
T2C0.800
; #@! TA.AperFunction,Plated,PTH,ComponentDrill
T3C0.889
; #@! TA.AperFunction,Plated,PTH,ComponentDrill
T4C1.000
; #@! TA.AperFunction,Plated,PTH,ComponentDrill
T5C1.100
; #@! TA.AperFunction,Plated,PTH,ComponentDrill
T6C1.110
; #@! TA.AperFunction,Plated,PTH,ComponentDrill
T7C1.300
%
G90
G05
T1
X157.25Y-77.75
X164.25Y-66.5
X172.0Y-69.25
T2
X82.75Y-64.75
X82.75Y-115.25
X90.17Y-120.25
X100.33Y-120.25
X103.25Y-64.75
X103.25Y-115.25
X111.42Y-53.75
X118.0Y-56.42
X118.0Y-66.58
X120.42Y-50.75
X121.25Y-106.0
X121.25Y-120.5
X121.58Y-53.75
X130.58Y-50.75
X130.75Y-53.67
X130.75Y-63.83
X135.0Y-50.25
X135.0Y-57.75
X139.75Y-50.25
X139.75Y-57.75
X150.17Y-50.5
X160.33Y-50.5
X163.67Y-50.5
X173.83Y-50.5
T3
X161.88Y-91.665
X162.0Y-79.335
X164.42Y-91.665
X164.54Y-79.335
X166.96Y-91.665
X167.08Y-79.335
X169.5Y-91.665
X169.62Y-79.335
T4
X83.65Y-51.69
X83.65Y-59.31
X91.27Y-51.69
X91.27Y-59.31
X96.35Y-51.69
X96.35Y-59.31
X101.43Y-51.69
X101.43Y-59.31
X104.0Y-121.5
X105.3Y-120.23
X105.3Y-122.77
X111.73Y-60.658
X113.0Y-61.958
X114.27Y-60.658
X167.25Y-56.5
X167.25Y-58.5
X167.25Y-60.5
X167.25Y-62.5
T5
X105.15Y-50.5
X107.5Y-104.15
X107.5Y-116.85
X108.0Y-53.65
X108.0Y-66.35
X117.85Y-50.5
T6
X108.69Y-70.1
X108.69Y-95.5
X111.23Y-70.1
X111.23Y-95.5
X113.77Y-70.1
X113.77Y-95.5
X116.31Y-70.1
X116.31Y-95.5
X118.85Y-70.1
X118.85Y-95.5
X121.39Y-70.1
X121.39Y-95.5
X123.93Y-70.1
X123.93Y-95.5
X126.47Y-70.1
X126.47Y-95.5
X129.01Y-70.1
X129.01Y-95.5
X131.55Y-70.1
X131.55Y-95.5
X134.09Y-70.1
X134.09Y-95.5
X135.77Y-101.075
X135.77Y-103.615
X135.77Y-106.155
X135.77Y-108.695
X135.77Y-111.235
X135.77Y-113.775
X135.77Y-116.315
X135.77Y-118.855
X135.77Y-121.395
X136.63Y-70.1
X136.63Y-95.5
X139.17Y-70.1
X139.17Y-95.5
X141.71Y-70.1
X141.71Y-95.5
X144.25Y-70.1
X144.25Y-95.5
X146.79Y-70.1
X146.79Y-95.5
X149.33Y-70.1
X149.33Y-95.5
X151.87Y-70.1
X151.87Y-95.5
X154.41Y-70.1
X154.41Y-95.5
X162.0Y-42.96
X162.0Y-45.5
X162.0Y-48.0
T7
X90.0Y-44.75
X95.0Y-44.75
X100.0Y-44.75
X105.0Y-44.75
X110.0Y-44.75
X115.0Y-44.75
X120.0Y-44.75
X125.0Y-44.75
X142.0Y-45.0
X147.0Y-45.0
X152.0Y-45.0
X157.0Y-45.0
M30
