M48
; DRILL file KiCad 10.0.3 date 2026-06-10T15:30:45
; FORMAT={-:-/ absolute / metric / decimal}
; #@! TF.CreationDate,2026-06-10T15:30:45+02:00
; #@! TF.GenerationSoftware,Kicad,Pcbnew,10.0.3
; #@! TF.FileFunction,Plated,1,2,PTH
FMAT,2
METRIC
; #@! TA.AperFunction,Plated,PTH,ComponentDrill
T1C0.700
; #@! TA.AperFunction,Plated,PTH,ViaDrill
T2C0.800
; #@! TA.AperFunction,Plated,PTH,ComponentDrill
T3C0.800
; #@! TA.AperFunction,Plated,PTH,ComponentDrill
T4C1.000
; #@! TA.AperFunction,Plated,PTH,ComponentDrill
T5C1.100
; #@! TA.AperFunction,Plated,PTH,ComponentDrill
T6C1.110
; #@! TA.AperFunction,Plated,PTH,ComponentDrill
T7C1.300
%
G90
G05
T1
X93.46Y-84.96
X93.46Y-90.04
X96.0Y-87.5
T2
X116.5Y-86.5
X117.0Y-83.75
X120.875Y-89.625
X121.5Y-84.25
X133.25Y-61.0
X148.75Y-60.25
X150.75Y-58.0
X164.25Y-51.5
T3
X87.75Y-95.25
X87.75Y-115.75
X99.67Y-87.5
X109.0Y-66.5
X109.0Y-81.0
X109.83Y-87.5
X114.0Y-50.42
X114.0Y-60.58
X117.5Y-50.42
X117.5Y-60.58
X121.0Y-50.42
X121.0Y-60.58
X125.0Y-50.42
X125.0Y-60.58
X128.5Y-42.92
X128.5Y-53.08
X138.25Y-95.25
X138.25Y-115.75
X139.0Y-53.25
X139.0Y-60.75
X143.0Y-53.25
X143.0Y-60.75
X152.25Y-52.5
X159.75Y-52.5
T4
X91.05Y-51.5
X91.05Y-59.12
X98.67Y-51.5
X98.67Y-59.12
X103.75Y-51.5
X103.75Y-59.12
X108.83Y-51.5
X108.83Y-59.12
X169.85Y-53.5
X169.85Y-55.5
X169.85Y-57.5
X169.85Y-59.5
T5
X93.5Y-66.65
X93.5Y-79.35
T6
X125.16Y-64.77
X125.16Y-90.17
X127.7Y-64.77
X127.7Y-90.17
X130.24Y-64.77
X130.24Y-90.17
X132.78Y-64.77
X132.78Y-90.17
X135.32Y-64.77
X135.32Y-90.17
X137.86Y-64.77
X137.86Y-90.17
X140.4Y-64.77
X140.4Y-90.17
X142.94Y-64.77
X142.94Y-90.17
X145.48Y-64.77
X145.48Y-90.17
X146.0Y-95.3
X146.0Y-97.84
X146.0Y-100.38
X146.0Y-102.92
X146.0Y-105.46
X146.0Y-108.0
X146.0Y-110.54
X146.0Y-113.08
X146.0Y-115.62
X148.02Y-64.77
X148.02Y-90.17
X150.56Y-64.77
X150.56Y-90.17
X153.1Y-64.77
X153.1Y-90.17
X153.5Y-43.71
X153.5Y-46.25
X153.5Y-48.79
X155.64Y-64.77
X155.64Y-90.17
X158.18Y-64.77
X158.18Y-90.17
X160.72Y-64.77
X160.72Y-90.17
X163.26Y-64.77
X163.26Y-90.17
X165.8Y-64.77
X165.8Y-90.17
X168.34Y-64.77
X168.34Y-90.17
X170.88Y-64.77
X170.88Y-90.17
T7
X89.0Y-45.0
X94.0Y-45.0
X99.0Y-45.0
X104.0Y-45.0
X109.5Y-45.0
X114.5Y-45.0
X119.5Y-45.0
X124.5Y-45.0
X134.0Y-45.0
X139.0Y-45.0
X144.0Y-45.0
X149.0Y-45.0
M30
