%TF.GenerationSoftware,KiCad,Pcbnew,10.0.3*%
%TF.CreationDate,2026-06-10T15:31:02+02:00*%
%TF.ProjectId,HUB2,48554232-2e6b-4696-9361-645f70636258,rev?*%
%TF.SameCoordinates,Original*%
%TF.FileFunction,Copper,L2,Bot*%
%TF.FilePolarity,Positive*%
%FSLAX46Y46*%
G04 Gerber Fmt 4.6, Leading zero omitted, Abs format (unit mm)*
G04 Created by KiCad (PCBNEW 10.0.3) date 2026-06-10 15:31:02*
%MOMM*%
%LPD*%
G01*
G04 APERTURE LIST*
G04 Aperture macros list*
%AMRoundRect*
0 Rectangle with rounded corners*
0 $1 Rounding radius*
0 $2 $3 $4 $5 $6 $7 $8 $9 X,Y pos of 4 corners*
0 Add a 4 corners polygon primitive as box body*
4,1,4,$2,$3,$4,$5,$6,$7,$8,$9,$2,$3,0*
0 Add four circle primitives for the rounded corners*
1,1,$1+$1,$2,$3*
1,1,$1+$1,$4,$5*
1,1,$1+$1,$6,$7*
1,1,$1+$1,$8,$9*
0 Add four rect primitives between the rounded corners*
20,1,$1+$1,$2,$3,$4,$5,0*
20,1,$1+$1,$4,$5,$6,$7,0*
20,1,$1+$1,$6,$7,$8,$9,0*
20,1,$1+$1,$8,$9,$2,$3,0*%
G04 Aperture macros list end*
%TA.AperFunction,ComponentPad*%
%ADD10C,1.600000*%
%TD*%
%TA.AperFunction,ComponentPad*%
%ADD11O,1.200000X1.600000*%
%TD*%
%TA.AperFunction,ComponentPad*%
%ADD12C,1.200000*%
%TD*%
%TA.AperFunction,ComponentPad*%
%ADD13C,2.000000*%
%TD*%
%TA.AperFunction,ComponentPad*%
%ADD14R,1.665000X1.665000*%
%TD*%
%TA.AperFunction,ComponentPad*%
%ADD15C,1.665000*%
%TD*%
%TA.AperFunction,ComponentPad*%
%ADD16R,3.000000X3.000000*%
%TD*%
%TA.AperFunction,ComponentPad*%
%ADD17RoundRect,0.249999X-0.850001X0.850001X-0.850001X-0.850001X0.850001X-0.850001X0.850001X0.850001X0*%
%TD*%
%TA.AperFunction,ComponentPad*%
%ADD18C,2.200000*%
%TD*%
%TA.AperFunction,ComponentPad*%
%ADD19C,2.540000*%
%TD*%
%TA.AperFunction,ComponentPad*%
%ADD20C,1.500000*%
%TD*%
%TA.AperFunction,ViaPad*%
%ADD21C,1.100000*%
%TD*%
%TA.AperFunction,Conductor*%
%ADD22C,0.600000*%
%TD*%
%TA.AperFunction,Conductor*%
%ADD23C,1.000000*%
%TD*%
%TA.AperFunction,Conductor*%
%ADD24C,0.400000*%
%TD*%
%TA.AperFunction,Profile*%
%ADD25C,0.050000*%
%TD*%
G04 APERTURE END LIST*
D10*
%TO.P,R2,1*%
%TO.N,Net-(R2-Pad1)*%
X121000000Y-50420000D03*
%TO.P,R2,2*%
%TO.N,Net-(IC1-IO2)*%
X121000000Y-60580000D03*
%TD*%
%TO.P,C2,1*%
%TO.N,GNDREF*%
X139000000Y-53250000D03*
%TO.P,C2,2*%
%TO.N,+5V*%
X139000000Y-60750000D03*
%TD*%
%TO.P,R3,1*%
%TO.N,Net-(IC1-IO4)*%
X109830000Y-87500000D03*
%TO.P,R3,2*%
%TO.N,Net-(Q2-B)*%
X99670000Y-87500000D03*
%TD*%
D11*
%TO.P,Q2,1,E_1*%
%TO.N,GNDREF*%
X93460000Y-90040000D03*
D12*
%TO.P,Q2,2,B_2*%
%TO.N,Net-(Q2-B)*%
X96000000Y-87500000D03*
%TO.P,Q2,3,C_3*%
%TO.N,Net-(D1-A)*%
X93460000Y-84960000D03*
%TD*%
D10*
%TO.P,C3,1*%
%TO.N,GNDREF*%
X159750000Y-52500000D03*
%TO.P,C3,2*%
%TO.N,+3.3V*%
X152250000Y-52500000D03*
%TD*%
D13*
%TO.P,U7,1,1_1*%
%TO.N,Net-(R2-Pad1)*%
X124500000Y-45000000D03*
%TO.P,U7,2,2_2*%
%TO.N,GNDREF*%
X119500000Y-45000000D03*
%TD*%
D10*
%TO.P,R5,1*%
%TO.N,Net-(JP1-B)*%
X128500000Y-53080000D03*
%TO.P,R5,2*%
%TO.N,Net-(IC2-CANL)*%
X128500000Y-42920000D03*
%TD*%
D13*
%TO.P,U9,1,1_1*%
%TO.N,Net-(IC2-CANH)*%
X149000000Y-45000000D03*
%TO.P,U9,2,2_2*%
%TO.N,Net-(IC2-CANL)*%
X144000000Y-45000000D03*
%TD*%
D10*
%TO.P,C1,1*%
%TO.N,GNDREF*%
X143000000Y-53250000D03*
%TO.P,C1,2*%
%TO.N,+5V*%
X143000000Y-60750000D03*
%TD*%
D14*
%TO.P,U5,1,VCC_1*%
%TO.N,+3.3V*%
X146000000Y-95300000D03*
D15*
%TO.P,U5,2,GND_2*%
%TO.N,GNDREF*%
X146000000Y-97840000D03*
%TO.P,U5,3,MISO/AD0_3*%
%TO.N,Net-(IC1-IO19)*%
X146000000Y-100380000D03*
%TO.P,U5,4,MOSI/SDA_4*%
%TO.N,Net-(IC1-IO23)*%
X146000000Y-102920000D03*
%TO.P,U5,5,SCLK/SCL_5*%
%TO.N,Net-(IC1-IO18)*%
X146000000Y-105460000D03*
%TO.P,U5,6,CSB1/NC_6*%
%TO.N,Net-(IC1-IO5)*%
X146000000Y-108000000D03*
%TO.P,U5,7,CSB2/NC_7*%
%TO.N,Net-(IC1-IO22)*%
X146000000Y-110540000D03*
%TO.P,U5,8,INT1_8*%
%TO.N,unconnected-(U5-INT1-Pad8)*%
X146000000Y-113080000D03*
%TO.P,U5,9,INT3_9*%
%TO.N,unconnected-(U5-INT3-Pad9)*%
X146000000Y-115620000D03*
%TD*%
D13*
%TO.P,U4,1,1_1*%
%TO.N,Net-(IC2-CANH)*%
X139000000Y-45000000D03*
%TO.P,U4,2,2_2*%
%TO.N,Net-(IC2-CANL)*%
X134000000Y-45000000D03*
%TD*%
%TO.P,U6,1,1_1*%
%TO.N,+12V*%
X114500000Y-45000000D03*
%TO.P,U6,2,2_2*%
%TO.N,Net-(K1-NC_1)*%
X109500000Y-45000000D03*
%TD*%
%TO.P,U10,1,1_1*%
%TO.N,GNDREF*%
X94000000Y-45000000D03*
%TO.P,U10,2,2_2*%
%TO.N,/12V*%
X89000000Y-45000000D03*
%TD*%
D16*
%TO.P,U8,1,12V_1*%
%TO.N,+12V*%
X87750000Y-95250000D03*
%TO.P,U8,2,GND_2*%
%TO.N,GNDREF*%
X87750000Y-115750000D03*
%TO.P,U8,3,5v_3*%
%TO.N,+5V*%
X138250000Y-95250000D03*
%TO.P,U8,4,GND_4*%
%TO.N,GNDREF*%
X138250000Y-115750000D03*
%TD*%
D10*
%TO.P,R1,1*%
%TO.N,GNDREF*%
X125000000Y-50420000D03*
%TO.P,R1,2*%
%TO.N,Net-(IC2-S)*%
X125000000Y-60580000D03*
%TD*%
D13*
%TO.P,U3,1,1_1*%
%TO.N,GNDREF*%
X104000000Y-45000000D03*
%TO.P,U3,2,2_2*%
%TO.N,/12V*%
X99000000Y-45000000D03*
%TD*%
D15*
%TO.P,JP1,1,A_1*%
%TO.N,Net-(IC2-CANH)*%
X153500000Y-43710000D03*
%TO.P,JP1,2,B_2*%
%TO.N,Net-(JP1-B)*%
X153500000Y-46250000D03*
%TO.P,JP1,3*%
%TO.N,N/C*%
X153500000Y-48790000D03*
%TD*%
D17*
%TO.P,D1,1,K_1*%
%TO.N,+12V*%
X93500000Y-66650000D03*
D18*
%TO.P,D1,2,A_2*%
%TO.N,Net-(D1-A)*%
X93500000Y-79350000D03*
%TD*%
D19*
%TO.P,LS1,1,+_1*%
%TO.N,+12V*%
X109000000Y-66500000D03*
%TO.P,LS1,2,-_2*%
%TO.N,Net-(D1-A)*%
X109000000Y-81000000D03*
%TD*%
D10*
%TO.P,R4,1*%
%TO.N,Net-(K1-NC_1)*%
X114000000Y-60580000D03*
%TO.P,R4,2*%
%TO.N,Net-(IC1-IO34)*%
X114000000Y-50420000D03*
%TD*%
%TO.P,R6,1*%
%TO.N,Net-(IC1-IO34)*%
X117500000Y-50420000D03*
%TO.P,R6,2*%
%TO.N,GNDREF*%
X117500000Y-60580000D03*
%TD*%
D15*
%TO.P,J1,1,1_1*%
%TO.N,GNDREF*%
X169850000Y-53500000D03*
%TO.P,J1,2,2_2*%
%TO.N,+5V*%
X169850000Y-55500000D03*
%TO.P,J1,3,3_3*%
%TO.N,Net-(IC1-IO33)*%
X169850000Y-57500000D03*
%TO.P,J1,4,4_4*%
%TO.N,Net-(IC1-IO32)*%
X169850000Y-59500000D03*
%TD*%
D14*
%TO.P,IC1,1,3V3_1*%
%TO.N,+3.3V*%
X170880000Y-64770000D03*
D15*
%TO.P,IC1,2,EN_2*%
%TO.N,unconnected-(IC1-EN-Pad2)*%
X168340000Y-64770000D03*
%TO.P,IC1,3,VP_3*%
%TO.N,unconnected-(IC1-VP-Pad3)*%
X165800000Y-64770000D03*
%TO.P,IC1,4,VN_4*%
%TO.N,unconnected-(IC1-VN-Pad4)*%
X163260000Y-64770000D03*
%TO.P,IC1,5,IO34_5*%
%TO.N,Net-(IC1-IO34)*%
X160720000Y-64770000D03*
%TO.P,IC1,6,IO35_6*%
%TO.N,Net-(IC1-IO35)*%
X158180000Y-64770000D03*
%TO.P,IC1,7,IO32_7*%
%TO.N,Net-(IC1-IO32)*%
X155640000Y-64770000D03*
%TO.P,IC1,8,IO33_8*%
%TO.N,Net-(IC1-IO33)*%
X153100000Y-64770000D03*
%TO.P,IC1,9,IO25_9*%
%TO.N,unconnected-(IC1-IO25-Pad9)*%
X150560000Y-64770000D03*
%TO.P,IC1,10,IO26_10*%
%TO.N,unconnected-(IC1-IO26-Pad10)*%
X148020000Y-64770000D03*
%TO.P,IC1,11,IO27_11*%
%TO.N,Net-(IC1-IO27)*%
X145480000Y-64770000D03*
%TO.P,IC1,12,IO14_12*%
%TO.N,Net-(IC1-IO14)*%
X142940000Y-64770000D03*
%TO.P,IC1,13,IO12_13*%
%TO.N,unconnected-(IC1-IO12-Pad13)*%
X140400000Y-64770000D03*
%TO.P,IC1,14,GND_1_14*%
%TO.N,GNDREF*%
X137860000Y-64770000D03*
%TO.P,IC1,15,IO13_15*%
%TO.N,Net-(IC1-IO13)*%
X135320000Y-64770000D03*
%TO.P,IC1,16,D2_16*%
%TO.N,unconnected-(IC1-D2-Pad16)*%
X132780000Y-64770000D03*
%TO.P,IC1,17,D3_17*%
%TO.N,unconnected-(IC1-D3-Pad17)*%
X130240000Y-64770000D03*
%TO.P,IC1,18,CMD_18*%
%TO.N,unconnected-(IC1-CMD-Pad18)*%
X127700000Y-64770000D03*
%TO.P,IC1,19,5V_19*%
%TO.N,+5V*%
X125160000Y-64770000D03*
%TO.P,IC1,20,CLK_20*%
%TO.N,unconnected-(IC1-CLK-Pad20)*%
X125160000Y-90170000D03*
%TO.P,IC1,21,D0_21*%
%TO.N,unconnected-(IC1-D0-Pad21)*%
X127700000Y-90170000D03*
%TO.P,IC1,22,D1_22*%
%TO.N,unconnected-(IC1-D1-Pad22)*%
X130240000Y-90170000D03*
%TO.P,IC1,23,IO15_23*%
%TO.N,unconnected-(IC1-IO15-Pad23)*%
X132780000Y-90170000D03*
%TO.P,IC1,24,IO2_24*%
%TO.N,Net-(IC1-IO2)*%
X135320000Y-90170000D03*
%TO.P,IC1,25,IO0_25*%
%TO.N,unconnected-(IC1-IO0-Pad25)*%
X137860000Y-90170000D03*
%TO.P,IC1,26,IO4_26*%
%TO.N,Net-(IC1-IO4)*%
X140400000Y-90170000D03*
%TO.P,IC1,27,IO16_27*%
%TO.N,unconnected-(IC1-IO16-Pad27)*%
X142940000Y-90170000D03*
%TO.P,IC1,28,IO17_28*%
%TO.N,unconnected-(IC1-IO17-Pad28)*%
X145480000Y-90170000D03*
%TO.P,IC1,29,IO5_29*%
%TO.N,Net-(IC1-IO5)*%
X148020000Y-90170000D03*
%TO.P,IC1,30,IO18_30*%
%TO.N,Net-(IC1-IO18)*%
X150560000Y-90170000D03*
%TO.P,IC1,31,IO19_31*%
%TO.N,Net-(IC1-IO19)*%
X153100000Y-90170000D03*
%TO.P,IC1,32,GND_2_32*%
%TO.N,GNDREF*%
X155640000Y-90170000D03*
%TO.P,IC1,33,IO21_33*%
%TO.N,Net-(IC1-IO21)*%
X158180000Y-90170000D03*
%TO.P,IC1,34,RX_34*%
%TO.N,Net-(IC1-RX)*%
X160720000Y-90170000D03*
%TO.P,IC1,35,TX_35*%
%TO.N,Net-(IC1-TX)*%
X163260000Y-90170000D03*
%TO.P,IC1,36,IO22_36*%
%TO.N,Net-(IC1-IO22)*%
X165800000Y-90170000D03*
%TO.P,IC1,37,IO23_37*%
%TO.N,Net-(IC1-IO23)*%
X168340000Y-90170000D03*
%TO.P,IC1,38,GND_3_38*%
%TO.N,GNDREF*%
X170880000Y-90170000D03*
%TD*%
D20*
%TO.P,K1,1,COIL_1_1*%
%TO.N,Net-(IC1-IO35)*%
X91050000Y-59120000D03*
%TO.P,K1,4,COM_1_4*%
%TO.N,/12V*%
X98670000Y-59120000D03*
%TO.P,K1,6,NC_1_6*%
%TO.N,Net-(K1-NC_1)*%
X103750000Y-59120000D03*
%TO.P,K1,8,NO_1_8*%
%TO.N,+12V*%
X108830000Y-59120000D03*
%TO.P,K1,9,NO_2_9*%
X108830000Y-51500000D03*
%TO.P,K1,11,NC_2_11*%
%TO.N,Net-(K1-NC_1)*%
X103750000Y-51500000D03*
%TO.P,K1,13,COM_2_13*%
%TO.N,/12V*%
X98670000Y-51500000D03*
%TO.P,K1,16,COIL_2_16*%
%TO.N,GNDREF*%
X91050000Y-51500000D03*
%TD*%
D21*
%TO.N,Net-(IC1-TX)*%
X116500000Y-86500000D03*
X121500000Y-84250000D03*
%TO.N,GNDREF*%
X150750000Y-58000000D03*
X133250000Y-61000000D03*
%TO.N,Net-(IC1-RX)*%
X117000000Y-83750000D03*
X120875000Y-89625000D03*
%TO.N,Net-(IC1-IO14)*%
X148750000Y-60250000D03*
%TO.N,Net-(IC1-IO21)*%
X164250000Y-51500000D03*
%TD*%
%TO.N,Net-(IC1-TX)*%
D22*
X121500000Y-85250000D02*
X121500000Y-84250000D01*
X120250000Y-86500000D02*
X121500000Y-85250000D01*
X116500000Y-86500000D02*
X120250000Y-86500000D01*
%TO.N,Net-(IC1-RX)*%
X114000000Y-83750000D02*
X117000000Y-83750000D01*
X113000000Y-84750000D02*
X114000000Y-83750000D01*
X113000000Y-89250000D02*
X113000000Y-84750000D01*
X120750000Y-89750000D02*
X113500000Y-89750000D01*
X120875000Y-89625000D02*
X120750000Y-89750000D01*
X113500000Y-89750000D02*
X113000000Y-89250000D01*
%TO.N,Net-(IC1-IO4)*%
X109830000Y-90830000D02*
X109830000Y-87500000D01*
X112000000Y-93000000D02*
X109830000Y-90830000D01*
X140400000Y-91600000D02*
X139000000Y-93000000D01*
X140400000Y-90170000D02*
X140400000Y-91600000D01*
X139000000Y-93000000D02*
X112000000Y-93000000D01*
%TO.N,+5V*%
D23*
X139000000Y-56250000D02*
X139000000Y-60750000D01*
X143000000Y-60750000D02*
X148250000Y-55500000D01*
X148250000Y-55500000D02*
X169850000Y-55500000D01*
X129250000Y-60680000D02*
X129250000Y-57250000D01*
X131000000Y-55500000D02*
X138250000Y-55500000D01*
X129250000Y-57250000D02*
X131000000Y-55500000D01*
X139000000Y-60750000D02*
X143000000Y-60750000D01*
X138250000Y-55500000D02*
X139000000Y-56250000D01*
X125160000Y-64770000D02*
X129250000Y-60680000D01*
%TO.N,Net-(IC2-CANL)*%
D22*
X142000000Y-43000000D02*
X144000000Y-45000000D01*
X131920000Y-42920000D02*
X128500000Y-42920000D01*
X134000000Y-45000000D02*
X136000000Y-43000000D01*
X136000000Y-43000000D02*
X142000000Y-43000000D01*
X134000000Y-45000000D02*
X131920000Y-42920000D01*
%TO.N,Net-(JP1-B)*%
X151500000Y-46250000D02*
X153500000Y-46250000D01*
X128500000Y-51500000D02*
X130500000Y-49500000D01*
X150040000Y-47710000D02*
X151500000Y-46250000D01*
X130500000Y-49500000D02*
X150040000Y-49500000D01*
X150040000Y-49500000D02*
X150040000Y-47710000D01*
X128500000Y-53080000D02*
X128500000Y-51500000D01*
%TO.N,Net-(IC1-IO19)*%
X146000000Y-100380000D02*
X151870000Y-100380000D01*
X151870000Y-100380000D02*
X153100000Y-99150000D01*
X153100000Y-99150000D02*
X153100000Y-90170000D01*
%TO.N,Net-(IC1-IO23)*%
X166000000Y-103000000D02*
X167750000Y-101250000D01*
X167750000Y-101250000D02*
X167750000Y-90760000D01*
X146065000Y-103000000D02*
X166000000Y-103000000D01*
X167750000Y-90760000D02*
X168340000Y-90170000D01*
%TO.N,Net-(IC1-IO5)*%
X147500000Y-92750000D02*
X148020000Y-92230000D01*
X142500000Y-95250000D02*
X145000000Y-92750000D01*
X145000000Y-92750000D02*
X147500000Y-92750000D01*
X143500000Y-108000000D02*
X142500000Y-107000000D01*
X146000000Y-108000000D02*
X143500000Y-108000000D01*
X148020000Y-92230000D02*
X148020000Y-90170000D01*
X142500000Y-107000000D02*
X142500000Y-95250000D01*
%TO.N,Net-(IC1-IO22)*%
X146000000Y-110540000D02*
X159710000Y-110540000D01*
X165800000Y-88300000D02*
X165800000Y-90170000D01*
X171750000Y-86750000D02*
X167350000Y-86750000D01*
X173500000Y-108250000D02*
X173500000Y-88500000D01*
X159710000Y-110540000D02*
X171210000Y-110540000D01*
X173500000Y-88500000D02*
X171750000Y-86750000D01*
X167350000Y-86750000D02*
X165800000Y-88300000D01*
X171210000Y-110540000D02*
X173500000Y-108250000D01*
%TO.N,Net-(K1-NC_1)*%
X116000000Y-58580000D02*
X114000000Y-60580000D01*
X107000000Y-48500000D02*
X108000000Y-47500000D01*
X108000000Y-47500000D02*
X115000000Y-47500000D01*
X107000000Y-55870000D02*
X107000000Y-48500000D01*
X116000000Y-48500000D02*
X116000000Y-58580000D01*
X115000000Y-47500000D02*
X116000000Y-48500000D01*
X103750000Y-59120000D02*
X107000000Y-55870000D01*
%TO.N,Net-(IC1-IO34)*%
X112000000Y-65000000D02*
X115750000Y-68750000D01*
X114000000Y-50420000D02*
X113080000Y-50420000D01*
X112000000Y-51500000D02*
X112000000Y-65000000D01*
X115750000Y-68750000D02*
X159000000Y-68750000D01*
X160750000Y-67000000D02*
X160720000Y-66970000D01*
X160720000Y-66970000D02*
X160720000Y-64770000D01*
X113080000Y-50420000D02*
X112000000Y-51500000D01*
X159000000Y-68750000D02*
X160750000Y-67000000D01*
%TO.N,Net-(IC1-IO14)*%
D24*
X148750000Y-61500000D02*
X147250000Y-63000000D01*
X144710000Y-63000000D02*
X142940000Y-64770000D01*
X147250000Y-63000000D02*
X144710000Y-63000000D01*
X148750000Y-61500000D02*
X148750000Y-60250000D01*
%TO.N,Net-(IC1-IO21)*%
X158180000Y-90170000D02*
X158180000Y-86820000D01*
X173000000Y-84000000D02*
X173750000Y-83250000D01*
X173750000Y-83250000D02*
X173750000Y-50500000D01*
X161000000Y-84000000D02*
X173000000Y-84000000D01*
X158180000Y-86820000D02*
X161000000Y-84000000D01*
X173250000Y-50000000D02*
X173750000Y-50500000D01*
X165750000Y-50000000D02*
X164250000Y-51500000D01*
X165750000Y-50000000D02*
X173250000Y-50000000D01*
%TO.N,Net-(IC1-IO33)*%
D22*
X154250000Y-60750000D02*
X153100000Y-61900000D01*
X158750000Y-60250000D02*
X158250000Y-60750000D01*
X158250000Y-60750000D02*
X154250000Y-60750000D01*
X159250000Y-57500000D02*
X158750000Y-58000000D01*
X153100000Y-61900000D02*
X153100000Y-64770000D01*
X169850000Y-57500000D02*
X159250000Y-57500000D01*
X158750000Y-58000000D02*
X158750000Y-60250000D01*
%TO.N,Net-(IC1-IO32)*%
X160250000Y-60750000D02*
X159000000Y-62000000D01*
X159000000Y-62000000D02*
X156000000Y-62000000D01*
X156000000Y-62000000D02*
X155640000Y-62360000D01*
X160250000Y-59750000D02*
X160250000Y-60750000D01*
X155640000Y-62360000D02*
X155640000Y-64770000D01*
X160500000Y-59500000D02*
X160250000Y-59750000D01*
X169850000Y-59500000D02*
X160500000Y-59500000D01*
%TO.N,Net-(IC1-IO35)*%
X171000000Y-61250000D02*
X161700000Y-61250000D01*
X91050000Y-59120000D02*
X91050000Y-62950000D01*
X97750000Y-70000000D02*
X99750000Y-72000000D01*
X172500000Y-68500000D02*
X172500000Y-62750000D01*
X99750000Y-72000000D02*
X169000000Y-72000000D01*
X161700000Y-61250000D02*
X158180000Y-64770000D01*
X91050000Y-62950000D02*
X91350000Y-63250000D01*
X169000000Y-72000000D02*
X172500000Y-68500000D01*
X96500000Y-63250000D02*
X97750000Y-64500000D01*
X91350000Y-63250000D02*
X96500000Y-63250000D01*
X172500000Y-62750000D02*
X171000000Y-61250000D01*
X97750000Y-64500000D02*
X97750000Y-70000000D01*
%TD*%
%TA.AperFunction,Conductor*%
%TO.N,GNDREF*%
G36*
X171351257Y-87770185D02*
G01*
X171371899Y-87786819D01*
X172463181Y-88878101D01*
X172496666Y-88939424D01*
X172499500Y-88965782D01*
X172499500Y-107784218D01*
X172479815Y-107851257D01*
X172463181Y-107871899D01*
X170831899Y-109503181D01*
X170770576Y-109536666D01*
X170744218Y-109539500D01*
X147218851Y-109539500D01*
X147189862Y-109530987D01*
X147160279Y-109524795D01*
X147154723Y-109520669D01*
X147151812Y-109519815D01*
X147131860Y-109503866D01*
X147131538Y-109503549D01*
X146998682Y-109370693D01*
X146990669Y-109364871D01*
X146984061Y-109358366D01*
X146971403Y-109335611D01*
X146955502Y-109314992D01*
X146954692Y-109305570D01*
X146950096Y-109297307D01*
X146951749Y-109271320D01*
X146949521Y-109245378D01*
X146953933Y-109237015D01*
X146954534Y-109227578D01*
X146969974Y-109206611D01*
X146982125Y-109183582D01*
X146995413Y-109172068D01*
X146995966Y-109171318D01*
X146996526Y-109171103D01*
X146998170Y-109169680D01*
X146998675Y-109169312D01*
X146998673Y-109169312D01*
X146998682Y-109169307D01*
X147169307Y-108998682D01*
X147311139Y-108803467D01*
X147420687Y-108588468D01*
X147495252Y-108358978D01*
X147533000Y-108120650D01*
X147533000Y-107879350D01*
X147495252Y-107641022D01*
X147420687Y-107411532D01*
X147420687Y-107411531D01*
X147359699Y-107291837D01*
X147311139Y-107196533D01*
X147169307Y-107001318D01*
X146998682Y-106830693D01*
X146998680Y-106830691D01*
X146998675Y-106830687D01*
X146998170Y-106830320D01*
X146998023Y-106830130D01*
X146994969Y-106827521D01*
X146995516Y-106826879D01*
X146955502Y-106774992D01*
X146949521Y-106705378D01*
X146982125Y-106643582D01*
X146998170Y-106629680D01*
X146998675Y-106629312D01*
X146998676Y-106629311D01*
X146998682Y-106629307D01*
X147169307Y-106458682D01*
X147311139Y-106263467D01*
X147420687Y-106048468D01*
X147495252Y-105818978D01*
X147533000Y-105580650D01*
X147533000Y-105339350D01*
X147495252Y-105101022D01*
X147420687Y-104871532D01*
X147420687Y-104871531D01*
X147311138Y-104656532D01*
X147169307Y-104461318D01*
X146998682Y-104290693D01*
X146998680Y-104290691D01*
X146998675Y-104290687D01*
X146998170Y-104290320D01*
X146998023Y-104290130D01*
X146994969Y-104287521D01*
X146995516Y-104286879D01*
X146986116Y-104274689D01*
X146970518Y-104262588D01*
X146965216Y-104247588D01*
X146955502Y-104234992D01*
X146953812Y-104215323D01*
X146947234Y-104196712D01*
X146950882Y-104181228D01*
X146949521Y-104165378D01*
X146958733Y-104147917D01*
X146963261Y-104128705D01*
X146976935Y-104113418D01*
X146982125Y-104103582D01*
X146984896Y-104100820D01*
X146991144Y-104094782D01*
X146998682Y-104089307D01*
X147051928Y-104036060D01*
X147052695Y-104035320D01*
X147082747Y-104019576D01*
X147112493Y-104003334D01*
X147114076Y-104003163D01*
X147114586Y-104002897D01*
X147115665Y-104002992D01*
X147138851Y-104000500D01*
X166098542Y-104000500D01*
X166122959Y-103995642D01*
X166195188Y-103981275D01*
X166291836Y-103962051D01*
X166376456Y-103927000D01*
X166473914Y-103886632D01*
X166637782Y-103777139D01*
X166777139Y-103637782D01*
X166777139Y-103637780D01*
X166787347Y-103627573D01*
X166787348Y-103627570D01*
X168527140Y-101887781D01*
X168585334Y-101800687D01*
X168636632Y-101723914D01*
X168708956Y-101549307D01*
X168712051Y-101541836D01*
X168744143Y-101380500D01*
X168750500Y-101348541D01*
X168750500Y-91738602D01*
X168770185Y-91671563D01*
X168822989Y-91625808D01*
X168836165Y-91620677D01*
X168928468Y-91590687D01*
X169143467Y-91481139D01*
X169338682Y-91339307D01*
X169509307Y-91168682D01*
X169520995Y-91152595D01*
X169521426Y-91152002D01*
X169521938Y-91151296D01*
X169651139Y-90973467D01*
X169651299Y-90973152D01*
X169654361Y-90968936D01*
X169678276Y-90950484D01*
X169700666Y-90930186D01*
X169705852Y-90929209D01*
X169709680Y-90926256D01*
X169731525Y-90924374D01*
X169764428Y-90918178D01*
X169777258Y-90919187D01*
X170352129Y-90344316D01*
X170362822Y-90384222D01*
X170435890Y-90510778D01*
X170539222Y-90614110D01*
X170665778Y-90687178D01*
X170705682Y-90697870D01*
X170130809Y-91272741D01*
X170130810Y-91272742D01*
X170181614Y-91309653D01*
X170368493Y-91404874D01*
X170567971Y-91469689D01*
X170775131Y-91502500D01*
X170984869Y-91502500D01*
X171192028Y-91469689D01*
X171391506Y-91404874D01*
X171578374Y-91309659D01*
X171578387Y-91309651D01*
X171629188Y-91272742D01*
X171629189Y-91272741D01*
X171054317Y-90697870D01*
X171094222Y-90687178D01*
X171220778Y-90614110D01*
X171324110Y-90510778D01*
X171397178Y-90384222D01*
X171407870Y-90344318D01*
X171982741Y-90919189D01*
X171982742Y-90919188D01*
X172019651Y-90868387D01*
X172019659Y-90868374D01*
X172114874Y-90681506D01*
X172179689Y-90482028D01*
X172212500Y-90274869D01*
X172212500Y-90065130D01*
X172179689Y-89857971D01*
X172114874Y-89658493D01*
X172019653Y-89471614D01*
X171982742Y-89420810D01*
X171982741Y-89420809D01*
X171407870Y-89995681D01*
X171397178Y-89955778D01*
X171324110Y-89829222D01*
X171220778Y-89725890D01*
X171094222Y-89652822D01*
X171054315Y-89642129D01*
X171629188Y-89067257D01*
X171578378Y-89030342D01*
X171391506Y-88935125D01*
X171192028Y-88870310D01*
X170984869Y-88837500D01*
X170775131Y-88837500D01*
X170567971Y-88870310D01*
X170368493Y-88935125D01*
X170181611Y-89030347D01*
X170130810Y-89067256D01*
X170130810Y-89067257D01*
X170705682Y-89642129D01*
X170665778Y-89652822D01*
X170539222Y-89725890D01*
X170435890Y-89829222D01*
X170362822Y-89955778D01*
X170352129Y-89995682D01*
X169777257Y-89420810D01*
X169764425Y-89421820D01*
X169754245Y-89419681D01*
X169744054Y-89421744D01*
X169720642Y-89412622D01*
X169696048Y-89407456D01*
X169686913Y-89399481D01*
X169678951Y-89396379D01*
X169663007Y-89378611D01*
X169654360Y-89371062D01*
X169651298Y-89366845D01*
X169651139Y-89366533D01*
X169509307Y-89171318D01*
X169338682Y-89000693D01*
X169143467Y-88858861D01*
X169101544Y-88837500D01*
X168928468Y-88749312D01*
X168928465Y-88749311D01*
X168698979Y-88674748D01*
X168520825Y-88646531D01*
X168460650Y-88637000D01*
X168219350Y-88637000D01*
X168159175Y-88646531D01*
X167981020Y-88674748D01*
X167751534Y-88749311D01*
X167751531Y-88749312D01*
X167536532Y-88858861D01*
X167341315Y-89000695D01*
X167170695Y-89171315D01*
X167170688Y-89171324D01*
X167170317Y-89171835D01*
X167170126Y-89171982D01*
X167167529Y-89175023D01*
X167166890Y-89174477D01*
X167114987Y-89214501D01*
X167045373Y-89220479D01*
X166983579Y-89187872D01*
X166981634Y-89185940D01*
X166975131Y-89179334D01*
X166969307Y-89171318D01*
X166836450Y-89038461D01*
X166836134Y-89038140D01*
X166819845Y-89007745D01*
X166803334Y-88977507D01*
X166803257Y-88976791D01*
X166803131Y-88976556D01*
X166803173Y-88976017D01*
X166800500Y-88951149D01*
X166800500Y-88765782D01*
X166820185Y-88698743D01*
X166836819Y-88678101D01*
X167728101Y-87786819D01*
X167789424Y-87753334D01*
X167815782Y-87750500D01*
X171284218Y-87750500D01*
X171351257Y-87770185D01*
G37*
%TD.AperFunction*%
%TA.AperFunction,Conductor*%
G36*
X144386334Y-94881100D02*
G01*
X144442267Y-94922972D01*
X144466684Y-94988436D01*
X144467000Y-94997282D01*
X144467000Y-96189113D01*
X144473413Y-96259692D01*
X144524022Y-96422106D01*
X144612030Y-96567688D01*
X144732311Y-96687969D01*
X144732313Y-96687970D01*
X144732315Y-96687972D01*
X144877894Y-96775978D01*
X145040304Y-96826586D01*
X145110884Y-96833000D01*
X145110887Y-96833000D01*
X145295191Y-96833000D01*
X145362230Y-96852685D01*
X145382872Y-96869319D01*
X145825683Y-97312129D01*
X145785778Y-97322822D01*
X145659222Y-97395890D01*
X145555890Y-97499222D01*
X145482822Y-97625778D01*
X145472129Y-97665682D01*
X144897257Y-97090810D01*
X144897256Y-97090810D01*
X144860347Y-97141611D01*
X144765125Y-97328493D01*
X144700310Y-97527971D01*
X144667500Y-97735130D01*
X144667500Y-97944869D01*
X144700310Y-98152028D01*
X144765125Y-98351506D01*
X144860342Y-98538378D01*
X144897257Y-98589188D01*
X145472129Y-98014316D01*
X145482822Y-98054222D01*
X145555890Y-98180778D01*
X145659222Y-98284110D01*
X145785778Y-98357178D01*
X145825682Y-98367870D01*
X145250809Y-98942741D01*
X145251819Y-98955576D01*
X145237454Y-99023953D01*
X145199306Y-99064389D01*
X145200475Y-99065997D01*
X145001315Y-99210695D01*
X144830695Y-99381315D01*
X144688861Y-99576532D01*
X144579312Y-99791531D01*
X144579311Y-99791534D01*
X144504748Y-100021020D01*
X144467000Y-100259350D01*
X144467000Y-100500649D01*
X144504748Y-100738979D01*
X144579311Y-100968465D01*
X144579312Y-100968468D01*
X144675446Y-101157139D01*
X144688861Y-101183467D01*
X144830693Y-101378682D01*
X145001318Y-101549307D01*
X145001324Y-101549311D01*
X145001835Y-101549683D01*
X145001982Y-101549873D01*
X145005023Y-101552471D01*
X145004477Y-101553109D01*
X145044501Y-101605013D01*
X145050479Y-101674627D01*
X145017872Y-101736421D01*
X145001835Y-101750317D01*
X145001324Y-101750688D01*
X145001315Y-101750695D01*
X144830695Y-101921315D01*
X144688861Y-102116532D01*
X144579312Y-102331531D01*
X144579311Y-102331534D01*
X144504748Y-102561020D01*
X144467000Y-102799350D01*
X144467000Y-103040649D01*
X144504748Y-103278979D01*
X144579311Y-103508465D01*
X144579312Y-103508468D01*
X144645202Y-103637782D01*
X144688861Y-103723467D01*
X144830693Y-103918682D01*
X145001318Y-104089307D01*
X145001324Y-104089311D01*
X145001835Y-104089683D01*
X145001982Y-104089873D01*
X145005023Y-104092471D01*
X145004477Y-104093109D01*
X145044501Y-104145013D01*
X145050479Y-104214627D01*
X145017872Y-104276421D01*
X145001835Y-104290317D01*
X145001324Y-104290688D01*
X145001315Y-104290695D01*
X144830695Y-104461315D01*
X144688861Y-104656532D01*
X144579312Y-104871531D01*
X144579311Y-104871534D01*
X144504748Y-105101020D01*
X144467000Y-105339350D01*
X144467000Y-105580649D01*
X144504748Y-105818979D01*
X144579311Y-106048465D01*
X144579312Y-106048468D01*
X144688861Y-106263467D01*
X144830693Y-106458682D01*
X145001318Y-106629307D01*
X145001324Y-106629311D01*
X145001835Y-106629683D01*
X145001982Y-106629873D01*
X145005023Y-106632471D01*
X145004477Y-106633109D01*
X145044501Y-106685013D01*
X145050479Y-106754627D01*
X145017872Y-106816421D01*
X145015940Y-106818366D01*
X145009334Y-106824868D01*
X145001318Y-106830693D01*
X144868461Y-106963549D01*
X144868140Y-106963866D01*
X144837745Y-106980154D01*
X144807507Y-106996666D01*
X144806791Y-106996742D01*
X144806556Y-106996869D01*
X144806017Y-106996826D01*
X144781149Y-106999500D01*
X143965783Y-106999500D01*
X143898744Y-106979815D01*
X143878102Y-106963181D01*
X143536819Y-106621898D01*
X143503334Y-106560575D01*
X143500500Y-106534217D01*
X143500500Y-95715782D01*
X143520185Y-95648743D01*
X143536819Y-95628101D01*
X144255319Y-94909601D01*
X144316642Y-94876116D01*
X144386334Y-94881100D01*
G37*
%TD.AperFunction*%
%TA.AperFunction,Conductor*%
G36*
X155122822Y-90384222D02*
G01*
X155195890Y-90510778D01*
X155299222Y-90614110D01*
X155425778Y-90687178D01*
X155465682Y-90697870D01*
X154890809Y-91272741D01*
X154890810Y-91272742D01*
X154941614Y-91309653D01*
X155128493Y-91404874D01*
X155327971Y-91469689D01*
X155535131Y-91502500D01*
X155744869Y-91502500D01*
X155952028Y-91469689D01*
X156151506Y-91404874D01*
X156338374Y-91309659D01*
X156338387Y-91309651D01*
X156389188Y-91272742D01*
X156389189Y-91272741D01*
X155814317Y-90697870D01*
X155854222Y-90687178D01*
X155980778Y-90614110D01*
X156084110Y-90510778D01*
X156157178Y-90384222D01*
X156167870Y-90344318D01*
X156742740Y-90919188D01*
X156755573Y-90918179D01*
X156823950Y-90932543D01*
X156864383Y-90970697D01*
X156865997Y-90969525D01*
X156868860Y-90973466D01*
X156868861Y-90973467D01*
X157010693Y-91168682D01*
X157181318Y-91339307D01*
X157376533Y-91481139D01*
X157437054Y-91511976D01*
X157591531Y-91590687D01*
X157591534Y-91590688D01*
X157706277Y-91627969D01*
X157821022Y-91665252D01*
X158059350Y-91703000D01*
X158059351Y-91703000D01*
X158300649Y-91703000D01*
X158300650Y-91703000D01*
X158538978Y-91665252D01*
X158768468Y-91590687D01*
X158983467Y-91481139D01*
X159178682Y-91339307D01*
X159349307Y-91168682D01*
X159349340Y-91168635D01*
X159349680Y-91168170D01*
X159349869Y-91168023D01*
X159352479Y-91164969D01*
X159353120Y-91165516D01*
X159405008Y-91125502D01*
X159474622Y-91119521D01*
X159536418Y-91152125D01*
X159550320Y-91168170D01*
X159550687Y-91168675D01*
X159550691Y-91168680D01*
X159550692Y-91168681D01*
X159550693Y-91168682D01*
X159721318Y-91339307D01*
X159916533Y-91481139D01*
X159977054Y-91511976D01*
X160131531Y-91590687D01*
X160131534Y-91590688D01*
X160246277Y-91627969D01*
X160361022Y-91665252D01*
X160599350Y-91703000D01*
X160599351Y-91703000D01*
X160840649Y-91703000D01*
X160840650Y-91703000D01*
X161078978Y-91665252D01*
X161308468Y-91590687D01*
X161523467Y-91481139D01*
X161718682Y-91339307D01*
X161889307Y-91168682D01*
X161889340Y-91168635D01*
X161889680Y-91168170D01*
X161889869Y-91168023D01*
X161892479Y-91164969D01*
X161893120Y-91165516D01*
X161945008Y-91125502D01*
X162014622Y-91119521D01*
X162076418Y-91152125D01*
X162090320Y-91168170D01*
X162090687Y-91168675D01*
X162090691Y-91168680D01*
X162090692Y-91168681D01*
X162090693Y-91168682D01*
X162261318Y-91339307D01*
X162456533Y-91481139D01*
X162517054Y-91511976D01*
X162671531Y-91590687D01*
X162671534Y-91590688D01*
X162786277Y-91627969D01*
X162901022Y-91665252D01*
X163139350Y-91703000D01*
X163139351Y-91703000D01*
X163380649Y-91703000D01*
X163380650Y-91703000D01*
X163618978Y-91665252D01*
X163848468Y-91590687D01*
X164063467Y-91481139D01*
X164258682Y-91339307D01*
X164429307Y-91168682D01*
X164429340Y-91168635D01*
X164429680Y-91168170D01*
X164429869Y-91168023D01*
X164432479Y-91164969D01*
X164433120Y-91165516D01*
X164485008Y-91125502D01*
X164554622Y-91119521D01*
X164616418Y-91152125D01*
X164630320Y-91168170D01*
X164630687Y-91168675D01*
X164630691Y-91168680D01*
X164630692Y-91168681D01*
X164630693Y-91168682D01*
X164801318Y-91339307D01*
X164996533Y-91481139D01*
X165057054Y-91511976D01*
X165211531Y-91590687D01*
X165211534Y-91590688D01*
X165326277Y-91627969D01*
X165441022Y-91665252D01*
X165679350Y-91703000D01*
X165679351Y-91703000D01*
X165920649Y-91703000D01*
X165920650Y-91703000D01*
X166158978Y-91665252D01*
X166388468Y-91590687D01*
X166569206Y-91498595D01*
X166637874Y-91485700D01*
X166702614Y-91511976D01*
X166742872Y-91569082D01*
X166749500Y-91609081D01*
X166749500Y-100784217D01*
X166729815Y-100851256D01*
X166713181Y-100871898D01*
X165621899Y-101963181D01*
X165560576Y-101996666D01*
X165534218Y-101999500D01*
X147289291Y-101999500D01*
X147222252Y-101979815D01*
X147188974Y-101948387D01*
X147169307Y-101921318D01*
X146998680Y-101750691D01*
X146998675Y-101750687D01*
X146998170Y-101750320D01*
X146998023Y-101750130D01*
X146994969Y-101747521D01*
X146995516Y-101746879D01*
X146955502Y-101694992D01*
X146949521Y-101625378D01*
X146982125Y-101563582D01*
X146984061Y-101561634D01*
X146990669Y-101555128D01*
X146998682Y-101549307D01*
X147131538Y-101416450D01*
X147131860Y-101416134D01*
X147162280Y-101399831D01*
X147192493Y-101383334D01*
X147193207Y-101383257D01*
X147193443Y-101383131D01*
X147193982Y-101383173D01*
X147218851Y-101380500D01*
X151968542Y-101380500D01*
X151999566Y-101374328D01*
X152065188Y-101361275D01*
X152161836Y-101342051D01*
X152215165Y-101319961D01*
X152343914Y-101266632D01*
X152507782Y-101157139D01*
X152647139Y-101017782D01*
X152647139Y-101017780D01*
X152657347Y-101007573D01*
X152657348Y-101007570D01*
X153877140Y-99787781D01*
X153986632Y-99623914D01*
X154062052Y-99441835D01*
X154100500Y-99248540D01*
X154100500Y-99051459D01*
X154100500Y-91388851D01*
X154108801Y-91360580D01*
X154114474Y-91331665D01*
X154119176Y-91325247D01*
X154120185Y-91321812D01*
X154135042Y-91302983D01*
X154135902Y-91302086D01*
X154269307Y-91168682D01*
X154290165Y-91139974D01*
X154414003Y-90969526D01*
X154415818Y-90970845D01*
X154460666Y-90930186D01*
X154524428Y-90918178D01*
X154537258Y-90919187D01*
X155112129Y-90344316D01*
X155122822Y-90384222D01*
G37*
%TD.AperFunction*%
%TA.AperFunction,Conductor*%
G36*
X151838201Y-91120931D02*
G01*
X151854622Y-91119521D01*
X151871578Y-91128467D01*
X151890278Y-91132689D01*
X151914472Y-91151098D01*
X151916418Y-91152125D01*
X151917571Y-91153456D01*
X151918366Y-91154061D01*
X151924871Y-91160669D01*
X151930693Y-91168682D01*
X152063549Y-91301538D01*
X152063866Y-91301860D01*
X152080168Y-91332280D01*
X152096666Y-91362493D01*
X152096629Y-91362996D01*
X152096869Y-91363443D01*
X152099500Y-91388851D01*
X152099500Y-98684217D01*
X152079815Y-98751256D01*
X152063181Y-98771898D01*
X151491899Y-99343181D01*
X151430576Y-99376666D01*
X151404218Y-99379500D01*
X147218851Y-99379500D01*
X147151812Y-99359815D01*
X147131170Y-99343181D01*
X146998684Y-99210695D01*
X146998682Y-99210693D01*
X146803467Y-99068861D01*
X146803466Y-99068860D01*
X146799525Y-99065997D01*
X146800816Y-99064219D01*
X146760085Y-99019120D01*
X146748179Y-98955573D01*
X146749188Y-98942740D01*
X146174317Y-98367870D01*
X146214222Y-98357178D01*
X146340778Y-98284110D01*
X146444110Y-98180778D01*
X146517178Y-98054222D01*
X146527870Y-98014318D01*
X147102741Y-98589189D01*
X147102742Y-98589188D01*
X147139651Y-98538387D01*
X147139659Y-98538374D01*
X147234874Y-98351506D01*
X147299689Y-98152028D01*
X147332500Y-97944869D01*
X147332500Y-97735130D01*
X147299689Y-97527971D01*
X147234874Y-97328493D01*
X147139653Y-97141614D01*
X147102742Y-97090810D01*
X147102741Y-97090809D01*
X146527870Y-97665681D01*
X146517178Y-97625778D01*
X146444110Y-97499222D01*
X146340778Y-97395890D01*
X146214222Y-97322822D01*
X146174316Y-97312129D01*
X146617128Y-96869319D01*
X146678451Y-96835834D01*
X146704809Y-96833000D01*
X146889113Y-96833000D01*
X146889116Y-96833000D01*
X146959696Y-96826586D01*
X147122106Y-96775978D01*
X147267685Y-96687972D01*
X147387972Y-96567685D01*
X147475978Y-96422106D01*
X147526586Y-96259696D01*
X147533000Y-96189116D01*
X147533000Y-94410884D01*
X147526586Y-94340304D01*
X147475978Y-94177894D01*
X147387972Y-94032315D01*
X147387970Y-94032313D01*
X147387969Y-94032311D01*
X147317839Y-93962181D01*
X147284354Y-93900858D01*
X147289338Y-93831166D01*
X147331210Y-93775233D01*
X147396674Y-93750816D01*
X147405520Y-93750500D01*
X147598542Y-93750500D01*
X147629566Y-93744328D01*
X147695188Y-93731275D01*
X147791836Y-93712051D01*
X147845165Y-93689961D01*
X147973914Y-93636632D01*
X148137782Y-93527139D01*
X148277139Y-93387782D01*
X148277140Y-93387779D01*
X148284206Y-93380714D01*
X148284209Y-93380710D01*
X148657778Y-93007141D01*
X148657782Y-93007139D01*
X148797139Y-92867782D01*
X148906632Y-92703914D01*
X148965393Y-92562051D01*
X148982051Y-92521836D01*
X148982052Y-92521829D01*
X148982054Y-92521824D01*
X149020499Y-92328544D01*
X149020500Y-92328542D01*
X149020500Y-91388851D01*
X149029012Y-91359862D01*
X149035205Y-91330279D01*
X149039330Y-91324723D01*
X149040185Y-91321812D01*
X149056134Y-91301860D01*
X149056450Y-91301538D01*
X149189307Y-91168682D01*
X149195128Y-91160669D01*
X149201634Y-91154061D01*
X149224388Y-91141403D01*
X149245008Y-91125502D01*
X149254429Y-91124692D01*
X149262693Y-91120096D01*
X149288679Y-91121749D01*
X149314622Y-91119521D01*
X149322984Y-91123933D01*
X149332422Y-91124534D01*
X149353388Y-91139974D01*
X149376418Y-91152125D01*
X149387931Y-91165413D01*
X149388682Y-91165966D01*
X149388896Y-91166526D01*
X149390320Y-91168170D01*
X149390687Y-91168675D01*
X149390691Y-91168680D01*
X149390692Y-91168681D01*
X149390693Y-91168682D01*
X149561318Y-91339307D01*
X149756533Y-91481139D01*
X149817054Y-91511976D01*
X149971531Y-91590687D01*
X149971534Y-91590688D01*
X150086277Y-91627969D01*
X150201022Y-91665252D01*
X150439350Y-91703000D01*
X150439351Y-91703000D01*
X150680649Y-91703000D01*
X150680650Y-91703000D01*
X150918978Y-91665252D01*
X151148468Y-91590687D01*
X151363467Y-91481139D01*
X151558682Y-91339307D01*
X151729307Y-91168682D01*
X151729340Y-91168635D01*
X151729680Y-91168170D01*
X151729869Y-91168023D01*
X151732479Y-91164969D01*
X151733120Y-91165516D01*
X151744859Y-91156463D01*
X151756470Y-91141205D01*
X151771957Y-91135566D01*
X151785008Y-91125502D01*
X151804108Y-91123860D01*
X151822124Y-91117302D01*
X151838201Y-91120931D01*
G37*
%TD.AperFunction*%
%TA.AperFunction,Conductor*%
G36*
X137742539Y-56720185D02*
G01*
X137788294Y-56772989D01*
X137799500Y-56824500D01*
X137799500Y-59809253D01*
X137779815Y-59876292D01*
X137775818Y-59882138D01*
X137716659Y-59963563D01*
X137609433Y-60174003D01*
X137536446Y-60398631D01*
X137499500Y-60631902D01*
X137499500Y-60868097D01*
X137536446Y-61101368D01*
X137609433Y-61325996D01*
X137695886Y-61495668D01*
X137716657Y-61536433D01*
X137855483Y-61727510D01*
X138022490Y-61894517D01*
X138213567Y-62033343D01*
X138306118Y-62080500D01*
X138424003Y-62140566D01*
X138424005Y-62140566D01*
X138424008Y-62140568D01*
X138536168Y-62177011D01*
X138648631Y-62213553D01*
X138881903Y-62250500D01*
X138881908Y-62250500D01*
X139118097Y-62250500D01*
X139351368Y-62213553D01*
X139386964Y-62201987D01*
X139575992Y-62140568D01*
X139786433Y-62033343D01*
X139824238Y-62005875D01*
X139867862Y-61974182D01*
X139933668Y-61950702D01*
X139940747Y-61950500D01*
X142059253Y-61950500D01*
X142126292Y-61970185D01*
X142132138Y-61974182D01*
X142197454Y-62021636D01*
X142213567Y-62033343D01*
X142347659Y-62101666D01*
X142424003Y-62140566D01*
X142424005Y-62140566D01*
X142424008Y-62140568D01*
X142536168Y-62177011D01*
X142648631Y-62213553D01*
X142881903Y-62250500D01*
X142881908Y-62250500D01*
X143118097Y-62250500D01*
X143351368Y-62213553D01*
X143386964Y-62201987D01*
X143575992Y-62140568D01*
X143786433Y-62033343D01*
X143977510Y-61894517D01*
X144144517Y-61727510D01*
X144283343Y-61536433D01*
X144390568Y-61325992D01*
X144463553Y-61101368D01*
X144479298Y-61001953D01*
X144509225Y-60938823D01*
X144514071Y-60933691D01*
X148710945Y-56736819D01*
X148772268Y-56703334D01*
X148798626Y-56700500D01*
X158335217Y-56700500D01*
X158402256Y-56720185D01*
X158448011Y-56772989D01*
X158457955Y-56842147D01*
X158428930Y-56905703D01*
X158422898Y-56912181D01*
X158112221Y-57222858D01*
X158112218Y-57222861D01*
X158042538Y-57292540D01*
X157972859Y-57362219D01*
X157863371Y-57526080D01*
X157863364Y-57526093D01*
X157824199Y-57620650D01*
X157789178Y-57705199D01*
X157789170Y-57705218D01*
X157787949Y-57708164D01*
X157787948Y-57708164D01*
X157749500Y-57901456D01*
X157749500Y-59625500D01*
X157729815Y-59692539D01*
X157677011Y-59738294D01*
X157625500Y-59749500D01*
X154354675Y-59749500D01*
X154354655Y-59749499D01*
X154348541Y-59749499D01*
X154151460Y-59749499D01*
X154151457Y-59749499D01*
X153958172Y-59787946D01*
X153958164Y-59787948D01*
X153776088Y-59863366D01*
X153776079Y-59863371D01*
X153612219Y-59972859D01*
X153612215Y-59972862D01*
X152716987Y-60868092D01*
X152462220Y-61122859D01*
X152462218Y-61122861D01*
X152415743Y-61169336D01*
X152322859Y-61262219D01*
X152213369Y-61426082D01*
X152184546Y-61495668D01*
X152182545Y-61500500D01*
X152137949Y-61608164D01*
X152121426Y-61691232D01*
X152120069Y-61698051D01*
X152120068Y-61698056D01*
X152099500Y-61801456D01*
X152099500Y-63551149D01*
X152090987Y-63580138D01*
X152084795Y-63609721D01*
X152080669Y-63615276D01*
X152079815Y-63618188D01*
X152063866Y-63638140D01*
X152063549Y-63638461D01*
X151930693Y-63771318D01*
X151924868Y-63779334D01*
X151918366Y-63785940D01*
X151895609Y-63798598D01*
X151874987Y-63814501D01*
X151865567Y-63815309D01*
X151857307Y-63819905D01*
X151831318Y-63818250D01*
X151805373Y-63820479D01*
X151797012Y-63816067D01*
X151787579Y-63815467D01*
X151766609Y-63800024D01*
X151743579Y-63787872D01*
X151732068Y-63774587D01*
X151731319Y-63774036D01*
X151731105Y-63773476D01*
X151729683Y-63771835D01*
X151729311Y-63771324D01*
X151729309Y-63771321D01*
X151729307Y-63771318D01*
X151558682Y-63600693D01*
X151363467Y-63458861D01*
X151294892Y-63423920D01*
X151148468Y-63349312D01*
X151148465Y-63349311D01*
X150918979Y-63274748D01*
X150799814Y-63255874D01*
X150680650Y-63237000D01*
X150439350Y-63237000D01*
X150376384Y-63246973D01*
X150201020Y-63274748D01*
X149971534Y-63349311D01*
X149971531Y-63349312D01*
X149756532Y-63458861D01*
X149561315Y-63600695D01*
X149390695Y-63771315D01*
X149390688Y-63771324D01*
X149390317Y-63771835D01*
X149390126Y-63771982D01*
X149387529Y-63775023D01*
X149386890Y-63774477D01*
X149334987Y-63814501D01*
X149265373Y-63820479D01*
X149203579Y-63787872D01*
X149189683Y-63771835D01*
X149189311Y-63771324D01*
X149189309Y-63771321D01*
X149189307Y-63771318D01*
X149018682Y-63600693D01*
X148823467Y-63458861D01*
X148754892Y-63423920D01*
X148608468Y-63349312D01*
X148608465Y-63349311D01*
X148473133Y-63305340D01*
X148415458Y-63265903D01*
X148388259Y-63201544D01*
X148400173Y-63132698D01*
X148423767Y-63099731D01*
X149449463Y-62074036D01*
X149453387Y-62068164D01*
X149548013Y-61926547D01*
X149615894Y-61762666D01*
X149619721Y-61743421D01*
X149623602Y-61723916D01*
X149623602Y-61723914D01*
X149650500Y-61588692D01*
X149650500Y-61411309D01*
X149650500Y-61169336D01*
X149670185Y-61102297D01*
X149686819Y-61081655D01*
X149689443Y-61079031D01*
X149703828Y-61064646D01*
X149819524Y-60905405D01*
X149908884Y-60730025D01*
X149969709Y-60542826D01*
X149980224Y-60476439D01*
X150000500Y-60348422D01*
X150000500Y-60151577D01*
X149969709Y-59957173D01*
X149937215Y-59857167D01*
X149908884Y-59769975D01*
X149908882Y-59769972D01*
X149908882Y-59769970D01*
X149861409Y-59676799D01*
X149819524Y-59594595D01*
X149703828Y-59435354D01*
X149564646Y-59296172D01*
X149405405Y-59180476D01*
X149230029Y-59091117D01*
X149042826Y-59030290D01*
X148848422Y-58999500D01*
X148848417Y-58999500D01*
X148651583Y-58999500D01*
X148651578Y-58999500D01*
X148457173Y-59030290D01*
X148269970Y-59091117D01*
X148094594Y-59180476D01*
X148043249Y-59217781D01*
X147935354Y-59296172D01*
X147935352Y-59296174D01*
X147935351Y-59296174D01*
X147796174Y-59435351D01*
X147796174Y-59435352D01*
X147796172Y-59435354D01*
X147765906Y-59477011D01*
X147680476Y-59594594D01*
X147591117Y-59769970D01*
X147530290Y-59957173D01*
X147499500Y-60151577D01*
X147499500Y-60348422D01*
X147530290Y-60542826D01*
X147591117Y-60730029D01*
X147661464Y-60868092D01*
X147680476Y-60905405D01*
X147782603Y-61045970D01*
X147806082Y-61111773D01*
X147790257Y-61179827D01*
X147769965Y-61206534D01*
X146913319Y-62063181D01*
X146851996Y-62096666D01*
X146825638Y-62099500D01*
X144621303Y-62099500D01*
X144447341Y-62134103D01*
X144447329Y-62134106D01*
X144365392Y-62168045D01*
X144365393Y-62168046D01*
X144283455Y-62201985D01*
X144210850Y-62250499D01*
X144135961Y-62300537D01*
X143225189Y-63211309D01*
X143163866Y-63244794D01*
X143118110Y-63246101D01*
X143060650Y-63237000D01*
X142819350Y-63237000D01*
X142756384Y-63246973D01*
X142581020Y-63274748D01*
X142351534Y-63349311D01*
X142351531Y-63349312D01*
X142136532Y-63458861D01*
X141941315Y-63600695D01*
X141770695Y-63771315D01*
X141770688Y-63771324D01*
X141770317Y-63771835D01*
X141770126Y-63771982D01*
X141767529Y-63775023D01*
X141766890Y-63774477D01*
X141714987Y-63814501D01*
X141645373Y-63820479D01*
X141583579Y-63787872D01*
X141569683Y-63771835D01*
X141569311Y-63771324D01*
X141569309Y-63771321D01*
X141569307Y-63771318D01*
X141398682Y-63600693D01*
X141203467Y-63458861D01*
X141134892Y-63423920D01*
X140988468Y-63349312D01*
X140988465Y-63349311D01*
X140758979Y-63274748D01*
X140639814Y-63255874D01*
X140520650Y-63237000D01*
X140279350Y-63237000D01*
X140216384Y-63246973D01*
X140041020Y-63274748D01*
X139811534Y-63349311D01*
X139811531Y-63349312D01*
X139596532Y-63458861D01*
X139401315Y-63600695D01*
X139230695Y-63771315D01*
X139085997Y-63970475D01*
X139084225Y-63969187D01*
X139039090Y-64009928D01*
X138975576Y-64021819D01*
X138962741Y-64020809D01*
X138387870Y-64595681D01*
X138377178Y-64555778D01*
X138304110Y-64429222D01*
X138200778Y-64325890D01*
X138074222Y-64252822D01*
X138034315Y-64242129D01*
X138609188Y-63667257D01*
X138558378Y-63630342D01*
X138371506Y-63535125D01*
X138172028Y-63470310D01*
X137964869Y-63437500D01*
X137755131Y-63437500D01*
X137547971Y-63470310D01*
X137348493Y-63535125D01*
X137161611Y-63630347D01*
X137110810Y-63667256D01*
X137110810Y-63667257D01*
X137685682Y-64242129D01*
X137645778Y-64252822D01*
X137519222Y-64325890D01*
X137415890Y-64429222D01*
X137342822Y-64555778D01*
X137332129Y-64595682D01*
X136757257Y-64020810D01*
X136744425Y-64021820D01*
X136734245Y-64019681D01*
X136724054Y-64021744D01*
X136700642Y-64012622D01*
X136676048Y-64007456D01*
X136666913Y-63999481D01*
X136658951Y-63996379D01*
X136643007Y-63978611D01*
X136634360Y-63971062D01*
X136631298Y-63966845D01*
X136631139Y-63966533D01*
X136489307Y-63771318D01*
X136318682Y-63600693D01*
X136123467Y-63458861D01*
X136054892Y-63423920D01*
X135908468Y-63349312D01*
X135908465Y-63349311D01*
X135678979Y-63274748D01*
X135559814Y-63255874D01*
X135440650Y-63237000D01*
X135199350Y-63237000D01*
X135136384Y-63246973D01*
X134961020Y-63274748D01*
X134731534Y-63349311D01*
X134731531Y-63349312D01*
X134516532Y-63458861D01*
X134321315Y-63600695D01*
X134150695Y-63771315D01*
X134150688Y-63771324D01*
X134150317Y-63771835D01*
X134150126Y-63771982D01*
X134147529Y-63775023D01*
X134146890Y-63774477D01*
X134094987Y-63814501D01*
X134025373Y-63820479D01*
X133963579Y-63787872D01*
X133949683Y-63771835D01*
X133949311Y-63771324D01*
X133949309Y-63771321D01*
X133949307Y-63771318D01*
X133778682Y-63600693D01*
X133583467Y-63458861D01*
X133514892Y-63423920D01*
X133368468Y-63349312D01*
X133368465Y-63349311D01*
X133138979Y-63274748D01*
X133019814Y-63255874D01*
X132900650Y-63237000D01*
X132659350Y-63237000D01*
X132596384Y-63246973D01*
X132421020Y-63274748D01*
X132191534Y-63349311D01*
X132191531Y-63349312D01*
X131976532Y-63458861D01*
X131781315Y-63600695D01*
X131610695Y-63771315D01*
X131610688Y-63771324D01*
X131610317Y-63771835D01*
X131610126Y-63771982D01*
X131607529Y-63775023D01*
X131606890Y-63774477D01*
X131554987Y-63814501D01*
X131485373Y-63820479D01*
X131423579Y-63787872D01*
X131409683Y-63771835D01*
X131409311Y-63771324D01*
X131409309Y-63771321D01*
X131409307Y-63771318D01*
X131238682Y-63600693D01*
X131043467Y-63458861D01*
X130974892Y-63423920D01*
X130828468Y-63349312D01*
X130828465Y-63349311D01*
X130598979Y-63274748D01*
X130479814Y-63255874D01*
X130360650Y-63237000D01*
X130119350Y-63237000D01*
X130056384Y-63246973D01*
X129881020Y-63274748D01*
X129651534Y-63349311D01*
X129651531Y-63349312D01*
X129436532Y-63458861D01*
X129241315Y-63600695D01*
X129070695Y-63771315D01*
X129070688Y-63771324D01*
X129070317Y-63771835D01*
X129070126Y-63771982D01*
X129067529Y-63775023D01*
X129066890Y-63774477D01*
X129014987Y-63814501D01*
X128945373Y-63820479D01*
X128883579Y-63787872D01*
X128869683Y-63771835D01*
X128869311Y-63771324D01*
X128869309Y-63771321D01*
X128869307Y-63771318D01*
X128698682Y-63600693D01*
X128503467Y-63458861D01*
X128503466Y-63458860D01*
X128503464Y-63458859D01*
X128433899Y-63423413D01*
X128383104Y-63375438D01*
X128366309Y-63307617D01*
X128388847Y-63241482D01*
X128402508Y-63225254D01*
X130165690Y-61462074D01*
X130276760Y-61309200D01*
X130362547Y-61140832D01*
X130420940Y-60961118D01*
X130421408Y-60958164D01*
X130429764Y-60905405D01*
X130450500Y-60774486D01*
X130450500Y-57798625D01*
X130470185Y-57731586D01*
X130486819Y-57710944D01*
X131460944Y-56736819D01*
X131522267Y-56703334D01*
X131548625Y-56700500D01*
X137675500Y-56700500D01*
X137742539Y-56720185D01*
G37*
%TD.AperFunction*%
%TA.AperFunction,Conductor*%
G36*
X127263688Y-41754047D02*
G01*
X127276233Y-41752970D01*
X127296577Y-41763704D01*
X127318647Y-41770185D01*
X127326891Y-41779700D01*
X127338028Y-41785576D01*
X127349339Y-41805606D01*
X127364402Y-41822989D01*
X127366193Y-41835450D01*
X127372386Y-41846415D01*
X127371072Y-41869381D01*
X127374346Y-41892147D01*
X127369020Y-41905268D01*
X127368397Y-41916170D01*
X127351926Y-41947386D01*
X127216657Y-42133566D01*
X127109433Y-42344003D01*
X127036446Y-42568631D01*
X126999500Y-42801902D01*
X126999500Y-43038097D01*
X127036446Y-43271368D01*
X127109433Y-43495996D01*
X127167469Y-43609897D01*
X127216657Y-43706433D01*
X127355483Y-43897510D01*
X127522490Y-44064517D01*
X127713567Y-44203343D01*
X127797808Y-44246266D01*
X127924003Y-44310566D01*
X127924005Y-44310566D01*
X127924008Y-44310568D01*
X128044412Y-44349689D01*
X128148631Y-44383553D01*
X128381903Y-44420500D01*
X128381908Y-44420500D01*
X128618097Y-44420500D01*
X128851368Y-44383553D01*
X129075992Y-44310568D01*
X129286433Y-44203343D01*
X129477510Y-44064517D01*
X129585208Y-43956819D01*
X129646531Y-43923334D01*
X129672889Y-43920500D01*
X131454218Y-43920500D01*
X131521257Y-43940185D01*
X131541899Y-43956819D01*
X132276516Y-44691436D01*
X132310001Y-44752759D01*
X132311774Y-44795301D01*
X132299500Y-44888540D01*
X132299500Y-45111450D01*
X132299501Y-45111466D01*
X132328594Y-45332452D01*
X132328595Y-45332457D01*
X132328596Y-45332463D01*
X132366988Y-45475744D01*
X132386290Y-45547780D01*
X132386293Y-45547790D01*
X132471593Y-45753722D01*
X132471595Y-45753726D01*
X132583052Y-45946774D01*
X132583057Y-45946780D01*
X132583058Y-45946782D01*
X132718751Y-46123622D01*
X132718757Y-46123629D01*
X132876370Y-46281242D01*
X132876377Y-46281248D01*
X132932079Y-46323989D01*
X133053226Y-46416948D01*
X133246274Y-46528405D01*
X133278941Y-46541936D01*
X133451400Y-46613371D01*
X133452219Y-46613710D01*
X133667537Y-46671404D01*
X133888543Y-46700500D01*
X133888550Y-46700500D01*
X134111450Y-46700500D01*
X134111457Y-46700500D01*
X134332463Y-46671404D01*
X134547781Y-46613710D01*
X134753726Y-46528405D01*
X134946774Y-46416948D01*
X135123624Y-46281247D01*
X135281247Y-46123624D01*
X135416948Y-45946774D01*
X135528405Y-45753726D01*
X135613710Y-45547781D01*
X135671404Y-45332463D01*
X135700500Y-45111457D01*
X135700500Y-44888543D01*
X135688224Y-44795300D01*
X135698989Y-44726268D01*
X135723479Y-44691439D01*
X136378101Y-44036819D01*
X136439424Y-44003334D01*
X136465782Y-44000500D01*
X137398718Y-44000500D01*
X137465757Y-44020185D01*
X137511512Y-44072989D01*
X137521456Y-44142147D01*
X137506105Y-44186500D01*
X137471598Y-44246266D01*
X137471593Y-44246277D01*
X137386293Y-44452209D01*
X137386290Y-44452219D01*
X137333630Y-44648752D01*
X137328597Y-44667534D01*
X137328594Y-44667547D01*
X137300715Y-44879311D01*
X137299501Y-44888540D01*
X137299500Y-44888549D01*
X137299500Y-45111450D01*
X137299501Y-45111466D01*
X137328594Y-45332452D01*
X137328595Y-45332457D01*
X137328596Y-45332463D01*
X137366988Y-45475744D01*
X137386290Y-45547780D01*
X137386293Y-45547790D01*
X137471593Y-45753722D01*
X137471595Y-45753726D01*
X137583052Y-45946774D01*
X137583057Y-45946780D01*
X137583058Y-45946782D01*
X137718751Y-46123622D01*
X137718757Y-46123629D01*
X137876370Y-46281242D01*
X137876377Y-46281248D01*
X137932079Y-46323989D01*
X138053226Y-46416948D01*
X138246274Y-46528405D01*
X138278941Y-46541936D01*
X138451400Y-46613371D01*
X138452219Y-46613710D01*
X138667537Y-46671404D01*
X138888543Y-46700500D01*
X138888550Y-46700500D01*
X139111450Y-46700500D01*
X139111457Y-46700500D01*
X139332463Y-46671404D01*
X139547781Y-46613710D01*
X139753726Y-46528405D01*
X139946774Y-46416948D01*
X140123624Y-46281247D01*
X140281247Y-46123624D01*
X140416948Y-45946774D01*
X140528405Y-45753726D01*
X140613710Y-45547781D01*
X140671404Y-45332463D01*
X140700500Y-45111457D01*
X140700500Y-44888543D01*
X140671404Y-44667537D01*
X140613710Y-44452219D01*
X140528405Y-44246274D01*
X140528403Y-44246271D01*
X140528401Y-44246266D01*
X140493895Y-44186500D01*
X140477422Y-44118600D01*
X140500275Y-44052573D01*
X140555196Y-44009382D01*
X140601282Y-44000500D01*
X141534218Y-44000500D01*
X141601257Y-44020185D01*
X141621899Y-44036819D01*
X142276516Y-44691436D01*
X142310001Y-44752759D01*
X142311774Y-44795301D01*
X142299500Y-44888540D01*
X142299500Y-45111450D01*
X142299501Y-45111466D01*
X142328594Y-45332452D01*
X142328595Y-45332457D01*
X142328596Y-45332463D01*
X142366988Y-45475744D01*
X142386290Y-45547780D01*
X142386293Y-45547790D01*
X142471593Y-45753722D01*
X142471595Y-45753726D01*
X142583052Y-45946774D01*
X142583057Y-45946780D01*
X142583058Y-45946782D01*
X142718751Y-46123622D01*
X142718757Y-46123629D01*
X142876370Y-46281242D01*
X142876377Y-46281248D01*
X142932079Y-46323989D01*
X143053226Y-46416948D01*
X143246274Y-46528405D01*
X143278941Y-46541936D01*
X143451400Y-46613371D01*
X143452219Y-46613710D01*
X143667537Y-46671404D01*
X143888543Y-46700500D01*
X143888550Y-46700500D01*
X144111450Y-46700500D01*
X144111457Y-46700500D01*
X144332463Y-46671404D01*
X144547781Y-46613710D01*
X144753726Y-46528405D01*
X144946774Y-46416948D01*
X145123624Y-46281247D01*
X145281247Y-46123624D01*
X145416948Y-45946774D01*
X145528405Y-45753726D01*
X145613710Y-45547781D01*
X145671404Y-45332463D01*
X145700500Y-45111457D01*
X145700500Y-44888543D01*
X145671404Y-44667537D01*
X145613710Y-44452219D01*
X145528405Y-44246274D01*
X145416948Y-44053226D01*
X145315104Y-43920500D01*
X145281248Y-43876377D01*
X145281242Y-43876370D01*
X145123629Y-43718757D01*
X145123622Y-43718751D01*
X144946782Y-43583058D01*
X144946780Y-43583057D01*
X144946774Y-43583052D01*
X144753726Y-43471595D01*
X144753722Y-43471593D01*
X144547790Y-43386293D01*
X144547783Y-43386291D01*
X144547781Y-43386290D01*
X144332463Y-43328596D01*
X144332457Y-43328595D01*
X144332452Y-43328594D01*
X144111466Y-43299501D01*
X144111463Y-43299500D01*
X144111457Y-43299500D01*
X143888543Y-43299500D01*
X143888541Y-43299500D01*
X143795301Y-43311774D01*
X143726265Y-43301008D01*
X143691436Y-43276516D01*
X142781479Y-42366559D01*
X142781459Y-42366537D01*
X142637785Y-42222863D01*
X142637781Y-42222860D01*
X142473920Y-42113371D01*
X142473911Y-42113366D01*
X142401315Y-42083296D01*
X142345165Y-42060038D01*
X142291836Y-42037949D01*
X142291832Y-42037948D01*
X142291828Y-42037946D01*
X142195188Y-42018724D01*
X142098544Y-41999500D01*
X142098541Y-41999500D01*
X135901459Y-41999500D01*
X135901455Y-41999500D01*
X135804812Y-42018724D01*
X135708167Y-42037947D01*
X135708161Y-42037949D01*
X135654834Y-42060037D01*
X135654834Y-42060038D01*
X135609315Y-42078892D01*
X135526089Y-42113366D01*
X135526079Y-42113371D01*
X135362219Y-42222859D01*
X135302861Y-42282218D01*
X135222861Y-42362218D01*
X135222858Y-42362221D01*
X134308562Y-43276516D01*
X134247239Y-43310001D01*
X134204697Y-43311774D01*
X134111459Y-43299500D01*
X134111457Y-43299500D01*
X133888543Y-43299500D01*
X133888541Y-43299500D01*
X133795301Y-43311774D01*
X133726265Y-43301008D01*
X133691436Y-43276516D01*
X132701479Y-42286559D01*
X132701459Y-42286537D01*
X132557785Y-42142863D01*
X132557781Y-42142860D01*
X132393920Y-42033371D01*
X132393907Y-42033364D01*
X132286947Y-41989061D01*
X132232543Y-41945221D01*
X132210478Y-41878927D01*
X132227757Y-41811227D01*
X132278894Y-41763616D01*
X132334399Y-41750500D01*
X163626000Y-41750500D01*
X163693039Y-41770185D01*
X163738794Y-41822989D01*
X163750000Y-41874500D01*
X163750000Y-48500000D01*
X175626000Y-48500000D01*
X175693039Y-48519685D01*
X175738794Y-48572489D01*
X175750000Y-48624000D01*
X175750000Y-115876000D01*
X175730315Y-115943039D01*
X175677511Y-115988794D01*
X175626000Y-116000000D01*
X163750000Y-116000000D01*
X163750000Y-125376000D01*
X163730315Y-125443039D01*
X163677511Y-125488794D01*
X163626000Y-125500000D01*
X88124000Y-125500000D01*
X88056961Y-125480315D01*
X88011206Y-125427511D01*
X88000000Y-125376000D01*
X88000000Y-118500000D01*
X79874000Y-118500000D01*
X79806961Y-118480315D01*
X79761206Y-118427511D01*
X79750000Y-118376000D01*
X79750000Y-114202157D01*
X85750000Y-114202157D01*
X85750000Y-117297844D01*
X85756401Y-117357373D01*
X85765276Y-117381170D01*
X87350000Y-115796446D01*
X87350000Y-115802661D01*
X87377259Y-115904394D01*
X87429920Y-115995606D01*
X87504394Y-116070080D01*
X87595606Y-116122741D01*
X87697339Y-116150000D01*
X87703553Y-116150000D01*
X86118829Y-117734722D01*
X86142623Y-117743597D01*
X86142627Y-117743598D01*
X86202155Y-117749999D01*
X86202172Y-117750000D01*
X89297828Y-117750000D01*
X89297844Y-117749999D01*
X89357375Y-117743598D01*
X89381170Y-117734723D01*
X89381170Y-117734722D01*
X87796447Y-116150000D01*
X87802661Y-116150000D01*
X87904394Y-116122741D01*
X87995606Y-116070080D01*
X88070080Y-115995606D01*
X88122741Y-115904394D01*
X88150000Y-115802661D01*
X88150000Y-115796447D01*
X89734722Y-117381170D01*
X89734723Y-117381170D01*
X89743598Y-117357375D01*
X89749999Y-117297844D01*
X89750000Y-117297827D01*
X89750000Y-114202172D01*
X89749999Y-114202157D01*
X136250000Y-114202157D01*
X136250000Y-117297844D01*
X136256401Y-117357373D01*
X136265276Y-117381170D01*
X137850000Y-115796446D01*
X137850000Y-115802661D01*
X137877259Y-115904394D01*
X137929920Y-115995606D01*
X138004394Y-116070080D01*
X138095606Y-116122741D01*
X138197339Y-116150000D01*
X138203553Y-116150000D01*
X136618829Y-117734722D01*
X136642623Y-117743597D01*
X136642627Y-117743598D01*
X136702155Y-117749999D01*
X136702172Y-117750000D01*
X139797828Y-117750000D01*
X139797844Y-117749999D01*
X139857375Y-117743598D01*
X139881170Y-117734723D01*
X139881170Y-117734722D01*
X138296447Y-116150000D01*
X138302661Y-116150000D01*
X138404394Y-116122741D01*
X138495606Y-116070080D01*
X138570080Y-115995606D01*
X138622741Y-115904394D01*
X138650000Y-115802661D01*
X138650000Y-115796447D01*
X140234722Y-117381170D01*
X140234723Y-117381170D01*
X140243598Y-117357375D01*
X140249999Y-117297844D01*
X140250000Y-117297827D01*
X140250000Y-114202172D01*
X140249999Y-114202155D01*
X140243598Y-114142627D01*
X140243597Y-114142623D01*
X140234722Y-114118829D01*
X138650000Y-115703551D01*
X138650000Y-115697339D01*
X138622741Y-115595606D01*
X138570080Y-115504394D01*
X138495606Y-115429920D01*
X138404394Y-115377259D01*
X138302661Y-115350000D01*
X138296448Y-115350000D01*
X139881170Y-113765276D01*
X139857373Y-113756401D01*
X139797844Y-113750000D01*
X136702157Y-113750000D01*
X136642625Y-113756401D01*
X136642615Y-113756404D01*
X136618829Y-113765274D01*
X136618829Y-113765277D01*
X138203553Y-115350000D01*
X138197339Y-115350000D01*
X138095606Y-115377259D01*
X138004394Y-115429920D01*
X137929920Y-115504394D01*
X137877259Y-115595606D01*
X137850000Y-115697339D01*
X137850000Y-115703552D01*
X136265277Y-114118829D01*
X136265274Y-114118829D01*
X136256404Y-114142615D01*
X136256401Y-114142625D01*
X136250000Y-114202157D01*
X89749999Y-114202157D01*
X89749999Y-114202155D01*
X89743598Y-114142627D01*
X89743597Y-114142623D01*
X89734722Y-114118829D01*
X88150000Y-115703551D01*
X88150000Y-115697339D01*
X88122741Y-115595606D01*
X88070080Y-115504394D01*
X87995606Y-115429920D01*
X87904394Y-115377259D01*
X87802661Y-115350000D01*
X87796448Y-115350000D01*
X89381170Y-113765276D01*
X89357373Y-113756401D01*
X89297844Y-113750000D01*
X86202157Y-113750000D01*
X86142625Y-113756401D01*
X86142615Y-113756404D01*
X86118829Y-113765274D01*
X86118829Y-113765277D01*
X87703553Y-115350000D01*
X87697339Y-115350000D01*
X87595606Y-115377259D01*
X87504394Y-115429920D01*
X87429920Y-115504394D01*
X87377259Y-115595606D01*
X87350000Y-115697339D01*
X87350000Y-115703552D01*
X85765277Y-114118829D01*
X85765274Y-114118829D01*
X85756404Y-114142615D01*
X85756401Y-114142625D01*
X85750000Y-114202157D01*
X79750000Y-114202157D01*
X79750000Y-93693386D01*
X85549500Y-93693386D01*
X85549500Y-96806613D01*
X85555913Y-96877192D01*
X85555913Y-96877194D01*
X85555914Y-96877196D01*
X85606522Y-97039606D01*
X85668186Y-97141611D01*
X85694530Y-97185188D01*
X85814811Y-97305469D01*
X85814813Y-97305470D01*
X85814815Y-97305472D01*
X85960394Y-97393478D01*
X86122804Y-97444086D01*
X86193384Y-97450500D01*
X86193387Y-97450500D01*
X89306613Y-97450500D01*
X89306616Y-97450500D01*
X89377196Y-97444086D01*
X89539606Y-97393478D01*
X89685185Y-97305472D01*
X89805472Y-97185185D01*
X89893478Y-97039606D01*
X89944086Y-96877196D01*
X89950500Y-96806616D01*
X89950500Y-93693384D01*
X89944086Y-93622804D01*
X89893478Y-93460394D01*
X89805472Y-93314815D01*
X89805470Y-93314813D01*
X89805469Y-93314811D01*
X89685188Y-93194530D01*
X89539606Y-93106522D01*
X89377196Y-93055914D01*
X89377194Y-93055913D01*
X89377192Y-93055913D01*
X89327778Y-93051423D01*
X89306616Y-93049500D01*
X86193384Y-93049500D01*
X86174145Y-93051248D01*
X86122807Y-93055913D01*
X85960393Y-93106522D01*
X85814811Y-93194530D01*
X85694530Y-93314811D01*
X85606522Y-93460393D01*
X85555913Y-93622807D01*
X85549500Y-93693386D01*
X79750000Y-93693386D01*
X79750000Y-90326571D01*
X92360000Y-90326571D01*
X92387085Y-90497584D01*
X92440591Y-90662257D01*
X92519195Y-90816524D01*
X92620967Y-90956602D01*
X92743397Y-91079032D01*
X92883475Y-91180804D01*
X93037744Y-91259408D01*
X93202415Y-91312914D01*
X93202414Y-91312914D01*
X93209999Y-91314115D01*
X93710000Y-91314115D01*
X93717584Y-91312914D01*
X93882255Y-91259408D01*
X94036524Y-91180804D01*
X94176602Y-91079032D01*
X94299032Y-90956602D01*
X94400804Y-90816524D01*
X94479408Y-90662257D01*
X94532914Y-90497584D01*
X94560000Y-90326571D01*
X94560000Y-90290000D01*
X93710000Y-90290000D01*
X93710000Y-91314115D01*
X93209999Y-91314115D01*
X93210000Y-91314114D01*
X93210000Y-90290000D01*
X92360000Y-90290000D01*
X92360000Y-90326571D01*
X79750000Y-90326571D01*
X79750000Y-89993922D01*
X93110000Y-89993922D01*
X93110000Y-90086078D01*
X93133852Y-90175095D01*
X93179930Y-90254905D01*
X93245095Y-90320070D01*
X93324905Y-90366148D01*
X93413922Y-90390000D01*
X93506078Y-90390000D01*
X93595095Y-90366148D01*
X93674905Y-90320070D01*
X93740070Y-90254905D01*
X93786148Y-90175095D01*
X93810000Y-90086078D01*
X93810000Y-89993922D01*
X93786148Y-89904905D01*
X93740070Y-89825095D01*
X93704975Y-89790000D01*
X93710000Y-89790000D01*
X94560000Y-89790000D01*
X94560000Y-89753428D01*
X94532914Y-89582415D01*
X94479408Y-89417742D01*
X94400804Y-89263475D01*
X94299032Y-89123397D01*
X94176602Y-89000967D01*
X94036524Y-88899195D01*
X93882257Y-88820591D01*
X93717589Y-88767087D01*
X93717581Y-88767085D01*
X93710000Y-88765884D01*
X93710000Y-89790000D01*
X93704975Y-89790000D01*
X93674905Y-89759930D01*
X93595095Y-89713852D01*
X93506078Y-89690000D01*
X93413922Y-89690000D01*
X93324905Y-89713852D01*
X93245095Y-89759930D01*
X93179930Y-89825095D01*
X93133852Y-89904905D01*
X93110000Y-89993922D01*
X79750000Y-89993922D01*
X79750000Y-89753428D01*
X92360000Y-89753428D01*
X92360000Y-89790000D01*
X93210000Y-89790000D01*
X93210000Y-88765884D01*
X93209999Y-88765884D01*
X93202418Y-88767085D01*
X93202410Y-88767087D01*
X93037742Y-88820591D01*
X92883475Y-88899195D01*
X92743397Y-89000967D01*
X92620967Y-89123397D01*
X92519195Y-89263475D01*
X92440591Y-89417742D01*
X92387085Y-89582415D01*
X92360000Y-89753428D01*
X79750000Y-89753428D01*
X79750000Y-87397648D01*
X94699500Y-87397648D01*
X94699500Y-87602351D01*
X94731522Y-87804534D01*
X94794781Y-87999223D01*
X94887715Y-88181613D01*
X95008028Y-88347213D01*
X95152786Y-88491971D01*
X95307749Y-88604556D01*
X95318390Y-88612287D01*
X95385598Y-88646531D01*
X95500776Y-88705218D01*
X95500778Y-88705218D01*
X95500781Y-88705220D01*
X95576477Y-88729815D01*
X95695465Y-88768477D01*
X95789318Y-88783342D01*
X95897648Y-88800500D01*
X95897649Y-88800500D01*
X96102351Y-88800500D01*
X96102352Y-88800500D01*
X96304534Y-88768477D01*
X96499219Y-88705220D01*
X96681610Y-88612287D01*
X96774590Y-88544732D01*
X96847213Y-88491971D01*
X96847215Y-88491968D01*
X96847219Y-88491966D01*
X96991966Y-88347219D01*
X96991968Y-88347215D01*
X96991971Y-88347213D01*
X97044732Y-88274590D01*
X97112287Y-88181610D01*
X97205220Y-87999219D01*
X97268477Y-87804534D01*
X97300500Y-87602352D01*
X97300500Y-87397648D01*
X97298006Y-87381902D01*
X98169500Y-87381902D01*
X98169500Y-87618097D01*
X98206446Y-87851368D01*
X98279433Y-88075996D01*
X98386657Y-88286433D01*
X98525483Y-88477510D01*
X98692490Y-88644517D01*
X98883567Y-88783343D01*
X98982991Y-88834002D01*
X99094003Y-88890566D01*
X99094005Y-88890566D01*
X99094008Y-88890568D01*
X99157399Y-88911165D01*
X99318631Y-88963553D01*
X99551903Y-89000500D01*
X99551908Y-89000500D01*
X99788097Y-89000500D01*
X100021368Y-88963553D01*
X100059543Y-88951149D01*
X100245992Y-88890568D01*
X100456433Y-88783343D01*
X100647510Y-88644517D01*
X100814517Y-88477510D01*
X100953343Y-88286433D01*
X101060568Y-88075992D01*
X101133553Y-87851368D01*
X101140971Y-87804534D01*
X101170500Y-87618097D01*
X101170500Y-87381902D01*
X101133553Y-87148631D01*
X101085513Y-87000781D01*
X101060568Y-86924008D01*
X101060566Y-86924005D01*
X101060566Y-86924003D01*
X100953342Y-86713566D01*
X100814517Y-86522490D01*
X100647510Y-86355483D01*
X100456433Y-86216657D01*
X100437820Y-86207173D01*
X100245996Y-86109433D01*
X100021368Y-86036446D01*
X99788097Y-85999500D01*
X99788092Y-85999500D01*
X99551908Y-85999500D01*
X99551903Y-85999500D01*
X99318631Y-86036446D01*
X99094003Y-86109433D01*
X98883566Y-86216657D01*
X98823222Y-86260500D01*
X98692490Y-86355483D01*
X98692488Y-86355485D01*
X98692487Y-86355485D01*
X98525485Y-86522487D01*
X98525485Y-86522488D01*
X98525483Y-86522490D01*
X98470319Y-86598417D01*
X98386657Y-86713566D01*
X98279433Y-86924003D01*
X98206446Y-87148631D01*
X98169500Y-87381902D01*
X97298006Y-87381902D01*
X97268477Y-87195466D01*
X97267675Y-87192999D01*
X97205218Y-87000776D01*
X97166100Y-86924003D01*
X97112287Y-86818390D01*
X97093714Y-86792826D01*
X96991971Y-86652786D01*
X96847213Y-86508028D01*
X96681613Y-86387715D01*
X96681612Y-86387714D01*
X96681610Y-86387713D01*
X96618355Y-86355483D01*
X96499223Y-86294781D01*
X96304534Y-86231522D01*
X96129995Y-86203878D01*
X96102352Y-86199500D01*
X95897648Y-86199500D01*
X95873329Y-86203351D01*
X95695465Y-86231522D01*
X95500776Y-86294781D01*
X95318386Y-86387715D01*
X95152786Y-86508028D01*
X95008028Y-86652786D01*
X94887715Y-86818386D01*
X94794781Y-87000776D01*
X94731522Y-87195465D01*
X94699500Y-87397648D01*
X79750000Y-87397648D01*
X79750000Y-84857648D01*
X92159500Y-84857648D01*
X92159500Y-85062351D01*
X92191522Y-85264534D01*
X92254781Y-85459223D01*
X92347715Y-85641613D01*
X92468028Y-85807213D01*
X92612786Y-85951971D01*
X92729060Y-86036447D01*
X92778390Y-86072287D01*
X92894607Y-86131503D01*
X92960776Y-86165218D01*
X92960778Y-86165218D01*
X92960781Y-86165220D01*
X93065137Y-86199127D01*
X93155465Y-86228477D01*
X93174697Y-86231523D01*
X93357648Y-86260500D01*
X93357649Y-86260500D01*
X93562351Y-86260500D01*
X93562352Y-86260500D01*
X93764534Y-86228477D01*
X93959219Y-86165220D01*
X94141610Y-86072287D01*
X94241794Y-85999500D01*
X94307213Y-85951971D01*
X94307215Y-85951968D01*
X94307219Y-85951966D01*
X94451966Y-85807219D01*
X94451968Y-85807215D01*
X94451971Y-85807213D01*
X94540505Y-85685354D01*
X94572287Y-85641610D01*
X94665220Y-85459219D01*
X94728477Y-85264534D01*
X94760500Y-85062352D01*
X94760500Y-84857648D01*
X94754462Y-84819524D01*
X94729950Y-84664765D01*
X94728477Y-84655465D01*
X94727174Y-84651456D01*
X111999500Y-84651456D01*
X111999500Y-89348540D01*
X112003079Y-89366531D01*
X112003079Y-89366534D01*
X112037259Y-89538372D01*
X112037947Y-89541830D01*
X112037950Y-89541839D01*
X112113366Y-89723911D01*
X112113371Y-89723920D01*
X112222860Y-89887781D01*
X112222863Y-89887785D01*
X112366537Y-90031459D01*
X112366559Y-90031479D01*
X112719735Y-90384655D01*
X112719764Y-90384686D01*
X112862214Y-90527136D01*
X112862218Y-90527139D01*
X113026079Y-90636628D01*
X113026092Y-90636635D01*
X113154833Y-90689961D01*
X113208159Y-90712049D01*
X113208164Y-90712051D01*
X113275777Y-90725500D01*
X113307197Y-90731750D01*
X113401456Y-90750500D01*
X113401459Y-90750500D01*
X113401460Y-90750500D01*
X113598540Y-90750500D01*
X120299685Y-90750500D01*
X120355980Y-90764015D01*
X120394970Y-90783882D01*
X120394972Y-90783882D01*
X120394975Y-90783884D01*
X120495317Y-90816487D01*
X120582173Y-90844709D01*
X120776578Y-90875500D01*
X120776583Y-90875500D01*
X120973422Y-90875500D01*
X121167826Y-90844709D01*
X121355025Y-90783884D01*
X121530405Y-90694524D01*
X121689646Y-90578828D01*
X121828828Y-90439646D01*
X121944524Y-90280405D01*
X122033884Y-90105025D01*
X122094709Y-89917826D01*
X122125500Y-89723422D01*
X122125500Y-89526577D01*
X122094709Y-89332173D01*
X122056474Y-89214501D01*
X122033884Y-89144975D01*
X122033882Y-89144972D01*
X122033882Y-89144970D01*
X121961295Y-89002511D01*
X121944524Y-88969595D01*
X121828828Y-88810354D01*
X121689646Y-88671172D01*
X121530405Y-88555476D01*
X121355029Y-88466117D01*
X121167826Y-88405290D01*
X120973422Y-88374500D01*
X120973417Y-88374500D01*
X120776583Y-88374500D01*
X120776578Y-88374500D01*
X120582173Y-88405290D01*
X120394970Y-88466117D01*
X120219594Y-88555476D01*
X120141406Y-88612284D01*
X120060354Y-88671172D01*
X120060352Y-88671174D01*
X120060351Y-88671174D01*
X120018345Y-88713181D01*
X119957022Y-88746666D01*
X119930664Y-88749500D01*
X114124500Y-88749500D01*
X114057461Y-88729815D01*
X114011706Y-88677011D01*
X114000500Y-88625500D01*
X114000500Y-86401577D01*
X115249500Y-86401577D01*
X115249500Y-86598422D01*
X115280290Y-86792826D01*
X115341117Y-86980029D01*
X115417891Y-87130706D01*
X115430476Y-87155405D01*
X115546172Y-87314646D01*
X115685354Y-87453828D01*
X115844595Y-87569524D01*
X115909022Y-87602351D01*
X116019970Y-87658882D01*
X116019972Y-87658882D01*
X116019975Y-87658884D01*
X116120317Y-87691487D01*
X116207173Y-87719709D01*
X116401578Y-87750500D01*
X116401583Y-87750500D01*
X116598422Y-87750500D01*
X116792826Y-87719709D01*
X116980025Y-87658884D01*
X117155405Y-87569524D01*
X117183896Y-87548823D01*
X117217814Y-87524182D01*
X117283620Y-87500702D01*
X117290699Y-87500500D01*
X120348542Y-87500500D01*
X120379566Y-87494328D01*
X120445188Y-87481275D01*
X120541836Y-87462051D01*
X120595165Y-87439961D01*
X120723914Y-87386632D01*
X120887782Y-87277139D01*
X121027139Y-87137782D01*
X121027140Y-87137779D01*
X121034206Y-87130714D01*
X121034209Y-87130710D01*
X122137778Y-86027141D01*
X122137782Y-86027139D01*
X122277139Y-85887782D01*
X122386632Y-85723914D01*
X122462051Y-85541835D01*
X122500500Y-85348541D01*
X122500500Y-85040697D01*
X122520185Y-84973658D01*
X122524170Y-84967827D01*
X122569524Y-84905405D01*
X122658884Y-84730025D01*
X122719709Y-84542826D01*
X122722194Y-84527139D01*
X122750500Y-84348422D01*
X122750500Y-84151577D01*
X122719709Y-83957173D01*
X122684373Y-83848422D01*
X122658884Y-83769975D01*
X122658882Y-83769972D01*
X122658882Y-83769970D01*
X122611280Y-83676547D01*
X122569524Y-83594595D01*
X122453828Y-83435354D01*
X122314646Y-83296172D01*
X122155405Y-83180476D01*
X122131008Y-83168045D01*
X121980029Y-83091117D01*
X121792826Y-83030290D01*
X121598422Y-82999500D01*
X121598417Y-82999500D01*
X121401583Y-82999500D01*
X121401578Y-82999500D01*
X121207173Y-83030290D01*
X121019970Y-83091117D01*
X120844594Y-83180476D01*
X120753741Y-83246485D01*
X120685354Y-83296172D01*
X120685352Y-83296174D01*
X120685351Y-83296174D01*
X120546174Y-83435351D01*
X120546174Y-83435352D01*
X120546172Y-83435354D01*
X120530319Y-83457174D01*
X120430476Y-83594594D01*
X120341117Y-83769970D01*
X120280290Y-83957173D01*
X120249500Y-84151577D01*
X120249500Y-84348422D01*
X120280290Y-84542826D01*
X120341117Y-84730029D01*
X120375757Y-84798013D01*
X120386717Y-84819524D01*
X120389305Y-84824602D01*
X120402201Y-84893272D01*
X120375924Y-84958012D01*
X120366501Y-84968578D01*
X119871899Y-85463181D01*
X119810576Y-85496666D01*
X119784218Y-85499500D01*
X117290699Y-85499500D01*
X117223660Y-85479815D01*
X117217814Y-85475818D01*
X117155408Y-85430478D01*
X117155407Y-85430477D01*
X117155405Y-85430476D01*
X117100636Y-85402569D01*
X116980029Y-85341117D01*
X116792826Y-85280290D01*
X116598422Y-85249500D01*
X116598417Y-85249500D01*
X116401583Y-85249500D01*
X116401578Y-85249500D01*
X116207173Y-85280290D01*
X116019970Y-85341117D01*
X115844594Y-85430476D01*
X115782187Y-85475818D01*
X115685354Y-85546172D01*
X115685352Y-85546174D01*
X115685351Y-85546174D01*
X115546174Y-85685351D01*
X115546174Y-85685352D01*
X115546172Y-85685354D01*
X115518152Y-85723920D01*
X115430476Y-85844594D01*
X115341117Y-86019970D01*
X115280290Y-86207173D01*
X115249500Y-86401577D01*
X114000500Y-86401577D01*
X114000500Y-85215782D01*
X114020185Y-85148743D01*
X114036819Y-85128101D01*
X114378102Y-84786819D01*
X114439425Y-84753334D01*
X114465783Y-84750500D01*
X116209301Y-84750500D01*
X116276340Y-84770185D01*
X116282186Y-84774182D01*
X116339121Y-84815547D01*
X116344595Y-84819524D01*
X116435602Y-84865894D01*
X116519970Y-84908882D01*
X116519972Y-84908882D01*
X116519975Y-84908884D01*
X116605950Y-84936819D01*
X116707173Y-84969709D01*
X116901578Y-85000500D01*
X116901583Y-85000500D01*
X117098422Y-85000500D01*
X117292826Y-84969709D01*
X117328825Y-84958012D01*
X117480025Y-84908884D01*
X117655405Y-84819524D01*
X117814646Y-84703828D01*
X117953828Y-84564646D01*
X118069524Y-84405405D01*
X118158884Y-84230025D01*
X118219709Y-84042826D01*
X118230790Y-83972862D01*
X118250500Y-83848422D01*
X118250500Y-83651577D01*
X118219709Y-83457173D01*
X118168814Y-83300536D01*
X118158884Y-83269975D01*
X118158882Y-83269972D01*
X118158882Y-83269970D01*
X118103516Y-83161308D01*
X118069524Y-83094595D01*
X117953828Y-82935354D01*
X117814646Y-82796172D01*
X117655405Y-82680476D01*
X117480029Y-82591117D01*
X117292826Y-82530290D01*
X117098422Y-82499500D01*
X117098417Y-82499500D01*
X116901583Y-82499500D01*
X116901578Y-82499500D01*
X116707173Y-82530290D01*
X116519970Y-82591117D01*
X116344591Y-82680478D01*
X116282186Y-82725818D01*
X116216380Y-82749298D01*
X116209301Y-82749500D01*
X114104675Y-82749500D01*
X114104655Y-82749499D01*
X114098541Y-82749499D01*
X113901460Y-82749499D01*
X113901457Y-82749499D01*
X113708172Y-82787946D01*
X113708164Y-82787948D01*
X113526088Y-82863366D01*
X113526079Y-82863371D01*
X113362219Y-82972859D01*
X113362215Y-82972862D01*
X112597745Y-83737334D01*
X112362220Y-83972859D01*
X112362218Y-83972861D01*
X112292538Y-84042540D01*
X112222859Y-84112219D01*
X112113371Y-84276080D01*
X112113364Y-84276093D01*
X112069352Y-84382348D01*
X112069348Y-84382361D01*
X112067103Y-84387781D01*
X112037949Y-84458164D01*
X112024229Y-84527139D01*
X112023000Y-84533313D01*
X112023000Y-84533316D01*
X111999500Y-84651456D01*
X94727174Y-84651456D01*
X94665218Y-84460776D01*
X94607970Y-84348422D01*
X94572287Y-84278390D01*
X94537148Y-84230025D01*
X94451971Y-84112786D01*
X94307213Y-83968028D01*
X94141613Y-83847715D01*
X94141612Y-83847714D01*
X94141610Y-83847713D01*
X94084653Y-83818691D01*
X93959223Y-83754781D01*
X93764534Y-83691522D01*
X93589995Y-83663878D01*
X93562352Y-83659500D01*
X93357648Y-83659500D01*
X93333329Y-83663351D01*
X93155465Y-83691522D01*
X92960776Y-83754781D01*
X92778386Y-83847715D01*
X92612786Y-83968028D01*
X92468028Y-84112786D01*
X92347715Y-84278386D01*
X92254781Y-84460776D01*
X92191522Y-84655465D01*
X92159500Y-84857648D01*
X79750000Y-84857648D01*
X79750000Y-79231995D01*
X91699500Y-79231995D01*
X91699500Y-79468004D01*
X91699501Y-79468020D01*
X91730306Y-79702010D01*
X91791394Y-79929993D01*
X91881714Y-80148045D01*
X91881719Y-80148056D01*
X91952677Y-80270957D01*
X91999727Y-80352450D01*
X91999729Y-80352453D01*
X91999730Y-80352454D01*
X92143406Y-80539697D01*
X92143412Y-80539704D01*
X92310295Y-80706587D01*
X92310302Y-80706593D01*
X92420306Y-80791001D01*
X92497550Y-80850273D01*
X92628918Y-80926118D01*
X92701943Y-80968280D01*
X92701948Y-80968282D01*
X92701951Y-80968284D01*
X92920007Y-81058606D01*
X93147986Y-81119693D01*
X93381989Y-81150500D01*
X93381996Y-81150500D01*
X93618004Y-81150500D01*
X93618011Y-81150500D01*
X93852014Y-81119693D01*
X94079993Y-81058606D01*
X94298049Y-80968284D01*
X94466804Y-80870853D01*
X107029500Y-80870853D01*
X107029500Y-81129146D01*
X107029501Y-81129162D01*
X107063215Y-81385248D01*
X107130071Y-81634758D01*
X107228918Y-81873396D01*
X107228923Y-81873407D01*
X107358069Y-82097092D01*
X107358080Y-82097108D01*
X107515319Y-82302027D01*
X107515325Y-82302034D01*
X107697965Y-82484674D01*
X107697972Y-82484680D01*
X107757414Y-82530291D01*
X107902900Y-82641926D01*
X107902907Y-82641930D01*
X108126592Y-82771076D01*
X108126597Y-82771078D01*
X108126600Y-82771080D01*
X108187178Y-82796172D01*
X108365241Y-82869928D01*
X108365242Y-82869928D01*
X108365244Y-82869929D01*
X108614750Y-82936784D01*
X108870847Y-82970500D01*
X108870854Y-82970500D01*
X109129146Y-82970500D01*
X109129153Y-82970500D01*
X109385250Y-82936784D01*
X109634756Y-82869929D01*
X109873400Y-82771080D01*
X110097100Y-82641926D01*
X110302029Y-82484679D01*
X110484679Y-82302029D01*
X110641926Y-82097100D01*
X110771080Y-81873400D01*
X110869929Y-81634756D01*
X110936784Y-81385250D01*
X110970500Y-81129153D01*
X110970500Y-80870847D01*
X110936784Y-80614750D01*
X110869929Y-80365244D01*
X110771080Y-80126600D01*
X110771078Y-80126597D01*
X110771076Y-80126592D01*
X110641930Y-79902907D01*
X110641926Y-79902900D01*
X110596646Y-79843889D01*
X110484680Y-79697972D01*
X110484674Y-79697965D01*
X110302034Y-79515325D01*
X110302027Y-79515319D01*
X110097108Y-79358080D01*
X110097106Y-79358078D01*
X110097100Y-79358074D01*
X110097095Y-79358071D01*
X110097092Y-79358069D01*
X109873407Y-79228923D01*
X109873396Y-79228918D01*
X109634758Y-79130071D01*
X109385248Y-79063215D01*
X109129162Y-79029501D01*
X109129159Y-79029500D01*
X109129153Y-79029500D01*
X108870847Y-79029500D01*
X108870841Y-79029500D01*
X108870837Y-79029501D01*
X108614751Y-79063215D01*
X108365241Y-79130071D01*
X108126603Y-79228918D01*
X108126592Y-79228923D01*
X107902907Y-79358069D01*
X107902891Y-79358080D01*
X107697972Y-79515319D01*
X107697965Y-79515325D01*
X107515325Y-79697965D01*
X107515319Y-79697972D01*
X107358080Y-79902891D01*
X107358069Y-79902907D01*
X107228923Y-80126592D01*
X107228918Y-80126603D01*
X107130071Y-80365241D01*
X107063215Y-80614751D01*
X107029501Y-80870837D01*
X107029500Y-80870853D01*
X94466804Y-80870853D01*
X94502450Y-80850273D01*
X94577513Y-80792674D01*
X94609134Y-80768412D01*
X94643218Y-80742258D01*
X94689699Y-80706592D01*
X94856592Y-80539699D01*
X95000273Y-80352450D01*
X95118284Y-80148049D01*
X95208606Y-79929993D01*
X95269693Y-79702014D01*
X95300500Y-79468011D01*
X95300500Y-79231989D01*
X95269693Y-78997986D01*
X95208606Y-78770007D01*
X95118284Y-78551951D01*
X95118282Y-78551948D01*
X95118280Y-78551943D01*
X95076118Y-78478918D01*
X95000273Y-78347550D01*
X94856592Y-78160301D01*
X94856587Y-78160295D01*
X94689704Y-77993412D01*
X94689697Y-77993406D01*
X94502454Y-77849730D01*
X94502453Y-77849729D01*
X94502450Y-77849727D01*
X94420957Y-77802677D01*
X94298056Y-77731719D01*
X94298045Y-77731714D01*
X94079993Y-77641394D01*
X93852010Y-77580306D01*
X93618020Y-77549501D01*
X93618017Y-77549500D01*
X93618011Y-77549500D01*
X93381989Y-77549500D01*
X93381983Y-77549500D01*
X93381979Y-77549501D01*
X93147989Y-77580306D01*
X92920006Y-77641394D01*
X92701954Y-77731714D01*
X92701943Y-77731719D01*
X92497545Y-77849730D01*
X92310302Y-77993406D01*
X92310295Y-77993412D01*
X92143412Y-78160295D01*
X92143406Y-78160302D01*
X91999730Y-78347545D01*
X91881719Y-78551943D01*
X91881714Y-78551954D01*
X91791394Y-78770006D01*
X91730306Y-78997989D01*
X91699501Y-79231979D01*
X91699500Y-79231995D01*
X79750000Y-79231995D01*
X79750000Y-65744862D01*
X91699500Y-65744862D01*
X91699500Y-67555130D01*
X91699501Y-67555138D01*
X91709582Y-67668548D01*
X91709582Y-67668550D01*
X91709583Y-67668553D01*
X91762763Y-67854407D01*
X91852266Y-68025751D01*
X91974428Y-68175572D01*
X92124249Y-68297734D01*
X92295593Y-68387237D01*
X92481447Y-68440417D01*
X92594861Y-68450500D01*
X94405138Y-68450499D01*
X94518553Y-68440417D01*
X94704407Y-68387237D01*
X94875751Y-68297734D01*
X95025572Y-68175572D01*
X95147734Y-68025751D01*
X95237237Y-67854407D01*
X95290417Y-67668553D01*
X95300500Y-67555139D01*
X95300499Y-65744862D01*
X95290417Y-65631447D01*
X95237237Y-65445593D01*
X95147734Y-65274249D01*
X95025572Y-65124428D01*
X94875751Y-65002266D01*
X94704407Y-64912763D01*
X94518553Y-64859583D01*
X94518552Y-64859582D01*
X94518549Y-64859582D01*
X94451433Y-64853615D01*
X94405139Y-64849500D01*
X94405134Y-64849500D01*
X92594869Y-64849500D01*
X92594861Y-64849501D01*
X92481451Y-64859582D01*
X92481447Y-64859582D01*
X92481447Y-64859583D01*
X92434504Y-64873015D01*
X92295595Y-64912762D01*
X92295593Y-64912762D01*
X92295593Y-64912763D01*
X92124249Y-65002266D01*
X92124247Y-65002267D01*
X92124246Y-65002268D01*
X91974428Y-65124428D01*
X91901303Y-65214110D01*
X91852266Y-65274249D01*
X91762763Y-65445593D01*
X91762762Y-65445595D01*
X91709582Y-65631450D01*
X91701753Y-65719521D01*
X91699935Y-65739974D01*
X91699500Y-65744862D01*
X79750000Y-65744862D01*
X79750000Y-59005837D01*
X89599500Y-59005837D01*
X89599500Y-59234162D01*
X89635215Y-59459660D01*
X89705770Y-59676803D01*
X89809421Y-59880228D01*
X89943622Y-60064938D01*
X90013181Y-60134497D01*
X90046666Y-60195820D01*
X90049500Y-60222178D01*
X90049500Y-63048541D01*
X90057487Y-63088691D01*
X90057487Y-63088694D01*
X90087946Y-63241828D01*
X90087949Y-63241836D01*
X90096577Y-63262666D01*
X90163366Y-63423911D01*
X90163371Y-63423920D01*
X90272860Y-63587781D01*
X90272863Y-63587785D01*
X90416537Y-63731459D01*
X90416559Y-63731479D01*
X90569735Y-63884655D01*
X90569764Y-63884686D01*
X90712214Y-64027136D01*
X90712218Y-64027139D01*
X90876079Y-64136628D01*
X90876086Y-64136632D01*
X90984485Y-64181532D01*
X91058164Y-64212051D01*
X91154812Y-64231275D01*
X91235537Y-64247332D01*
X91251458Y-64250500D01*
X91251459Y-64250500D01*
X91251460Y-64250500D01*
X91448540Y-64250500D01*
X96034218Y-64250500D01*
X96101257Y-64270185D01*
X96121899Y-64286819D01*
X96713181Y-64878101D01*
X96746666Y-64939424D01*
X96749500Y-64965782D01*
X96749500Y-70098541D01*
X96749500Y-70098543D01*
X96749499Y-70098543D01*
X96787947Y-70291829D01*
X96787950Y-70291839D01*
X96863364Y-70473907D01*
X96863371Y-70473920D01*
X96972860Y-70637781D01*
X96972863Y-70637785D01*
X97116537Y-70781459D01*
X97116559Y-70781479D01*
X98969735Y-72634655D01*
X98969764Y-72634686D01*
X99112214Y-72777136D01*
X99112218Y-72777139D01*
X99276079Y-72886628D01*
X99276092Y-72886635D01*
X99404833Y-72939961D01*
X99447744Y-72957735D01*
X99458164Y-72962051D01*
X99554812Y-72981275D01*
X99603135Y-72990887D01*
X99651458Y-73000500D01*
X99651459Y-73000500D01*
X169098542Y-73000500D01*
X169129566Y-72994328D01*
X169195188Y-72981275D01*
X169291836Y-72962051D01*
X169345165Y-72939961D01*
X169473914Y-72886632D01*
X169637782Y-72777139D01*
X169777139Y-72637782D01*
X169777139Y-72637780D01*
X169787347Y-72627573D01*
X169787348Y-72627570D01*
X172637821Y-69777098D01*
X172699142Y-69743615D01*
X172768834Y-69748599D01*
X172824767Y-69790471D01*
X172849184Y-69855935D01*
X172849500Y-69864781D01*
X172849500Y-82825638D01*
X172840855Y-82855078D01*
X172834332Y-82885065D01*
X172830577Y-82890080D01*
X172829815Y-82892677D01*
X172813181Y-82913319D01*
X172663319Y-83063181D01*
X172601996Y-83096666D01*
X172575638Y-83099500D01*
X160911303Y-83099500D01*
X160737341Y-83134103D01*
X160737329Y-83134106D01*
X160655392Y-83168045D01*
X160655393Y-83168046D01*
X160573455Y-83201985D01*
X160425965Y-83300535D01*
X160425964Y-83300537D01*
X157480538Y-86245961D01*
X157480537Y-86245962D01*
X157450337Y-86291160D01*
X157450332Y-86291167D01*
X157447919Y-86294780D01*
X157381987Y-86393453D01*
X157358772Y-86449500D01*
X157355774Y-86456736D01*
X157355772Y-86456741D01*
X157328538Y-86522490D01*
X157314105Y-86557334D01*
X157283029Y-86713567D01*
X157283029Y-86713569D01*
X157279500Y-86731308D01*
X157279500Y-88866178D01*
X157259815Y-88933217D01*
X157228386Y-88966495D01*
X157181324Y-89000688D01*
X157181315Y-89000695D01*
X157010695Y-89171315D01*
X156865997Y-89370475D01*
X156864225Y-89369187D01*
X156819090Y-89409928D01*
X156755576Y-89421819D01*
X156742741Y-89420809D01*
X156167870Y-89995681D01*
X156157178Y-89955778D01*
X156084110Y-89829222D01*
X155980778Y-89725890D01*
X155854222Y-89652822D01*
X155814315Y-89642129D01*
X156389188Y-89067257D01*
X156338378Y-89030342D01*
X156151506Y-88935125D01*
X155952028Y-88870310D01*
X155744869Y-88837500D01*
X155535131Y-88837500D01*
X155327971Y-88870310D01*
X155128493Y-88935125D01*
X154941611Y-89030347D01*
X154890810Y-89067256D01*
X154890810Y-89067257D01*
X155465682Y-89642129D01*
X155425778Y-89652822D01*
X155299222Y-89725890D01*
X155195890Y-89829222D01*
X155122822Y-89955778D01*
X155112129Y-89995682D01*
X154537257Y-89420810D01*
X154524425Y-89421820D01*
X154514245Y-89419681D01*
X154504054Y-89421744D01*
X154480642Y-89412622D01*
X154456048Y-89407456D01*
X154446913Y-89399481D01*
X154438951Y-89396379D01*
X154423007Y-89378611D01*
X154414360Y-89371062D01*
X154411298Y-89366845D01*
X154411139Y-89366533D01*
X154269307Y-89171318D01*
X154098682Y-89000693D01*
X153903467Y-88858861D01*
X153861544Y-88837500D01*
X153688468Y-88749312D01*
X153688465Y-88749311D01*
X153458979Y-88674748D01*
X153280825Y-88646531D01*
X153220650Y-88637000D01*
X152979350Y-88637000D01*
X152919175Y-88646531D01*
X152741020Y-88674748D01*
X152511534Y-88749311D01*
X152511531Y-88749312D01*
X152296532Y-88858861D01*
X152101315Y-89000695D01*
X151930695Y-89171315D01*
X151930688Y-89171324D01*
X151930317Y-89171835D01*
X151930126Y-89171982D01*
X151927529Y-89175023D01*
X151926890Y-89174477D01*
X151874987Y-89214501D01*
X151805373Y-89220479D01*
X151743579Y-89187872D01*
X151729683Y-89171835D01*
X151729311Y-89171324D01*
X151729309Y-89171321D01*
X151729307Y-89171318D01*
X151558682Y-89000693D01*
X151363467Y-88858861D01*
X151321544Y-88837500D01*
X151148468Y-88749312D01*
X151148465Y-88749311D01*
X150918979Y-88674748D01*
X150740825Y-88646531D01*
X150680650Y-88637000D01*
X150439350Y-88637000D01*
X150379175Y-88646531D01*
X150201020Y-88674748D01*
X149971534Y-88749311D01*
X149971531Y-88749312D01*
X149756532Y-88858861D01*
X149561315Y-89000695D01*
X149390695Y-89171315D01*
X149390688Y-89171324D01*
X149390317Y-89171835D01*
X149390126Y-89171982D01*
X149387529Y-89175023D01*
X149386890Y-89174477D01*
X149334987Y-89214501D01*
X149265373Y-89220479D01*
X149203579Y-89187872D01*
X149189683Y-89171835D01*
X149189311Y-89171324D01*
X149189309Y-89171321D01*
X149189307Y-89171318D01*
X149018682Y-89000693D01*
X148823467Y-88858861D01*
X148781544Y-88837500D01*
X148608468Y-88749312D01*
X148608465Y-88749311D01*
X148378979Y-88674748D01*
X148200825Y-88646531D01*
X148140650Y-88637000D01*
X147899350Y-88637000D01*
X147839175Y-88646531D01*
X147661020Y-88674748D01*
X147431534Y-88749311D01*
X147431531Y-88749312D01*
X147216532Y-88858861D01*
X147021315Y-89000695D01*
X146850695Y-89171315D01*
X146850688Y-89171324D01*
X146850317Y-89171835D01*
X146850126Y-89171982D01*
X146847529Y-89175023D01*
X146846890Y-89174477D01*
X146794987Y-89214501D01*
X146725373Y-89220479D01*
X146663579Y-89187872D01*
X146649683Y-89171835D01*
X146649311Y-89171324D01*
X146649309Y-89171321D01*
X146649307Y-89171318D01*
X146478682Y-89000693D01*
X146283467Y-88858861D01*
X146241544Y-88837500D01*
X146068468Y-88749312D01*
X146068465Y-88749311D01*
X145838979Y-88674748D01*
X145660825Y-88646531D01*
X145600650Y-88637000D01*
X145359350Y-88637000D01*
X145299175Y-88646531D01*
X145121020Y-88674748D01*
X144891534Y-88749311D01*
X144891531Y-88749312D01*
X144676532Y-88858861D01*
X144481315Y-89000695D01*
X144310695Y-89171315D01*
X144310688Y-89171324D01*
X144310317Y-89171835D01*
X144310126Y-89171982D01*
X144307529Y-89175023D01*
X144306890Y-89174477D01*
X144254987Y-89214501D01*
X144185373Y-89220479D01*
X144123579Y-89187872D01*
X144109683Y-89171835D01*
X144109311Y-89171324D01*
X144109309Y-89171321D01*
X144109307Y-89171318D01*
X143938682Y-89000693D01*
X143743467Y-88858861D01*
X143701544Y-88837500D01*
X143528468Y-88749312D01*
X143528465Y-88749311D01*
X143298979Y-88674748D01*
X143120825Y-88646531D01*
X143060650Y-88637000D01*
X142819350Y-88637000D01*
X142759175Y-88646531D01*
X142581020Y-88674748D01*
X142351534Y-88749311D01*
X142351531Y-88749312D01*
X142136532Y-88858861D01*
X141941315Y-89000695D01*
X141770695Y-89171315D01*
X141770688Y-89171324D01*
X141770317Y-89171835D01*
X141770126Y-89171982D01*
X141767529Y-89175023D01*
X141766890Y-89174477D01*
X141714987Y-89214501D01*
X141645373Y-89220479D01*
X141583579Y-89187872D01*
X141569683Y-89171835D01*
X141569311Y-89171324D01*
X141569309Y-89171321D01*
X141569307Y-89171318D01*
X141398682Y-89000693D01*
X141203467Y-88858861D01*
X141161544Y-88837500D01*
X140988468Y-88749312D01*
X140988465Y-88749311D01*
X140758979Y-88674748D01*
X140580825Y-88646531D01*
X140520650Y-88637000D01*
X140279350Y-88637000D01*
X140219175Y-88646531D01*
X140041020Y-88674748D01*
X139811534Y-88749311D01*
X139811531Y-88749312D01*
X139596532Y-88858861D01*
X139401315Y-89000695D01*
X139230695Y-89171315D01*
X139230688Y-89171324D01*
X139230317Y-89171835D01*
X139230126Y-89171982D01*
X139227529Y-89175023D01*
X139226890Y-89174477D01*
X139174987Y-89214501D01*
X139105373Y-89220479D01*
X139043579Y-89187872D01*
X139029683Y-89171835D01*
X139029311Y-89171324D01*
X139029309Y-89171321D01*
X139029307Y-89171318D01*
X138858682Y-89000693D01*
X138663467Y-88858861D01*
X138621544Y-88837500D01*
X138448468Y-88749312D01*
X138448465Y-88749311D01*
X138218979Y-88674748D01*
X138040825Y-88646531D01*
X137980650Y-88637000D01*
X137739350Y-88637000D01*
X137679175Y-88646531D01*
X137501020Y-88674748D01*
X137271534Y-88749311D01*
X137271531Y-88749312D01*
X137056532Y-88858861D01*
X136861315Y-89000695D01*
X136690695Y-89171315D01*
X136690688Y-89171324D01*
X136690317Y-89171835D01*
X136690126Y-89171982D01*
X136687529Y-89175023D01*
X136686890Y-89174477D01*
X136634987Y-89214501D01*
X136565373Y-89220479D01*
X136503579Y-89187872D01*
X136489683Y-89171835D01*
X136489311Y-89171324D01*
X136489309Y-89171321D01*
X136489307Y-89171318D01*
X136318682Y-89000693D01*
X136123467Y-88858861D01*
X136081544Y-88837500D01*
X135908468Y-88749312D01*
X135908465Y-88749311D01*
X135678979Y-88674748D01*
X135500825Y-88646531D01*
X135440650Y-88637000D01*
X135199350Y-88637000D01*
X135139175Y-88646531D01*
X134961020Y-88674748D01*
X134731534Y-88749311D01*
X134731531Y-88749312D01*
X134516532Y-88858861D01*
X134321315Y-89000695D01*
X134150695Y-89171315D01*
X134150688Y-89171324D01*
X134150317Y-89171835D01*
X134150126Y-89171982D01*
X134147529Y-89175023D01*
X134146890Y-89174477D01*
X134094987Y-89214501D01*
X134025373Y-89220479D01*
X133963579Y-89187872D01*
X133949683Y-89171835D01*
X133949311Y-89171324D01*
X133949309Y-89171321D01*
X133949307Y-89171318D01*
X133778682Y-89000693D01*
X133583467Y-88858861D01*
X133541544Y-88837500D01*
X133368468Y-88749312D01*
X133368465Y-88749311D01*
X133138979Y-88674748D01*
X132960825Y-88646531D01*
X132900650Y-88637000D01*
X132659350Y-88637000D01*
X132599175Y-88646531D01*
X132421020Y-88674748D01*
X132191534Y-88749311D01*
X132191531Y-88749312D01*
X131976532Y-88858861D01*
X131781315Y-89000695D01*
X131610695Y-89171315D01*
X131610688Y-89171324D01*
X131610317Y-89171835D01*
X131610126Y-89171982D01*
X131607529Y-89175023D01*
X131606890Y-89174477D01*
X131554987Y-89214501D01*
X131485373Y-89220479D01*
X131423579Y-89187872D01*
X131409683Y-89171835D01*
X131409311Y-89171324D01*
X131409309Y-89171321D01*
X131409307Y-89171318D01*
X131238682Y-89000693D01*
X131043467Y-88858861D01*
X131001544Y-88837500D01*
X130828468Y-88749312D01*
X130828465Y-88749311D01*
X130598979Y-88674748D01*
X130420825Y-88646531D01*
X130360650Y-88637000D01*
X130119350Y-88637000D01*
X130059175Y-88646531D01*
X129881020Y-88674748D01*
X129651534Y-88749311D01*
X129651531Y-88749312D01*
X129436532Y-88858861D01*
X129241315Y-89000695D01*
X129070695Y-89171315D01*
X129070688Y-89171324D01*
X129070317Y-89171835D01*
X129070126Y-89171982D01*
X129067529Y-89175023D01*
X129066890Y-89174477D01*
X129014987Y-89214501D01*
X128945373Y-89220479D01*
X128883579Y-89187872D01*
X128869683Y-89171835D01*
X128869311Y-89171324D01*
X128869309Y-89171321D01*
X128869307Y-89171318D01*
X128698682Y-89000693D01*
X128503467Y-88858861D01*
X128461544Y-88837500D01*
X128288468Y-88749312D01*
X128288465Y-88749311D01*
X128058979Y-88674748D01*
X127880825Y-88646531D01*
X127820650Y-88637000D01*
X127579350Y-88637000D01*
X127519175Y-88646531D01*
X127341020Y-88674748D01*
X127111534Y-88749311D01*
X127111531Y-88749312D01*
X126896532Y-88858861D01*
X126701315Y-89000695D01*
X126530695Y-89171315D01*
X126530688Y-89171324D01*
X126530317Y-89171835D01*
X126530126Y-89171982D01*
X126527529Y-89175023D01*
X126526890Y-89174477D01*
X126474987Y-89214501D01*
X126405373Y-89220479D01*
X126343579Y-89187872D01*
X126329683Y-89171835D01*
X126329311Y-89171324D01*
X126329309Y-89171321D01*
X126329307Y-89171318D01*
X126158682Y-89000693D01*
X125963467Y-88858861D01*
X125921544Y-88837500D01*
X125748468Y-88749312D01*
X125748465Y-88749311D01*
X125518979Y-88674748D01*
X125340825Y-88646531D01*
X125280650Y-88637000D01*
X125039350Y-88637000D01*
X124979175Y-88646531D01*
X124801020Y-88674748D01*
X124571534Y-88749311D01*
X124571531Y-88749312D01*
X124356532Y-88858861D01*
X124161315Y-89000695D01*
X123990695Y-89171315D01*
X123848862Y-89366531D01*
X123739312Y-89581531D01*
X123739311Y-89581534D01*
X123664748Y-89811020D01*
X123635779Y-89993922D01*
X123627000Y-90049350D01*
X123627000Y-90290650D01*
X123638652Y-90364217D01*
X123664748Y-90528979D01*
X123739311Y-90758465D01*
X123739312Y-90758468D01*
X123840268Y-90956602D01*
X123848861Y-90973467D01*
X123990693Y-91168682D01*
X124161318Y-91339307D01*
X124356533Y-91481139D01*
X124417054Y-91511976D01*
X124571531Y-91590687D01*
X124571534Y-91590688D01*
X124686277Y-91627969D01*
X124801022Y-91665252D01*
X125039350Y-91703000D01*
X125039351Y-91703000D01*
X125280649Y-91703000D01*
X125280650Y-91703000D01*
X125518978Y-91665252D01*
X125748468Y-91590687D01*
X125963467Y-91481139D01*
X126158682Y-91339307D01*
X126329307Y-91168682D01*
X126329340Y-91168635D01*
X126329680Y-91168170D01*
X126329869Y-91168023D01*
X126332479Y-91164969D01*
X126333120Y-91165516D01*
X126385008Y-91125502D01*
X126454622Y-91119521D01*
X126516418Y-91152125D01*
X126530320Y-91168170D01*
X126530687Y-91168675D01*
X126530691Y-91168680D01*
X126530692Y-91168681D01*
X126530693Y-91168682D01*
X126701318Y-91339307D01*
X126896533Y-91481139D01*
X126957054Y-91511976D01*
X127111531Y-91590687D01*
X127111534Y-91590688D01*
X127226277Y-91627969D01*
X127341022Y-91665252D01*
X127579350Y-91703000D01*
X127579351Y-91703000D01*
X127820649Y-91703000D01*
X127820650Y-91703000D01*
X128058978Y-91665252D01*
X128288468Y-91590687D01*
X128503467Y-91481139D01*
X128698682Y-91339307D01*
X128869307Y-91168682D01*
X128869340Y-91168635D01*
X128869680Y-91168170D01*
X128869869Y-91168023D01*
X128872479Y-91164969D01*
X128873120Y-91165516D01*
X128925008Y-91125502D01*
X128994622Y-91119521D01*
X129056418Y-91152125D01*
X129070320Y-91168170D01*
X129070687Y-91168675D01*
X129070691Y-91168680D01*
X129070692Y-91168681D01*
X129070693Y-91168682D01*
X129241318Y-91339307D01*
X129436533Y-91481139D01*
X129497054Y-91511976D01*
X129651531Y-91590687D01*
X129651534Y-91590688D01*
X129766277Y-91627969D01*
X129881022Y-91665252D01*
X130119350Y-91703000D01*
X130119351Y-91703000D01*
X130360649Y-91703000D01*
X130360650Y-91703000D01*
X130598978Y-91665252D01*
X130828468Y-91590687D01*
X131043467Y-91481139D01*
X131238682Y-91339307D01*
X131409307Y-91168682D01*
X131409340Y-91168635D01*
X131409680Y-91168170D01*
X131409869Y-91168023D01*
X131412479Y-91164969D01*
X131413120Y-91165516D01*
X131465008Y-91125502D01*
X131534622Y-91119521D01*
X131596418Y-91152125D01*
X131610320Y-91168170D01*
X131610687Y-91168675D01*
X131610691Y-91168680D01*
X131610692Y-91168681D01*
X131610693Y-91168682D01*
X131781318Y-91339307D01*
X131976533Y-91481139D01*
X132037054Y-91511976D01*
X132191531Y-91590687D01*
X132191534Y-91590688D01*
X132306277Y-91627969D01*
X132421022Y-91665252D01*
X132659350Y-91703000D01*
X132659351Y-91703000D01*
X132900649Y-91703000D01*
X132900650Y-91703000D01*
X133138978Y-91665252D01*
X133368468Y-91590687D01*
X133583467Y-91481139D01*
X133778682Y-91339307D01*
X133949307Y-91168682D01*
X133949340Y-91168635D01*
X133949680Y-91168170D01*
X133949869Y-91168023D01*
X133952479Y-91164969D01*
X133953120Y-91165516D01*
X134005008Y-91125502D01*
X134074622Y-91119521D01*
X134136418Y-91152125D01*
X134150320Y-91168170D01*
X134150687Y-91168675D01*
X134150691Y-91168680D01*
X134150692Y-91168681D01*
X134150693Y-91168682D01*
X134321318Y-91339307D01*
X134516533Y-91481139D01*
X134577054Y-91511976D01*
X134731531Y-91590687D01*
X134731534Y-91590688D01*
X134846277Y-91627969D01*
X134961022Y-91665252D01*
X135199350Y-91703000D01*
X135199351Y-91703000D01*
X135440649Y-91703000D01*
X135440650Y-91703000D01*
X135678978Y-91665252D01*
X135908468Y-91590687D01*
X136123467Y-91481139D01*
X136318682Y-91339307D01*
X136489307Y-91168682D01*
X136489340Y-91168635D01*
X136489680Y-91168170D01*
X136489869Y-91168023D01*
X136492479Y-91164969D01*
X136493120Y-91165516D01*
X136545008Y-91125502D01*
X136614622Y-91119521D01*
X136676418Y-91152125D01*
X136690320Y-91168170D01*
X136690687Y-91168675D01*
X136690691Y-91168680D01*
X136690692Y-91168681D01*
X136690693Y-91168682D01*
X136861318Y-91339307D01*
X137056533Y-91481139D01*
X137117054Y-91511976D01*
X137271531Y-91590687D01*
X137271534Y-91590688D01*
X137386277Y-91627969D01*
X137501022Y-91665252D01*
X137739350Y-91703000D01*
X137739351Y-91703000D01*
X137980649Y-91703000D01*
X137980650Y-91703000D01*
X138218978Y-91665252D01*
X138448468Y-91590687D01*
X138663467Y-91481139D01*
X138858682Y-91339307D01*
X139029307Y-91168682D01*
X139029340Y-91168635D01*
X139029680Y-91168170D01*
X139029869Y-91168023D01*
X139032479Y-91164969D01*
X139033120Y-91165516D01*
X139047324Y-91154563D01*
X139061713Y-91137549D01*
X139074453Y-91133641D01*
X139085008Y-91125502D01*
X139107209Y-91123594D01*
X139128511Y-91117061D01*
X139141342Y-91120661D01*
X139154622Y-91119521D01*
X139174329Y-91129918D01*
X139195782Y-91135939D01*
X139208844Y-91148129D01*
X139216418Y-91152125D01*
X139222731Y-91158730D01*
X139226759Y-91163267D01*
X139230693Y-91168682D01*
X139238470Y-91176459D01*
X139240914Y-91179212D01*
X139254301Y-91207619D01*
X139269349Y-91235176D01*
X139269077Y-91238971D01*
X139270700Y-91242414D01*
X139266604Y-91273545D01*
X139264365Y-91304868D01*
X139262001Y-91308546D01*
X139261588Y-91311687D01*
X139254900Y-91319594D01*
X139235864Y-91349215D01*
X138621899Y-91963181D01*
X138560576Y-91996666D01*
X138534218Y-91999500D01*
X112465783Y-91999500D01*
X112398744Y-91979815D01*
X112378102Y-91963181D01*
X110866819Y-90451898D01*
X110833334Y-90390575D01*
X110830500Y-90364217D01*
X110830500Y-88672889D01*
X110850185Y-88605850D01*
X110866819Y-88585208D01*
X110896551Y-88555476D01*
X110974517Y-88477510D01*
X111113343Y-88286433D01*
X111220568Y-88075992D01*
X111293553Y-87851368D01*
X111300971Y-87804534D01*
X111330500Y-87618097D01*
X111330500Y-87381902D01*
X111293553Y-87148631D01*
X111245513Y-87000781D01*
X111220568Y-86924008D01*
X111220566Y-86924005D01*
X111220566Y-86924003D01*
X111113342Y-86713566D01*
X110974517Y-86522490D01*
X110807510Y-86355483D01*
X110616433Y-86216657D01*
X110597820Y-86207173D01*
X110405996Y-86109433D01*
X110181368Y-86036446D01*
X109948097Y-85999500D01*
X109948092Y-85999500D01*
X109711908Y-85999500D01*
X109711903Y-85999500D01*
X109478631Y-86036446D01*
X109254003Y-86109433D01*
X109043566Y-86216657D01*
X108983222Y-86260500D01*
X108852490Y-86355483D01*
X108852488Y-86355485D01*
X108852487Y-86355485D01*
X108685485Y-86522487D01*
X108685485Y-86522488D01*
X108685483Y-86522490D01*
X108630319Y-86598417D01*
X108546657Y-86713566D01*
X108439433Y-86924003D01*
X108366446Y-87148631D01*
X108329500Y-87381902D01*
X108329500Y-87618097D01*
X108366446Y-87851368D01*
X108439433Y-88075996D01*
X108546657Y-88286433D01*
X108685483Y-88477510D01*
X108685485Y-88477512D01*
X108793181Y-88585208D01*
X108826666Y-88646531D01*
X108829500Y-88672889D01*
X108829500Y-90928543D01*
X108837885Y-90970697D01*
X108841308Y-90987903D01*
X108867949Y-91121836D01*
X108888107Y-91170500D01*
X108891358Y-91178351D01*
X108891360Y-91178355D01*
X108943364Y-91303906D01*
X108943371Y-91303919D01*
X108965802Y-91337489D01*
X109052861Y-91467782D01*
X109192218Y-91607139D01*
X109192220Y-91607140D01*
X109199286Y-91614206D01*
X109199285Y-91614206D01*
X109199288Y-91614208D01*
X111222860Y-93637781D01*
X111222861Y-93637782D01*
X111362218Y-93777139D01*
X111526086Y-93886632D01*
X111587398Y-93912028D01*
X111708164Y-93962051D01*
X111901454Y-94000499D01*
X111901457Y-94000500D01*
X111901459Y-94000500D01*
X135925500Y-94000500D01*
X135992539Y-94020185D01*
X136038294Y-94072989D01*
X136049500Y-94124500D01*
X136049500Y-96806613D01*
X136055913Y-96877192D01*
X136055913Y-96877194D01*
X136055914Y-96877196D01*
X136106522Y-97039606D01*
X136168186Y-97141611D01*
X136194530Y-97185188D01*
X136314811Y-97305469D01*
X136314813Y-97305470D01*
X136314815Y-97305472D01*
X136460394Y-97393478D01*
X136622804Y-97444086D01*
X136693384Y-97450500D01*
X136693387Y-97450500D01*
X139806613Y-97450500D01*
X139806616Y-97450500D01*
X139877196Y-97444086D01*
X140039606Y-97393478D01*
X140185185Y-97305472D01*
X140305472Y-97185185D01*
X140393478Y-97039606D01*
X140444086Y-96877196D01*
X140450500Y-96806616D01*
X140450500Y-93693384D01*
X140444086Y-93622804D01*
X140393478Y-93460394D01*
X140305472Y-93314815D01*
X140305470Y-93314813D01*
X140305469Y-93314811D01*
X140290469Y-93299811D01*
X140256984Y-93238488D01*
X140261968Y-93168796D01*
X140290467Y-93124451D01*
X141037778Y-92377141D01*
X141037782Y-92377139D01*
X141177139Y-92237782D01*
X141286632Y-92073914D01*
X141362051Y-91891835D01*
X141362051Y-91891832D01*
X141362053Y-91891828D01*
X141374252Y-91830500D01*
X141389053Y-91756089D01*
X141389053Y-91756086D01*
X141400500Y-91698541D01*
X141400500Y-91388851D01*
X141409012Y-91359862D01*
X141415205Y-91330279D01*
X141419330Y-91324723D01*
X141420185Y-91321812D01*
X141436134Y-91301860D01*
X141436450Y-91301538D01*
X141569307Y-91168682D01*
X141575128Y-91160669D01*
X141581634Y-91154061D01*
X141604388Y-91141403D01*
X141625008Y-91125502D01*
X141634429Y-91124692D01*
X141642693Y-91120096D01*
X141668679Y-91121749D01*
X141694622Y-91119521D01*
X141702984Y-91123933D01*
X141712422Y-91124534D01*
X141733388Y-91139974D01*
X141756418Y-91152125D01*
X141767931Y-91165413D01*
X141768682Y-91165966D01*
X141768896Y-91166526D01*
X141770320Y-91168170D01*
X141770687Y-91168675D01*
X141770691Y-91168680D01*
X141770692Y-91168681D01*
X141770693Y-91168682D01*
X141941318Y-91339307D01*
X142136533Y-91481139D01*
X142197054Y-91511976D01*
X142351531Y-91590687D01*
X142351534Y-91590688D01*
X142466277Y-91627969D01*
X142581022Y-91665252D01*
X142819350Y-91703000D01*
X142819351Y-91703000D01*
X143060649Y-91703000D01*
X143060650Y-91703000D01*
X143298978Y-91665252D01*
X143528468Y-91590687D01*
X143743467Y-91481139D01*
X143938682Y-91339307D01*
X144109307Y-91168682D01*
X144109340Y-91168635D01*
X144109680Y-91168170D01*
X144109869Y-91168023D01*
X144112479Y-91164969D01*
X144113120Y-91165516D01*
X144165008Y-91125502D01*
X144234622Y-91119521D01*
X144296418Y-91152125D01*
X144310320Y-91168170D01*
X144310687Y-91168675D01*
X144310691Y-91168680D01*
X144310692Y-91168681D01*
X144310693Y-91168682D01*
X144481318Y-91339307D01*
X144676533Y-91481139D01*
X144799883Y-91543989D01*
X144850678Y-91591962D01*
X144867473Y-91659783D01*
X144844936Y-91725918D01*
X144790221Y-91769370D01*
X144767780Y-91776090D01*
X144708164Y-91787948D01*
X144708159Y-91787950D01*
X144654834Y-91810037D01*
X144654834Y-91810038D01*
X144609315Y-91828892D01*
X144526089Y-91863366D01*
X144526079Y-91863371D01*
X144362219Y-91972859D01*
X144292540Y-92042538D01*
X144222861Y-92112218D01*
X144222858Y-92112221D01*
X141862221Y-94472858D01*
X141862218Y-94472861D01*
X141792538Y-94542540D01*
X141722859Y-94612219D01*
X141613371Y-94776079D01*
X141613364Y-94776092D01*
X141537950Y-94958160D01*
X141537947Y-94958170D01*
X141499500Y-95151456D01*
X141499500Y-107098544D01*
X141537947Y-107291833D01*
X141537949Y-107291837D01*
X141560038Y-107345164D01*
X141613366Y-107473911D01*
X141613371Y-107473920D01*
X141722859Y-107637780D01*
X141722860Y-107637781D01*
X141722861Y-107637782D01*
X141862218Y-107777139D01*
X141862219Y-107777139D01*
X141869286Y-107784206D01*
X141869285Y-107784206D01*
X141869289Y-107784209D01*
X142862215Y-108777137D01*
X142862219Y-108777140D01*
X143026079Y-108886628D01*
X143026088Y-108886633D01*
X143028862Y-108887782D01*
X143208165Y-108962052D01*
X143392315Y-108998682D01*
X143401455Y-109000500D01*
X143401458Y-109000501D01*
X143401460Y-109000501D01*
X143604655Y-109000501D01*
X143604675Y-109000500D01*
X144781149Y-109000500D01*
X144810138Y-109009012D01*
X144839721Y-109015205D01*
X144845276Y-109019330D01*
X144848188Y-109020185D01*
X144868140Y-109036134D01*
X144868461Y-109036450D01*
X145001318Y-109169307D01*
X145009334Y-109175131D01*
X145015940Y-109181634D01*
X145028598Y-109204390D01*
X145044501Y-109225013D01*
X145045309Y-109234432D01*
X145049905Y-109242693D01*
X145048250Y-109268681D01*
X145050479Y-109294627D01*
X145046067Y-109302987D01*
X145045467Y-109312421D01*
X145030024Y-109333390D01*
X145017872Y-109356421D01*
X145004587Y-109367931D01*
X145004036Y-109368681D01*
X145003476Y-109368894D01*
X145001835Y-109370317D01*
X145001324Y-109370688D01*
X145001315Y-109370695D01*
X144830695Y-109541315D01*
X144688861Y-109736532D01*
X144579312Y-109951531D01*
X144579311Y-109951534D01*
X144504748Y-110181020D01*
X144467000Y-110419350D01*
X144467000Y-110660649D01*
X144504748Y-110898979D01*
X144579311Y-111128465D01*
X144579312Y-111128468D01*
X144675446Y-111317139D01*
X144688861Y-111343467D01*
X144830693Y-111538682D01*
X145001318Y-111709307D01*
X145001324Y-111709311D01*
X145001835Y-111709683D01*
X145001982Y-111709873D01*
X145005023Y-111712471D01*
X145004477Y-111713109D01*
X145044501Y-111765013D01*
X145050479Y-111834627D01*
X145017872Y-111896421D01*
X145001835Y-111910317D01*
X145001324Y-111910688D01*
X145001315Y-111910695D01*
X144830695Y-112081315D01*
X144688861Y-112276532D01*
X144579312Y-112491531D01*
X144579311Y-112491534D01*
X144504748Y-112721020D01*
X144467000Y-112959350D01*
X144467000Y-113200649D01*
X144504748Y-113438979D01*
X144579311Y-113668465D01*
X144579312Y-113668468D01*
X144688861Y-113883467D01*
X144830693Y-114078682D01*
X145001318Y-114249307D01*
X145001324Y-114249311D01*
X145001835Y-114249683D01*
X145001982Y-114249873D01*
X145005023Y-114252471D01*
X145004477Y-114253109D01*
X145044501Y-114305013D01*
X145050479Y-114374627D01*
X145017872Y-114436421D01*
X145001835Y-114450317D01*
X145001324Y-114450688D01*
X145001315Y-114450695D01*
X144830695Y-114621315D01*
X144688861Y-114816532D01*
X144579312Y-115031531D01*
X144579311Y-115031534D01*
X144504748Y-115261020D01*
X144467000Y-115499350D01*
X144467000Y-115740649D01*
X144504748Y-115978979D01*
X144579311Y-116208465D01*
X144579312Y-116208468D01*
X144688861Y-116423467D01*
X144830693Y-116618682D01*
X145001318Y-116789307D01*
X145196533Y-116931139D01*
X145301983Y-116984868D01*
X145411531Y-117040687D01*
X145411534Y-117040688D01*
X145526277Y-117077969D01*
X145641022Y-117115252D01*
X145879350Y-117153000D01*
X145879351Y-117153000D01*
X146120649Y-117153000D01*
X146120650Y-117153000D01*
X146358978Y-117115252D01*
X146588468Y-117040687D01*
X146803467Y-116931139D01*
X146998682Y-116789307D01*
X147169307Y-116618682D01*
X147311139Y-116423467D01*
X147420687Y-116208468D01*
X147495252Y-115978978D01*
X147533000Y-115740650D01*
X147533000Y-115499350D01*
X147495252Y-115261022D01*
X147420687Y-115031532D01*
X147420687Y-115031531D01*
X147311138Y-114816532D01*
X147169307Y-114621318D01*
X146998682Y-114450693D01*
X146998680Y-114450691D01*
X146998675Y-114450687D01*
X146998170Y-114450320D01*
X146998023Y-114450130D01*
X146994969Y-114447521D01*
X146995516Y-114446879D01*
X146955502Y-114394992D01*
X146949521Y-114325378D01*
X146982125Y-114263582D01*
X146998170Y-114249680D01*
X146998675Y-114249312D01*
X146998676Y-114249311D01*
X146998682Y-114249307D01*
X147169307Y-114078682D01*
X147311139Y-113883467D01*
X147420687Y-113668468D01*
X147495252Y-113438978D01*
X147533000Y-113200650D01*
X147533000Y-112959350D01*
X147495252Y-112721022D01*
X147420687Y-112491532D01*
X147420687Y-112491531D01*
X147311138Y-112276532D01*
X147169307Y-112081318D01*
X146998682Y-111910693D01*
X146998680Y-111910691D01*
X146998675Y-111910687D01*
X146998170Y-111910320D01*
X146998023Y-111910130D01*
X146994969Y-111907521D01*
X146995516Y-111906879D01*
X146955502Y-111854992D01*
X146949521Y-111785378D01*
X146982125Y-111723582D01*
X146984061Y-111721634D01*
X146990669Y-111715128D01*
X146998682Y-111709307D01*
X147131538Y-111576450D01*
X147131860Y-111576134D01*
X147162280Y-111559831D01*
X147192493Y-111543334D01*
X147193207Y-111543257D01*
X147193443Y-111543131D01*
X147193982Y-111543173D01*
X147218851Y-111540500D01*
X171308542Y-111540500D01*
X171339566Y-111534328D01*
X171405188Y-111521275D01*
X171501836Y-111502051D01*
X171555165Y-111479961D01*
X171683914Y-111426632D01*
X171847782Y-111317139D01*
X171987139Y-111177782D01*
X171987140Y-111177779D01*
X171994206Y-111170714D01*
X171994209Y-111170710D01*
X174137778Y-109027141D01*
X174137782Y-109027139D01*
X174277139Y-108887782D01*
X174386632Y-108723914D01*
X174462051Y-108541835D01*
X174462051Y-108541832D01*
X174462053Y-108541828D01*
X174475562Y-108473915D01*
X174487861Y-108412077D01*
X174500500Y-108348540D01*
X174500500Y-108151460D01*
X174500500Y-88401459D01*
X174500500Y-88401456D01*
X174500499Y-88401454D01*
X174462053Y-88208175D01*
X174462052Y-88208174D01*
X174462051Y-88208165D01*
X174459273Y-88201459D01*
X174407633Y-88076788D01*
X174386632Y-88026086D01*
X174317382Y-87922446D01*
X174277140Y-87862219D01*
X174219455Y-87804534D01*
X174137782Y-87722861D01*
X174137781Y-87722860D01*
X172534208Y-86119288D01*
X172534206Y-86119285D01*
X172534206Y-86119286D01*
X172527140Y-86112220D01*
X172527139Y-86112218D01*
X172387782Y-85972861D01*
X172260449Y-85887780D01*
X172223919Y-85863371D01*
X172223910Y-85863366D01*
X172095555Y-85810200D01*
X172095551Y-85810199D01*
X172088357Y-85807219D01*
X172041836Y-85787949D01*
X171945188Y-85768724D01*
X171927541Y-85765213D01*
X171848544Y-85749500D01*
X171848541Y-85749500D01*
X167251459Y-85749500D01*
X167251455Y-85749500D01*
X167154812Y-85768724D01*
X167058170Y-85787946D01*
X167058161Y-85787949D01*
X167011641Y-85807218D01*
X167011642Y-85807219D01*
X166876090Y-85863366D01*
X166876080Y-85863371D01*
X166712219Y-85972859D01*
X166665109Y-86019970D01*
X166572861Y-86112218D01*
X166572858Y-86112221D01*
X165162221Y-87522858D01*
X165162218Y-87522861D01*
X165115558Y-87569521D01*
X165022859Y-87662219D01*
X164913371Y-87826079D01*
X164913364Y-87826092D01*
X164873455Y-87922443D01*
X164873455Y-87922446D01*
X164841654Y-87999220D01*
X164841653Y-87999222D01*
X164837951Y-88008157D01*
X164837946Y-88008174D01*
X164799500Y-88201454D01*
X164799500Y-88951149D01*
X164790987Y-88980138D01*
X164784795Y-89009721D01*
X164780669Y-89015276D01*
X164779815Y-89018188D01*
X164763866Y-89038140D01*
X164763549Y-89038461D01*
X164630693Y-89171318D01*
X164624868Y-89179334D01*
X164618366Y-89185940D01*
X164595609Y-89198598D01*
X164574987Y-89214501D01*
X164565567Y-89215309D01*
X164557307Y-89219905D01*
X164531318Y-89218250D01*
X164505373Y-89220479D01*
X164497012Y-89216067D01*
X164487579Y-89215467D01*
X164466609Y-89200024D01*
X164443579Y-89187872D01*
X164432068Y-89174587D01*
X164431319Y-89174036D01*
X164431105Y-89173476D01*
X164429683Y-89171835D01*
X164429311Y-89171324D01*
X164429309Y-89171321D01*
X164429307Y-89171318D01*
X164258682Y-89000693D01*
X164063467Y-88858861D01*
X164021544Y-88837500D01*
X163848468Y-88749312D01*
X163848465Y-88749311D01*
X163618979Y-88674748D01*
X163440825Y-88646531D01*
X163380650Y-88637000D01*
X163139350Y-88637000D01*
X163079175Y-88646531D01*
X162901020Y-88674748D01*
X162671534Y-88749311D01*
X162671531Y-88749312D01*
X162456532Y-88858861D01*
X162261315Y-89000695D01*
X162090695Y-89171315D01*
X162090688Y-89171324D01*
X162090317Y-89171835D01*
X162090126Y-89171982D01*
X162087529Y-89175023D01*
X162086890Y-89174477D01*
X162034987Y-89214501D01*
X161965373Y-89220479D01*
X161903579Y-89187872D01*
X161889683Y-89171835D01*
X161889311Y-89171324D01*
X161889309Y-89171321D01*
X161889307Y-89171318D01*
X161718682Y-89000693D01*
X161523467Y-88858861D01*
X161481544Y-88837500D01*
X161308468Y-88749312D01*
X161308465Y-88749311D01*
X161078979Y-88674748D01*
X160900825Y-88646531D01*
X160840650Y-88637000D01*
X160599350Y-88637000D01*
X160539175Y-88646531D01*
X160361020Y-88674748D01*
X160131534Y-88749311D01*
X160131531Y-88749312D01*
X159916532Y-88858861D01*
X159721315Y-89000695D01*
X159550695Y-89171315D01*
X159550688Y-89171324D01*
X159550317Y-89171835D01*
X159550126Y-89171982D01*
X159547529Y-89175023D01*
X159546890Y-89174477D01*
X159494987Y-89214501D01*
X159425373Y-89220479D01*
X159363579Y-89187872D01*
X159349683Y-89171835D01*
X159349311Y-89171324D01*
X159349309Y-89171321D01*
X159349307Y-89171318D01*
X159178682Y-89000693D01*
X159150391Y-88980138D01*
X159131614Y-88966495D01*
X159088948Y-88911165D01*
X159080500Y-88866178D01*
X159080500Y-87244361D01*
X159100185Y-87177322D01*
X159116819Y-87156680D01*
X161336680Y-84936819D01*
X161398003Y-84903334D01*
X161424361Y-84900500D01*
X173088693Y-84900500D01*
X173088694Y-84900499D01*
X173262666Y-84865895D01*
X173357077Y-84826788D01*
X173426547Y-84798013D01*
X173528298Y-84730025D01*
X173574036Y-84699464D01*
X174449464Y-83824036D01*
X174507396Y-83737334D01*
X174548013Y-83676547D01*
X174590715Y-83573454D01*
X174615895Y-83512666D01*
X174650500Y-83338692D01*
X174650500Y-83161308D01*
X174650500Y-50411309D01*
X174645755Y-50387453D01*
X174645592Y-50386635D01*
X174624536Y-50280778D01*
X174615895Y-50237334D01*
X174554325Y-50088692D01*
X174548013Y-50073453D01*
X174548012Y-50073451D01*
X174548011Y-50073449D01*
X174449465Y-49925966D01*
X174444467Y-49920968D01*
X174324035Y-49800536D01*
X174217575Y-49694076D01*
X173824041Y-49300540D01*
X173824040Y-49300539D01*
X173824033Y-49300534D01*
X173764959Y-49261063D01*
X173676547Y-49201987D01*
X173594606Y-49168046D01*
X173512666Y-49134105D01*
X173512658Y-49134103D01*
X173338696Y-49099500D01*
X173338692Y-49099500D01*
X173338691Y-49099500D01*
X165838691Y-49099500D01*
X165661308Y-49099500D01*
X165661305Y-49099500D01*
X165487401Y-49134091D01*
X165487402Y-49134092D01*
X165487339Y-49134104D01*
X165487329Y-49134107D01*
X165323459Y-49201983D01*
X165323446Y-49201990D01*
X165175966Y-49300534D01*
X165175964Y-49300537D01*
X164263319Y-50213181D01*
X164201996Y-50246666D01*
X164175638Y-50249500D01*
X164151578Y-50249500D01*
X163957173Y-50280290D01*
X163769970Y-50341117D01*
X163594594Y-50430476D01*
X163503741Y-50496485D01*
X163435354Y-50546172D01*
X163435352Y-50546174D01*
X163435351Y-50546174D01*
X163296174Y-50685351D01*
X163296174Y-50685352D01*
X163296172Y-50685354D01*
X163268921Y-50722862D01*
X163180476Y-50844594D01*
X163091117Y-51019970D01*
X163030290Y-51207173D01*
X162999500Y-51401577D01*
X162999500Y-51598422D01*
X163030290Y-51792826D01*
X163091117Y-51980029D01*
X163166135Y-52127259D01*
X163180476Y-52155405D01*
X163296172Y-52314646D01*
X163435354Y-52453828D01*
X163594595Y-52569524D01*
X163677455Y-52611743D01*
X163769970Y-52658882D01*
X163769972Y-52658882D01*
X163769975Y-52658884D01*
X163866506Y-52690249D01*
X163957173Y-52719709D01*
X164151578Y-52750500D01*
X164151583Y-52750500D01*
X164348422Y-52750500D01*
X164542826Y-52719709D01*
X164544328Y-52719221D01*
X164730025Y-52658884D01*
X164905405Y-52569524D01*
X165064646Y-52453828D01*
X165203828Y-52314646D01*
X165319524Y-52155405D01*
X165408884Y-51980025D01*
X165469709Y-51792826D01*
X165477510Y-51743571D01*
X165500500Y-51598422D01*
X165500500Y-51574361D01*
X165520185Y-51507322D01*
X165536819Y-51486680D01*
X166086680Y-50936819D01*
X166148003Y-50903334D01*
X166174361Y-50900500D01*
X172725500Y-50900500D01*
X172792539Y-50920185D01*
X172838294Y-50972989D01*
X172849500Y-51024500D01*
X172849500Y-61385217D01*
X172829815Y-61452256D01*
X172777011Y-61498011D01*
X172707853Y-61507955D01*
X172644297Y-61478930D01*
X172637819Y-61472898D01*
X171784209Y-60619289D01*
X171784206Y-60619285D01*
X171784206Y-60619286D01*
X171777139Y-60612219D01*
X171777139Y-60612218D01*
X171637782Y-60472861D01*
X171637781Y-60472860D01*
X171637780Y-60472859D01*
X171473920Y-60363371D01*
X171473907Y-60363364D01*
X171329300Y-60303467D01*
X171329297Y-60303466D01*
X171314373Y-60297284D01*
X171293021Y-60280077D01*
X171259972Y-60253445D01*
X171237907Y-60187151D01*
X171237907Y-60187148D01*
X171237911Y-60187128D01*
X171251342Y-60126432D01*
X171270687Y-60088468D01*
X171345252Y-59858978D01*
X171383000Y-59620650D01*
X171383000Y-59379350D01*
X171345252Y-59141022D01*
X171309274Y-59030291D01*
X171270688Y-58911533D01*
X171270687Y-58911531D01*
X171203840Y-58780339D01*
X171161139Y-58696533D01*
X171071301Y-58572882D01*
X171047823Y-58507080D01*
X171063648Y-58439026D01*
X171071293Y-58427128D01*
X171161139Y-58303467D01*
X171270687Y-58088468D01*
X171345252Y-57858978D01*
X171383000Y-57620650D01*
X171383000Y-57379350D01*
X171345252Y-57141022D01*
X171270687Y-56911532D01*
X171270687Y-56911531D01*
X171181666Y-56736819D01*
X171161139Y-56696533D01*
X171071301Y-56572882D01*
X171047823Y-56507080D01*
X171063648Y-56439026D01*
X171071293Y-56427128D01*
X171161139Y-56303467D01*
X171270687Y-56088468D01*
X171345252Y-55858978D01*
X171383000Y-55620650D01*
X171383000Y-55379350D01*
X171345252Y-55141022D01*
X171270687Y-54911532D01*
X171270687Y-54911531D01*
X171161138Y-54696532D01*
X171094900Y-54605363D01*
X171019307Y-54501318D01*
X170949542Y-54431553D01*
X170916057Y-54370230D01*
X170921041Y-54300538D01*
X170936906Y-54270986D01*
X170989653Y-54198386D01*
X171084874Y-54011506D01*
X171149689Y-53812028D01*
X171182500Y-53604869D01*
X171182500Y-53395130D01*
X171149689Y-53187971D01*
X171084874Y-52988493D01*
X170989653Y-52801614D01*
X170952742Y-52750810D01*
X170952741Y-52750809D01*
X170332962Y-53370589D01*
X170315925Y-53307007D01*
X170250099Y-53192993D01*
X170157007Y-53099901D01*
X170042993Y-53034075D01*
X169979407Y-53017037D01*
X170599188Y-52397257D01*
X170548378Y-52360342D01*
X170361506Y-52265125D01*
X170162028Y-52200310D01*
X169954869Y-52167500D01*
X169745131Y-52167500D01*
X169537971Y-52200310D01*
X169338493Y-52265125D01*
X169151611Y-52360347D01*
X169100810Y-52397256D01*
X169100810Y-52397257D01*
X169720590Y-53017037D01*
X169657007Y-53034075D01*
X169542993Y-53099901D01*
X169449901Y-53192993D01*
X169384075Y-53307007D01*
X169367037Y-53370590D01*
X168747257Y-52750810D01*
X168747256Y-52750810D01*
X168710347Y-52801611D01*
X168615125Y-52988493D01*
X168550310Y-53187971D01*
X168517500Y-53395130D01*
X168517500Y-53604869D01*
X168550310Y-53812028D01*
X168615126Y-54011506D01*
X168670001Y-54119205D01*
X168682897Y-54187875D01*
X168656620Y-54252615D01*
X168599514Y-54292872D01*
X168559516Y-54299500D01*
X148155513Y-54299500D01*
X147968885Y-54329059D01*
X147789165Y-54387454D01*
X147620800Y-54473240D01*
X147467923Y-54584312D01*
X142816325Y-59235909D01*
X142755002Y-59269394D01*
X142748043Y-59270701D01*
X142648634Y-59286446D01*
X142424005Y-59359433D01*
X142213563Y-59466659D01*
X142132138Y-59525818D01*
X142066332Y-59549298D01*
X142059253Y-59549500D01*
X140324500Y-59549500D01*
X140257461Y-59529815D01*
X140211706Y-59477011D01*
X140200500Y-59425500D01*
X140200500Y-56155520D01*
X140200498Y-56155510D01*
X140196331Y-56129199D01*
X140170940Y-55968882D01*
X140170830Y-55968544D01*
X140112545Y-55789163D01*
X140026759Y-55620800D01*
X140026650Y-55620650D01*
X139915690Y-55467926D01*
X139184142Y-54736378D01*
X139150657Y-54675055D01*
X139155641Y-54605363D01*
X139197513Y-54549430D01*
X139252427Y-54526223D01*
X139304422Y-54517988D01*
X139499031Y-54454755D01*
X139681349Y-54361859D01*
X139725921Y-54329474D01*
X139046447Y-53650000D01*
X139052661Y-53650000D01*
X139154394Y-53622741D01*
X139245606Y-53570080D01*
X139320080Y-53495606D01*
X139372741Y-53404394D01*
X139400000Y-53302661D01*
X139400000Y-53296447D01*
X140079474Y-53975921D01*
X140111859Y-53931349D01*
X140204755Y-53749031D01*
X140267990Y-53554417D01*
X140300000Y-53352317D01*
X140300000Y-53147682D01*
X141700000Y-53147682D01*
X141700000Y-53352317D01*
X141732009Y-53554417D01*
X141795244Y-53749031D01*
X141888141Y-53931350D01*
X141888147Y-53931359D01*
X141920523Y-53975921D01*
X141920524Y-53975922D01*
X142600000Y-53296446D01*
X142600000Y-53302661D01*
X142627259Y-53404394D01*
X142679920Y-53495606D01*
X142754394Y-53570080D01*
X142845606Y-53622741D01*
X142947339Y-53650000D01*
X142953553Y-53650000D01*
X142274076Y-54329474D01*
X142318650Y-54361859D01*
X142500968Y-54454755D01*
X142695582Y-54517990D01*
X142897683Y-54550000D01*
X143102317Y-54550000D01*
X143304417Y-54517990D01*
X143499031Y-54454755D01*
X143681349Y-54361859D01*
X143725921Y-54329474D01*
X143046447Y-53650000D01*
X143052661Y-53650000D01*
X143154394Y-53622741D01*
X143245606Y-53570080D01*
X143320080Y-53495606D01*
X143372741Y-53404394D01*
X143400000Y-53302661D01*
X143400000Y-53296448D01*
X144079474Y-53975922D01*
X144079474Y-53975921D01*
X144111859Y-53931349D01*
X144204755Y-53749031D01*
X144267990Y-53554417D01*
X144300000Y-53352317D01*
X144300000Y-53147682D01*
X144267990Y-52945582D01*
X144204755Y-52750968D01*
X144111859Y-52568650D01*
X144079474Y-52524077D01*
X144079474Y-52524076D01*
X143400000Y-53203551D01*
X143400000Y-53197339D01*
X143372741Y-53095606D01*
X143320080Y-53004394D01*
X143245606Y-52929920D01*
X143154394Y-52877259D01*
X143052661Y-52850000D01*
X143046446Y-52850000D01*
X143514545Y-52381902D01*
X150749500Y-52381902D01*
X150749500Y-52618097D01*
X150786446Y-52851368D01*
X150859433Y-53075996D01*
X150935825Y-53225922D01*
X150966657Y-53286433D01*
X151105483Y-53477510D01*
X151272490Y-53644517D01*
X151463567Y-53783343D01*
X151519865Y-53812028D01*
X151674003Y-53890566D01*
X151674005Y-53890566D01*
X151674008Y-53890568D01*
X151794412Y-53929689D01*
X151898631Y-53963553D01*
X152131903Y-54000500D01*
X152131908Y-54000500D01*
X152368097Y-54000500D01*
X152601368Y-53963553D01*
X152825992Y-53890568D01*
X153036433Y-53783343D01*
X153227510Y-53644517D01*
X153394517Y-53477510D01*
X153533343Y-53286433D01*
X153640568Y-53075992D01*
X153713553Y-52851368D01*
X153715260Y-52840593D01*
X153750500Y-52618097D01*
X153750500Y-52397682D01*
X158450000Y-52397682D01*
X158450000Y-52602317D01*
X158482009Y-52804417D01*
X158545244Y-52999031D01*
X158638141Y-53181350D01*
X158638147Y-53181359D01*
X158670523Y-53225921D01*
X158670524Y-53225922D01*
X159350000Y-52546446D01*
X159350000Y-52552661D01*
X159377259Y-52654394D01*
X159429920Y-52745606D01*
X159504394Y-52820080D01*
X159595606Y-52872741D01*
X159697339Y-52900000D01*
X159703553Y-52900000D01*
X159024076Y-53579474D01*
X159068650Y-53611859D01*
X159250968Y-53704755D01*
X159445582Y-53767990D01*
X159647683Y-53800000D01*
X159852317Y-53800000D01*
X160054417Y-53767990D01*
X160249031Y-53704755D01*
X160431349Y-53611859D01*
X160475921Y-53579474D01*
X159796447Y-52900000D01*
X159802661Y-52900000D01*
X159904394Y-52872741D01*
X159995606Y-52820080D01*
X160070080Y-52745606D01*
X160122741Y-52654394D01*
X160150000Y-52552661D01*
X160150000Y-52546448D01*
X160829474Y-53225922D01*
X160829474Y-53225921D01*
X160861859Y-53181349D01*
X160954755Y-52999031D01*
X161017990Y-52804417D01*
X161050000Y-52602317D01*
X161050000Y-52397682D01*
X161017990Y-52195582D01*
X160954755Y-52000968D01*
X160861859Y-51818650D01*
X160829474Y-51774077D01*
X160829474Y-51774076D01*
X160150000Y-52453551D01*
X160150000Y-52447339D01*
X160122741Y-52345606D01*
X160070080Y-52254394D01*
X159995606Y-52179920D01*
X159904394Y-52127259D01*
X159802661Y-52100000D01*
X159796446Y-52100000D01*
X160475922Y-51420524D01*
X160475921Y-51420523D01*
X160431359Y-51388147D01*
X160431350Y-51388141D01*
X160249031Y-51295244D01*
X160054417Y-51232009D01*
X159852317Y-51200000D01*
X159647683Y-51200000D01*
X159445582Y-51232009D01*
X159250968Y-51295244D01*
X159068644Y-51388143D01*
X159024077Y-51420523D01*
X159024077Y-51420524D01*
X159703554Y-52100000D01*
X159697339Y-52100000D01*
X159595606Y-52127259D01*
X159504394Y-52179920D01*
X159429920Y-52254394D01*
X159377259Y-52345606D01*
X159350000Y-52447339D01*
X159350000Y-52453553D01*
X158670524Y-51774077D01*
X158670523Y-51774077D01*
X158638143Y-51818644D01*
X158545244Y-52000968D01*
X158482009Y-52195582D01*
X158450000Y-52397682D01*
X153750500Y-52397682D01*
X153750500Y-52381902D01*
X153713553Y-52148631D01*
X153656860Y-51974150D01*
X153640568Y-51924008D01*
X153640566Y-51924005D01*
X153640566Y-51924003D01*
X153560250Y-51766375D01*
X153533343Y-51713567D01*
X153394517Y-51522490D01*
X153227510Y-51355483D01*
X153036433Y-51216657D01*
X152989990Y-51192993D01*
X152825996Y-51109433D01*
X152601368Y-51036446D01*
X152368097Y-50999500D01*
X152368092Y-50999500D01*
X152131908Y-50999500D01*
X152131903Y-50999500D01*
X151898631Y-51036446D01*
X151674003Y-51109433D01*
X151463566Y-51216657D01*
X151355402Y-51295244D01*
X151272490Y-51355483D01*
X151272488Y-51355485D01*
X151272487Y-51355485D01*
X151105485Y-51522487D01*
X151105485Y-51522488D01*
X151105483Y-51522490D01*
X151050344Y-51598382D01*
X150966657Y-51713566D01*
X150859433Y-51924003D01*
X150786446Y-52148631D01*
X150749500Y-52381902D01*
X143514545Y-52381902D01*
X143607092Y-52289355D01*
X143725922Y-52170524D01*
X143725921Y-52170523D01*
X143681359Y-52138147D01*
X143681350Y-52138141D01*
X143499031Y-52045244D01*
X143304417Y-51982009D01*
X143102317Y-51950000D01*
X142897683Y-51950000D01*
X142695582Y-51982009D01*
X142500968Y-52045244D01*
X142318644Y-52138143D01*
X142274077Y-52170523D01*
X142274077Y-52170524D01*
X142953554Y-52850000D01*
X142947339Y-52850000D01*
X142845606Y-52877259D01*
X142754394Y-52929920D01*
X142679920Y-53004394D01*
X142627259Y-53095606D01*
X142600000Y-53197339D01*
X142600000Y-53203553D01*
X141920524Y-52524077D01*
X141920523Y-52524077D01*
X141888143Y-52568644D01*
X141795244Y-52750968D01*
X141732009Y-52945582D01*
X141700000Y-53147682D01*
X140300000Y-53147682D01*
X140267990Y-52945582D01*
X140204755Y-52750968D01*
X140111859Y-52568650D01*
X140079474Y-52524077D01*
X140079474Y-52524076D01*
X139400000Y-53203551D01*
X139400000Y-53197339D01*
X139372741Y-53095606D01*
X139320080Y-53004394D01*
X139245606Y-52929920D01*
X139154394Y-52877259D01*
X139052661Y-52850000D01*
X139046446Y-52850000D01*
X139725922Y-52170524D01*
X139725921Y-52170523D01*
X139681359Y-52138147D01*
X139681350Y-52138141D01*
X139499031Y-52045244D01*
X139304417Y-51982009D01*
X139102317Y-51950000D01*
X138897683Y-51950000D01*
X138695582Y-51982009D01*
X138500968Y-52045244D01*
X138318644Y-52138143D01*
X138274077Y-52170523D01*
X138274077Y-52170524D01*
X138953554Y-52850000D01*
X138947339Y-52850000D01*
X138845606Y-52877259D01*
X138754394Y-52929920D01*
X138679920Y-53004394D01*
X138627259Y-53095606D01*
X138600000Y-53197339D01*
X138600000Y-53203553D01*
X137920524Y-52524077D01*
X137920523Y-52524077D01*
X137888143Y-52568644D01*
X137795244Y-52750968D01*
X137732009Y-52945582D01*
X137700000Y-53147682D01*
X137700000Y-53352317D01*
X137732009Y-53554417D01*
X137795244Y-53749031D01*
X137888141Y-53931350D01*
X137888147Y-53931359D01*
X137920523Y-53975921D01*
X137920524Y-53975922D01*
X138600000Y-53296446D01*
X138600000Y-53302661D01*
X138627259Y-53404394D01*
X138679920Y-53495606D01*
X138754394Y-53570080D01*
X138845606Y-53622741D01*
X138947339Y-53650000D01*
X138953553Y-53650000D01*
X138340372Y-54263181D01*
X138279049Y-54296666D01*
X138252691Y-54299500D01*
X130905514Y-54299500D01*
X130718881Y-54329059D01*
X130539163Y-54387454D01*
X130370800Y-54473240D01*
X130283579Y-54536610D01*
X130217927Y-54584310D01*
X130217925Y-54584312D01*
X130217924Y-54584312D01*
X128334312Y-56467923D01*
X128334307Y-56467929D01*
X128249752Y-56584310D01*
X128223241Y-56620798D01*
X128223239Y-56620802D01*
X128137454Y-56789163D01*
X128079059Y-56968881D01*
X128049500Y-57155513D01*
X128049500Y-60131373D01*
X128029815Y-60198412D01*
X128013181Y-60219054D01*
X125015422Y-63216812D01*
X124954099Y-63250297D01*
X124947140Y-63251604D01*
X124801020Y-63274748D01*
X124571534Y-63349311D01*
X124571531Y-63349312D01*
X124356532Y-63458861D01*
X124161315Y-63600695D01*
X123990695Y-63771315D01*
X123848861Y-63966532D01*
X123739314Y-64181530D01*
X123739313Y-64181532D01*
X123664748Y-64411020D01*
X123641061Y-64560576D01*
X123627000Y-64649350D01*
X123627000Y-64890650D01*
X123644679Y-65002268D01*
X123664748Y-65128979D01*
X123739311Y-65358465D01*
X123739312Y-65358468D01*
X123846552Y-65568936D01*
X123848861Y-65573467D01*
X123990693Y-65768682D01*
X124161318Y-65939307D01*
X124356533Y-66081139D01*
X124422498Y-66114750D01*
X124571531Y-66190687D01*
X124571534Y-66190688D01*
X124686277Y-66227969D01*
X124801022Y-66265252D01*
X125039350Y-66303000D01*
X125039351Y-66303000D01*
X125280649Y-66303000D01*
X125280650Y-66303000D01*
X125518978Y-66265252D01*
X125748468Y-66190687D01*
X125963467Y-66081139D01*
X126158682Y-65939307D01*
X126329307Y-65768682D01*
X126329340Y-65768635D01*
X126329680Y-65768170D01*
X126329869Y-65768023D01*
X126332479Y-65764969D01*
X126333120Y-65765516D01*
X126385008Y-65725502D01*
X126454622Y-65719521D01*
X126516418Y-65752125D01*
X126530320Y-65768170D01*
X126530687Y-65768675D01*
X126530691Y-65768680D01*
X126530692Y-65768681D01*
X126530693Y-65768682D01*
X126701318Y-65939307D01*
X126896533Y-66081139D01*
X126962498Y-66114750D01*
X127111531Y-66190687D01*
X127111534Y-66190688D01*
X127226277Y-66227969D01*
X127341022Y-66265252D01*
X127579350Y-66303000D01*
X127579351Y-66303000D01*
X127820649Y-66303000D01*
X127820650Y-66303000D01*
X128058978Y-66265252D01*
X128288468Y-66190687D01*
X128503467Y-66081139D01*
X128698682Y-65939307D01*
X128869307Y-65768682D01*
X128869340Y-65768635D01*
X128869680Y-65768170D01*
X128869869Y-65768023D01*
X128872479Y-65764969D01*
X128873120Y-65765516D01*
X128925008Y-65725502D01*
X128994622Y-65719521D01*
X129056418Y-65752125D01*
X129070320Y-65768170D01*
X129070687Y-65768675D01*
X129070691Y-65768680D01*
X129070692Y-65768681D01*
X129070693Y-65768682D01*
X129241318Y-65939307D01*
X129436533Y-66081139D01*
X129502498Y-66114750D01*
X129651531Y-66190687D01*
X129651534Y-66190688D01*
X129766277Y-66227969D01*
X129881022Y-66265252D01*
X130119350Y-66303000D01*
X130119351Y-66303000D01*
X130360649Y-66303000D01*
X130360650Y-66303000D01*
X130598978Y-66265252D01*
X130828468Y-66190687D01*
X131043467Y-66081139D01*
X131238682Y-65939307D01*
X131409307Y-65768682D01*
X131409340Y-65768635D01*
X131409680Y-65768170D01*
X131409869Y-65768023D01*
X131412479Y-65764969D01*
X131413120Y-65765516D01*
X131465008Y-65725502D01*
X131534622Y-65719521D01*
X131596418Y-65752125D01*
X131610320Y-65768170D01*
X131610687Y-65768675D01*
X131610691Y-65768680D01*
X131610692Y-65768681D01*
X131610693Y-65768682D01*
X131781318Y-65939307D01*
X131976533Y-66081139D01*
X132042498Y-66114750D01*
X132191531Y-66190687D01*
X132191534Y-66190688D01*
X132306277Y-66227969D01*
X132421022Y-66265252D01*
X132659350Y-66303000D01*
X132659351Y-66303000D01*
X132900649Y-66303000D01*
X132900650Y-66303000D01*
X133138978Y-66265252D01*
X133368468Y-66190687D01*
X133583467Y-66081139D01*
X133778682Y-65939307D01*
X133949307Y-65768682D01*
X133949340Y-65768635D01*
X133949680Y-65768170D01*
X133949869Y-65768023D01*
X133952479Y-65764969D01*
X133953120Y-65765516D01*
X134005008Y-65725502D01*
X134074622Y-65719521D01*
X134136418Y-65752125D01*
X134150320Y-65768170D01*
X134150687Y-65768675D01*
X134150691Y-65768680D01*
X134150692Y-65768681D01*
X134150693Y-65768682D01*
X134321318Y-65939307D01*
X134516533Y-66081139D01*
X134582498Y-66114750D01*
X134731531Y-66190687D01*
X134731534Y-66190688D01*
X134846277Y-66227969D01*
X134961022Y-66265252D01*
X135199350Y-66303000D01*
X135199351Y-66303000D01*
X135440649Y-66303000D01*
X135440650Y-66303000D01*
X135678978Y-66265252D01*
X135908468Y-66190687D01*
X136123467Y-66081139D01*
X136318682Y-65939307D01*
X136489307Y-65768682D01*
X136500995Y-65752595D01*
X136501337Y-65752125D01*
X136502534Y-65750476D01*
X136631139Y-65573467D01*
X136631299Y-65573152D01*
X136634361Y-65568936D01*
X136658276Y-65550484D01*
X136680666Y-65530186D01*
X136685852Y-65529209D01*
X136689680Y-65526256D01*
X136711525Y-65524374D01*
X136744428Y-65518178D01*
X136757258Y-65519187D01*
X137332129Y-64944316D01*
X137342822Y-64984222D01*
X137415890Y-65110778D01*
X137519222Y-65214110D01*
X137645778Y-65287178D01*
X137685682Y-65297870D01*
X137110809Y-65872741D01*
X137110810Y-65872742D01*
X137161614Y-65909653D01*
X137348493Y-66004874D01*
X137547971Y-66069689D01*
X137755131Y-66102500D01*
X137964869Y-66102500D01*
X138172028Y-66069689D01*
X138371506Y-66004874D01*
X138558374Y-65909659D01*
X138558387Y-65909651D01*
X138609188Y-65872742D01*
X138609189Y-65872741D01*
X138034317Y-65297870D01*
X138074222Y-65287178D01*
X138200778Y-65214110D01*
X138304110Y-65110778D01*
X138377178Y-64984222D01*
X138387870Y-64944317D01*
X138962740Y-65519188D01*
X138975573Y-65518179D01*
X139043950Y-65532543D01*
X139084383Y-65570697D01*
X139085997Y-65569525D01*
X139088860Y-65573466D01*
X139088861Y-65573467D01*
X139230693Y-65768682D01*
X139401318Y-65939307D01*
X139596533Y-66081139D01*
X139662498Y-66114750D01*
X139811531Y-66190687D01*
X139811534Y-66190688D01*
X139926277Y-66227969D01*
X140041022Y-66265252D01*
X140279350Y-66303000D01*
X140279351Y-66303000D01*
X140520649Y-66303000D01*
X140520650Y-66303000D01*
X140758978Y-66265252D01*
X140988468Y-66190687D01*
X141203467Y-66081139D01*
X141398682Y-65939307D01*
X141569307Y-65768682D01*
X141569340Y-65768635D01*
X141569680Y-65768170D01*
X141569869Y-65768023D01*
X141572479Y-65764969D01*
X141573120Y-65765516D01*
X141625008Y-65725502D01*
X141694622Y-65719521D01*
X141756418Y-65752125D01*
X141770320Y-65768170D01*
X141770687Y-65768675D01*
X141770691Y-65768680D01*
X141770692Y-65768681D01*
X141770693Y-65768682D01*
X141941318Y-65939307D01*
X142136533Y-66081139D01*
X142202498Y-66114750D01*
X142351531Y-66190687D01*
X142351534Y-66190688D01*
X142466277Y-66227969D01*
X142581022Y-66265252D01*
X142819350Y-66303000D01*
X142819351Y-66303000D01*
X143060649Y-66303000D01*
X143060650Y-66303000D01*
X143298978Y-66265252D01*
X143528468Y-66190687D01*
X143743467Y-66081139D01*
X143938682Y-65939307D01*
X144109307Y-65768682D01*
X144109340Y-65768635D01*
X144109680Y-65768170D01*
X144109869Y-65768023D01*
X144112479Y-65764969D01*
X144113120Y-65765516D01*
X144165008Y-65725502D01*
X144234622Y-65719521D01*
X144296418Y-65752125D01*
X144310320Y-65768170D01*
X144310687Y-65768675D01*
X144310691Y-65768680D01*
X144310692Y-65768681D01*
X144310693Y-65768682D01*
X144481318Y-65939307D01*
X144676533Y-66081139D01*
X144742498Y-66114750D01*
X144891531Y-66190687D01*
X144891534Y-66190688D01*
X145006277Y-66227969D01*
X145121022Y-66265252D01*
X145359350Y-66303000D01*
X145359351Y-66303000D01*
X145600649Y-66303000D01*
X145600650Y-66303000D01*
X145838978Y-66265252D01*
X146068468Y-66190687D01*
X146283467Y-66081139D01*
X146478682Y-65939307D01*
X146649307Y-65768682D01*
X146649340Y-65768635D01*
X146649680Y-65768170D01*
X146649869Y-65768023D01*
X146652479Y-65764969D01*
X146653120Y-65765516D01*
X146705008Y-65725502D01*
X146774622Y-65719521D01*
X146836418Y-65752125D01*
X146850320Y-65768170D01*
X146850687Y-65768675D01*
X146850691Y-65768680D01*
X146850692Y-65768681D01*
X146850693Y-65768682D01*
X147021318Y-65939307D01*
X147216533Y-66081139D01*
X147282498Y-66114750D01*
X147431531Y-66190687D01*
X147431534Y-66190688D01*
X147546277Y-66227969D01*
X147661022Y-66265252D01*
X147899350Y-66303000D01*
X147899351Y-66303000D01*
X148140649Y-66303000D01*
X148140650Y-66303000D01*
X148378978Y-66265252D01*
X148608468Y-66190687D01*
X148823467Y-66081139D01*
X149018682Y-65939307D01*
X149189307Y-65768682D01*
X149189340Y-65768635D01*
X149189680Y-65768170D01*
X149189869Y-65768023D01*
X149192479Y-65764969D01*
X149193120Y-65765516D01*
X149245008Y-65725502D01*
X149314622Y-65719521D01*
X149376418Y-65752125D01*
X149390320Y-65768170D01*
X149390687Y-65768675D01*
X149390691Y-65768680D01*
X149390692Y-65768681D01*
X149390693Y-65768682D01*
X149561318Y-65939307D01*
X149756533Y-66081139D01*
X149822498Y-66114750D01*
X149971531Y-66190687D01*
X149971534Y-66190688D01*
X150086277Y-66227969D01*
X150201022Y-66265252D01*
X150439350Y-66303000D01*
X150439351Y-66303000D01*
X150680649Y-66303000D01*
X150680650Y-66303000D01*
X150918978Y-66265252D01*
X151148468Y-66190687D01*
X151363467Y-66081139D01*
X151558682Y-65939307D01*
X151729307Y-65768682D01*
X151729340Y-65768635D01*
X151729680Y-65768170D01*
X151729869Y-65768023D01*
X151732479Y-65764969D01*
X151733120Y-65765516D01*
X151785008Y-65725502D01*
X151854622Y-65719521D01*
X151916418Y-65752125D01*
X151930320Y-65768170D01*
X151930687Y-65768675D01*
X151930691Y-65768680D01*
X151930692Y-65768681D01*
X151930693Y-65768682D01*
X152101318Y-65939307D01*
X152296533Y-66081139D01*
X152362498Y-66114750D01*
X152511531Y-66190687D01*
X152511534Y-66190688D01*
X152626277Y-66227969D01*
X152741022Y-66265252D01*
X152979350Y-66303000D01*
X152979351Y-66303000D01*
X153220649Y-66303000D01*
X153220650Y-66303000D01*
X153458978Y-66265252D01*
X153688468Y-66190687D01*
X153903467Y-66081139D01*
X154098682Y-65939307D01*
X154269307Y-65768682D01*
X154269340Y-65768635D01*
X154269680Y-65768170D01*
X154269869Y-65768023D01*
X154272479Y-65764969D01*
X154273120Y-65765516D01*
X154325008Y-65725502D01*
X154394622Y-65719521D01*
X154456418Y-65752125D01*
X154470320Y-65768170D01*
X154470687Y-65768675D01*
X154470691Y-65768680D01*
X154470692Y-65768681D01*
X154470693Y-65768682D01*
X154641318Y-65939307D01*
X154836533Y-66081139D01*
X154902498Y-66114750D01*
X155051531Y-66190687D01*
X155051534Y-66190688D01*
X155166277Y-66227969D01*
X155281022Y-66265252D01*
X155519350Y-66303000D01*
X155519351Y-66303000D01*
X155760649Y-66303000D01*
X155760650Y-66303000D01*
X155998978Y-66265252D01*
X156228468Y-66190687D01*
X156443467Y-66081139D01*
X156638682Y-65939307D01*
X156809307Y-65768682D01*
X156809340Y-65768635D01*
X156809680Y-65768170D01*
X156809869Y-65768023D01*
X156812479Y-65764969D01*
X156813120Y-65765516D01*
X156865008Y-65725502D01*
X156934622Y-65719521D01*
X156996418Y-65752125D01*
X157010320Y-65768170D01*
X157010687Y-65768675D01*
X157010691Y-65768680D01*
X157010692Y-65768681D01*
X157010693Y-65768682D01*
X157181318Y-65939307D01*
X157376533Y-66081139D01*
X157442498Y-66114750D01*
X157591531Y-66190687D01*
X157591534Y-66190688D01*
X157706277Y-66227969D01*
X157821022Y-66265252D01*
X158059350Y-66303000D01*
X158059351Y-66303000D01*
X158300649Y-66303000D01*
X158300650Y-66303000D01*
X158538978Y-66265252D01*
X158768468Y-66190687D01*
X158983467Y-66081139D01*
X159178682Y-65939307D01*
X159349307Y-65768682D01*
X159349340Y-65768635D01*
X159349680Y-65768170D01*
X159349869Y-65768023D01*
X159352479Y-65764969D01*
X159353120Y-65765516D01*
X159405008Y-65725502D01*
X159474622Y-65719521D01*
X159536418Y-65752125D01*
X159538366Y-65754061D01*
X159544871Y-65760669D01*
X159550693Y-65768682D01*
X159683549Y-65901538D01*
X159683866Y-65901860D01*
X159700168Y-65932280D01*
X159716666Y-65962493D01*
X159716742Y-65963207D01*
X159716869Y-65963443D01*
X159716826Y-65963982D01*
X159719500Y-65988851D01*
X159719500Y-66564217D01*
X159699815Y-66631256D01*
X159683181Y-66651898D01*
X158621899Y-67713181D01*
X158560576Y-67746666D01*
X158534218Y-67749500D01*
X116215782Y-67749500D01*
X116148743Y-67729815D01*
X116128101Y-67713181D01*
X113036819Y-64621899D01*
X113003334Y-64560576D01*
X113000500Y-64534218D01*
X113000500Y-61951904D01*
X113020185Y-61884865D01*
X113072989Y-61839110D01*
X113142147Y-61829166D01*
X113197387Y-61851587D01*
X113213567Y-61863343D01*
X113303794Y-61909316D01*
X113424003Y-61970566D01*
X113424005Y-61970566D01*
X113424008Y-61970568D01*
X113544412Y-62009689D01*
X113648631Y-62043553D01*
X113881903Y-62080500D01*
X113881908Y-62080500D01*
X114118097Y-62080500D01*
X114351368Y-62043553D01*
X114418821Y-62021636D01*
X114575992Y-61970568D01*
X114786433Y-61863343D01*
X114977510Y-61724517D01*
X115144517Y-61557510D01*
X115283343Y-61366433D01*
X115390568Y-61155992D01*
X115463553Y-60931368D01*
X115467665Y-60905405D01*
X115500500Y-60698097D01*
X115500500Y-60545781D01*
X115520185Y-60478742D01*
X115536814Y-60458104D01*
X116137754Y-59857165D01*
X116199074Y-59823682D01*
X116268765Y-59828666D01*
X116324699Y-59870537D01*
X116349116Y-59936002D01*
X116335917Y-60001142D01*
X116295245Y-60080965D01*
X116232009Y-60275582D01*
X116200000Y-60477682D01*
X116200000Y-60682317D01*
X116232009Y-60884417D01*
X116295244Y-61079031D01*
X116388141Y-61261350D01*
X116388147Y-61261359D01*
X116420523Y-61305921D01*
X116420524Y-61305922D01*
X117100000Y-60626446D01*
X117100000Y-60632661D01*
X117127259Y-60734394D01*
X117179920Y-60825606D01*
X117254394Y-60900080D01*
X117345606Y-60952741D01*
X117447339Y-60980000D01*
X117453553Y-60980000D01*
X116774076Y-61659474D01*
X116818650Y-61691859D01*
X117000968Y-61784755D01*
X117195582Y-61847990D01*
X117397683Y-61880000D01*
X117602317Y-61880000D01*
X117804417Y-61847990D01*
X117999031Y-61784755D01*
X118181349Y-61691859D01*
X118225921Y-61659474D01*
X117546447Y-60980000D01*
X117552661Y-60980000D01*
X117654394Y-60952741D01*
X117745606Y-60900080D01*
X117820080Y-60825606D01*
X117872741Y-60734394D01*
X117900000Y-60632661D01*
X117900000Y-60626447D01*
X118579474Y-61305921D01*
X118611859Y-61261349D01*
X118704755Y-61079031D01*
X118767990Y-60884417D01*
X118800000Y-60682317D01*
X118800000Y-60477688D01*
X118799802Y-60476439D01*
X118799802Y-60476434D01*
X118797500Y-60461902D01*
X119499500Y-60461902D01*
X119499500Y-60698097D01*
X119536446Y-60931368D01*
X119609433Y-61155996D01*
X119685825Y-61305922D01*
X119716657Y-61366433D01*
X119855483Y-61557510D01*
X120022490Y-61724517D01*
X120213567Y-61863343D01*
X120303794Y-61909316D01*
X120424003Y-61970566D01*
X120424005Y-61970566D01*
X120424008Y-61970568D01*
X120544412Y-62009689D01*
X120648631Y-62043553D01*
X120881903Y-62080500D01*
X120881908Y-62080500D01*
X121118097Y-62080500D01*
X121351368Y-62043553D01*
X121418821Y-62021636D01*
X121575992Y-61970568D01*
X121786433Y-61863343D01*
X121977510Y-61724517D01*
X122144517Y-61557510D01*
X122283343Y-61366433D01*
X122390568Y-61155992D01*
X122463553Y-60931368D01*
X122467665Y-60905405D01*
X122500500Y-60698097D01*
X122500500Y-60461902D01*
X123499500Y-60461902D01*
X123499500Y-60698097D01*
X123536446Y-60931368D01*
X123609433Y-61155996D01*
X123685825Y-61305922D01*
X123716657Y-61366433D01*
X123855483Y-61557510D01*
X124022490Y-61724517D01*
X124213567Y-61863343D01*
X124303794Y-61909316D01*
X124424003Y-61970566D01*
X124424005Y-61970566D01*
X124424008Y-61970568D01*
X124544412Y-62009689D01*
X124648631Y-62043553D01*
X124881903Y-62080500D01*
X124881908Y-62080500D01*
X125118097Y-62080500D01*
X125351368Y-62043553D01*
X125418821Y-62021636D01*
X125575992Y-61970568D01*
X125786433Y-61863343D01*
X125977510Y-61724517D01*
X126144517Y-61557510D01*
X126283343Y-61366433D01*
X126390568Y-61155992D01*
X126463553Y-60931368D01*
X126467665Y-60905405D01*
X126500500Y-60698097D01*
X126500500Y-60461902D01*
X126463553Y-60228631D01*
X126390566Y-60004003D01*
X126316672Y-59858979D01*
X126283343Y-59793567D01*
X126144517Y-59602490D01*
X125977510Y-59435483D01*
X125786433Y-59296657D01*
X125753742Y-59280000D01*
X125575996Y-59189433D01*
X125351368Y-59116446D01*
X125118097Y-59079500D01*
X125118092Y-59079500D01*
X124881908Y-59079500D01*
X124881903Y-59079500D01*
X124648631Y-59116446D01*
X124424003Y-59189433D01*
X124213566Y-59296657D01*
X124105402Y-59375244D01*
X124022490Y-59435483D01*
X124022488Y-59435485D01*
X124022487Y-59435485D01*
X123855485Y-59602487D01*
X123855485Y-59602488D01*
X123855483Y-59602490D01*
X123801494Y-59676799D01*
X123716657Y-59793566D01*
X123609433Y-60004003D01*
X123536446Y-60228631D01*
X123499500Y-60461902D01*
X122500500Y-60461902D01*
X122463553Y-60228631D01*
X122390566Y-60004003D01*
X122316672Y-59858979D01*
X122283343Y-59793567D01*
X122144517Y-59602490D01*
X121977510Y-59435483D01*
X121786433Y-59296657D01*
X121753742Y-59280000D01*
X121575996Y-59189433D01*
X121351368Y-59116446D01*
X121118097Y-59079500D01*
X121118092Y-59079500D01*
X120881908Y-59079500D01*
X120881903Y-59079500D01*
X120648631Y-59116446D01*
X120424003Y-59189433D01*
X120213566Y-59296657D01*
X120105402Y-59375244D01*
X120022490Y-59435483D01*
X120022488Y-59435485D01*
X120022487Y-59435485D01*
X119855485Y-59602487D01*
X119855485Y-59602488D01*
X119855483Y-59602490D01*
X119801494Y-59676799D01*
X119716657Y-59793566D01*
X119609433Y-60004003D01*
X119536446Y-60228631D01*
X119499500Y-60461902D01*
X118797500Y-60461902D01*
X118767990Y-60275582D01*
X118704755Y-60080968D01*
X118611859Y-59898650D01*
X118579474Y-59854077D01*
X118579474Y-59854076D01*
X117900000Y-60533551D01*
X117900000Y-60527339D01*
X117872741Y-60425606D01*
X117820080Y-60334394D01*
X117745606Y-60259920D01*
X117654394Y-60207259D01*
X117552661Y-60180000D01*
X117546446Y-60180000D01*
X118225922Y-59500524D01*
X118225921Y-59500523D01*
X118181359Y-59468147D01*
X118181350Y-59468141D01*
X117999031Y-59375244D01*
X117804417Y-59312009D01*
X117602317Y-59280000D01*
X117397683Y-59280000D01*
X117195582Y-59312009D01*
X117000965Y-59375245D01*
X116921147Y-59415915D01*
X116852478Y-59428811D01*
X116787738Y-59402534D01*
X116747481Y-59345427D01*
X116744489Y-59275622D01*
X116774109Y-59223178D01*
X116773274Y-59222492D01*
X116777134Y-59217786D01*
X116777139Y-59217782D01*
X116886632Y-59053914D01*
X116945608Y-58911532D01*
X116962051Y-58871836D01*
X116991684Y-58722861D01*
X117000500Y-58678541D01*
X117000500Y-52961902D01*
X126999500Y-52961902D01*
X126999500Y-53198097D01*
X127036446Y-53431368D01*
X127109433Y-53655996D01*
X127186378Y-53807007D01*
X127216657Y-53866433D01*
X127355483Y-54057510D01*
X127522490Y-54224517D01*
X127713567Y-54363343D01*
X127727084Y-54370230D01*
X127924003Y-54470566D01*
X127924005Y-54470566D01*
X127924008Y-54470568D01*
X128044412Y-54509689D01*
X128148631Y-54543553D01*
X128381903Y-54580500D01*
X128381908Y-54580500D01*
X128618097Y-54580500D01*
X128851368Y-54543553D01*
X128904704Y-54526223D01*
X129075992Y-54470568D01*
X129286433Y-54363343D01*
X129477510Y-54224517D01*
X129644517Y-54057510D01*
X129783343Y-53866433D01*
X129890568Y-53655992D01*
X129963553Y-53431368D01*
X129967825Y-53404394D01*
X130000500Y-53198097D01*
X130000500Y-52961902D01*
X129963553Y-52728631D01*
X129922511Y-52602317D01*
X129890568Y-52504008D01*
X129890566Y-52504005D01*
X129890566Y-52504003D01*
X129836392Y-52397682D01*
X129783343Y-52293567D01*
X129644517Y-52102490D01*
X129566154Y-52024127D01*
X129532669Y-51962804D01*
X129537653Y-51893112D01*
X129566152Y-51848767D01*
X130878101Y-50536819D01*
X130939424Y-50503334D01*
X130965782Y-50500500D01*
X150138543Y-50500500D01*
X150268582Y-50474632D01*
X150331835Y-50462051D01*
X150511932Y-50387453D01*
X150513907Y-50386635D01*
X150513907Y-50386634D01*
X150513914Y-50386632D01*
X150677782Y-50277139D01*
X150817139Y-50137782D01*
X150926632Y-49973914D01*
X151002051Y-49791835D01*
X151014632Y-49728582D01*
X151040500Y-49598543D01*
X151040500Y-48175782D01*
X151060185Y-48108743D01*
X151076819Y-48088101D01*
X151878101Y-47286819D01*
X151939424Y-47253334D01*
X151965782Y-47250500D01*
X152281149Y-47250500D01*
X152310138Y-47259012D01*
X152339721Y-47265205D01*
X152345276Y-47269330D01*
X152348188Y-47270185D01*
X152368140Y-47286134D01*
X152368461Y-47286450D01*
X152501318Y-47419307D01*
X152509334Y-47425131D01*
X152515940Y-47431634D01*
X152528598Y-47454390D01*
X152544501Y-47475013D01*
X152545309Y-47484432D01*
X152549905Y-47492693D01*
X152548250Y-47518681D01*
X152550479Y-47544627D01*
X152546067Y-47552987D01*
X152545467Y-47562421D01*
X152530024Y-47583390D01*
X152517872Y-47606421D01*
X152504587Y-47617931D01*
X152504036Y-47618681D01*
X152503476Y-47618894D01*
X152501835Y-47620317D01*
X152501324Y-47620688D01*
X152501315Y-47620695D01*
X152330695Y-47791315D01*
X152188861Y-47986532D01*
X152079312Y-48201531D01*
X152079311Y-48201534D01*
X152004748Y-48431020D01*
X151978215Y-48598541D01*
X151967000Y-48669350D01*
X151967000Y-48910650D01*
X151974254Y-48956447D01*
X152004748Y-49148979D01*
X152079311Y-49378465D01*
X152079312Y-49378468D01*
X152158238Y-49533366D01*
X152188861Y-49593467D01*
X152330693Y-49788682D01*
X152501318Y-49959307D01*
X152696533Y-50101139D01*
X152801983Y-50154868D01*
X152911531Y-50210687D01*
X152911534Y-50210688D01*
X152993541Y-50237333D01*
X153141022Y-50285252D01*
X153379350Y-50323000D01*
X153379351Y-50323000D01*
X153620649Y-50323000D01*
X153620650Y-50323000D01*
X153858978Y-50285252D01*
X154088468Y-50210687D01*
X154303467Y-50101139D01*
X154498682Y-49959307D01*
X154669307Y-49788682D01*
X154811139Y-49593467D01*
X154920687Y-49378468D01*
X154995252Y-49148978D01*
X155033000Y-48910650D01*
X155033000Y-48669350D01*
X154995252Y-48431022D01*
X154957969Y-48316277D01*
X154920688Y-48201534D01*
X154920687Y-48201531D01*
X154831292Y-48026086D01*
X154811139Y-47986533D01*
X154669307Y-47791318D01*
X154498682Y-47620693D01*
X154498680Y-47620691D01*
X154498675Y-47620687D01*
X154498170Y-47620320D01*
X154498023Y-47620130D01*
X154494969Y-47617521D01*
X154495516Y-47616879D01*
X154455502Y-47564992D01*
X154449521Y-47495378D01*
X154482125Y-47433582D01*
X154498170Y-47419680D01*
X154498675Y-47419312D01*
X154498673Y-47419312D01*
X154498682Y-47419307D01*
X154669307Y-47248682D01*
X154811139Y-47053467D01*
X154920687Y-46838468D01*
X154995252Y-46608978D01*
X155033000Y-46370650D01*
X155033000Y-46129350D01*
X154995252Y-45891022D01*
X154920687Y-45661532D01*
X154920687Y-45661531D01*
X154862727Y-45547780D01*
X154811139Y-45446533D01*
X154669307Y-45251318D01*
X154498682Y-45080693D01*
X154498680Y-45080691D01*
X154498675Y-45080687D01*
X154498170Y-45080320D01*
X154498023Y-45080130D01*
X154494969Y-45077521D01*
X154495516Y-45076879D01*
X154455502Y-45024992D01*
X154449521Y-44955378D01*
X154482125Y-44893582D01*
X154498170Y-44879680D01*
X154498675Y-44879312D01*
X154498676Y-44879311D01*
X154498682Y-44879307D01*
X154669307Y-44708682D01*
X154811139Y-44513467D01*
X154920687Y-44298468D01*
X154995252Y-44068978D01*
X155033000Y-43830650D01*
X155033000Y-43589350D01*
X154995252Y-43351022D01*
X154940062Y-43181162D01*
X154920688Y-43121534D01*
X154920687Y-43121531D01*
X154811138Y-42906532D01*
X154735120Y-42801902D01*
X154669307Y-42711318D01*
X154498682Y-42540693D01*
X154303467Y-42398861D01*
X154088468Y-42289312D01*
X154088465Y-42289311D01*
X153858979Y-42214748D01*
X153739814Y-42195874D01*
X153620650Y-42177000D01*
X153379350Y-42177000D01*
X153299907Y-42189582D01*
X153141020Y-42214748D01*
X152911534Y-42289311D01*
X152911531Y-42289312D01*
X152696532Y-42398861D01*
X152501315Y-42540695D01*
X152330695Y-42711315D01*
X152188861Y-42906532D01*
X152079312Y-43121531D01*
X152079311Y-43121534D01*
X152004748Y-43351020D01*
X151987794Y-43458064D01*
X151967000Y-43589350D01*
X151967000Y-43830650D01*
X151974242Y-43876376D01*
X152004748Y-44068979D01*
X152079311Y-44298465D01*
X152079312Y-44298468D01*
X152188861Y-44513467D01*
X152330693Y-44708682D01*
X152501318Y-44879307D01*
X152501324Y-44879311D01*
X152501835Y-44879683D01*
X152501982Y-44879873D01*
X152505023Y-44882471D01*
X152504477Y-44883109D01*
X152544501Y-44935013D01*
X152550479Y-45004627D01*
X152517872Y-45066421D01*
X152515940Y-45068366D01*
X152509334Y-45074868D01*
X152501318Y-45080693D01*
X152368461Y-45213549D01*
X152368140Y-45213866D01*
X152337745Y-45230154D01*
X152307507Y-45246666D01*
X152306791Y-45246742D01*
X152306556Y-45246869D01*
X152306017Y-45246826D01*
X152281149Y-45249500D01*
X151401455Y-45249500D01*
X151304812Y-45268724D01*
X151208167Y-45287947D01*
X151208161Y-45287949D01*
X151154834Y-45310037D01*
X151154834Y-45310038D01*
X151109315Y-45328892D01*
X151026089Y-45363366D01*
X151026079Y-45363371D01*
X150857902Y-45475744D01*
X150791224Y-45496622D01*
X150723844Y-45478137D01*
X150677154Y-45426158D01*
X150665978Y-45357188D01*
X150669234Y-45340559D01*
X150671404Y-45332463D01*
X150700500Y-45111457D01*
X150700500Y-44888543D01*
X150671404Y-44667537D01*
X150613710Y-44452219D01*
X150528405Y-44246274D01*
X150416948Y-44053226D01*
X150315104Y-43920500D01*
X150281248Y-43876377D01*
X150281242Y-43876370D01*
X150123629Y-43718757D01*
X150123622Y-43718751D01*
X149946782Y-43583058D01*
X149946780Y-43583057D01*
X149946774Y-43583052D01*
X149753726Y-43471595D01*
X149753722Y-43471593D01*
X149547790Y-43386293D01*
X149547783Y-43386291D01*
X149547781Y-43386290D01*
X149332463Y-43328596D01*
X149332457Y-43328595D01*
X149332452Y-43328594D01*
X149111466Y-43299501D01*
X149111463Y-43299500D01*
X149111457Y-43299500D01*
X148888543Y-43299500D01*
X148888537Y-43299500D01*
X148888533Y-43299501D01*
X148667547Y-43328594D01*
X148667540Y-43328595D01*
X148667537Y-43328596D01*
X148452219Y-43386290D01*
X148452209Y-43386293D01*
X148246277Y-43471593D01*
X148246273Y-43471595D01*
X148053226Y-43583052D01*
X148053217Y-43583058D01*
X147876377Y-43718751D01*
X147876370Y-43718757D01*
X147718757Y-43876370D01*
X147718751Y-43876377D01*
X147583058Y-44053217D01*
X147583052Y-44053226D01*
X147471595Y-44246273D01*
X147471593Y-44246277D01*
X147386293Y-44452209D01*
X147386290Y-44452219D01*
X147333630Y-44648752D01*
X147328597Y-44667534D01*
X147328594Y-44667547D01*
X147300715Y-44879311D01*
X147299501Y-44888540D01*
X147299500Y-44888549D01*
X147299500Y-45111450D01*
X147299501Y-45111466D01*
X147328594Y-45332452D01*
X147328595Y-45332457D01*
X147328596Y-45332463D01*
X147366988Y-45475744D01*
X147386290Y-45547780D01*
X147386293Y-45547790D01*
X147471593Y-45753722D01*
X147471595Y-45753726D01*
X147583052Y-45946774D01*
X147583057Y-45946780D01*
X147583058Y-45946782D01*
X147718751Y-46123622D01*
X147718757Y-46123629D01*
X147876370Y-46281242D01*
X147876377Y-46281248D01*
X147932079Y-46323989D01*
X148053226Y-46416948D01*
X148246274Y-46528405D01*
X148278941Y-46541936D01*
X148451400Y-46613371D01*
X148452219Y-46613710D01*
X148667537Y-46671404D01*
X148888543Y-46700500D01*
X148888550Y-46700500D01*
X149111450Y-46700500D01*
X149111457Y-46700500D01*
X149332463Y-46671404D01*
X149337896Y-46669948D01*
X149340951Y-46670020D01*
X149343637Y-46668554D01*
X149375655Y-46670843D01*
X149407744Y-46671605D01*
X149410278Y-46673319D01*
X149413329Y-46673538D01*
X149439017Y-46692767D01*
X149465609Y-46710763D01*
X149466814Y-46713576D01*
X149469262Y-46715409D01*
X149480477Y-46745477D01*
X149493118Y-46774990D01*
X149492610Y-46778006D01*
X149493680Y-46780873D01*
X149486855Y-46812246D01*
X149481536Y-46843893D01*
X149479283Y-46847056D01*
X149478829Y-46849146D01*
X149457678Y-46877400D01*
X149402222Y-46932857D01*
X149402221Y-46932858D01*
X149402218Y-46932861D01*
X149332538Y-47002540D01*
X149262859Y-47072219D01*
X149153371Y-47236079D01*
X149153364Y-47236092D01*
X149077950Y-47418160D01*
X149077947Y-47418170D01*
X149039500Y-47611456D01*
X149039500Y-48375500D01*
X149019815Y-48442539D01*
X148967011Y-48488294D01*
X148915500Y-48499500D01*
X130401455Y-48499500D01*
X130304812Y-48518724D01*
X130208167Y-48537947D01*
X130208161Y-48537949D01*
X130154834Y-48560037D01*
X130154834Y-48560038D01*
X130124775Y-48572489D01*
X130026089Y-48613366D01*
X130026079Y-48613371D01*
X129862219Y-48722859D01*
X129792540Y-48792538D01*
X129722861Y-48862218D01*
X129722858Y-48862221D01*
X127862221Y-50722858D01*
X127862218Y-50722861D01*
X127813711Y-50771368D01*
X127722859Y-50862219D01*
X127613371Y-51026079D01*
X127613364Y-51026092D01*
X127537950Y-51208160D01*
X127537947Y-51208170D01*
X127499501Y-51401450D01*
X127499500Y-51401456D01*
X127499500Y-51907111D01*
X127479815Y-51974150D01*
X127463181Y-51994792D01*
X127355485Y-52102487D01*
X127355485Y-52102488D01*
X127355483Y-52102490D01*
X127321959Y-52148632D01*
X127216657Y-52293566D01*
X127109433Y-52504003D01*
X127036446Y-52728631D01*
X126999500Y-52961902D01*
X117000500Y-52961902D01*
X117000500Y-52005276D01*
X117020185Y-51938237D01*
X117072989Y-51892482D01*
X117142147Y-51882538D01*
X117143898Y-51882803D01*
X117148630Y-51883552D01*
X117148632Y-51883553D01*
X117194516Y-51890820D01*
X117381903Y-51920500D01*
X117381908Y-51920500D01*
X117618097Y-51920500D01*
X117851368Y-51883553D01*
X117854492Y-51882538D01*
X118075992Y-51810568D01*
X118286433Y-51703343D01*
X118477510Y-51564517D01*
X118644517Y-51397510D01*
X118783343Y-51206433D01*
X118890568Y-50995992D01*
X118963553Y-50771368D01*
X119000500Y-50538097D01*
X119000500Y-50301902D01*
X119499500Y-50301902D01*
X119499500Y-50538097D01*
X119536446Y-50771368D01*
X119609433Y-50995996D01*
X119685825Y-51145922D01*
X119716657Y-51206433D01*
X119855483Y-51397510D01*
X120022490Y-51564517D01*
X120213567Y-51703343D01*
X120273802Y-51734034D01*
X120424003Y-51810566D01*
X120424005Y-51810566D01*
X120424008Y-51810568D01*
X120513544Y-51839660D01*
X120648631Y-51883553D01*
X120881903Y-51920500D01*
X120881908Y-51920500D01*
X121118097Y-51920500D01*
X121351368Y-51883553D01*
X121354492Y-51882538D01*
X121575992Y-51810568D01*
X121786433Y-51703343D01*
X121977510Y-51564517D01*
X122144517Y-51397510D01*
X122283343Y-51206433D01*
X122390568Y-50995992D01*
X122463553Y-50771368D01*
X122500500Y-50538097D01*
X122500500Y-50317682D01*
X123700000Y-50317682D01*
X123700000Y-50522317D01*
X123732009Y-50724417D01*
X123795244Y-50919031D01*
X123888141Y-51101350D01*
X123888147Y-51101359D01*
X123920523Y-51145921D01*
X123920524Y-51145922D01*
X124600000Y-50466446D01*
X124600000Y-50472661D01*
X124627259Y-50574394D01*
X124679920Y-50665606D01*
X124754394Y-50740080D01*
X124845606Y-50792741D01*
X124947339Y-50820000D01*
X124953553Y-50820000D01*
X124274076Y-51499474D01*
X124318650Y-51531859D01*
X124500968Y-51624755D01*
X124695582Y-51687990D01*
X124897683Y-51720000D01*
X125102317Y-51720000D01*
X125304417Y-51687990D01*
X125499031Y-51624755D01*
X125681349Y-51531859D01*
X125725921Y-51499474D01*
X125046447Y-50820000D01*
X125052661Y-50820000D01*
X125154394Y-50792741D01*
X125245606Y-50740080D01*
X125320080Y-50665606D01*
X125372741Y-50574394D01*
X125400000Y-50472661D01*
X125400000Y-50466448D01*
X126079474Y-51145922D01*
X126079474Y-51145921D01*
X126111859Y-51101349D01*
X126204755Y-50919031D01*
X126267990Y-50724417D01*
X126300000Y-50522317D01*
X126300000Y-50317682D01*
X126267990Y-50115582D01*
X126204755Y-49920968D01*
X126111859Y-49738650D01*
X126079474Y-49694077D01*
X126079474Y-49694076D01*
X125400000Y-50373551D01*
X125400000Y-50367339D01*
X125372741Y-50265606D01*
X125320080Y-50174394D01*
X125245606Y-50099920D01*
X125154394Y-50047259D01*
X125052661Y-50020000D01*
X125046446Y-50020000D01*
X125725922Y-49340524D01*
X125725921Y-49340523D01*
X125681359Y-49308147D01*
X125681350Y-49308141D01*
X125499031Y-49215244D01*
X125304417Y-49152009D01*
X125102317Y-49120000D01*
X124897683Y-49120000D01*
X124695582Y-49152009D01*
X124500968Y-49215244D01*
X124318644Y-49308143D01*
X124274077Y-49340523D01*
X124274077Y-49340524D01*
X124953554Y-50020000D01*
X124947339Y-50020000D01*
X124845606Y-50047259D01*
X124754394Y-50099920D01*
X124679920Y-50174394D01*
X124627259Y-50265606D01*
X124600000Y-50367339D01*
X124600000Y-50373553D01*
X123920524Y-49694077D01*
X123920523Y-49694077D01*
X123888143Y-49738644D01*
X123795244Y-49920968D01*
X123732009Y-50115582D01*
X123700000Y-50317682D01*
X122500500Y-50317682D01*
X122500500Y-50301902D01*
X122463553Y-50068631D01*
X122417198Y-49925966D01*
X122390568Y-49844008D01*
X122390566Y-49844005D01*
X122390566Y-49844003D01*
X122288078Y-49642860D01*
X122283343Y-49633567D01*
X122144517Y-49442490D01*
X121977510Y-49275483D01*
X121786433Y-49136657D01*
X121781424Y-49134105D01*
X121575996Y-49029433D01*
X121351368Y-48956446D01*
X121118097Y-48919500D01*
X121118092Y-48919500D01*
X120881908Y-48919500D01*
X120881903Y-48919500D01*
X120648631Y-48956446D01*
X120424003Y-49029433D01*
X120213566Y-49136657D01*
X120123654Y-49201983D01*
X120022490Y-49275483D01*
X120022488Y-49275485D01*
X120022487Y-49275485D01*
X119855485Y-49442487D01*
X119855485Y-49442488D01*
X119855483Y-49442490D01*
X119805558Y-49511206D01*
X119716657Y-49633566D01*
X119609433Y-49844003D01*
X119536446Y-50068631D01*
X119499500Y-50301902D01*
X119000500Y-50301902D01*
X118963553Y-50068631D01*
X118917198Y-49925966D01*
X118890568Y-49844008D01*
X118890566Y-49844005D01*
X118890566Y-49844003D01*
X118788078Y-49642860D01*
X118783343Y-49633567D01*
X118644517Y-49442490D01*
X118477510Y-49275483D01*
X118286433Y-49136657D01*
X118281424Y-49134105D01*
X118075996Y-49029433D01*
X117851368Y-48956446D01*
X117618097Y-48919500D01*
X117618092Y-48919500D01*
X117381908Y-48919500D01*
X117381903Y-48919500D01*
X117143898Y-48957196D01*
X117125358Y-48954800D01*
X117106853Y-48957461D01*
X117091423Y-48950414D01*
X117074604Y-48948241D01*
X117060302Y-48936202D01*
X117043297Y-48928436D01*
X117034127Y-48914167D01*
X117021152Y-48903245D01*
X117015629Y-48885384D01*
X117005523Y-48869658D01*
X117000964Y-48837954D01*
X117000513Y-48836494D01*
X117000500Y-48834723D01*
X117000500Y-48604675D01*
X117000501Y-48604654D01*
X117000501Y-48401457D01*
X117000500Y-48401455D01*
X116962053Y-48208172D01*
X116962053Y-48208170D01*
X116962052Y-48208165D01*
X116903717Y-48067334D01*
X116886633Y-48026088D01*
X116886628Y-48026079D01*
X116777140Y-47862219D01*
X116777137Y-47862215D01*
X115784209Y-46869289D01*
X115784206Y-46869285D01*
X115784206Y-46869286D01*
X115777139Y-46862219D01*
X115777139Y-46862218D01*
X115637782Y-46722861D01*
X115637781Y-46722860D01*
X115637780Y-46722859D01*
X115468849Y-46609983D01*
X115469982Y-46608285D01*
X115426796Y-46565852D01*
X115411344Y-46497713D01*
X115435184Y-46432036D01*
X115459611Y-46407097D01*
X115623624Y-46281247D01*
X115781247Y-46123624D01*
X115916948Y-45946774D01*
X116028405Y-45753726D01*
X116113710Y-45547781D01*
X116171404Y-45332463D01*
X116200500Y-45111457D01*
X116200500Y-44888543D01*
X116199632Y-44881947D01*
X118000000Y-44881947D01*
X118000000Y-45118052D01*
X118036934Y-45351247D01*
X118109897Y-45575802D01*
X118217087Y-45786174D01*
X118277338Y-45869104D01*
X118277340Y-45869105D01*
X118898949Y-45247496D01*
X118923968Y-45307896D01*
X118995104Y-45414358D01*
X119085642Y-45504896D01*
X119192104Y-45576032D01*
X119252503Y-45601049D01*
X118630893Y-46222658D01*
X118713828Y-46282914D01*
X118924197Y-46390102D01*
X119148752Y-46463065D01*
X119148751Y-46463065D01*
X119381948Y-46500000D01*
X119618052Y-46500000D01*
X119851247Y-46463065D01*
X120075802Y-46390102D01*
X120286163Y-46282918D01*
X120286169Y-46282914D01*
X120369104Y-46222658D01*
X120369105Y-46222658D01*
X119747496Y-45601050D01*
X119807896Y-45576032D01*
X119914358Y-45504896D01*
X120004896Y-45414358D01*
X120076032Y-45307896D01*
X120101049Y-45247496D01*
X120722658Y-45869105D01*
X120722658Y-45869104D01*
X120782914Y-45786169D01*
X120782918Y-45786163D01*
X120890102Y-45575802D01*
X120963065Y-45351247D01*
X121000000Y-45118052D01*
X121000000Y-44888549D01*
X122799500Y-44888549D01*
X122799500Y-45111450D01*
X122799501Y-45111466D01*
X122828594Y-45332452D01*
X122828595Y-45332457D01*
X122828596Y-45332463D01*
X122866988Y-45475744D01*
X122886290Y-45547780D01*
X122886293Y-45547790D01*
X122971593Y-45753722D01*
X122971595Y-45753726D01*
X123083052Y-45946774D01*
X123083057Y-45946780D01*
X123083058Y-45946782D01*
X123218751Y-46123622D01*
X123218757Y-46123629D01*
X123376370Y-46281242D01*
X123376377Y-46281248D01*
X123432079Y-46323989D01*
X123553226Y-46416948D01*
X123746274Y-46528405D01*
X123778941Y-46541936D01*
X123951400Y-46613371D01*
X123952219Y-46613710D01*
X124167537Y-46671404D01*
X124388543Y-46700500D01*
X124388550Y-46700500D01*
X124611450Y-46700500D01*
X124611457Y-46700500D01*
X124832463Y-46671404D01*
X125047781Y-46613710D01*
X125253726Y-46528405D01*
X125446774Y-46416948D01*
X125623624Y-46281247D01*
X125781247Y-46123624D01*
X125916948Y-45946774D01*
X126028405Y-45753726D01*
X126113710Y-45547781D01*
X126171404Y-45332463D01*
X126200500Y-45111457D01*
X126200500Y-44888543D01*
X126171404Y-44667537D01*
X126113710Y-44452219D01*
X126028405Y-44246274D01*
X125916948Y-44053226D01*
X125815104Y-43920500D01*
X125781248Y-43876377D01*
X125781242Y-43876370D01*
X125623629Y-43718757D01*
X125623622Y-43718751D01*
X125446782Y-43583058D01*
X125446780Y-43583057D01*
X125446774Y-43583052D01*
X125253726Y-43471595D01*
X125253722Y-43471593D01*
X125047790Y-43386293D01*
X125047783Y-43386291D01*
X125047781Y-43386290D01*
X124832463Y-43328596D01*
X124832457Y-43328595D01*
X124832452Y-43328594D01*
X124611466Y-43299501D01*
X124611463Y-43299500D01*
X124611457Y-43299500D01*
X124388543Y-43299500D01*
X124388537Y-43299500D01*
X124388533Y-43299501D01*
X124167547Y-43328594D01*
X124167540Y-43328595D01*
X124167537Y-43328596D01*
X123952219Y-43386290D01*
X123952209Y-43386293D01*
X123746277Y-43471593D01*
X123746273Y-43471595D01*
X123553226Y-43583052D01*
X123553217Y-43583058D01*
X123376377Y-43718751D01*
X123376370Y-43718757D01*
X123218757Y-43876370D01*
X123218751Y-43876377D01*
X123083058Y-44053217D01*
X123083052Y-44053226D01*
X122971595Y-44246273D01*
X122971593Y-44246277D01*
X122886293Y-44452209D01*
X122886290Y-44452219D01*
X122833630Y-44648752D01*
X122828597Y-44667534D01*
X122828594Y-44667547D01*
X122800715Y-44879311D01*
X122799501Y-44888540D01*
X122799500Y-44888549D01*
X121000000Y-44888549D01*
X121000000Y-44881947D01*
X120963065Y-44648752D01*
X120890102Y-44424197D01*
X120782914Y-44213828D01*
X120722658Y-44130894D01*
X120722658Y-44130893D01*
X120101049Y-44752502D01*
X120076032Y-44692104D01*
X120004896Y-44585642D01*
X119914358Y-44495104D01*
X119807896Y-44423968D01*
X119747496Y-44398949D01*
X120369105Y-43777340D01*
X120369104Y-43777338D01*
X120286174Y-43717087D01*
X120075802Y-43609897D01*
X119851247Y-43536934D01*
X119851248Y-43536934D01*
X119618052Y-43500000D01*
X119381948Y-43500000D01*
X119148752Y-43536934D01*
X118924197Y-43609897D01*
X118713830Y-43717084D01*
X118630894Y-43777340D01*
X119252503Y-44398949D01*
X119192104Y-44423968D01*
X119085642Y-44495104D01*
X118995104Y-44585642D01*
X118923968Y-44692104D01*
X118898949Y-44752503D01*
X118277340Y-44130894D01*
X118217084Y-44213830D01*
X118109897Y-44424197D01*
X118036934Y-44648752D01*
X118000000Y-44881947D01*
X116199632Y-44881947D01*
X116171404Y-44667537D01*
X116113710Y-44452219D01*
X116028405Y-44246274D01*
X115916948Y-44053226D01*
X115830209Y-43940185D01*
X115799440Y-43900085D01*
X115781248Y-43876377D01*
X115781242Y-43876370D01*
X115623629Y-43718757D01*
X115623622Y-43718751D01*
X115446782Y-43583058D01*
X115446780Y-43583057D01*
X115446774Y-43583052D01*
X115253726Y-43471595D01*
X115253722Y-43471593D01*
X115047790Y-43386293D01*
X115047783Y-43386291D01*
X115047781Y-43386290D01*
X114832463Y-43328596D01*
X114832457Y-43328595D01*
X114832452Y-43328594D01*
X114611466Y-43299501D01*
X114611463Y-43299500D01*
X114611457Y-43299500D01*
X114388543Y-43299500D01*
X114388537Y-43299500D01*
X114388533Y-43299501D01*
X114167547Y-43328594D01*
X114167540Y-43328595D01*
X114167537Y-43328596D01*
X113952219Y-43386290D01*
X113952209Y-43386293D01*
X113746277Y-43471593D01*
X113746273Y-43471595D01*
X113553226Y-43583052D01*
X113553217Y-43583058D01*
X113376377Y-43718751D01*
X113376370Y-43718757D01*
X113218757Y-43876370D01*
X113218751Y-43876377D01*
X113083058Y-44053217D01*
X113083052Y-44053226D01*
X112971595Y-44246273D01*
X112971593Y-44246277D01*
X112886293Y-44452209D01*
X112886290Y-44452219D01*
X112833630Y-44648752D01*
X112828597Y-44667534D01*
X112828594Y-44667547D01*
X112800715Y-44879311D01*
X112799501Y-44888540D01*
X112799500Y-44888549D01*
X112799500Y-45111450D01*
X112799501Y-45111466D01*
X112828594Y-45332452D01*
X112828595Y-45332457D01*
X112828596Y-45332463D01*
X112866988Y-45475744D01*
X112886290Y-45547780D01*
X112886293Y-45547790D01*
X112971593Y-45753722D01*
X112971595Y-45753726D01*
X113083052Y-45946774D01*
X113083057Y-45946780D01*
X113083058Y-45946782D01*
X113218751Y-46123622D01*
X113218757Y-46123629D01*
X113376375Y-46281247D01*
X113377546Y-46282274D01*
X113377795Y-46282667D01*
X113379246Y-46284118D01*
X113378921Y-46284442D01*
X113414969Y-46341276D01*
X113414551Y-46411145D01*
X113376427Y-46469696D01*
X113312699Y-46498341D01*
X113295785Y-46499500D01*
X110704215Y-46499500D01*
X110637176Y-46479815D01*
X110591421Y-46427011D01*
X110581477Y-46357853D01*
X110610502Y-46294297D01*
X110622454Y-46282274D01*
X110623624Y-46281247D01*
X110781242Y-46123629D01*
X110781247Y-46123624D01*
X110916948Y-45946774D01*
X111028405Y-45753726D01*
X111113710Y-45547781D01*
X111171404Y-45332463D01*
X111200500Y-45111457D01*
X111200500Y-44888543D01*
X111171404Y-44667537D01*
X111113710Y-44452219D01*
X111028405Y-44246274D01*
X110916948Y-44053226D01*
X110815104Y-43920500D01*
X110781248Y-43876377D01*
X110781242Y-43876370D01*
X110623629Y-43718757D01*
X110623622Y-43718751D01*
X110446782Y-43583058D01*
X110446780Y-43583057D01*
X110446774Y-43583052D01*
X110253726Y-43471595D01*
X110253722Y-43471593D01*
X110047790Y-43386293D01*
X110047783Y-43386291D01*
X110047781Y-43386290D01*
X109832463Y-43328596D01*
X109832457Y-43328595D01*
X109832452Y-43328594D01*
X109611466Y-43299501D01*
X109611463Y-43299500D01*
X109611457Y-43299500D01*
X109388543Y-43299500D01*
X109388537Y-43299500D01*
X109388533Y-43299501D01*
X109167547Y-43328594D01*
X109167540Y-43328595D01*
X109167537Y-43328596D01*
X108952219Y-43386290D01*
X108952209Y-43386293D01*
X108746277Y-43471593D01*
X108746273Y-43471595D01*
X108553226Y-43583052D01*
X108553217Y-43583058D01*
X108376377Y-43718751D01*
X108376370Y-43718757D01*
X108218757Y-43876370D01*
X108218751Y-43876377D01*
X108083058Y-44053217D01*
X108083052Y-44053226D01*
X107971595Y-44246273D01*
X107971593Y-44246277D01*
X107886293Y-44452209D01*
X107886290Y-44452219D01*
X107833630Y-44648752D01*
X107828597Y-44667534D01*
X107828594Y-44667547D01*
X107800715Y-44879311D01*
X107799501Y-44888540D01*
X107799500Y-44888549D01*
X107799500Y-45111450D01*
X107799501Y-45111466D01*
X107828594Y-45332452D01*
X107828595Y-45332457D01*
X107828596Y-45332463D01*
X107866988Y-45475744D01*
X107886290Y-45547780D01*
X107886293Y-45547790D01*
X107971593Y-45753722D01*
X107971595Y-45753726D01*
X108083052Y-45946774D01*
X108083057Y-45946780D01*
X108083058Y-45946782D01*
X108218751Y-46123622D01*
X108218757Y-46123629D01*
X108376375Y-46281247D01*
X108377546Y-46282274D01*
X108377795Y-46282667D01*
X108379246Y-46284118D01*
X108378921Y-46284442D01*
X108391510Y-46304291D01*
X108408579Y-46323989D01*
X108409920Y-46333315D01*
X108414969Y-46341276D01*
X108414813Y-46367345D01*
X108418523Y-46393147D01*
X108414607Y-46401721D01*
X108414551Y-46411145D01*
X108400327Y-46432989D01*
X108389498Y-46456703D01*
X108381569Y-46461798D01*
X108376427Y-46469696D01*
X108352650Y-46480383D01*
X108330720Y-46494477D01*
X108316862Y-46496469D01*
X108312699Y-46498341D01*
X108295785Y-46499500D01*
X108104675Y-46499500D01*
X108104655Y-46499499D01*
X108098541Y-46499499D01*
X107901460Y-46499499D01*
X107901457Y-46499499D01*
X107708172Y-46537946D01*
X107708164Y-46537948D01*
X107526088Y-46613366D01*
X107526079Y-46613371D01*
X107362219Y-46722859D01*
X107362215Y-46722862D01*
X106610066Y-47475013D01*
X106362220Y-47722859D01*
X106362218Y-47722861D01*
X106293764Y-47791315D01*
X106222859Y-47862219D01*
X106113371Y-48026079D01*
X106113364Y-48026092D01*
X106037950Y-48208160D01*
X106037947Y-48208170D01*
X105999500Y-48401456D01*
X105999500Y-55404218D01*
X105979815Y-55471257D01*
X105963181Y-55491899D01*
X103821899Y-57633181D01*
X103760576Y-57666666D01*
X103734218Y-57669500D01*
X103635838Y-57669500D01*
X103410339Y-57705215D01*
X103193196Y-57775770D01*
X102989771Y-57879421D01*
X102805061Y-58013622D01*
X102643622Y-58175061D01*
X102509421Y-58359771D01*
X102405770Y-58563196D01*
X102335215Y-58780339D01*
X102299500Y-59005837D01*
X102299500Y-59234162D01*
X102335215Y-59459660D01*
X102405770Y-59676803D01*
X102509421Y-59880228D01*
X102643621Y-60064937D01*
X102805063Y-60226379D01*
X102989772Y-60360579D01*
X103085884Y-60409550D01*
X103193196Y-60464229D01*
X103193198Y-60464229D01*
X103193201Y-60464231D01*
X103286113Y-60494420D01*
X103410339Y-60534784D01*
X103635838Y-60570500D01*
X103635843Y-60570500D01*
X103864162Y-60570500D01*
X104089660Y-60534784D01*
X104112573Y-60527339D01*
X104306799Y-60464231D01*
X104510228Y-60360579D01*
X104694937Y-60226379D01*
X104856379Y-60064937D01*
X104990579Y-59880228D01*
X105094231Y-59676799D01*
X105164784Y-59459660D01*
X105169670Y-59428811D01*
X105200500Y-59234162D01*
X105200500Y-59135781D01*
X105209144Y-59106340D01*
X105215668Y-59076354D01*
X105219422Y-59071338D01*
X105220185Y-59068742D01*
X105236814Y-59048105D01*
X105279082Y-59005837D01*
X107379500Y-59005837D01*
X107379500Y-59234162D01*
X107415215Y-59459660D01*
X107485770Y-59676803D01*
X107589421Y-59880228D01*
X107723621Y-60064937D01*
X107885063Y-60226379D01*
X108069772Y-60360579D01*
X108165884Y-60409550D01*
X108273196Y-60464229D01*
X108273198Y-60464229D01*
X108273201Y-60464231D01*
X108366113Y-60494420D01*
X108490339Y-60534784D01*
X108715838Y-60570500D01*
X108715843Y-60570500D01*
X108944162Y-60570500D01*
X109169660Y-60534784D01*
X109192573Y-60527339D01*
X109386799Y-60464231D01*
X109590228Y-60360579D01*
X109774937Y-60226379D01*
X109936379Y-60064937D01*
X110070579Y-59880228D01*
X110174231Y-59676799D01*
X110244784Y-59459660D01*
X110249670Y-59428811D01*
X110280500Y-59234162D01*
X110280500Y-59005837D01*
X110244784Y-58780339D01*
X110174229Y-58563196D01*
X110070578Y-58359771D01*
X109936379Y-58175063D01*
X109774937Y-58013621D01*
X109590228Y-57879421D01*
X109386803Y-57775770D01*
X109169660Y-57705215D01*
X108944162Y-57669500D01*
X108944157Y-57669500D01*
X108715843Y-57669500D01*
X108715838Y-57669500D01*
X108490339Y-57705215D01*
X108273196Y-57775770D01*
X108069771Y-57879421D01*
X107885061Y-58013622D01*
X107723622Y-58175061D01*
X107589421Y-58359771D01*
X107485770Y-58563196D01*
X107415215Y-58780339D01*
X107379500Y-59005837D01*
X105279082Y-59005837D01*
X107637778Y-56647141D01*
X107637782Y-56647139D01*
X107777139Y-56507782D01*
X107886632Y-56343914D01*
X107962051Y-56161835D01*
X107963308Y-56155519D01*
X108000500Y-55968540D01*
X108000500Y-55771460D01*
X108000500Y-52907632D01*
X108020185Y-52840593D01*
X108072989Y-52794838D01*
X108142147Y-52784894D01*
X108180793Y-52797147D01*
X108219890Y-52817067D01*
X108273194Y-52844228D01*
X108273197Y-52844228D01*
X108273201Y-52844231D01*
X108423174Y-52892960D01*
X108490339Y-52914784D01*
X108715838Y-52950500D01*
X108715843Y-52950500D01*
X108944162Y-52950500D01*
X109169660Y-52914784D01*
X109386799Y-52844231D01*
X109590228Y-52740579D01*
X109774937Y-52606379D01*
X109936379Y-52444937D01*
X110070579Y-52260228D01*
X110174231Y-52056799D01*
X110244784Y-51839660D01*
X110252348Y-51791904D01*
X110280500Y-51614162D01*
X110280500Y-51385837D01*
X110244784Y-51160339D01*
X110212049Y-51059592D01*
X110174231Y-50943201D01*
X110174229Y-50943198D01*
X110174229Y-50943196D01*
X110086678Y-50771368D01*
X110070579Y-50739772D01*
X109936379Y-50555063D01*
X109774937Y-50393621D01*
X109590228Y-50259421D01*
X109565195Y-50246666D01*
X109386803Y-50155770D01*
X109169660Y-50085215D01*
X108944162Y-50049500D01*
X108944157Y-50049500D01*
X108715843Y-50049500D01*
X108715838Y-50049500D01*
X108490339Y-50085215D01*
X108273196Y-50155770D01*
X108180795Y-50202852D01*
X108112126Y-50215748D01*
X108047385Y-50189472D01*
X108007128Y-50132365D01*
X108000500Y-50092367D01*
X108000500Y-48965782D01*
X108020185Y-48898743D01*
X108036819Y-48878101D01*
X108378102Y-48536819D01*
X108439425Y-48503334D01*
X108465783Y-48500500D01*
X114534218Y-48500500D01*
X114601257Y-48520185D01*
X114621899Y-48536819D01*
X114963181Y-48878101D01*
X114977884Y-48905028D01*
X114994477Y-48930847D01*
X114995368Y-48937047D01*
X114996666Y-48939424D01*
X114999500Y-48965782D01*
X114999500Y-49048095D01*
X114979815Y-49115134D01*
X114927011Y-49160889D01*
X114857853Y-49170833D01*
X114802615Y-49148414D01*
X114786432Y-49136656D01*
X114575996Y-49029433D01*
X114351368Y-48956446D01*
X114118097Y-48919500D01*
X114118092Y-48919500D01*
X113881908Y-48919500D01*
X113881903Y-48919500D01*
X113648631Y-48956446D01*
X113424003Y-49029433D01*
X113213566Y-49136657D01*
X113022491Y-49275482D01*
X112879498Y-49418474D01*
X112818174Y-49451958D01*
X112816009Y-49452409D01*
X112788170Y-49457946D01*
X112788164Y-49457948D01*
X112606088Y-49533366D01*
X112606079Y-49533371D01*
X112442219Y-49642859D01*
X112442215Y-49642862D01*
X111628760Y-50456319D01*
X111362220Y-50722859D01*
X111362218Y-50722861D01*
X111313711Y-50771368D01*
X111222859Y-50862219D01*
X111113371Y-51026079D01*
X111113364Y-51026092D01*
X111037950Y-51208160D01*
X111037947Y-51208170D01*
X110999501Y-51401450D01*
X110999500Y-51401456D01*
X110999500Y-51401459D01*
X110999500Y-65098541D01*
X110999500Y-65098543D01*
X110999499Y-65098543D01*
X111037947Y-65291829D01*
X111037950Y-65291839D01*
X111113364Y-65473907D01*
X111113371Y-65473920D01*
X111222860Y-65637781D01*
X111222863Y-65637785D01*
X111366537Y-65781459D01*
X111366559Y-65781479D01*
X114969735Y-69384655D01*
X114969764Y-69384686D01*
X115112214Y-69527136D01*
X115112218Y-69527139D01*
X115276079Y-69636628D01*
X115276092Y-69636635D01*
X115404833Y-69689961D01*
X115447744Y-69707735D01*
X115458164Y-69712051D01*
X115554812Y-69731275D01*
X115603135Y-69740887D01*
X115651458Y-69750500D01*
X115651459Y-69750500D01*
X159098542Y-69750500D01*
X159133153Y-69743615D01*
X159195188Y-69731275D01*
X159291836Y-69712051D01*
X159345165Y-69689961D01*
X159473914Y-69636632D01*
X159637782Y-69527139D01*
X159777139Y-69387782D01*
X159777139Y-69387780D01*
X159787347Y-69377573D01*
X159787348Y-69377570D01*
X161527140Y-67637781D01*
X161636631Y-67473914D01*
X161712051Y-67291836D01*
X161750500Y-67098540D01*
X161750500Y-66901460D01*
X161722883Y-66762619D01*
X161720500Y-66738428D01*
X161720500Y-65988851D01*
X161729012Y-65959862D01*
X161735205Y-65930279D01*
X161739330Y-65924723D01*
X161740185Y-65921812D01*
X161756134Y-65901860D01*
X161756450Y-65901538D01*
X161889307Y-65768682D01*
X161895128Y-65760669D01*
X161901634Y-65754061D01*
X161924388Y-65741403D01*
X161945008Y-65725502D01*
X161954429Y-65724692D01*
X161962693Y-65720096D01*
X161988679Y-65721749D01*
X162014622Y-65719521D01*
X162022984Y-65723933D01*
X162032422Y-65724534D01*
X162053388Y-65739974D01*
X162076418Y-65752125D01*
X162087931Y-65765413D01*
X162088682Y-65765966D01*
X162088896Y-65766526D01*
X162090320Y-65768170D01*
X162090687Y-65768675D01*
X162090691Y-65768680D01*
X162090692Y-65768681D01*
X162090693Y-65768682D01*
X162261318Y-65939307D01*
X162456533Y-66081139D01*
X162522498Y-66114750D01*
X162671531Y-66190687D01*
X162671534Y-66190688D01*
X162786277Y-66227969D01*
X162901022Y-66265252D01*
X163139350Y-66303000D01*
X163139351Y-66303000D01*
X163380649Y-66303000D01*
X163380650Y-66303000D01*
X163618978Y-66265252D01*
X163848468Y-66190687D01*
X164063467Y-66081139D01*
X164258682Y-65939307D01*
X164429307Y-65768682D01*
X164429340Y-65768635D01*
X164429680Y-65768170D01*
X164429869Y-65768023D01*
X164432479Y-65764969D01*
X164433120Y-65765516D01*
X164485008Y-65725502D01*
X164554622Y-65719521D01*
X164616418Y-65752125D01*
X164630320Y-65768170D01*
X164630687Y-65768675D01*
X164630691Y-65768680D01*
X164630692Y-65768681D01*
X164630693Y-65768682D01*
X164801318Y-65939307D01*
X164996533Y-66081139D01*
X165062498Y-66114750D01*
X165211531Y-66190687D01*
X165211534Y-66190688D01*
X165326277Y-66227969D01*
X165441022Y-66265252D01*
X165679350Y-66303000D01*
X165679351Y-66303000D01*
X165920649Y-66303000D01*
X165920650Y-66303000D01*
X166158978Y-66265252D01*
X166388468Y-66190687D01*
X166603467Y-66081139D01*
X166798682Y-65939307D01*
X166969307Y-65768682D01*
X166969340Y-65768635D01*
X166969680Y-65768170D01*
X166969869Y-65768023D01*
X166972479Y-65764969D01*
X166973120Y-65765516D01*
X167025008Y-65725502D01*
X167094622Y-65719521D01*
X167156418Y-65752125D01*
X167170320Y-65768170D01*
X167170687Y-65768675D01*
X167170691Y-65768680D01*
X167170692Y-65768681D01*
X167170693Y-65768682D01*
X167341318Y-65939307D01*
X167536533Y-66081139D01*
X167602498Y-66114750D01*
X167751531Y-66190687D01*
X167751534Y-66190688D01*
X167866277Y-66227969D01*
X167981022Y-66265252D01*
X168219350Y-66303000D01*
X168219351Y-66303000D01*
X168460649Y-66303000D01*
X168460650Y-66303000D01*
X168698978Y-66265252D01*
X168928468Y-66190687D01*
X169143467Y-66081139D01*
X169294727Y-65971241D01*
X169360530Y-65947763D01*
X169428584Y-65963588D01*
X169473726Y-66007410D01*
X169492028Y-66037685D01*
X169492031Y-66037689D01*
X169612311Y-66157969D01*
X169612313Y-66157970D01*
X169612315Y-66157972D01*
X169757894Y-66245978D01*
X169920304Y-66296586D01*
X169990884Y-66303000D01*
X171375500Y-66303000D01*
X171442539Y-66322685D01*
X171488294Y-66375489D01*
X171499500Y-66427000D01*
X171499500Y-68034217D01*
X171479815Y-68101256D01*
X171463181Y-68121898D01*
X168621899Y-70963181D01*
X168560576Y-70996666D01*
X168534218Y-70999500D01*
X100215782Y-70999500D01*
X100148743Y-70979815D01*
X100128101Y-70963181D01*
X98786819Y-69621899D01*
X98753334Y-69560576D01*
X98750500Y-69534218D01*
X98750500Y-66370853D01*
X107029500Y-66370853D01*
X107029500Y-66629146D01*
X107029501Y-66629162D01*
X107063215Y-66885248D01*
X107130071Y-67134758D01*
X107228918Y-67373396D01*
X107228923Y-67373407D01*
X107358069Y-67597092D01*
X107358080Y-67597108D01*
X107515319Y-67802027D01*
X107515325Y-67802034D01*
X107697965Y-67984674D01*
X107697971Y-67984679D01*
X107902900Y-68141926D01*
X107902907Y-68141930D01*
X108126592Y-68271076D01*
X108126597Y-68271078D01*
X108126600Y-68271080D01*
X108190942Y-68297731D01*
X108365241Y-68369928D01*
X108365242Y-68369928D01*
X108365244Y-68369929D01*
X108614750Y-68436784D01*
X108870847Y-68470500D01*
X108870854Y-68470500D01*
X109129146Y-68470500D01*
X109129153Y-68470500D01*
X109385250Y-68436784D01*
X109634756Y-68369929D01*
X109873400Y-68271080D01*
X110097100Y-68141926D01*
X110302029Y-67984679D01*
X110484679Y-67802029D01*
X110641926Y-67597100D01*
X110771080Y-67373400D01*
X110869929Y-67134756D01*
X110936784Y-66885250D01*
X110970500Y-66629153D01*
X110970500Y-66370847D01*
X110936784Y-66114750D01*
X110869929Y-65865244D01*
X110771080Y-65626600D01*
X110771078Y-65626597D01*
X110771076Y-65626592D01*
X110641930Y-65402907D01*
X110641926Y-65402900D01*
X110484679Y-65197971D01*
X110484674Y-65197965D01*
X110302034Y-65015325D01*
X110302027Y-65015319D01*
X110097108Y-64858080D01*
X110097106Y-64858078D01*
X110097100Y-64858074D01*
X110097095Y-64858071D01*
X110097092Y-64858069D01*
X109873407Y-64728923D01*
X109873396Y-64728918D01*
X109634758Y-64630071D01*
X109385248Y-64563215D01*
X109129162Y-64529501D01*
X109129159Y-64529500D01*
X109129153Y-64529500D01*
X108870847Y-64529500D01*
X108870841Y-64529500D01*
X108870837Y-64529501D01*
X108614751Y-64563215D01*
X108365241Y-64630071D01*
X108126603Y-64728918D01*
X108126592Y-64728923D01*
X107902907Y-64858069D01*
X107902891Y-64858080D01*
X107697972Y-65015319D01*
X107697965Y-65015325D01*
X107515325Y-65197965D01*
X107515319Y-65197972D01*
X107358080Y-65402891D01*
X107358069Y-65402907D01*
X107228923Y-65626592D01*
X107228918Y-65626603D01*
X107130071Y-65865241D01*
X107063215Y-66114751D01*
X107029501Y-66370837D01*
X107029500Y-66370853D01*
X98750500Y-66370853D01*
X98750500Y-64401456D01*
X98712052Y-64208169D01*
X98712051Y-64208167D01*
X98712051Y-64208165D01*
X98706997Y-64195964D01*
X98680593Y-64132218D01*
X98636635Y-64026092D01*
X98636628Y-64026079D01*
X98527139Y-63862218D01*
X98527136Y-63862214D01*
X98384686Y-63719764D01*
X98384655Y-63719735D01*
X97281479Y-62616559D01*
X97281459Y-62616537D01*
X97137785Y-62472863D01*
X97137781Y-62472860D01*
X96973920Y-62363371D01*
X96973907Y-62363364D01*
X96825081Y-62301719D01*
X96825076Y-62301717D01*
X96816132Y-62298013D01*
X96791836Y-62287949D01*
X96658662Y-62261459D01*
X96656204Y-62260970D01*
X96598543Y-62249500D01*
X96598541Y-62249500D01*
X92174500Y-62249500D01*
X92107461Y-62229815D01*
X92061706Y-62177011D01*
X92050500Y-62125500D01*
X92050500Y-60222178D01*
X92070185Y-60155139D01*
X92086819Y-60134497D01*
X92094889Y-60126427D01*
X92156379Y-60064937D01*
X92290579Y-59880228D01*
X92394231Y-59676799D01*
X92464784Y-59459660D01*
X92469670Y-59428811D01*
X92500500Y-59234162D01*
X92500500Y-59005837D01*
X97219500Y-59005837D01*
X97219500Y-59234162D01*
X97255215Y-59459660D01*
X97325770Y-59676803D01*
X97429421Y-59880228D01*
X97563621Y-60064937D01*
X97725063Y-60226379D01*
X97909772Y-60360579D01*
X98005884Y-60409550D01*
X98113196Y-60464229D01*
X98113198Y-60464229D01*
X98113201Y-60464231D01*
X98206113Y-60494420D01*
X98330339Y-60534784D01*
X98555838Y-60570500D01*
X98555843Y-60570500D01*
X98784162Y-60570500D01*
X99009660Y-60534784D01*
X99032573Y-60527339D01*
X99226799Y-60464231D01*
X99430228Y-60360579D01*
X99614937Y-60226379D01*
X99776379Y-60064937D01*
X99910579Y-59880228D01*
X100014231Y-59676799D01*
X100084784Y-59459660D01*
X100089670Y-59428811D01*
X100120500Y-59234162D01*
X100120500Y-59005837D01*
X100084784Y-58780339D01*
X100014229Y-58563196D01*
X99910578Y-58359771D01*
X99776379Y-58175063D01*
X99614937Y-58013621D01*
X99430228Y-57879421D01*
X99226803Y-57775770D01*
X99009660Y-57705215D01*
X98784162Y-57669500D01*
X98784157Y-57669500D01*
X98555843Y-57669500D01*
X98555838Y-57669500D01*
X98330339Y-57705215D01*
X98113196Y-57775770D01*
X97909771Y-57879421D01*
X97725061Y-58013622D01*
X97563622Y-58175061D01*
X97429421Y-58359771D01*
X97325770Y-58563196D01*
X97255215Y-58780339D01*
X97219500Y-59005837D01*
X92500500Y-59005837D01*
X92464784Y-58780339D01*
X92394229Y-58563196D01*
X92290578Y-58359771D01*
X92156379Y-58175063D01*
X91994937Y-58013621D01*
X91810228Y-57879421D01*
X91606803Y-57775770D01*
X91389660Y-57705215D01*
X91164162Y-57669500D01*
X91164157Y-57669500D01*
X90935843Y-57669500D01*
X90935838Y-57669500D01*
X90710339Y-57705215D01*
X90493196Y-57775770D01*
X90289771Y-57879421D01*
X90105061Y-58013622D01*
X89943622Y-58175061D01*
X89809421Y-58359771D01*
X89705770Y-58563196D01*
X89635215Y-58780339D01*
X89599500Y-59005837D01*
X79750000Y-59005837D01*
X79750000Y-51401617D01*
X89800000Y-51401617D01*
X89800000Y-51598382D01*
X89830778Y-51792705D01*
X89891581Y-51979835D01*
X89980905Y-52155145D01*
X90006319Y-52190125D01*
X90006320Y-52190125D01*
X90567037Y-51629408D01*
X90584075Y-51692993D01*
X90649901Y-51807007D01*
X90742993Y-51900099D01*
X90857007Y-51965925D01*
X90920590Y-51982962D01*
X90359873Y-52543677D01*
X90359873Y-52543678D01*
X90394858Y-52569096D01*
X90570164Y-52658418D01*
X90757294Y-52719221D01*
X90951618Y-52750000D01*
X91148382Y-52750000D01*
X91342705Y-52719221D01*
X91529835Y-52658418D01*
X91705143Y-52569095D01*
X91740125Y-52543678D01*
X91740126Y-52543678D01*
X91179410Y-51982962D01*
X91242993Y-51965925D01*
X91357007Y-51900099D01*
X91450099Y-51807007D01*
X91515925Y-51692993D01*
X91532962Y-51629409D01*
X92093678Y-52190126D01*
X92093678Y-52190125D01*
X92119095Y-52155143D01*
X92208418Y-51979835D01*
X92269221Y-51792705D01*
X92300000Y-51598382D01*
X92300000Y-51401623D01*
X92299802Y-51400374D01*
X92299802Y-51400369D01*
X92297500Y-51385837D01*
X97219500Y-51385837D01*
X97219500Y-51614162D01*
X97255215Y-51839660D01*
X97325770Y-52056803D01*
X97393702Y-52190126D01*
X97429421Y-52260228D01*
X97563621Y-52444937D01*
X97725063Y-52606379D01*
X97909772Y-52740579D01*
X97929850Y-52750809D01*
X98113196Y-52844229D01*
X98113198Y-52844229D01*
X98113201Y-52844231D01*
X98229592Y-52882049D01*
X98330339Y-52914784D01*
X98555838Y-52950500D01*
X98555843Y-52950500D01*
X98784162Y-52950500D01*
X99009660Y-52914784D01*
X99226799Y-52844231D01*
X99430228Y-52740579D01*
X99614937Y-52606379D01*
X99776379Y-52444937D01*
X99910579Y-52260228D01*
X100014231Y-52056799D01*
X100084784Y-51839660D01*
X100092348Y-51791904D01*
X100120500Y-51614162D01*
X100120500Y-51385837D01*
X102299500Y-51385837D01*
X102299500Y-51614162D01*
X102335215Y-51839660D01*
X102405770Y-52056803D01*
X102473702Y-52190126D01*
X102509421Y-52260228D01*
X102643621Y-52444937D01*
X102805063Y-52606379D01*
X102989772Y-52740579D01*
X103009850Y-52750809D01*
X103193196Y-52844229D01*
X103193198Y-52844229D01*
X103193201Y-52844231D01*
X103309592Y-52882049D01*
X103410339Y-52914784D01*
X103635838Y-52950500D01*
X103635843Y-52950500D01*
X103864162Y-52950500D01*
X104089660Y-52914784D01*
X104306799Y-52844231D01*
X104510228Y-52740579D01*
X104694937Y-52606379D01*
X104856379Y-52444937D01*
X104990579Y-52260228D01*
X105094231Y-52056799D01*
X105164784Y-51839660D01*
X105172348Y-51791904D01*
X105200500Y-51614162D01*
X105200500Y-51385837D01*
X105164784Y-51160339D01*
X105132049Y-51059592D01*
X105094231Y-50943201D01*
X105094229Y-50943198D01*
X105094229Y-50943196D01*
X105006678Y-50771368D01*
X104990579Y-50739772D01*
X104856379Y-50555063D01*
X104694937Y-50393621D01*
X104510228Y-50259421D01*
X104485195Y-50246666D01*
X104306803Y-50155770D01*
X104089660Y-50085215D01*
X103864162Y-50049500D01*
X103864157Y-50049500D01*
X103635843Y-50049500D01*
X103635838Y-50049500D01*
X103410339Y-50085215D01*
X103193196Y-50155770D01*
X102989771Y-50259421D01*
X102805061Y-50393622D01*
X102643622Y-50555061D01*
X102509421Y-50739771D01*
X102405770Y-50943196D01*
X102335215Y-51160339D01*
X102299500Y-51385837D01*
X100120500Y-51385837D01*
X100084784Y-51160339D01*
X100052049Y-51059592D01*
X100014231Y-50943201D01*
X100014229Y-50943198D01*
X100014229Y-50943196D01*
X99926678Y-50771368D01*
X99910579Y-50739772D01*
X99776379Y-50555063D01*
X99614937Y-50393621D01*
X99430228Y-50259421D01*
X99405195Y-50246666D01*
X99226803Y-50155770D01*
X99009660Y-50085215D01*
X98784162Y-50049500D01*
X98784157Y-50049500D01*
X98555843Y-50049500D01*
X98555838Y-50049500D01*
X98330339Y-50085215D01*
X98113196Y-50155770D01*
X97909771Y-50259421D01*
X97725061Y-50393622D01*
X97563622Y-50555061D01*
X97429421Y-50739771D01*
X97325770Y-50943196D01*
X97255215Y-51160339D01*
X97219500Y-51385837D01*
X92297500Y-51385837D01*
X92269221Y-51207294D01*
X92208418Y-51020164D01*
X92119096Y-50844858D01*
X92093678Y-50809873D01*
X92093677Y-50809873D01*
X91532962Y-51370589D01*
X91515925Y-51307007D01*
X91450099Y-51192993D01*
X91357007Y-51099901D01*
X91242993Y-51034075D01*
X91179409Y-51017037D01*
X91740125Y-50456320D01*
X91740125Y-50456319D01*
X91705145Y-50430905D01*
X91529835Y-50341581D01*
X91342705Y-50280778D01*
X91148382Y-50250000D01*
X90951618Y-50250000D01*
X90757294Y-50280778D01*
X90570161Y-50341582D01*
X90394863Y-50430899D01*
X90394859Y-50430902D01*
X90359873Y-50456320D01*
X90359872Y-50456320D01*
X90920590Y-51017037D01*
X90857007Y-51034075D01*
X90742993Y-51099901D01*
X90649901Y-51192993D01*
X90584075Y-51307007D01*
X90567037Y-51370590D01*
X90006320Y-50809872D01*
X90006320Y-50809873D01*
X89980902Y-50844859D01*
X89980899Y-50844863D01*
X89891582Y-51020161D01*
X89830778Y-51207294D01*
X89800000Y-51401617D01*
X79750000Y-51401617D01*
X79750000Y-49624000D01*
X79769685Y-49556961D01*
X79822489Y-49511206D01*
X79874000Y-49500000D01*
X86750000Y-49500000D01*
X86750000Y-44888549D01*
X87299500Y-44888549D01*
X87299500Y-45111450D01*
X87299501Y-45111466D01*
X87328594Y-45332452D01*
X87328595Y-45332457D01*
X87328596Y-45332463D01*
X87366988Y-45475744D01*
X87386290Y-45547780D01*
X87386293Y-45547790D01*
X87471593Y-45753722D01*
X87471595Y-45753726D01*
X87583052Y-45946774D01*
X87583057Y-45946780D01*
X87583058Y-45946782D01*
X87718751Y-46123622D01*
X87718757Y-46123629D01*
X87876370Y-46281242D01*
X87876377Y-46281248D01*
X87932079Y-46323989D01*
X88053226Y-46416948D01*
X88246274Y-46528405D01*
X88278941Y-46541936D01*
X88451400Y-46613371D01*
X88452219Y-46613710D01*
X88667537Y-46671404D01*
X88888543Y-46700500D01*
X88888550Y-46700500D01*
X89111450Y-46700500D01*
X89111457Y-46700500D01*
X89332463Y-46671404D01*
X89547781Y-46613710D01*
X89753726Y-46528405D01*
X89946774Y-46416948D01*
X90123624Y-46281247D01*
X90281247Y-46123624D01*
X90416948Y-45946774D01*
X90528405Y-45753726D01*
X90613710Y-45547781D01*
X90671404Y-45332463D01*
X90700500Y-45111457D01*
X90700500Y-44888543D01*
X90699632Y-44881947D01*
X92500000Y-44881947D01*
X92500000Y-45118052D01*
X92536934Y-45351247D01*
X92609897Y-45575802D01*
X92717087Y-45786174D01*
X92777338Y-45869104D01*
X92777340Y-45869105D01*
X93398949Y-45247496D01*
X93423968Y-45307896D01*
X93495104Y-45414358D01*
X93585642Y-45504896D01*
X93692104Y-45576032D01*
X93752503Y-45601049D01*
X93130893Y-46222658D01*
X93213828Y-46282914D01*
X93424197Y-46390102D01*
X93648752Y-46463065D01*
X93648751Y-46463065D01*
X93881948Y-46500000D01*
X94118052Y-46500000D01*
X94351247Y-46463065D01*
X94575802Y-46390102D01*
X94786163Y-46282918D01*
X94786169Y-46282914D01*
X94869104Y-46222658D01*
X94869105Y-46222658D01*
X94247496Y-45601050D01*
X94307896Y-45576032D01*
X94414358Y-45504896D01*
X94504896Y-45414358D01*
X94576032Y-45307896D01*
X94601050Y-45247496D01*
X95222658Y-45869105D01*
X95222658Y-45869104D01*
X95282914Y-45786169D01*
X95282918Y-45786163D01*
X95390102Y-45575802D01*
X95463065Y-45351247D01*
X95500000Y-45118052D01*
X95500000Y-44888549D01*
X97299500Y-44888549D01*
X97299500Y-45111450D01*
X97299501Y-45111466D01*
X97328594Y-45332452D01*
X97328595Y-45332457D01*
X97328596Y-45332463D01*
X97366988Y-45475744D01*
X97386290Y-45547780D01*
X97386293Y-45547790D01*
X97471593Y-45753722D01*
X97471595Y-45753726D01*
X97583052Y-45946774D01*
X97583057Y-45946780D01*
X97583058Y-45946782D01*
X97718751Y-46123622D01*
X97718757Y-46123629D01*
X97876370Y-46281242D01*
X97876377Y-46281248D01*
X97932079Y-46323989D01*
X98053226Y-46416948D01*
X98246274Y-46528405D01*
X98278941Y-46541936D01*
X98451400Y-46613371D01*
X98452219Y-46613710D01*
X98667537Y-46671404D01*
X98888543Y-46700500D01*
X98888550Y-46700500D01*
X99111450Y-46700500D01*
X99111457Y-46700500D01*
X99332463Y-46671404D01*
X99547781Y-46613710D01*
X99753726Y-46528405D01*
X99946774Y-46416948D01*
X100123624Y-46281247D01*
X100281247Y-46123624D01*
X100416948Y-45946774D01*
X100528405Y-45753726D01*
X100613710Y-45547781D01*
X100671404Y-45332463D01*
X100700500Y-45111457D01*
X100700500Y-44888543D01*
X100699632Y-44881947D01*
X102500000Y-44881947D01*
X102500000Y-45118052D01*
X102536934Y-45351247D01*
X102609897Y-45575802D01*
X102717087Y-45786174D01*
X102777338Y-45869104D01*
X102777340Y-45869105D01*
X103398949Y-45247496D01*
X103423968Y-45307896D01*
X103495104Y-45414358D01*
X103585642Y-45504896D01*
X103692104Y-45576032D01*
X103752503Y-45601049D01*
X103130893Y-46222658D01*
X103213828Y-46282914D01*
X103424197Y-46390102D01*
X103648752Y-46463065D01*
X103648751Y-46463065D01*
X103881948Y-46500000D01*
X104118052Y-46500000D01*
X104351247Y-46463065D01*
X104575802Y-46390102D01*
X104786163Y-46282918D01*
X104786169Y-46282914D01*
X104869104Y-46222658D01*
X104869105Y-46222658D01*
X104247496Y-45601050D01*
X104307896Y-45576032D01*
X104414358Y-45504896D01*
X104504896Y-45414358D01*
X104576032Y-45307896D01*
X104601049Y-45247496D01*
X105222658Y-45869105D01*
X105222658Y-45869104D01*
X105282914Y-45786169D01*
X105282918Y-45786163D01*
X105390102Y-45575802D01*
X105463065Y-45351247D01*
X105500000Y-45118052D01*
X105500000Y-44881947D01*
X105463065Y-44648752D01*
X105390102Y-44424197D01*
X105282914Y-44213828D01*
X105222658Y-44130894D01*
X105222658Y-44130893D01*
X104601049Y-44752502D01*
X104576032Y-44692104D01*
X104504896Y-44585642D01*
X104414358Y-44495104D01*
X104307896Y-44423968D01*
X104247496Y-44398949D01*
X104869105Y-43777340D01*
X104869104Y-43777338D01*
X104786174Y-43717087D01*
X104575802Y-43609897D01*
X104351247Y-43536934D01*
X104351248Y-43536934D01*
X104118052Y-43500000D01*
X103881948Y-43500000D01*
X103648752Y-43536934D01*
X103424197Y-43609897D01*
X103213830Y-43717084D01*
X103130894Y-43777340D01*
X103752503Y-44398949D01*
X103692104Y-44423968D01*
X103585642Y-44495104D01*
X103495104Y-44585642D01*
X103423968Y-44692104D01*
X103398949Y-44752503D01*
X102777340Y-44130894D01*
X102717084Y-44213830D01*
X102609897Y-44424197D01*
X102536934Y-44648752D01*
X102500000Y-44881947D01*
X100699632Y-44881947D01*
X100671404Y-44667537D01*
X100613710Y-44452219D01*
X100528405Y-44246274D01*
X100416948Y-44053226D01*
X100330209Y-43940185D01*
X100299440Y-43900085D01*
X100281248Y-43876377D01*
X100281242Y-43876370D01*
X100123629Y-43718757D01*
X100123622Y-43718751D01*
X99946782Y-43583058D01*
X99946780Y-43583057D01*
X99946774Y-43583052D01*
X99753726Y-43471595D01*
X99753722Y-43471593D01*
X99547790Y-43386293D01*
X99547783Y-43386291D01*
X99547781Y-43386290D01*
X99332463Y-43328596D01*
X99332457Y-43328595D01*
X99332452Y-43328594D01*
X99111466Y-43299501D01*
X99111463Y-43299500D01*
X99111457Y-43299500D01*
X98888543Y-43299500D01*
X98888537Y-43299500D01*
X98888533Y-43299501D01*
X98667547Y-43328594D01*
X98667540Y-43328595D01*
X98667537Y-43328596D01*
X98452219Y-43386290D01*
X98452209Y-43386293D01*
X98246277Y-43471593D01*
X98246273Y-43471595D01*
X98053226Y-43583052D01*
X98053217Y-43583058D01*
X97876377Y-43718751D01*
X97876370Y-43718757D01*
X97718757Y-43876370D01*
X97718751Y-43876377D01*
X97583058Y-44053217D01*
X97583052Y-44053226D01*
X97471595Y-44246273D01*
X97471593Y-44246277D01*
X97386293Y-44452209D01*
X97386290Y-44452219D01*
X97333630Y-44648752D01*
X97328597Y-44667534D01*
X97328594Y-44667547D01*
X97300715Y-44879311D01*
X97299501Y-44888540D01*
X97299500Y-44888549D01*
X95500000Y-44888549D01*
X95500000Y-44881947D01*
X95463065Y-44648752D01*
X95390102Y-44424197D01*
X95282914Y-44213828D01*
X95222658Y-44130894D01*
X95222658Y-44130893D01*
X94601049Y-44752502D01*
X94576032Y-44692104D01*
X94504896Y-44585642D01*
X94414358Y-44495104D01*
X94307896Y-44423968D01*
X94247496Y-44398949D01*
X94869105Y-43777340D01*
X94869104Y-43777338D01*
X94786174Y-43717087D01*
X94575802Y-43609897D01*
X94351247Y-43536934D01*
X94351248Y-43536934D01*
X94118052Y-43500000D01*
X93881948Y-43500000D01*
X93648752Y-43536934D01*
X93424197Y-43609897D01*
X93213830Y-43717084D01*
X93130894Y-43777340D01*
X93752503Y-44398949D01*
X93692104Y-44423968D01*
X93585642Y-44495104D01*
X93495104Y-44585642D01*
X93423968Y-44692104D01*
X93398949Y-44752503D01*
X92777340Y-44130894D01*
X92717084Y-44213830D01*
X92609897Y-44424197D01*
X92536934Y-44648752D01*
X92500000Y-44881947D01*
X90699632Y-44881947D01*
X90671404Y-44667537D01*
X90613710Y-44452219D01*
X90528405Y-44246274D01*
X90416948Y-44053226D01*
X90330209Y-43940185D01*
X90299440Y-43900085D01*
X90281248Y-43876377D01*
X90281242Y-43876370D01*
X90123629Y-43718757D01*
X90123622Y-43718751D01*
X89946782Y-43583058D01*
X89946780Y-43583057D01*
X89946774Y-43583052D01*
X89753726Y-43471595D01*
X89753722Y-43471593D01*
X89547790Y-43386293D01*
X89547783Y-43386291D01*
X89547781Y-43386290D01*
X89332463Y-43328596D01*
X89332457Y-43328595D01*
X89332452Y-43328594D01*
X89111466Y-43299501D01*
X89111463Y-43299500D01*
X89111457Y-43299500D01*
X88888543Y-43299500D01*
X88888537Y-43299500D01*
X88888533Y-43299501D01*
X88667547Y-43328594D01*
X88667540Y-43328595D01*
X88667537Y-43328596D01*
X88452219Y-43386290D01*
X88452209Y-43386293D01*
X88246277Y-43471593D01*
X88246273Y-43471595D01*
X88053226Y-43583052D01*
X88053217Y-43583058D01*
X87876377Y-43718751D01*
X87876370Y-43718757D01*
X87718757Y-43876370D01*
X87718751Y-43876377D01*
X87583058Y-44053217D01*
X87583052Y-44053226D01*
X87471595Y-44246273D01*
X87471593Y-44246277D01*
X87386293Y-44452209D01*
X87386290Y-44452219D01*
X87333630Y-44648752D01*
X87328597Y-44667534D01*
X87328594Y-44667547D01*
X87300715Y-44879311D01*
X87299501Y-44888540D01*
X87299500Y-44888549D01*
X86750000Y-44888549D01*
X86750000Y-41874500D01*
X86769685Y-41807461D01*
X86822489Y-41761706D01*
X86874000Y-41750500D01*
X127251608Y-41750500D01*
X127263688Y-41754047D01*
G37*
%TD.AperFunction*%
%TD*%
D25*
X77750000Y-41250000D02*
X176500000Y-41250000D01*
X176500000Y-126499999D01*
X77750000Y-126499999D01*
X77750000Y-41250000D01*
M02*
