%TF.GenerationSoftware,KiCad,Pcbnew,10.0.3*%
%TF.CreationDate,2026-06-08T16:03:52+02:00*%
%TF.ProjectId,Ancre,416e6372-652e-46b6-9963-61645f706362,rev?*%
%TF.SameCoordinates,Original*%
%TF.FileFunction,Copper,L1,Top*%
%TF.FilePolarity,Positive*%
%FSLAX46Y46*%
G04 Gerber Fmt 4.6, Leading zero omitted, Abs format (unit mm)*
G04 Created by KiCad (PCBNEW 10.0.3) date 2026-06-08 16:03:52*
%MOMM*%
%LPD*%
G01*
G04 APERTURE LIST*
%ADD10C,0.375000*%
%TA.AperFunction,NonConductor*%
%ADD11C,0.375000*%
%TD*%
%TA.AperFunction,ComponentPad*%
%ADD12C,2.000000*%
%TD*%
%TA.AperFunction,ComponentPad*%
%ADD13R,1.800000X1.800000*%
%TD*%
%TA.AperFunction,ComponentPad*%
%ADD14C,1.800000*%
%TD*%
%TA.AperFunction,ComponentPad*%
%ADD15C,1.665000*%
%TD*%
%TA.AperFunction,ComponentPad*%
%ADD16C,1.600000*%
%TD*%
%TA.AperFunction,SMDPad,CuDef*%
%ADD17R,1.528000X0.650000*%
%TD*%
%TA.AperFunction,ComponentPad*%
%ADD18C,1.651000*%
%TD*%
%TA.AperFunction,ComponentPad*%
%ADD19R,1.651000X1.651000*%
%TD*%
%TA.AperFunction,ViaPad*%
%ADD20C,1.000000*%
%TD*%
%TA.AperFunction,Conductor*%
%ADD21C,0.200000*%
%TD*%
%TA.AperFunction,Conductor*%
%ADD22C,0.600000*%
%TD*%
%TA.AperFunction,Conductor*%
%ADD23C,0.800000*%
%TD*%
%TA.AperFunction,Profile*%
%ADD24C,0.050000*%
%TD*%
G04 APERTURE END LIST*
D10*
D11*
X204603852Y-82967096D02*
X204603852Y-81467096D01*
X204603852Y-81467096D02*
X205460995Y-82967096D01*
X205460995Y-82967096D02*
X205460995Y-81467096D01*
X206103853Y-82538525D02*
X206818139Y-82538525D01*
X205960996Y-82967096D02*
X206460996Y-81467096D01*
X206460996Y-81467096D02*
X206960996Y-82967096D01*
X207460995Y-82967096D02*
X207460995Y-81467096D01*
X208175281Y-82967096D02*
X208175281Y-81467096D01*
X208175281Y-81467096D02*
X208675281Y-82538525D01*
X208675281Y-82538525D02*
X209175281Y-81467096D01*
X209175281Y-81467096D02*
X209175281Y-82967096D01*
X209889567Y-82824239D02*
X209960996Y-82895668D01*
X209960996Y-82895668D02*
X209889567Y-82967096D01*
X209889567Y-82967096D02*
X209818139Y-82895668D01*
X209818139Y-82895668D02*
X209889567Y-82824239D01*
X209889567Y-82824239D02*
X209889567Y-82967096D01*
X211103853Y-82181382D02*
X211318139Y-82252810D01*
X211318139Y-82252810D02*
X211389568Y-82324239D01*
X211389568Y-82324239D02*
X211460996Y-82467096D01*
X211460996Y-82467096D02*
X211460996Y-82681382D01*
X211460996Y-82681382D02*
X211389568Y-82824239D01*
X211389568Y-82824239D02*
X211318139Y-82895668D01*
X211318139Y-82895668D02*
X211175282Y-82967096D01*
X211175282Y-82967096D02*
X210603853Y-82967096D01*
X210603853Y-82967096D02*
X210603853Y-81467096D01*
X210603853Y-81467096D02*
X211103853Y-81467096D01*
X211103853Y-81467096D02*
X211246711Y-81538525D01*
X211246711Y-81538525D02*
X211318139Y-81609953D01*
X211318139Y-81609953D02*
X211389568Y-81752810D01*
X211389568Y-81752810D02*
X211389568Y-81895668D01*
X211389568Y-81895668D02*
X211318139Y-82038525D01*
X211318139Y-82038525D02*
X211246711Y-82109953D01*
X211246711Y-82109953D02*
X211103853Y-82181382D01*
X211103853Y-82181382D02*
X210603853Y-82181382D01*
X212103853Y-82181382D02*
X212603853Y-82181382D01*
X212818139Y-82967096D02*
X212103853Y-82967096D01*
X212103853Y-82967096D02*
X212103853Y-81467096D01*
X212103853Y-81467096D02*
X212818139Y-81467096D01*
X213460996Y-82967096D02*
X213460996Y-81467096D01*
X213460996Y-81467096D02*
X214318139Y-82967096D01*
X214318139Y-82967096D02*
X214318139Y-81467096D01*
X215889568Y-82967096D02*
X215389568Y-82252810D01*
X215032425Y-82967096D02*
X215032425Y-81467096D01*
X215032425Y-81467096D02*
X215603854Y-81467096D01*
X215603854Y-81467096D02*
X215746711Y-81538525D01*
X215746711Y-81538525D02*
X215818140Y-81609953D01*
X215818140Y-81609953D02*
X215889568Y-81752810D01*
X215889568Y-81752810D02*
X215889568Y-81967096D01*
X215889568Y-81967096D02*
X215818140Y-82109953D01*
X215818140Y-82109953D02*
X215746711Y-82181382D01*
X215746711Y-82181382D02*
X215603854Y-82252810D01*
X215603854Y-82252810D02*
X215032425Y-82252810D01*
X216460997Y-82538525D02*
X217175283Y-82538525D01*
X216318140Y-82967096D02*
X216818140Y-81467096D01*
X216818140Y-81467096D02*
X217318140Y-82967096D01*
X217818139Y-82967096D02*
X217818139Y-81467096D01*
X218532425Y-82181382D02*
X219032425Y-82181382D01*
X219246711Y-82967096D02*
X218532425Y-82967096D01*
X218532425Y-82967096D02*
X218532425Y-81467096D01*
X218532425Y-81467096D02*
X219246711Y-81467096D01*
X219818140Y-82895668D02*
X220032426Y-82967096D01*
X220032426Y-82967096D02*
X220389568Y-82967096D01*
X220389568Y-82967096D02*
X220532426Y-82895668D01*
X220532426Y-82895668D02*
X220603854Y-82824239D01*
X220603854Y-82824239D02*
X220675283Y-82681382D01*
X220675283Y-82681382D02*
X220675283Y-82538525D01*
X220675283Y-82538525D02*
X220603854Y-82395668D01*
X220603854Y-82395668D02*
X220532426Y-82324239D01*
X220532426Y-82324239D02*
X220389568Y-82252810D01*
X220389568Y-82252810D02*
X220103854Y-82181382D01*
X220103854Y-82181382D02*
X219960997Y-82109953D01*
X219960997Y-82109953D02*
X219889568Y-82038525D01*
X219889568Y-82038525D02*
X219818140Y-81895668D01*
X219818140Y-81895668D02*
X219818140Y-81752810D01*
X219818140Y-81752810D02*
X219889568Y-81609953D01*
X219889568Y-81609953D02*
X219960997Y-81538525D01*
X219960997Y-81538525D02*
X220103854Y-81467096D01*
X220103854Y-81467096D02*
X220460997Y-81467096D01*
X220460997Y-81467096D02*
X220675283Y-81538525D01*
X204532424Y-84024869D02*
X204603852Y-83953441D01*
X204603852Y-83953441D02*
X204746710Y-83882012D01*
X204746710Y-83882012D02*
X205103852Y-83882012D01*
X205103852Y-83882012D02*
X205246710Y-83953441D01*
X205246710Y-83953441D02*
X205318138Y-84024869D01*
X205318138Y-84024869D02*
X205389567Y-84167726D01*
X205389567Y-84167726D02*
X205389567Y-84310584D01*
X205389567Y-84310584D02*
X205318138Y-84524869D01*
X205318138Y-84524869D02*
X204460995Y-85382012D01*
X204460995Y-85382012D02*
X205389567Y-85382012D01*
X206318138Y-83882012D02*
X206460995Y-83882012D01*
X206460995Y-83882012D02*
X206603852Y-83953441D01*
X206603852Y-83953441D02*
X206675281Y-84024869D01*
X206675281Y-84024869D02*
X206746709Y-84167726D01*
X206746709Y-84167726D02*
X206818138Y-84453441D01*
X206818138Y-84453441D02*
X206818138Y-84810584D01*
X206818138Y-84810584D02*
X206746709Y-85096298D01*
X206746709Y-85096298D02*
X206675281Y-85239155D01*
X206675281Y-85239155D02*
X206603852Y-85310584D01*
X206603852Y-85310584D02*
X206460995Y-85382012D01*
X206460995Y-85382012D02*
X206318138Y-85382012D01*
X206318138Y-85382012D02*
X206175281Y-85310584D01*
X206175281Y-85310584D02*
X206103852Y-85239155D01*
X206103852Y-85239155D02*
X206032423Y-85096298D01*
X206032423Y-85096298D02*
X205960995Y-84810584D01*
X205960995Y-84810584D02*
X205960995Y-84453441D01*
X205960995Y-84453441D02*
X206032423Y-84167726D01*
X206032423Y-84167726D02*
X206103852Y-84024869D01*
X206103852Y-84024869D02*
X206175281Y-83953441D01*
X206175281Y-83953441D02*
X206318138Y-83882012D01*
X207389566Y-84024869D02*
X207460994Y-83953441D01*
X207460994Y-83953441D02*
X207603852Y-83882012D01*
X207603852Y-83882012D02*
X207960994Y-83882012D01*
X207960994Y-83882012D02*
X208103852Y-83953441D01*
X208103852Y-83953441D02*
X208175280Y-84024869D01*
X208175280Y-84024869D02*
X208246709Y-84167726D01*
X208246709Y-84167726D02*
X208246709Y-84310584D01*
X208246709Y-84310584D02*
X208175280Y-84524869D01*
X208175280Y-84524869D02*
X207318137Y-85382012D01*
X207318137Y-85382012D02*
X208246709Y-85382012D01*
X209532423Y-83882012D02*
X209246708Y-83882012D01*
X209246708Y-83882012D02*
X209103851Y-83953441D01*
X209103851Y-83953441D02*
X209032423Y-84024869D01*
X209032423Y-84024869D02*
X208889565Y-84239155D01*
X208889565Y-84239155D02*
X208818137Y-84524869D01*
X208818137Y-84524869D02*
X208818137Y-85096298D01*
X208818137Y-85096298D02*
X208889565Y-85239155D01*
X208889565Y-85239155D02*
X208960994Y-85310584D01*
X208960994Y-85310584D02*
X209103851Y-85382012D01*
X209103851Y-85382012D02*
X209389565Y-85382012D01*
X209389565Y-85382012D02*
X209532423Y-85310584D01*
X209532423Y-85310584D02*
X209603851Y-85239155D01*
X209603851Y-85239155D02*
X209675280Y-85096298D01*
X209675280Y-85096298D02*
X209675280Y-84739155D01*
X209675280Y-84739155D02*
X209603851Y-84596298D01*
X209603851Y-84596298D02*
X209532423Y-84524869D01*
X209532423Y-84524869D02*
X209389565Y-84453441D01*
X209389565Y-84453441D02*
X209103851Y-84453441D01*
X209103851Y-84453441D02*
X208960994Y-84524869D01*
X208960994Y-84524869D02*
X208889565Y-84596298D01*
X208889565Y-84596298D02*
X208818137Y-84739155D01*
X204603852Y-87011214D02*
X205103852Y-87011214D01*
X205318138Y-87796928D02*
X204603852Y-87796928D01*
X204603852Y-87796928D02*
X204603852Y-86296928D01*
X204603852Y-86296928D02*
X205318138Y-86296928D01*
X205889567Y-87725500D02*
X206103853Y-87796928D01*
X206103853Y-87796928D02*
X206460995Y-87796928D01*
X206460995Y-87796928D02*
X206603853Y-87725500D01*
X206603853Y-87725500D02*
X206675281Y-87654071D01*
X206675281Y-87654071D02*
X206746710Y-87511214D01*
X206746710Y-87511214D02*
X206746710Y-87368357D01*
X206746710Y-87368357D02*
X206675281Y-87225500D01*
X206675281Y-87225500D02*
X206603853Y-87154071D01*
X206603853Y-87154071D02*
X206460995Y-87082642D01*
X206460995Y-87082642D02*
X206175281Y-87011214D01*
X206175281Y-87011214D02*
X206032424Y-86939785D01*
X206032424Y-86939785D02*
X205960995Y-86868357D01*
X205960995Y-86868357D02*
X205889567Y-86725500D01*
X205889567Y-86725500D02*
X205889567Y-86582642D01*
X205889567Y-86582642D02*
X205960995Y-86439785D01*
X205960995Y-86439785D02*
X206032424Y-86368357D01*
X206032424Y-86368357D02*
X206175281Y-86296928D01*
X206175281Y-86296928D02*
X206532424Y-86296928D01*
X206532424Y-86296928D02*
X206746710Y-86368357D01*
X207389566Y-87796928D02*
X207389566Y-86296928D01*
X208103852Y-87011214D02*
X208603852Y-87011214D01*
X208818138Y-87796928D02*
X208103852Y-87796928D01*
X208103852Y-87796928D02*
X208103852Y-86296928D01*
X208103852Y-86296928D02*
X208818138Y-86296928D01*
X209460995Y-87011214D02*
X209960995Y-87011214D01*
X210175281Y-87796928D02*
X209460995Y-87796928D01*
X209460995Y-87796928D02*
X209460995Y-86296928D01*
X209460995Y-86296928D02*
X210175281Y-86296928D01*
X211960995Y-87796928D02*
X211960995Y-86296928D01*
X211960995Y-86296928D02*
X212532424Y-86296928D01*
X212532424Y-86296928D02*
X212675281Y-86368357D01*
X212675281Y-86368357D02*
X212746710Y-86439785D01*
X212746710Y-86439785D02*
X212818138Y-86582642D01*
X212818138Y-86582642D02*
X212818138Y-86796928D01*
X212818138Y-86796928D02*
X212746710Y-86939785D01*
X212746710Y-86939785D02*
X212675281Y-87011214D01*
X212675281Y-87011214D02*
X212532424Y-87082642D01*
X212532424Y-87082642D02*
X211960995Y-87082642D01*
X213389567Y-87368357D02*
X214103853Y-87368357D01*
X213246710Y-87796928D02*
X213746710Y-86296928D01*
X213746710Y-86296928D02*
X214246710Y-87796928D01*
X215603852Y-87796928D02*
X215103852Y-87082642D01*
X214746709Y-87796928D02*
X214746709Y-86296928D01*
X214746709Y-86296928D02*
X215318138Y-86296928D01*
X215318138Y-86296928D02*
X215460995Y-86368357D01*
X215460995Y-86368357D02*
X215532424Y-86439785D01*
X215532424Y-86439785D02*
X215603852Y-86582642D01*
X215603852Y-86582642D02*
X215603852Y-86796928D01*
X215603852Y-86796928D02*
X215532424Y-86939785D01*
X215532424Y-86939785D02*
X215460995Y-87011214D01*
X215460995Y-87011214D02*
X215318138Y-87082642D01*
X215318138Y-87082642D02*
X214746709Y-87082642D01*
X216246709Y-87796928D02*
X216246709Y-86296928D01*
X216889567Y-87725500D02*
X217103853Y-87796928D01*
X217103853Y-87796928D02*
X217460995Y-87796928D01*
X217460995Y-87796928D02*
X217603853Y-87725500D01*
X217603853Y-87725500D02*
X217675281Y-87654071D01*
X217675281Y-87654071D02*
X217746710Y-87511214D01*
X217746710Y-87511214D02*
X217746710Y-87368357D01*
X217746710Y-87368357D02*
X217675281Y-87225500D01*
X217675281Y-87225500D02*
X217603853Y-87154071D01*
X217603853Y-87154071D02*
X217460995Y-87082642D01*
X217460995Y-87082642D02*
X217175281Y-87011214D01*
X217175281Y-87011214D02*
X217032424Y-86939785D01*
X217032424Y-86939785D02*
X216960995Y-86868357D01*
X216960995Y-86868357D02*
X216889567Y-86725500D01*
X216889567Y-86725500D02*
X216889567Y-86582642D01*
X216889567Y-86582642D02*
X216960995Y-86439785D01*
X216960995Y-86439785D02*
X217032424Y-86368357D01*
X217032424Y-86368357D02*
X217175281Y-86296928D01*
X217175281Y-86296928D02*
X217532424Y-86296928D01*
X217532424Y-86296928D02*
X217746710Y-86368357D01*
D12*
%TO.P,U6,1,1_1*%
%TO.N,Net-(IC1-CANL)*%
X226750000Y-95350000D03*
%TO.P,U6,2,2_2*%
%TO.N,Net-(IC1-CANH)*%
X231750000Y-95350000D03*
%TD*%
D13*
%TO.P,U1,1,IN_1*%
%TO.N,+12V*%
X258020000Y-87050000D03*
D14*
%TO.P,U1,2,GND_2*%
%TO.N,GNDREF*%
X258020000Y-84510000D03*
%TO.P,U1,3,OUT_3*%
%TO.N,+5V*%
X258020000Y-81970000D03*
%TD*%
D15*
%TO.P,U5,J1,Resistance_J1*%
%TO.N,Net-(U5-Resistance)*%
X228610000Y-89840000D03*
%TO.P,U5,J2,CAN_line_J2*%
%TO.N,Net-(IC1-CANL)*%
X226070000Y-89840000D03*
%TO.P,U5,NC,NC_NC*%
%TO.N,unconnected-(U5-PadNC)*%
X231150000Y-89840000D03*
%TD*%
D12*
%TO.P,U2,1,1_1*%
%TO.N,+12V*%
X247130000Y-95340000D03*
%TO.P,U2,2,2_2*%
%TO.N,GNDREF*%
X252130000Y-95340000D03*
%TD*%
D16*
%TO.P,R1,1*%
%TO.N,Net-(IC1-S)*%
X237960000Y-86110000D03*
%TO.P,R1,2*%
%TO.N,GNDREF*%
X227800000Y-86110000D03*
%TD*%
%TO.P,C1,1*%
%TO.N,+5V*%
X254250000Y-89500000D03*
%TO.P,C1,2*%
%TO.N,GNDREF*%
X246750000Y-89500000D03*
%TD*%
%TO.P,C3,1*%
%TO.N,+5V*%
X237160000Y-83030000D03*
%TO.P,C3,2*%
%TO.N,GNDREF*%
X229660000Y-83030000D03*
%TD*%
%TO.P,R2,1*%
%TO.N,Net-(IC1-CANH)*%
X240860000Y-89880000D03*
%TO.P,R2,2*%
%TO.N,Net-(U5-Resistance)*%
X240860000Y-79720000D03*
%TD*%
D17*
%TO.P,IC1,1,TXD_1*%
%TO.N,Net-(IC1-TXD)*%
X251711000Y-86405000D03*
%TO.P,IC1,2,GND_2*%
%TO.N,GNDREF*%
X251711000Y-85135000D03*
%TO.P,IC1,3,VCC_3*%
%TO.N,+5V*%
X251711000Y-83865000D03*
%TO.P,IC1,4,RXD_4*%
%TO.N,Net-(IC1-RXD)*%
X251711000Y-82595000D03*
%TO.P,IC1,5,NC_5*%
%TO.N,Net-(IC1-NC)*%
X246289000Y-82595000D03*
%TO.P,IC1,6,CANL_6*%
%TO.N,Net-(IC1-CANL)*%
X246289000Y-83865000D03*
%TO.P,IC1,7,CANH_7*%
%TO.N,Net-(IC1-CANH)*%
X246289000Y-85135000D03*
%TO.P,IC1,8,S_8*%
%TO.N,Net-(IC1-S)*%
X246289000Y-86405000D03*
%TD*%
D16*
%TO.P,C4,1*%
%TO.N,+5V*%
X237310000Y-79850000D03*
%TO.P,C4,2*%
%TO.N,GNDREF*%
X229810000Y-79850000D03*
%TD*%
D12*
%TO.P,U3,1,1_1*%
%TO.N,Net-(IC1-CANH)*%
X236930000Y-95340000D03*
%TO.P,U3,2,2_2*%
%TO.N,Net-(IC1-CANL)*%
X241930000Y-95340000D03*
%TD*%
%TO.P,U7,1,1_1*%
%TO.N,+12V*%
X257130000Y-95340000D03*
%TO.P,U7,2,2_2*%
%TO.N,GNDREF*%
X262130000Y-95340000D03*
%TD*%
D16*
%TO.P,C5,1*%
%TO.N,GNDREF*%
X253000000Y-80000000D03*
%TO.P,C5,2*%
%TO.N,Net-(IC1-NC)*%
X245500000Y-80000000D03*
%TD*%
D18*
%TO.P,U4,1,3V3_1*%
%TO.N,unconnected-(U4-3V3-Pad1)*%
X235500000Y-47500000D03*
%TO.P,U4,2,GND_2*%
%TO.N,GNDREF*%
X232960000Y-47500000D03*
%TO.P,U4,3,RST_3*%
%TO.N,unconnected-(U4-RST-Pad3)*%
X230420000Y-47500000D03*
%TO.P,U4,4,GND_4*%
%TO.N,unconnected-(U4-GND-Pad4)*%
X227880000Y-47500000D03*
%TO.P,U4,5,IO5_5*%
%TO.N,unconnected-(U4-IO5-Pad5)*%
X225340000Y-47500000D03*
%TO.P,U4,6,IO6_6*%
%TO.N,unconnected-(U4-IO6-Pad6)*%
X222800000Y-47500000D03*
%TO.P,U4,7,IO7_7*%
%TO.N,unconnected-(U4-IO7-Pad7)*%
X220260000Y-47500000D03*
%TO.P,U4,8,IO8_8*%
%TO.N,unconnected-(U4-IO8-Pad8)*%
X217720000Y-47500000D03*
%TO.P,U4,9,IO9_9*%
%TO.N,unconnected-(U4-IO9-Pad9)*%
X215180000Y-47500000D03*
%TO.P,U4,10,IO10_10*%
%TO.N,unconnected-(U4-IO10-Pad10)*%
X212640000Y-47500000D03*
%TO.P,U4,11,IO11_11*%
%TO.N,unconnected-(U4-IO11-Pad11)*%
X210100000Y-47500000D03*
D19*
%TO.P,U4,12,IO12_12*%
%TO.N,unconnected-(U4-IO12-Pad12)*%
X207560000Y-47500000D03*
D18*
%TO.P,U4,13,VDD_13*%
%TO.N,+5V*%
X235500000Y-76100000D03*
%TO.P,U4,14,GND_14*%
%TO.N,GNDREF*%
X232960000Y-76100000D03*
%TO.P,U4,15,RXD_15*%
%TO.N,Net-(IC1-RXD)*%
X230420000Y-76100000D03*
%TO.P,U4,16,TXD_16*%
%TO.N,Net-(IC1-TXD)*%
X227880000Y-76100000D03*
%TO.P,U4,17,IO1_17*%
%TO.N,unconnected-(U4-IO1-Pad17)*%
X225340000Y-76100000D03*
%TO.P,U4,18,IO2_18*%
%TO.N,unconnected-(U4-IO2-Pad18)*%
X222800000Y-76100000D03*
%TO.P,U4,19,IO42_19*%
%TO.N,unconnected-(U4-IO42-Pad19)*%
X220260000Y-76100000D03*
%TO.P,U4,20,IO41_20*%
%TO.N,unconnected-(U4-IO41-Pad20)*%
X217720000Y-76100000D03*
%TO.P,U4,21,IO40_21*%
%TO.N,unconnected-(U4-IO40-Pad21)*%
X215180000Y-76100000D03*
%TO.P,U4,22,IO48_22*%
%TO.N,unconnected-(U4-IO48-Pad22)*%
X212640000Y-76100000D03*
%TO.P,U4,23,IO47_23*%
%TO.N,unconnected-(U4-IO47-Pad23)*%
X210100000Y-76100000D03*
D19*
%TO.P,U4,24,IO21_24*%
%TO.N,unconnected-(U4-IO21-Pad24)*%
X207560000Y-76100000D03*
D18*
%TO.P,U4,25,GND_25*%
%TO.N,GNDREF*%
X249450800Y-46846200D03*
%TO.P,U4,26,DIO_26*%
%TO.N,unconnected-(U4-DIO-Pad26)*%
X251990800Y-46846200D03*
%TO.P,U4,27,CLK_27*%
%TO.N,unconnected-(U4-CLK-Pad27)*%
X254530800Y-46846200D03*
%TO.P,U4,28,3V3_28*%
%TO.N,Net-(IC1-NC)*%
X257070800Y-46846200D03*
%TD*%
D20*
%TO.N,Net-(IC1-CANL)*%
X244365000Y-83865000D03*
%TO.N,Net-(IC1-TXD)*%
X249090000Y-76000000D03*
X249000000Y-84000000D03*
%TO.N,Net-(IC1-RXD)*%
X253500000Y-82595000D03*
%TO.N,Net-(IC1-NC)*%
X243500000Y-79500000D03*
X243240000Y-74500000D03*
%TD*%
%TO.N,Net-(IC1-CANL)*%
D21*
X227453200Y-92266800D02*
X227500000Y-92220000D01*
D22*
X239715000Y-93405000D02*
X241650000Y-95340000D01*
X228685000Y-93405000D02*
X239715000Y-93405000D01*
X244365000Y-83865000D02*
X246289000Y-83865000D01*
X226070000Y-90790000D02*
X226070000Y-89840000D01*
X226150000Y-95340000D02*
X227453200Y-94036800D01*
X227453200Y-94036800D02*
X227453200Y-92266800D01*
X226070000Y-90790000D02*
X227500000Y-92220000D01*
X227500000Y-92220000D02*
X228685000Y-93405000D01*
%TO.N,Net-(IC1-CANH)*%
X240860000Y-89880000D02*
X240860000Y-86640000D01*
X236650000Y-95340000D02*
X231150000Y-95340000D01*
X242365000Y-85135000D02*
X246289000Y-85135000D01*
X240860000Y-86640000D02*
X242365000Y-85135000D01*
%TO.N,+12V*%
D23*
X257120000Y-95340000D02*
X254920000Y-93140000D01*
X249290000Y-93140000D02*
X249290000Y-93180000D01*
X262080000Y-90390000D02*
X262080000Y-88710000D01*
X261950000Y-90520000D02*
X262080000Y-90390000D01*
X257130000Y-95340000D02*
X262080000Y-90390000D01*
X260450000Y-87080000D02*
X257520000Y-87080000D01*
X262080000Y-88710000D02*
X260450000Y-87080000D01*
X257130000Y-95340000D02*
X257120000Y-95340000D01*
X261950000Y-90550000D02*
X261950000Y-90520000D01*
X249290000Y-93180000D02*
X247130000Y-95340000D01*
X254920000Y-93140000D02*
X249290000Y-93140000D01*
%TO.N,GNDREF*%
X253500000Y-86000000D02*
X252635000Y-85135000D01*
X247450000Y-87500000D02*
X253000000Y-87500000D01*
X246750000Y-88200000D02*
X247450000Y-87500000D01*
X246750000Y-89500000D02*
X246750000Y-88200000D01*
X252635000Y-85135000D02*
X251711000Y-85135000D01*
X253500000Y-87000000D02*
X253500000Y-86000000D01*
X253000000Y-87500000D02*
X253500000Y-87000000D01*
%TO.N,+5V*%
X255320000Y-83940000D02*
X255320000Y-84200000D01*
X255320000Y-88430000D02*
X254250000Y-89500000D01*
X237100000Y-79730000D02*
X237100000Y-82970000D01*
X240100000Y-77510000D02*
X240110000Y-77500000D01*
X254880000Y-77500000D02*
X258020000Y-80640000D01*
X238690000Y-76100000D02*
X235500000Y-76100000D01*
X257990000Y-82000000D02*
X257520000Y-82000000D01*
X255320000Y-84200000D02*
X255320000Y-88430000D01*
X257520000Y-82000000D02*
X257260000Y-82000000D01*
X240100000Y-77510000D02*
X238690000Y-76100000D01*
X239650000Y-77510000D02*
X237310000Y-79850000D01*
X258020000Y-81970000D02*
X257990000Y-82000000D01*
X258020000Y-80640000D02*
X258020000Y-81970000D01*
X240110000Y-77500000D02*
X254880000Y-77500000D01*
X255320000Y-84200000D02*
X254985000Y-83865000D01*
D21*
X257385000Y-81865000D02*
X257520000Y-82000000D01*
D23*
X237100000Y-82970000D02*
X237160000Y-83030000D01*
X240100000Y-77510000D02*
X239650000Y-77510000D01*
X257260000Y-82000000D02*
X255320000Y-83940000D01*
X254985000Y-83865000D02*
X251711000Y-83865000D01*
%TO.N,Net-(IC1-S)*%
D21*
X238100000Y-91000000D02*
X238110000Y-90990000D01*
D22*
X243510000Y-91580000D02*
X243510000Y-87490000D01*
X243500000Y-91580000D02*
X243510000Y-91580000D01*
X237960000Y-91440000D02*
X238770000Y-92250000D01*
X243510000Y-87490000D02*
X244595000Y-86405000D01*
X238770000Y-92250000D02*
X242830000Y-92250000D01*
X242830000Y-92250000D02*
X243500000Y-91580000D01*
X237960000Y-86110000D02*
X237960000Y-91440000D01*
X244595000Y-86405000D02*
X246289000Y-86405000D01*
%TO.N,Net-(IC1-TXD)*%
X240670000Y-75190000D02*
X240670000Y-73400000D01*
X249905000Y-86405000D02*
X251711000Y-86405000D01*
X240670000Y-73400000D02*
X240390000Y-73120000D01*
X249000000Y-85500000D02*
X249905000Y-86405000D01*
X227880000Y-74040000D02*
X227880000Y-76100000D01*
X228800000Y-73120000D02*
X227880000Y-74040000D01*
X240390000Y-73120000D02*
X228800000Y-73120000D01*
X241480000Y-76000000D02*
X240670000Y-75190000D01*
X249090000Y-76000000D02*
X241480000Y-76000000D01*
X249000000Y-84000000D02*
X249000000Y-85500000D01*
%TO.N,Net-(IC1-RXD)*%
X251711000Y-82595000D02*
X253500000Y-82595000D01*
%TO.N,Net-(IC1-NC)*%
D21*
X245500000Y-80000000D02*
X245500000Y-80500000D01*
D22*
X244595000Y-82595000D02*
X246289000Y-82595000D01*
X244500000Y-80000000D02*
X244000000Y-80000000D01*
X245500000Y-80000000D02*
X244500000Y-80000000D01*
X243240000Y-53370000D02*
X246570000Y-50040000D01*
X244000000Y-80000000D02*
X244000000Y-80750000D01*
X244000000Y-82000000D02*
X244595000Y-82595000D01*
X243240000Y-74500000D02*
X243240000Y-53370000D01*
X244000000Y-80000000D02*
X243500000Y-79500000D01*
X255670000Y-50040000D02*
X257070800Y-48639200D01*
X246570000Y-50040000D02*
X255670000Y-50040000D01*
X244000000Y-80750000D02*
X244000000Y-82000000D01*
X257070800Y-48639200D02*
X257070800Y-46846200D01*
%TD*%
D24*
X201450800Y-38346199D02*
X273694251Y-38346199D01*
X273694251Y-99000000D01*
X201450800Y-99000000D01*
X201450800Y-38346199D01*
M02*
