M48
; DRILL file KiCad 10.0.3 date 2026-06-10T15:10:09
; FORMAT={-:-/ absolute / metric / decimal}
; #@! TF.CreationDate,2026-06-10T15:10:09+02:00
; #@! TF.GenerationSoftware,Kicad,Pcbnew,10.0.3
; #@! TF.FileFunction,Plated,1,2,PTH
FMAT,2
METRIC
; #@! TA.AperFunction,Plated,PTH,ViaDrill
T1C0.800
; #@! TA.AperFunction,Plated,PTH,ComponentDrill
T2C0.800
; #@! TA.AperFunction,Plated,PTH,ComponentDrill
T3C0.889
; #@! TA.AperFunction,Plated,PTH,ComponentDrill
T4C1.000
; #@! TA.AperFunction,Plated,PTH,ComponentDrill
T5C1.110
; #@! TA.AperFunction,Plated,PTH,ComponentDrill
T6C1.300
%
G90
G05
T1
X243.24Y-70.0
X243.5Y-79.5
X244.365Y-83.865
X249.0Y-71.5
X249.09Y-76.5
X253.5Y-82.595
T2
X227.8Y-86.11
X229.66Y-83.03
X229.81Y-79.85
X237.16Y-83.03
X237.31Y-79.85
X237.96Y-86.11
X240.86Y-79.72
X240.86Y-89.88
X245.5Y-80.0
X246.75Y-89.5
X253.0Y-80.0
X254.25Y-89.5
T3
X207.56Y-47.5
X207.56Y-76.1
X210.1Y-47.5
X210.1Y-76.1
X212.64Y-47.5
X212.64Y-76.1
X215.18Y-47.5
X215.18Y-76.1
X217.72Y-47.5
X217.72Y-76.1
X220.26Y-47.5
X220.26Y-76.1
X222.8Y-47.5
X222.8Y-76.1
X225.34Y-47.5
X225.34Y-76.1
X227.88Y-47.5
X227.88Y-76.1
X230.42Y-47.5
X230.42Y-76.1
X232.96Y-47.5
X232.96Y-76.1
X235.5Y-47.5
X235.5Y-76.1
X249.451Y-46.846
X251.991Y-46.846
X254.531Y-46.846
X257.071Y-46.846
T4
X258.02Y-81.97
X258.02Y-84.51
X258.02Y-87.05
T5
X226.07Y-89.84
X228.61Y-89.84
X231.15Y-89.84
T6
X226.75Y-95.35
X231.75Y-95.35
X236.93Y-95.34
X241.93Y-95.34
X247.13Y-95.34
X252.13Y-95.34
X257.13Y-95.34
X262.13Y-95.34
M30
