M48
; DRILL file KiCad 10.0.3 date 2026-06-15T14:38:51
; FORMAT={-:-/ absolute / metric / decimal}
; #@! TF.CreationDate,2026-06-15T14:38:51+02:00
; #@! TF.GenerationSoftware,Kicad,Pcbnew,10.0.3
; #@! TF.FileFunction,Plated,1,2,PTH
FMAT,2
METRIC
; #@! TA.AperFunction,Plated,PTH,ComponentDrill
T1C0.800
; #@! TA.AperFunction,Plated,PTH,ComponentDrill
T2C0.889
; #@! TA.AperFunction,Plated,PTH,ComponentDrill
T3C0.900
; #@! TA.AperFunction,Plated,PTH,ComponentDrill
T4C1.000
%
G90
G05
T1
X96.0Y-96.5
X106.16Y-96.5
X113.0Y-60.25
X115.5Y-60.25
X119.75Y-86.44
X119.75Y-94.06
X122.92Y-100.0
X130.51Y-61.5
X133.01Y-61.5
X133.08Y-100.0
T2
X123.88Y-68.948
X123.88Y-71.489
X123.88Y-74.028
X123.88Y-76.569
X123.88Y-79.108
X123.88Y-81.648
X123.88Y-84.188
X124.835Y-89.38
X124.835Y-91.92
X124.835Y-94.46
X124.835Y-97.0
X137.165Y-89.5
X137.165Y-92.04
X137.165Y-94.58
X137.165Y-97.12
X139.12Y-68.948
X139.12Y-71.489
X139.12Y-74.028
X139.12Y-76.569
X139.12Y-79.108
X139.12Y-81.648
X139.12Y-84.188
T3
X133.0Y-103.25
X133.0Y-105.79
T4
X105.7Y-101.48
X107.0Y-100.21
X107.0Y-102.75
M30
